<svg width="500" height="750" fill="none" xmlns="http://www.w3.org/2000/svg"><path d="M587.281 54.549c-77.346-38.83-227.089-23.105-285.501-13.96-80.894 7.28-210.399 128.847-234.568 177.384-24.17 48.537-54.42 140.324-62.77 189.586-12.2 71.962 0 130.176 45.71 184.691 66.787 79.649-76.292 195.07 49.249 144.381 91.672-37.015 384.682-4.457 465.301-93.061 70.903-77.925 135.755-278.276 93.06-367.925-32.986-69.263 26.202-172.559-70.481-221.096z" fill="#79BBC0"/><path d="M667.281 25.834c-77.346-38.83-227.089-23.105-285.501-13.96-80.894 7.28-210.399 128.847-234.568 177.384-24.17 48.537-54.42 140.324-62.77 189.587-12.2 71.961 0 130.175 45.711 184.691 66.786 79.648-76.293 195.069 49.248 144.38 91.672-37.015 384.682-4.457 465.301-93.061 70.903-77.925 135.755-278.276 93.06-367.925-32.986-69.263 26.202-172.559-70.481-221.096z" stroke="#002"/><g clip-path="url(#clip0)" fill="#002"><path d="M434.198 512.237a2.508 2.508 0 00-.205.298c.059-.029.117-.052.181-.075.006-.074.018-.149.024-.223zm-4.165 21.5c-.246 0-.509-.155-.532-.464-.006-.092-.012-.178-.012-.264-.041.144-.081.287-.117.436a2.59 2.59 0 00-.081.636c.368.528.695.573.987.149a.9.9 0 00.099-.114 1.135 1.135 0 01-.344-.379zm-9.843-8.81c.169-.401.309-.82.409-1.244.023-.109.093-.309.122-.521a6.561 6.561 0 00-.461.762 2.015 2.015 0 00-.07 1.003zm-.556 1.972c-.63-.521-.8-1.289-.695-2.092-.07.212-.128.43-.175.654-.152.739-.386 2.361 1.11 1.742.146-.063.298-.166.444-.292-.222.16-.467.166-.684-.012zm2.413-4.425a4.793 4.793 0 01-.298 2.522c.199-.401.357-.831.456-1.267.059-.263.28-.848.134-1.066l-.292-.189zm9.067 9.469c-.14.298-.462 1.026-.134 1.141.087-.172.408-.785.607-1.324a3.33 3.33 0 00-.076-.436 3.123 3.123 0 00-.397.619zm1.29-16.216c.006 0 .006 0 0 0 0-.223.012-.453.029-.67-.105.344-.146.624-.029.67zm1.677.327c.374-.217.625-.928.736-1.307.064-.235.21-.785.105-1.146a7.298 7.298 0 01-.619 1.462c-.012.023-.023.046-.035.063.017.218-.117.384-.292.464-.129.195-.281.39-.444.568.082.08.251.068.549-.104zm-2.705-17.895c.409-.482.608-1.479.736-2.087.012-.063.041-.166.07-.286-.035-.006-.064-.006-.099-.006-.304.017-1.309 1.467-.952 1.559.613.155.35 1.083-.263.928a1.088 1.088 0 01-.257-.097 3.434 3.434 0 00-.029.424c.222.046.49-.069.794-.435zm-27.052 41.334c-.006.005-.006.011-.012.023-.012.045-.029.086-.041.131.152-.223.281-.458.386-.705-.129.172-.24.356-.333.551zm-.21 1.793a.372.372 0 00.105.149c.525-.344 1.069-1.175 1.337-1.627.275-.654.52-1.399.38-1.697a5.496 5.496 0 01-1.822 3.175zm.286 17.363c-.251.298-.497.607-.713.934.216.178.292.51.053.711.193.149.414.046.613-.144.193-.378.339-.699.38-.802.21-.476.391-.974.543-1.473-.286-.017-.701.567-.876.774zm-1.648-37.62c.211-.475.392-.974.544-1.473-.287-.011-.707.574-.877.78-.251.298-.496.607-.712.934.216.178.292.51.052.711.193.149.415.046.614-.143.193-.384.339-.705.379-.809zm15.475-12.409c-.035-.006-.064-.006-.099-.006-.304.017-1.309 1.468-.953 1.559.614.155.351 1.084-.263.929a1.151 1.151 0 01-.257-.097 3.625 3.625 0 00-.029.424c.216.04.485-.075.795-.442.409-.481.607-1.479.736-2.086.011-.052.041-.155.07-.281zm.713 39.189a2.557 2.557 0 01-.228-.607c.018.229.076.452.193.659l.035-.052zm1.489-.951c.012-.029.018-.058.029-.08.164-.419.298-.855.386-1.296.011-.063.058-.235.099-.436-.099-.298-.304-.481-.607-.326.222.705.251 1.438.093 2.138zm-1.297 21.902c0-.224.012-.453.03-.671-.111.344-.152.625-.03.671zm1.788-3.491a2.508 2.508 0 00-.205.298c.059-.029.117-.051.181-.074.012-.075.018-.149.024-.224zm.099 2.832c-.012.023-.023.046-.035.063.018.218-.117.384-.292.464-.134.195-.28.39-.444.568.099.074.263.068.561-.104.374-.217.625-.928.736-1.306.064-.235.21-.786.105-1.147a8.087 8.087 0 01-.631 1.462zm-.97-19.524a.872.872 0 01-.403-.08 3.695 3.695 0 01-.286.321c.222.086.467.034.689-.241zm33.321 6.392c-.631-.522-.801-1.29-.695-2.093-.071.213-.129.43-.176.654-.152.739-.385 2.361 1.11 1.742.146-.063.298-.166.444-.292-.222.166-.473.166-.683-.011zm11.479 5.049c-.14.299-.461 1.027-.134 1.141.087-.172.409-.785.607-1.324a3.172 3.172 0 00-.076-.436c-.157.19-.292.39-.397.619zm-8.021-49.765c-.245 0-.508-.154-.531-.464-.006-.092-.012-.178-.012-.264-.041.144-.082.287-.117.436a2.59 2.59 0 00-.081.636c.368.528.695.573.987.149a.9.9 0 00.099-.114 1.21 1.21 0 01-.345-.379zm-4.188 65.678l.035-.052a2.548 2.548 0 01-.228-.608c.018.23.076.453.193.66zm.455.957c.222.086.467.034.689-.241a.874.874 0 01-.403-.08 4.946 4.946 0 01-.286.321zm-1.133-40.193c-.035-.006-.064-.006-.099-.006-.304.018-1.309 1.468-.952 1.56.613.154.35 1.083-.263.928a1.133 1.133 0 01-.257-.097 3.42 3.42 0 00-.029.424c.216.04.484-.075.794-.441.409-.482.608-1.479.736-2.087.012-.052.041-.16.07-.281zm14.178 7.108s.006 0 0 0c0-.224.012-.453.029-.671-.105.344-.152.625-.029.671zm-8.231-35.344c-.14.298-.461 1.026-.134 1.141.087-.172.409-.785.607-1.324a3.33 3.33 0 00-.076-.436 2.77 2.77 0 00-.397.619zm-3.984 44.544c.169-.401.31-.82.409-1.244.023-.109.087-.31.123-.522a7.648 7.648 0 00-.462.763 2.02 2.02 0 00-.07 1.003zm.14 19.792c.222.7.257 1.439.1 2.138.011-.028.017-.057.029-.08.164-.418.298-.854.385-1.295.012-.063.059-.235.1-.436-.105-.298-.31-.481-.614-.327zm1.718-22.245a4.814 4.814 0 01-.298 2.522c.198-.407.356-.831.455-1.267.065-.264.281-.848.135-1.066l-.292-.189zm-6.017-29.801a3.506 3.506 0 00-.076-.436c-.152.189-.292.39-.398.619-.14.298-.461 1.026-.134 1.141.082-.172.403-.786.608-1.324zm-12.735 26.883c-.286-.012-.707.573-.876.779a10.28 10.28 0 00-.713.934c.216.178.292.511.053.711.192.149.414.046.613-.143.193-.378.339-.699.38-.803.21-.487.391-.98.543-1.478zm26.737 14.181c-.245 0-.508-.155-.532-.464a4.05 4.05 0 01-.011-.264 9.243 9.243 0 00-.117.436 2.544 2.544 0 00-.082.636c.368.527.695.573.987.149.035-.035.07-.075.1-.115a1.13 1.13 0 01-.345-.378zm4.259-18.675c-.012.023-.024.046-.035.063.017.218-.117.384-.293.464-.134.195-.28.39-.444.568.1.074.263.069.561-.103.374-.218.631-.929.736-1.307.065-.235.211-.786.105-1.147-.157.51-.362.998-.63 1.462zm-.544-16.864c.409-.481.608-1.479.736-2.086.012-.063.041-.166.07-.287-.035-.005-.064-.005-.099-.005-.304.017-1.309 1.467-.952 1.559.613.154.35 1.083-.263.928a1.133 1.133 0 01-.257-.097 3.42 3.42 0 00-.029.424c.216.046.485-.069.794-.436zM448.06 496.88a2.462 2.462 0 00-.204.298c.058-.028.116-.051.181-.074.011-.075.017-.149.023-.224zm-10.001 70.682c-.006.006-.006.011-.012.023-.011.046-.029.086-.041.132.152-.224.281-.459.386-.705a2.996 2.996 0 00-.333.55zm-.216 1.8c.03.069.065.115.106.149.525-.344 1.069-1.175 1.337-1.628.275-.653.52-1.398.38-1.696a5.532 5.532 0 01-1.823 3.175zm30.09-29.05a2.386 2.386 0 00-.204.298c.058-.029.116-.052.181-.074.006-.075.017-.149.023-.224zm-19.721-17.586c-.245 0-.508-.155-.531-.464-.006-.092-.012-.178-.012-.264a9.243 9.243 0 00-.117.436 2.59 2.59 0 00-.082.636c.368.527.696.573.988.149a.909.909 0 00.099-.115 1.135 1.135 0 01-.345-.378zm-.269-22.028c.374-.217.625-.928.736-1.306.065-.235.211-.786.105-1.147a7.216 7.216 0 01-.654 1.525c.018.218-.117.384-.292.464-.128.195-.28.39-.444.568.088.08.257.068.549-.104zm-1.67-.327c0-.223.011-.453.029-.67-.111.344-.152.624-.029.67z"/><path d="M440.53 564.805a3.74 3.74 0 00-.765.149h-.017c-.006-.121-.018-.235-.03-.356-.046-.418-.502-.636-.841-.338-.029.029-.064.052-.093.08a.508.508 0 00-.433.109c-1.057.871-1.822 2.047-2.12 3.371-.187.831-.45 2.487.613 2.894.287.109.584.086.877-.017.642.195 1.244-.361 1.624-.871.338-.464.981-1.519 1.291-2.539a6.987 6.987 0 00.391-2.001c.006-.241-.24-.504-.497-.481zm-2.482 2.78c.006-.006.006-.012.011-.023.094-.195.205-.379.333-.551a4.087 4.087 0 01-.385.705.941.941 0 01.041-.131zm1.238.292c-.269.459-.812 1.284-1.338 1.628a.34.34 0 01-.105-.149 5.454 5.454 0 001.817-3.181c.146.303-.099 1.049-.374 1.702zm-1.052-19.792c.03-.258.03-.545-.035-.803.111-.447.146-.9-.035-1.255-.315-.613-1.039-.642-1.612-.384-.584.263-1.034.814-1.367 1.387-.514.51-1.01 1.209-1.086 1.892-.777.567-.824 1.559-.357 2.246-.041.579.047 1.221.526 1.508.707.43 1.396-.126 1.974-.963 1.245-.596 1.846-2.344 1.992-3.628zm-2.739 1.966c.239-.195.163-.533-.053-.711.216-.327.462-.636.713-.934.175-.207.59-.791.876-.78-.152.499-.327.997-.543 1.473-.047.098-.187.424-.38.803-.204.195-.42.298-.613.149zm-29.086 6.219c-.315-.613-1.04-.642-1.612-.384-.584.264-1.034.814-1.367 1.387-.514.51-1.011 1.21-1.087 1.892-.777.567-.823 1.559-.356 2.247-.041.579.047 1.221.526 1.507.706.43 1.396-.126 1.974-.963 1.244-.607 1.846-2.356 1.992-3.634a2.33 2.33 0 00-.035-.802c.111-.447.146-.895-.035-1.25zm-1.677 3.072c-.046.104-.186.425-.379.803-.199.189-.421.292-.614.143.24-.195.164-.533-.052-.711.216-.326.461-.636.712-.934.176-.206.591-.791.877-.779a11.656 11.656 0 01-.544 1.478zm50.034-9.79c-.146-.235-.508-.378-.794-.149a6.869 6.869 0 00-2.226 3.135c-.309.906-.607 2.282-.082 3.17 1.402 2.39 4.201-1.123 4.785-2.402.391-.859.858-2.183.502-3.118-.345-.917-1.396-1.043-2.185-.636zm-2.266 3.972c.046-.223.105-.441.175-.653-.105.802.064 1.57.695 2.092a.511.511 0 00.684.006c-.146.12-.292.229-.444.292-1.502.631-1.262-.997-1.11-1.737zm1.834-1.771c-.099.43-.239.843-.409 1.244a2.021 2.021 0 01.07-1.003c.14-.275.304-.539.462-.762-.035.212-.1.418-.123.521zm1.606.046a5.997 5.997 0 01-.455 1.267 4.8 4.8 0 00.298-2.522l.298.183c.14.224-.076.808-.141 1.072zm-2.623-14.966a4.517 4.517 0 00-.017-.797 1.299 1.299 0 00-.228-.619c-.041-.315-.152-.602-.374-.808-.368-.344-.783-.321-1.168-.143.058-.384-.468-.768-.842-.425-1.431 1.319-2.704 3.956-1.507 5.79.065.504.187.997.38 1.479.105.263.438.481.724.286.176-.12.345-.252.514-.39.252-.057.503-.2.713-.424.59-.619 1.916-2.648 1.805-3.949zm-2.956 2.677c.006-.138.012-.281.03-.424.075.04.163.068.257.097.613.155.876-.774.262-.929-.356-.091.649-1.541.953-1.559.035 0 .07 0 .099.006-.029.126-.058.229-.07.287-.129.602-.327 1.605-.736 2.086-.31.356-.579.476-.795.436zm15.521-10.994c.105.263.438.481.725.286a8.36 8.36 0 00.514-.389 1.43 1.43 0 00.712-.425c.596-.619 1.922-2.642 1.811-3.949a4.517 4.517 0 00-.017-.797 1.289 1.289 0 00-.228-.619c-.041-.315-.152-.602-.374-.808-.368-.344-.783-.321-1.168-.143.058-.384-.468-.768-.841-.425-1.432 1.319-2.705 3.956-1.508 5.79.059.504.181 1.003.374 1.479zm.836-2.224c.076.04.163.068.257.097.613.155.876-.774.263-.928-.357-.092.648-1.542.952-1.56.035 0 .07 0 .099.006-.029.126-.058.229-.07.287-.129.602-.327 1.605-.736 2.086-.31.361-.578.482-.795.442 0-.144.012-.287.03-.43zm-11.42 44.961c-.596-.435-1.315-.074-1.946.482-.303-.034-.636.235-.56.567a8.941 8.941 0 00-.766 1.009 3.436 3.436 0 00-.549 1.599c-.07.396-.082.797-.006 1.193.164.917.882 2.017 1.969 1.891 1.285-.154 1.706-1.817 1.986-2.82.175-.625.467-1.576.333-2.327.059-.665-.029-1.278-.461-1.594zm-2.658 4.678a1.558 1.558 0 01-.193-.659c.052.217.128.424.228.607a1.579 1.579 0 00-.035.052zm.455.957c.1-.103.193-.212.287-.321.14.063.28.092.403.08-.228.275-.474.333-.69.241zm1.484-3.33a8.275 8.275 0 01-.385 1.295c-.012.023-.018.052-.03.08a4.033 4.033 0 00-.099-2.138c.304-.154.508.029.608.327-.041.201-.082.378-.094.436zm10.971-15.557a.742.742 0 00-.088-.046c.175-.132.356-.252.543-.361.538-.321.047-1.158-.496-.831-1.793 1.077-3.312 3.021-3.452 5.141-.053.774.28 1.646 1.168 1.749.859.097 1.583-.665 1.998-1.342.485-.235.8-.836.934-1.352.076-.287.135-.585.158-.889.093-.298.146-.59.152-.865 0-.533-.327-1.21-.917-1.204zm-1.537 4.305c-.292.424-.619.372-.987-.149a2.4 2.4 0 01.082-.637c.035-.149.07-.292.117-.435 0 .086.006.177.012.263.023.31.286.465.531.465.082.149.199.281.345.378-.029.04-.065.075-.1.115zm.701-1.147c-.327-.114-.005-.842.135-1.14.111-.23.245-.43.397-.619.035.137.058.286.076.435-.205.539-.526 1.152-.608 1.324zm4.265-20.595c-.03-.017-.059-.028-.088-.04a7.54 7.54 0 00.058-1.267.5.5 0 00-.741-.418c-.041.017-.076.04-.111.063-.176-.143-.427-.178-.62.04-.689.768-3.954 5.371-1.746 5.904.239.057.467.035.677-.034.059.086.129.166.211.24.543.465 1.279.241 1.775-.16.958-.768 2.092-3.56.585-4.328zm-2.834 3.239s-.005 0 0 0c-.128-.046-.081-.327.024-.671a6.372 6.372 0 00-.024.671zm1.788-3.491c-.006.075-.018.149-.029.224-.059.023-.123.046-.181.074.064-.103.134-.2.21-.298zm.613 2.511c-.105.378-.356 1.089-.736 1.307-.292.172-.461.177-.561.103.164-.178.316-.373.444-.568a.47.47 0 00.293-.464 6.571 6.571 0 00.654-1.525c.117.361-.029.917-.094 1.147zm-21.8-41.196c.543.464 1.279.24 1.775-.161.958-.774 2.092-3.565.579-4.333a.571.571 0 00-.088-.04c.053-.419.076-.843.059-1.267a.501.501 0 00-.742-.419.744.744 0 00-.111.063c-.176-.143-.427-.177-.62.041-.689.768-3.954 5.37-1.746 5.904.239.057.467.034.677-.035.065.098.135.178.217.247zm1.314-4.747c-.006.075-.018.15-.029.224-.059.023-.123.046-.181.075.07-.104.14-.201.21-.299zm-.228 3.359a.47.47 0 00.292-.464c.012-.023.024-.046.035-.063.269-.464.473-.957.619-1.462.111.356-.04.912-.105 1.147-.105.378-.356 1.089-.736 1.307-.292.172-.461.177-.561.103.176-.178.322-.378.456-.568zm-1.56.132c-.128-.046-.081-.326.024-.67a6.462 6.462 0 00-.024.67zm-24.306 65.156c-.03-.017-.059-.028-.088-.04a7.54 7.54 0 00.058-1.267.5.5 0 00-.741-.418c-.041.017-.076.04-.111.063-.176-.143-.427-.178-.62.04-.689.768-3.954 5.371-1.746 5.904.239.057.467.034.677-.034.059.086.129.166.211.24.543.465 1.279.241 1.775-.16.964-.768 2.092-3.565.585-4.328zm-2.834 3.233c-.128-.046-.081-.327.024-.671a6.492 6.492 0 00-.024.671zm1.788-3.491c-.006.075-.018.149-.029.224-.059.023-.123.046-.181.074.07-.103.14-.2.21-.298zm.613 2.517c-.105.378-.356 1.089-.736 1.307-.292.172-.461.177-.56.103.163-.178.315-.373.444-.568a.471.471 0 00.292-.464 6.571 6.571 0 00.654-1.525c.123.356-.029.912-.094 1.147zm-14.738-31.051c-.263.023-.52.075-.765.149h-.018a7.073 7.073 0 00-.029-.355c-.047-.419-.502-.636-.841-.338-.029.028-.064.051-.094.08a.499.499 0 00-.432.109c-1.057.871-1.822 2.046-2.12 3.37-.187.826-.45 2.482.613 2.895.286.109.584.086.876-.017.643.195 1.245-.361 1.624-.871.339-.465.982-1.519 1.291-2.54a6.948 6.948 0 00.392-2c.005-.241-.24-.505-.497-.482zm-2.483 2.78c.006-.005.006-.011.012-.023.094-.195.205-.378.333-.55a4.156 4.156 0 01-.385.705c.011-.046.029-.092.04-.132zm1.245.287c-.269.458-.812 1.284-1.338 1.628a.34.34 0 01-.105-.149 5.464 5.464 0 001.817-3.182c.14.304-.1 1.055-.374 1.703zm-3.044-16.153c1.245-.608 1.846-2.356 1.992-3.634.03-.258.03-.545-.035-.803.111-.447.146-.9-.035-1.255-.315-.613-1.04-.642-1.612-.384-.584.264-1.034.814-1.367 1.387-.514.51-1.011 1.21-1.086 1.892-.777.567-.824 1.559-.357 2.247-.041.579.047 1.221.526 1.507.701.436 1.39-.12 1.974-.957zm-.753-1.674c.239-.195.163-.533-.053-.711.216-.326.462-.636.713-.934.175-.206.59-.791.876-.779-.152.498-.333.997-.543 1.473-.047.097-.187.424-.38.802-.198.201-.42.298-.613.149zm19.271-.492c-.146-.235-.508-.379-.794-.149a6.849 6.849 0 00-2.226 3.135c-.31.906-.608 2.281-.082 3.17 1.402 2.39 4.2-1.124 4.784-2.402.392-.86.859-2.184.503-3.118-.345-.917-1.396-1.049-2.185-.636zm-2.267 3.972c.047-.224.106-.441.176-.653-.105.802.064 1.57.695 2.092a.511.511 0 00.683.005c-.146.121-.292.23-.444.293-1.495.625-1.261-.998-1.11-1.737zm1.835-1.771c-.1.43-.24.842-.409 1.244a2.02 2.02 0 01.07-1.003c.14-.276.304-.539.461-.763-.035.207-.099.413-.122.522zm1.612.046a5.937 5.937 0 01-.456 1.266c.322-.785.427-1.65.298-2.522l.298.184c.135.223-.082.808-.14 1.072zm-2.629-14.973a4.519 4.519 0 00-.017-.797 1.289 1.289 0 00-.228-.619c-.041-.315-.152-.601-.374-.808-.368-.344-.783-.321-1.168-.143.058-.384-.468-.768-.841-.424-1.432 1.318-2.705 3.955-1.508 5.789.065.505.187.997.38 1.479.105.264.438.481.724.287.176-.121.345-.253.515-.39.251-.058.502-.201.712-.424.59-.619 1.916-2.643 1.805-3.95zm-2.956 2.677c.006-.137.012-.281.03-.424.076.04.163.069.257.097.613.155.876-.773.263-.928-.357-.092.648-1.542.952-1.559.035 0 .07 0 .099.005-.029.127-.058.23-.07.287-.129.602-.327 1.605-.736 2.086-.31.362-.578.476-.795.436zm13.156-11.034c.105.264.438.481.724.287.175-.121.345-.253.514-.39.251-.058.503-.201.713-.424.596-.619 1.922-2.643 1.811-3.95a4.506 4.506 0 00-.018-.796 1.289 1.289 0 00-.228-.62c-.04-.315-.151-.601-.373-.808-.368-.344-.783-.321-1.169-.143.059-.384-.467-.768-.841-.424-1.431 1.318-2.705 3.955-1.507 5.789.058.505.181 1.003.374 1.479zm.835-2.224c.076.04.164.069.257.097.614.155.876-.773.263-.928-.356-.092.649-1.542.952-1.559a.6.6 0 01.1.005c-.03.127-.059.23-.071.287-.128.602-.327 1.605-.736 2.086-.309.362-.578.482-.794.442 0-.143.012-.287.029-.43zm-10.918 51.743c1.285-.155 1.706-1.817 1.986-2.82.176-.625.468-1.576.333-2.327.065-.659-.017-1.273-.45-1.594-.595-.435-1.314-.074-1.945.482-.304-.035-.637.235-.561.567a8.913 8.913 0 00-.765 1.009 3.436 3.436 0 00-.549 1.599c-.07.396-.082.797-.006 1.193.158.917.876 2.017 1.957 1.891zm1.244-4.866c-.04.2-.087.372-.099.435a8.286 8.286 0 01-.385 1.296c-.012.023-.018.051-.03.08a4.032 4.032 0 00-.099-2.138c.304-.161.514.023.613.327zm-1.302 3.445c.14.063.28.091.403.08-.222.275-.468.327-.689.241.105-.104.198-.213.286-.321zm-.701-.688l-.035.051a1.554 1.554 0 01-.193-.659c.053.218.128.419.228.608zm12.875-17.879a.742.742 0 00-.088-.046c.176-.132.357-.252.544-.361.537-.321.046-1.158-.497-.831-1.793 1.078-3.312 3.021-3.452 5.142-.053.773.28 1.645 1.168 1.748.859.097 1.583-.665 1.998-1.341.485-.235.8-.837.934-1.353.076-.287.135-.585.158-.889.094-.298.146-.59.152-.865.006-.533-.327-1.215-.917-1.204zm-1.536 4.299c-.293.424-.62.373-.988-.149 0-.212.024-.424.082-.636.035-.149.07-.292.117-.436 0 .086.006.178.012.264.023.309.286.464.531.464.082.149.199.281.345.378a.844.844 0 01-.099.115zm.701-1.146c-.328-.115-.006-.843.134-1.141.111-.229.245-.43.397-.619.035.138.059.287.076.436-.199.544-.526 1.152-.607 1.324zm18.686-9.853c.485-.235.801-.837.935-1.353.076-.287.134-.585.158-.888.093-.299.146-.591.152-.866.005-.539-.328-1.221-.918-1.209a.523.523 0 00-.087-.046c.175-.132.356-.253.543-.361.538-.321.047-1.158-.496-.832-1.794 1.078-3.313 3.021-3.453 5.142-.052.774.281 1.645 1.169 1.748.864.103 1.583-.665 1.997-1.335zm-1.209-.012c-.292.424-.619.373-.987-.149 0-.212.023-.424.082-.636.035-.149.07-.292.117-.436 0 .086.005.178.011.264.024.31.286.464.532.464.082.149.198.281.344.379-.029.04-.064.074-.099.114zm.835-2.287c.111-.229.246-.43.398-.619.035.138.058.287.076.436-.205.539-.526 1.152-.608 1.324-.327-.115-.012-.843.134-1.141zm9.318-14.491c-.029-.017-.058-.034-.088-.045.176-.132.357-.253.544-.362.537-.321.046-1.157-.497-.831-1.793 1.078-3.312 3.021-3.452 5.142-.053.774.28 1.645 1.168 1.748.859.098 1.583-.665 1.998-1.341.485-.235.8-.837.935-1.353a4.94 4.94 0 00.157-.888c.094-.298.146-.591.152-.866.006-.533-.327-1.209-.917-1.204zm-1.536 4.305c-.292.424-.619.373-.988-.149 0-.212.024-.424.082-.636a3.59 3.59 0 01.117-.436c0 .086.006.178.012.264.023.309.286.464.531.464.082.149.199.281.345.378-.029.041-.064.075-.099.115zm.701-1.146c-.327-.115-.006-.843.134-1.141.111-.229.245-.43.397-.619.035.138.059.287.076.436-.198.538-.526 1.152-.607 1.324zm-23.116 7.223c.959-.774 2.092-3.566.579-4.334a.571.571 0 00-.088-.04c.053-.418.076-.843.059-1.267a.501.501 0 00-.742-.418.665.665 0 00-.111.063c-.176-.143-.427-.178-.619.04-.69.768-3.955 5.371-1.747 5.904.239.057.467.034.678-.034.058.086.128.166.21.24.549.47 1.285.253 1.781-.154zm-2.249-1.095c-.128-.046-.081-.327.024-.671a6.481 6.481 0 00-.024.671zm1.788-3.491c-.006.074-.018.149-.029.223-.059.023-.123.046-.181.075.064-.103.134-.201.21-.298zm-.234 3.359a.47.47 0 00.292-.464c.012-.023.024-.046.035-.063.269-.465.474-.958.62-1.462.111.355-.041.911-.105 1.146-.106.379-.357 1.089-.737 1.307-.292.172-.461.178-.56.103.175-.177.327-.372.455-.567z"/></g><defs><clipPath id="clip0"><path fill="#fff" transform="translate(399.709 493)" d="M0 0h70v85H0z"/></clipPath></defs></svg>