<svg width="20" height="21" fill="none" xmlns="http://www.w3.org/2000/svg"><g clip-path="url(#clip0)"><path d="M10 20.984c5.523 0 10-4.477 10-10 0-5.522-4.477-10-10-10s-10 4.478-10 10c0 5.523 4.477 10 10 10z" fill="#fff"/><path d="M12.514 11.376H10.73v6.537H8.025v-6.537H6.74V9.078h1.286V7.592c0-1.063.505-2.728 2.728-2.728l2.002.008v2.23h-1.453c-.238 0-.573.12-.573.626v1.353h2.02l-.236 2.295z" fill="#002"/></g><defs><clipPath id="clip0"><path fill="#fff" transform="translate(0 .984)" d="M0 0h20v20H0z"/></clipPath></defs></svg>