<svg width="20" height="21" fill="none" xmlns="http://www.w3.org/2000/svg"><g clip-path="url(#clip0)" fill="#fff"><path d="M13.75.387h-7.5A6.25 6.25 0 000 6.637v7.5a6.25 6.25 0 006.25 6.25h7.5a6.25 6.25 0 006.25-6.25v-7.5a6.25 6.25 0 00-6.25-6.25zm4.375 13.75a4.38 4.38 0 01-4.375 4.375h-7.5a4.38 4.38 0 01-4.375-4.375v-7.5A4.38 4.38 0 016.25 2.262h7.5a4.38 4.38 0 014.375 4.375v7.5z"/><path d="M10 5.387a5 5 0 100 10 5 5 0 000-10zm0 8.125a3.13 3.13 0 01-3.125-3.125A3.129 3.129 0 0110 7.262a3.129 3.129 0 013.125 3.125A3.13 3.13 0 0110 13.512zm5.375-7.834a.666.666 0 100-1.333.666.666 0 000 1.333z"/></g><defs><clipPath id="clip0"><path fill="#fff" transform="translate(0 .387)" d="M0 0h20v20H0z"/></clipPath></defs></svg>