<svg width="1440" height="911" fill="none" xmlns="http://www.w3.org/2000/svg"><path d="M93.57 888.93c212.358-6.96 389.02 2.14 549.715 10.417 65.503 3.374 128.354 6.612 189.888 8.569 212.507 6.76 409.427-1.736 646.057-72.524 118.11-35.334 180.39-101.2 207.49-180.053 27.14-78.925 19.09-171.011-3.78-258.813-22.87-87.785-60.52-171.169-92.47-232.62-15.97-30.723-30.51-55.955-41.06-73.505a954.79 954.79 0 00-12.51-20.288c-1.47-2.33-2.62-4.11-3.4-5.308-.39-.599-.69-1.052-.88-1.355l-.06-.081C1147.23 8.51 883.827-7.826 645.182 5.994 406.567 19.81 192.66 63.78-93.706 129.588l-.08.155c-.195.374-.483.933-.861 1.669a712.674 712.674 0 00-3.294 6.516 1194.01 1194.01 0 00-11.974 24.727c-10.03 21.297-23.694 51.702-38.223 88.127-29.063 72.859-61.573 169.765-75.419 266.03-13.851 96.298-8.996 191.761 36.448 261.899 45.39 70.054 131.458 115.109 280.68 110.219z" stroke="#002" stroke-width="2"/></svg>