<svg width="121" height="41" fill="none" xmlns="http://www.w3.org/2000/svg"><path d="M37.853 40.387H3.165c-1.67 0-3.024-1.33-3.024-2.97V3.357c0-1.64 1.354-2.97 3.024-2.97h34.688c1.67 0 3.024 1.33 3.024 2.97v34.06c0 1.64-1.354 2.97-3.024 2.97z" fill="#79BBC0"/><path d="M8.348 9.512c0-.3.102-.556.304-.772.202-.215.489-.324.86-.324h5.029c.302 0 .568.095.796.287.227.191.34.461.34.809v16.022h15.877c.304 0 .566.104.785.311.219.209.33.486.33.836v4.556c0 .3-.101.56-.304.785-.203.224-.474.336-.811.336H9.46c-.741 0-1.113-.365-1.113-1.095V9.512z" fill="#fff"/><path d="M32.087 15.671h-6.164a.578.578 0 01-.583-.572V9.046c0-.316.26-.572.583-.572h6.164c.322 0 .583.256.583.572V15.1a.578.578 0 01-.583.572z" fill="#E62735"/><path d="M49.52 9.214c0-.075.026-.139.076-.194a.283.283 0 01.216-.082h1.263a.3.3 0 01.2.072.252.252 0 01.086.203v7.301h3.988a.276.276 0 01.28.289v1.145a.29.29 0 01-.076.197.263.263 0 01-.204.085h-5.55c-.186 0-.28-.092-.28-.275v-8.74z" fill="#002"/><path d="M57.553 9.239c0-.2.093-.3.28-.3h6.142c.11 0 .189.03.236.09.047.062.07.137.07.23v1.104a.293.293 0 01-.08.202c-.053.059-.133.087-.24.087h-4.53v1.896h3.492a.261.261 0 01.204.053c.05.043.076.118.076.222v1.132a.327.327 0 01-.064.2c-.042.058-.111.088-.204.088H59.43v2.271h4.695c.119 0 .198.026.236.076.038.05.058.127.058.231v1.143c0 .176-.094.264-.28.264h-6.307a.315.315 0 01-.197-.063c-.055-.041-.083-.108-.083-.2V9.238zm8.377 8.759c.021-.084.046-.16.073-.232.027-.07.052-.135.073-.194l3.434-8.396a.373.373 0 01.105-.153.317.317 0 01.233-.085h1.026c.102 0 .175.026.22.076.044.05.077.094.1.132l.21.488 3.363 8.264a.34.34 0 00.01.065.44.44 0 01.01.079c0 .125-.094.188-.28.188H73.25a.362.362 0 01-.217-.056.416.416 0 01-.128-.175l-.114-.288-.242-.6c-.08-.201-.159-.404-.236-.608h-3.93c-.112.292-.219.567-.323.823-.104.256-.192.481-.265.673-.059.154-.17.232-.33.232H66.19a.382.382 0 01-.194-.044.143.143 0 01-.073-.131.225.225 0 01.007-.058zm4.434-6.675a73.528 73.528 0 00-.685 1.789 62.906 62.906 0 01-.685 1.783h2.714l-1.344-3.572zm6.416-2.09c0-.196.093-.294.28-.294h3.9c.428 0 .83.08 1.203.238.374.16.7.373.978.644a2.971 2.971 0 01.895 2.127c0 .288-.04.563-.12.826a2.954 2.954 0 01-.855 1.342c-.2.18-.42.335-.663.46l1.656 3.209a.487.487 0 00.045.125.287.287 0 01.032.132c0 .125-.074.188-.223.188H82.43c-.153 0-.255-.077-.306-.232l-1.542-3.003-.22.003c-.079.002-.187.003-.325.003h-1.405v2.958c0 .18-.098.27-.293.27H77.06a.3.3 0 01-.204-.066c-.05-.044-.076-.112-.076-.204V9.233zm5.37 2.724c0-.179-.034-.353-.102-.522a1.476 1.476 0 00-1.28-.92l-.438-.01-.443-.002h-1.255v2.902h1.922a2.3 2.3 0 00.238-.012c.2-.013.383-.058.551-.138.168-.079.311-.184.43-.315.12-.13.211-.281.277-.45.068-.168.1-.345.1-.533zm4.136-2.737a.29.29 0 01.073-.2.266.266 0 01.207-.082h1.465a.372.372 0 01.312.17l2.16 3.03c.714 1.003 1.433 2.014 2.16 3.03v-5.99a.275.275 0 01.096-.176.284.284 0 01.185-.063h1.229a.34.34 0 01.22.076.25.25 0 01.092.2v8.758c0 .171-.1.257-.3.257h-1.382c-.093 0-.181-.056-.261-.17a978.432 978.432 0 01-2.233-3.187l-2.227-3.193v6.275c0 .09-.022.16-.067.206-.045.046-.12.069-.226.069h-1.223c-.098 0-.17-.024-.213-.072a.277.277 0 01-.067-.198V9.22zm10.9-.006c0-.075.023-.139.07-.194.047-.054.118-.082.21-.082h1.263c.072 0 .14.026.203.076s.095.117.095.2v8.74c0 .183-.1.274-.3.274h-1.262c-.187 0-.28-.09-.28-.274v-8.74h.001zm4.556.006a.29.29 0 01.073-.2.266.266 0 01.207-.082h1.465a.372.372 0 01.312.17l2.16 3.03c.714 1.003 1.433 2.014 2.16 3.03v-5.99a.275.275 0 01.096-.176.284.284 0 01.185-.063h1.229a.34.34 0 01.22.076c.061.05.092.117.092.2v8.758c0 .171-.1.257-.299.257h-1.383c-.093 0-.181-.056-.261-.17a978.432 978.432 0 01-2.233-3.187l-2.227-3.193v6.275c0 .09-.022.16-.067.206-.045.046-.12.069-.226.069h-1.223c-.098 0-.169-.024-.213-.072a.277.277 0 01-.067-.198V9.22zm16.781 5.124a.28.28 0 01.07-.2c.047-.05.117-.076.21-.076h1.038c.072 0 .14.026.204.076.064.05.096.117.096.2v2.871c0 .05-.013.098-.038.143a.39.39 0 01-.153.138 4.687 4.687 0 01-1.363.641 5.526 5.526 0 01-1.561.228c-.446 0-.877-.057-1.293-.169a4.814 4.814 0 01-2.144-1.228 4.841 4.841 0 01-.761-.964 4.616 4.616 0 01-.662-2.411 4.67 4.67 0 01.662-2.409 4.918 4.918 0 011.745-1.721 4.99 4.99 0 011.163-.485 4.824 4.824 0 011.296-.172c.302 0 .602.026.901.078a4.938 4.938 0 011.249.391c.147.063.286.132.417.206.132.076.243.153.335.232.091.08.137.156.137.232a.396.396 0 01-.058.159 4.332 4.332 0 01-.337.531 4.568 4.568 0 01-.21.266c-.068.08-.13.145-.185.198-.055.052-.098.078-.127.078a.342.342 0 01-.203-.075 3.466 3.466 0 00-.905-.437 3.335 3.335 0 00-1.026-.163 3.027 3.027 0 00-2.861 1.91 3.077 3.077 0 00-.229 1.18c0 .425.082.825.245 1.198.164.373.384.698.663.976.278.277.604.496.978.657.374.16.771.24 1.192.24.157 0 .312-.012.465-.034.153-.024.296-.052.43-.087.134-.036.254-.075.36-.12.106-.043.193-.086.261-.128v-1.95h-.001z" fill="#fff"/><path d="M55.256 24.603a3.793 3.793 0 01-.291-.218 3.812 3.812 0 00-.497-.329 4.394 4.394 0 00-.661-.301 2.29 2.29 0 00-.791-.134c-.333 0-.62.04-.861.118a1.78 1.78 0 00-.595.313 1.25 1.25 0 00-.345.441 1.189 1.189 0 00-.111.494c0 .232.078.426.234.585.156.157.363.294.62.41.257.116.549.22.876.314.327.094.66.192 1 .295.339.104.673.22 1 .348.327.129.619.288.876.479.257.19.464.418.62.683.156.265.234.586.234.963 0 .435-.092.83-.275 1.183a2.774 2.774 0 01-.753.908c-.318.25-.693.445-1.123.581a4.54 4.54 0 01-1.386.205 4.507 4.507 0 01-2.74-.933 3.987 3.987 0 01-.69-.683.296.296 0 01-.08-.198c.003-.066.04-.129.112-.187l.5-.41c.072-.058.14-.084.209-.078a.266.266 0 01.183.11l.082.08c.177.194.379.363.604.506a4.267 4.267 0 001.325.562c.206.045.382.069.525.069.257 0 .52-.034.79-.1a2.53 2.53 0 00.74-.304c.224-.136.408-.31.55-.518a1.27 1.27 0 00.216-.737.89.89 0 00-.212-.6 1.848 1.848 0 00-.573-.429 5.195 5.195 0 00-.845-.33c-.323-.097-.667-.2-1.034-.307a10.368 10.368 0 01-1.304-.457 3.817 3.817 0 01-.895-.528 1.835 1.835 0 01-.516-.646 1.9 1.9 0 01-.164-.805c0-.377.077-.722.23-1.035a2.39 2.39 0 01.656-.811 3.111 3.111 0 011.022-.532 4.43 4.43 0 011.338-.19c.266 0 .542.034.829.1a4.807 4.807 0 011.604.698c.238.164.444.345.617.544.059.062.09.128.092.196.002.068-.03.133-.098.195l-.45.422c-.066.062-.135.092-.205.087a.273.273 0 01-.19-.089z" fill="#002"/><path d="M59.9 28.002c0 .393.059.76.175 1.1a2.402 2.402 0 001.339 1.476 2.74 2.74 0 001.114.213c.447 0 .837-.072 1.17-.217.334-.145.609-.342.827-.593.217-.25.379-.546.487-.884a3.62 3.62 0 00.16-1.094v-5.14c0-.074.029-.138.087-.192a.296.296 0 01.212-.08h.608c.08 0 .154.024.22.074.068.05.102.116.102.198v5.307c0 .558-.101 1.072-.304 1.537-.202.466-.48.866-.832 1.2a3.821 3.821 0 01-1.234.779c-.471.186-.971.28-1.503.28-.532 0-1.031-.1-1.5-.299a3.928 3.928 0 01-1.231-.817 3.85 3.85 0 01-.832-1.208 3.62 3.62 0 01-.304-1.473v-5.306c0-.061.024-.122.073-.183a.236.236 0 01.193-.09h.677a.32.32 0 01.196.08.241.241 0 01.1.192v5.14zm8.916-5.114c0-.2.093-.299.278-.299h3.65c.422 0 .814.078 1.177.233a2.946 2.946 0 011.585 1.571c.154.359.231.74.231 1.147 0 .29-.04.569-.122.836a2.937 2.937 0 01-.877 1.354c-.208.18-.438.33-.69.45l1.67 3.362v.08c0 .129-.078.193-.234.193h-.765c-.131 0-.232-.077-.304-.23l-1.52-3.132a.967.967 0 01-.11.007l-.171.003a11.96 11.96 0 01-.294.003h-2.28v3.076c0 .182-.096.273-.29.273h-.659c-.186 0-.278-.092-.278-.273v-8.654h.002zm5.707 2.64a1.69 1.69 0 00-.135-.659 1.816 1.816 0 00-.937-.947 1.71 1.71 0 00-.705-.146h-2.703v3.504h2.727a1.7 1.7 0 00.697-.143 1.76 1.76 0 001.056-1.609zm3.501-2.652c0-.19.093-.286.278-.286h5.974c.194 0 .291.1.291.299v.614a.294.294 0 01-.079.206.272.272 0 01-.212.086h-5.025v3.051c.67 0 1.33.001 1.98.003.65.002 1.313.003 1.988.003.076 0 .141.023.196.069.055.045.082.12.082.224v.627c0 .075-.024.14-.073.198a.254.254 0 01-.206.087h-3.967v3.497c0 .174-.1.262-.297.262h-.652c-.186 0-.278-.087-.278-.262v-8.678zm8.213 8.711a.405.405 0 01-.126.168.34.34 0 01-.21.062h-.67c-.194 0-.291-.073-.291-.217a.691.691 0 01.011-.125.282.282 0 01.014-.043l3.65-8.613c.01-.02.02-.044.032-.072a.31.31 0 01.051-.074.262.262 0 01.093-.06.43.43 0 01.162-.024h.418a.43.43 0 01.154.025c.04.017.072.036.093.059a.31.31 0 01.05.074l.031.072 3.62 8.613a1.359 1.359 0 00.026.12.232.232 0 01.007.047c0 .145-.098.217-.291.217h-.672a.34.34 0 01-.209-.062.398.398 0 01-.127-.168l-.695-1.709h-4.443c-.148.369-.283.702-.405 1a12.08 12.08 0 00-.273.71zm1.183-2.915h3.448l-1.709-4.25-1.74 4.25zm15.174-5.305a.481.481 0 01.114.115.239.239 0 01.044.133.228.228 0 01-.051.15l-.335.547c-.072.099-.146.149-.221.149a.258.258 0 01-.098-.022.609.609 0 01-.123-.071 3.758 3.758 0 00-.959-.485 4.044 4.044 0 00-1.06-.199c-.544 0-1.046.096-1.507.289-.46.192-.856.451-1.192.777a3.584 3.584 0 00-.788 1.13c-.19.43-.286.883-.286 1.359 0 .505.097.972.291 1.401a3.507 3.507 0 001.92 1.836 3.62 3.62 0 001.883.224c.173-.024.349-.068.529-.128.179-.06.366-.136.56-.23a6.54 6.54 0 00.62-.344.435.435 0 01.196-.069c.076 0 .146.052.209.155l.361.585c.03.054.044.103.044.149 0 .1-.051.178-.152.235a4.851 4.851 0 01-2.855.901 4.832 4.832 0 01-1.287-.167 4.79 4.79 0 01-2.127-1.22 4.649 4.649 0 01-1.408-3.353 4.61 4.61 0 01.657-2.393c.212-.351.464-.672.757-.963a4.68 4.68 0 01.978-.742 4.98 4.98 0 011.154-.479c.412-.114.841-.17 1.288-.17.528 0 1.028.076 1.501.23.474.152.921.375 1.343.67zm8.549-.777c.194 0 .291.099.291.298v.615a.308.308 0 01-.073.205c-.049.058-.125.086-.231.086h-5.1v2.554h4.012c.076 0 .141.022.196.066.055.043.082.117.082.22v.634c0 .075-.023.14-.07.199-.046.058-.116.086-.209.086h-4.012v3.057h5.126c.194 0 .291.097.291.291v.64c0 .183-.093.274-.279.274h-6.087c-.186 0-.278-.087-.278-.262v-8.68c0-.19.093-.286.278-.286h6.063v.002zm7.688 2.013a3.793 3.793 0 01-.291-.218 3.812 3.812 0 00-.497-.329 4.348 4.348 0 00-.661-.301 2.29 2.29 0 00-.791-.134c-.333 0-.62.04-.861.118a1.78 1.78 0 00-.595.313 1.25 1.25 0 00-.345.441 1.189 1.189 0 00-.111.494c0 .232.078.426.234.585.156.157.363.294.62.41.257.116.549.22.876.314.327.094.66.192 1 .295.339.104.673.22 1 .348.327.129.619.288.876.479.257.19.464.418.62.683.156.265.234.586.234.963 0 .435-.092.83-.275 1.183a2.774 2.774 0 01-.753.908c-.318.25-.693.445-1.123.581a4.54 4.54 0 01-1.386.205 4.507 4.507 0 01-2.74-.933 3.956 3.956 0 01-.69-.683.296.296 0 01-.079-.198c.002-.066.039-.129.111-.187l.5-.41c.072-.058.141-.084.209-.078a.266.266 0 01.183.11l.082.08c.177.194.379.363.604.506a4.31 4.31 0 001.325.562c.207.045.382.069.525.069.257 0 .521-.034.791-.1.27-.065.517-.167.74-.304.223-.136.407-.31.55-.518.143-.21.215-.455.215-.737a.89.89 0 00-.212-.6 1.848 1.848 0 00-.573-.429 5.195 5.195 0 00-.845-.33c-.323-.097-.667-.2-1.034-.307a10.368 10.368 0 01-1.304-.457 3.817 3.817 0 01-.895-.528 1.835 1.835 0 01-.516-.646 1.9 1.9 0 01-.164-.805c0-.377.077-.722.231-1.035a2.39 2.39 0 01.655-.811 3.111 3.111 0 011.022-.532 4.43 4.43 0 011.338-.19c.266 0 .542.034.829.1a4.807 4.807 0 011.604.698c.238.164.444.345.617.544.059.062.09.128.092.196.002.068-.03.133-.098.195l-.449.422c-.067.062-.136.092-.206.087a.27.27 0 01-.189-.089z" fill="#fff"/></svg>