<svg width="108" height="36" fill="none" xmlns="http://www.w3.org/2000/svg"><path d="M33.94 36H2.723C1.219 36 0 34.803 0 33.328V2.672C0 1.197 1.219 0 2.722 0H33.94c1.503 0 2.721 1.197 2.721 2.672v30.656c0 1.475-1.218 2.672-2.721 2.672z" fill="#79BBC0"/><path d="M7.386 8.212c0-.27.092-.5.274-.694.182-.194.44-.292.774-.292h4.526c.272 0 .511.086.716.258.205.172.306.415.306.728v14.42h14.29c.273 0 .509.094.706.28.197.188.297.438.297.753v4.1c0 .27-.09.505-.273.706-.183.202-.427.302-.73.302H8.388c-.667 0-1.002-.328-1.002-.985V8.212z" fill="#fff"/><path d="M28.752 13.756h-5.548a.52.52 0 01-.525-.515V7.794a.52.52 0 01.525-.516h5.547a.52.52 0 01.525.516v5.447a.52.52 0 01-.524.515z" fill="#E62735"/><path d="M44.44 7.945a.25.25 0 01.07-.175.255.255 0 01.194-.074h1.136a.27.27 0 01.18.065.227.227 0 01.078.183v6.57h3.589a.248.248 0 01.252.26v1.03a.256.256 0 01-.069.178.237.237 0 01-.183.076h-4.995c-.167 0-.252-.082-.252-.247V7.945zm7.23.022c0-.18.084-.27.252-.27h5.528c.1 0 .17.027.213.081a.326.326 0 01.063.206v.995a.263.263 0 01-.072.18c-.048.054-.12.08-.216.08h-4.077v1.706h3.142a.236.236 0 01.184.048c.046.038.068.106.068.2v1.018a.294.294 0 01-.057.18c-.038.053-.1.08-.184.08h-3.153v2.043h4.225c.107 0 .178.023.212.068.035.045.053.115.053.209v1.029c0 .158-.085.236-.252.236h-5.677a.283.283 0 01-.177-.056c-.05-.037-.075-.097-.075-.18V7.967zm7.54 7.883c.02-.075.042-.144.067-.209l.065-.175 3.09-7.556a.336.336 0 01.095-.138.285.285 0 01.21-.076h.923c.092 0 .158.023.199.068.04.045.069.085.089.119l.189.439 3.027 7.438c0 .011.003.03.01.059a.397.397 0 01.008.07c0 .113-.084.17-.252.17H65.8a.326.326 0 01-.195-.051.374.374 0 01-.116-.157l-.102-.26-.218-.54a24.76 24.76 0 01-.212-.546h-3.538c-.1.262-.197.51-.29.74-.094.23-.173.433-.239.606-.053.138-.153.208-.297.208h-1.147a.343.343 0 01-.175-.039.128.128 0 01-.065-.118c0-.025.002-.042.006-.052zm3.992-6.008a66.27 66.27 0 00-.617 1.61c-.204.556-.41 1.09-.617 1.605h2.443l-1.21-3.215zm5.774-1.88c0-.177.083-.265.252-.265h3.509c.386 0 .747.072 1.083.214.337.143.63.336.88.58a2.674 2.674 0 01.806 1.914c0 .259-.037.506-.109.743a2.66 2.66 0 01-.769 1.208c-.18.163-.378.302-.596.414l1.49 2.888c.008.038.02.075.04.113a.259.259 0 01.03.118c0 .113-.067.17-.201.17h-1.33c-.138 0-.23-.07-.276-.21l-1.388-2.702-.198.003c-.07.002-.168.003-.292.003h-1.265v2.662c0 .162-.088.242-.263.242h-1.151a.27.27 0 01-.184-.059c-.046-.04-.068-.1-.068-.183V7.962zm4.832 2.451c0-.16-.03-.317-.091-.47a1.33 1.33 0 00-.655-.698 1.31 1.31 0 00-.498-.13l-.393-.008a28.856 28.856 0 00-.4-.003h-1.129v2.613h1.729c.067 0 .139-.004.215-.012.18-.011.345-.052.496-.124.151-.07.28-.165.387-.283a1.316 1.316 0 00.34-.885zM77.53 7.95c0-.07.022-.13.066-.18a.239.239 0 01.186-.074h1.319a.335.335 0 01.28.152l1.945 2.728c.642.903 1.29 1.812 1.944 2.728V7.91a.247.247 0 01.086-.157.256.256 0 01.166-.057h1.107c.076 0 .142.023.198.068a.222.222 0 01.082.18v7.883c0 .153-.09.23-.269.23h-1.244c-.084 0-.163-.05-.235-.152a990.87 990.87 0 01-2.01-2.868c-.667-.956-1.336-1.914-2.004-2.874v5.647c0 .082-.02.144-.06.185-.041.042-.109.062-.204.062h-1.1c-.089 0-.153-.021-.192-.064a.25.25 0 01-.06-.178V7.95zm9.811-.005c0-.068.02-.126.063-.175.043-.049.106-.074.188-.074h1.137a.29.29 0 01.183.068.219.219 0 01.085.18v7.866c0 .165-.09.247-.269.247h-1.137c-.167 0-.25-.082-.25-.247V7.945zm4.099.005c0-.07.022-.13.066-.18a.239.239 0 01.186-.074h1.319a.335.335 0 01.28.152l1.945 2.728c.642.903 1.29 1.812 1.944 2.728V7.91a.247.247 0 01.086-.157.256.256 0 01.167-.057h1.106c.076 0 .142.023.198.068a.222.222 0 01.083.18v7.883c0 .153-.09.23-.27.23h-1.244c-.084 0-.163-.05-.235-.152a990.87 990.87 0 01-2.01-2.868c-.667-.956-1.336-1.914-2.004-2.874v5.647c0 .082-.02.144-.06.185-.041.042-.109.062-.204.062h-1.1c-.089 0-.153-.021-.192-.064a.25.25 0 01-.06-.178V7.95zm15.104 4.611a.25.25 0 01.063-.18c.042-.045.105-.068.189-.068h.934a.29.29 0 01.183.068.217.217 0 01.087.18v2.585a.269.269 0 01-.034.128.359.359 0 01-.138.124 4.223 4.223 0 01-1.227.577 5.268 5.268 0 01-.694.152 4.796 4.796 0 01-.711.053c-.401 0-.789-.05-1.163-.152a4.317 4.317 0 01-1.93-1.105 4.35 4.35 0 01-.685-.867 4.162 4.162 0 01-.596-2.17 4.186 4.186 0 01.596-2.168 4.414 4.414 0 011.571-1.55 4.48 4.48 0 011.046-.436 4.349 4.349 0 011.167-.155c.271 0 .541.024.811.07a4.448 4.448 0 011.124.353c.132.056.257.118.375.185.119.068.219.137.301.209.082.071.124.14.124.208 0 .03-.017.078-.052.143a4.055 4.055 0 01-.659.896c-.05.047-.088.07-.115.07a.299.299 0 01-.182-.067 3.11 3.11 0 00-.815-.394 2.997 2.997 0 00-.923-.147 2.731 2.731 0 00-2.575 1.72c-.138.336-.206.69-.206 1.061 0 .383.074.743.22 1.079a2.797 2.797 0 001.477 1.469 2.784 2.784 0 001.492.186 3.72 3.72 0 00.387-.079c.12-.032.228-.067.324-.107.095-.04.173-.078.234-.116v-1.755zm-56.941 9.234a3.447 3.447 0 01-.262-.197 3.44 3.44 0 00-.447-.296 4.06 4.06 0 00-.595-.271 2.06 2.06 0 00-.712-.12c-.3 0-.558.035-.775.106-.216.07-.395.164-.535.282-.14.117-.244.25-.31.397a1.07 1.07 0 00-.1.444c0 .209.07.384.21.526.14.141.327.265.558.37.231.104.494.198.788.282.295.084.594.172.9.265.306.094.606.198.9.314.295.116.558.259.789.43.231.172.417.377.558.615.14.24.21.528.21.867 0 .392-.082.747-.247 1.065a2.497 2.497 0 01-.678.817 3.17 3.17 0 01-1.01.523 4.102 4.102 0 01-1.248.185 4.058 4.058 0 01-2.466-.84 3.586 3.586 0 01-.62-.615.266.266 0 01-.072-.178c.002-.06.035-.116.1-.168l.45-.37c.065-.052.127-.075.188-.07a.24.24 0 01.165.099l.074.072c.159.175.34.327.543.456.204.128.406.235.61.318.203.084.397.147.583.188.185.04.343.061.472.061.231 0 .47-.03.712-.089.243-.059.465-.151.666-.274.2-.123.366-.278.495-.466.129-.189.194-.41.194-.663a.8.8 0 00-.191-.54 1.664 1.664 0 00-.516-.386 4.688 4.688 0 00-.76-.297c-.291-.088-.6-.18-.931-.277a9.32 9.32 0 01-1.174-.41 3.434 3.434 0 01-.805-.476 1.651 1.651 0 01-.465-.582 1.71 1.71 0 01-.147-.724 2.081 2.081 0 01.797-1.662 2.8 2.8 0 01.92-.478c.36-.114.76-.17 1.204-.17.24 0 .488.03.746.089a4.327 4.327 0 011.444.628c.214.148.4.31.555.49a.267.267 0 01.083.175c.002.062-.027.12-.088.176l-.404.38c-.06.056-.123.082-.186.078a.246.246 0 01-.17-.08zm4.181 3.058c0 .354.052.684.157.99a2.16 2.16 0 001.205 1.328c.292.13.626.193 1.002.193a2.65 2.65 0 001.054-.195c.3-.131.547-.309.744-.534.195-.226.34-.492.438-.797a3.26 3.26 0 00.145-.984v-4.625c0-.068.025-.125.077-.174a.267.267 0 01.191-.072h.547a.33.33 0 01.2.067c.06.045.09.104.09.178v4.776c0 .503-.09.965-.274 1.384-.181.419-.432.78-.748 1.08a3.44 3.44 0 01-1.111.7 3.636 3.636 0 01-1.353.253c-.479 0-.928-.09-1.35-.269a3.535 3.535 0 01-1.108-.735 3.465 3.465 0 01-.748-1.088 3.258 3.258 0 01-.274-1.326V20.23c0-.056.022-.111.066-.166a.212.212 0 01.173-.081h.61a.29.29 0 01.176.072c.06.049.091.106.091.174v4.625zm8.023-4.603c0-.179.084-.268.25-.268h3.286c.38 0 .733.07 1.06.21a2.65 2.65 0 011.426 1.414c.139.322.208.666.208 1.032 0 .26-.037.511-.11.752a2.643 2.643 0 01-.79 1.218 2.749 2.749 0 01-.621.406l1.504 3.025v.072c0 .116-.07.174-.21.174h-.69c-.118 0-.209-.07-.274-.207L65.48 25.26a.85.85 0 01-.1.006c-.036 0-.087 0-.154.003l-.264.002H62.91v2.768c0 .164-.087.246-.261.246h-.593c-.167 0-.25-.082-.25-.246v-7.788h.001zm5.137 2.377c0-.205-.041-.402-.122-.593a1.636 1.636 0 00-.843-.853 1.538 1.538 0 00-.635-.132h-2.432v3.155h2.455a1.583 1.583 0 001.578-1.577zm3.151-2.387c0-.171.083-.257.25-.257h5.377c.174 0 .262.09.262.269v.553c0 .07-.024.132-.072.184a.245.245 0 01-.19.078h-4.523v2.746c.604 0 1.198 0 1.783.003.584.002 1.18.002 1.788.002.069 0 .127.02.177.062.05.04.073.109.073.202v.564a.268.268 0 01-.065.179.228.228 0 01-.186.078H71.2v3.148c0 .156-.09.235-.267.235h-.587c-.168 0-.25-.078-.25-.235v-7.81zm7.391 7.84a.365.365 0 01-.113.15.306.306 0 01-.188.056h-.604c-.175 0-.262-.065-.262-.195a.619.619 0 01.01-.112.257.257 0 01.012-.039l3.286-7.751.029-.065a.28.28 0 01.046-.067.236.236 0 01.083-.053.388.388 0 01.145-.022h.377a.4.4 0 01.14.022.236.236 0 01.082.053.28.28 0 01.046.067l.028.065 3.258 7.751a1.226 1.226 0 00.023.109c.004.017.006.03.006.041 0 .131-.088.195-.262.195h-.604a.306.306 0 01-.188-.055.359.359 0 01-.115-.151l-.626-1.538h-3.998c-.133.331-.254.632-.364.9-.112.27-.194.482-.247.639zm1.065-2.623h3.104l-1.538-3.825-1.566 3.825zm13.657-4.775c.041.03.075.065.102.103.026.04.04.08.04.12a.205.205 0 01-.046.135l-.302.492c-.064.09-.131.134-.198.134a.231.231 0 01-.089-.019.545.545 0 01-.11-.064 3.385 3.385 0 00-.864-.437 3.68 3.68 0 00-.954-.179c-.49 0-.94.087-1.355.26a3.43 3.43 0 00-1.074.7 3.224 3.224 0 00-.709 1.017 2.986 2.986 0 00-.256 1.223c0 .455.087.874.262 1.26a3.158 3.158 0 001.728 1.653 3.257 3.257 0 001.693.202 2.72 2.72 0 00.477-.115c.16-.054.329-.123.504-.207a5.88 5.88 0 00.558-.31.392.392 0 01.176-.062c.068 0 .131.047.188.14l.325.525c.027.05.04.093.04.135 0 .089-.046.16-.137.212a4.363 4.363 0 01-2.569.811c-.402 0-.788-.05-1.16-.151a4.31 4.31 0 01-1.913-1.099 4.186 4.186 0 01-1.267-3.018 4.145 4.145 0 01.592-2.152c.19-.317.416-.606.68-.867a4.21 4.21 0 01.88-.668 4.48 4.48 0 011.04-.43 4.32 4.32 0 011.159-.154 4.383 4.383 0 012.559.81zm7.694-.7c.174 0 .262.09.262.269v.553a.28.28 0 01-.066.185c-.044.052-.113.078-.208.078H95.3v2.298h3.61c.07 0 .128.02.177.06.05.038.074.105.074.198v.57c0 .067-.02.127-.063.179-.041.052-.104.078-.188.078H95.3v2.75h4.612c.175 0 .262.088.262.263v.576c0 .165-.083.246-.25.246h-5.479c-.167 0-.25-.078-.25-.235v-7.812c0-.172.084-.258.25-.258h5.457v.002zm6.919 1.813a3.571 3.571 0 01-.262-.197 3.421 3.421 0 00-.447-.296 4.06 4.06 0 00-.595-.271 2.061 2.061 0 00-.712-.12c-.3 0-.558.035-.775.106-.216.07-.395.164-.535.282a1.08 1.08 0 00-.411.841c0 .209.07.384.211.526.14.141.327.265.558.37.231.104.494.198.788.282.295.084.594.172.9.265.305.094.606.198.9.314.295.116.557.259.789.43.231.172.417.377.558.615.14.24.21.528.21.867 0 .392-.083.747-.247 1.065a2.505 2.505 0 01-.678.817c-.286.225-.624.4-1.011.523a4.098 4.098 0 01-1.247.185 4.046 4.046 0 01-2.466-.84 3.575 3.575 0 01-.621-.615.262.262 0 01-.071-.178c.002-.06.035-.116.1-.168l.45-.37c.065-.052.127-.075.188-.07.06.006.116.038.165.099l.073.072c.16.175.341.327.544.456.203.128.406.235.609.318.204.084.398.147.583.188a2.3 2.3 0 00.473.061c.231 0 .469-.03.712-.089s.465-.151.666-.274c.201-.123.366-.278.495-.466.129-.189.193-.41.193-.663a.805.805 0 00-.19-.54 1.666 1.666 0 00-.516-.386 4.688 4.688 0 00-.761-.297c-.29-.088-.6-.18-.93-.277a9.31 9.31 0 01-1.174-.41 3.411 3.411 0 01-.805-.476 1.649 1.649 0 01-.465-.582 1.71 1.71 0 01-.147-.724 2.076 2.076 0 01.797-1.662c.255-.205.561-.364.92-.478.359-.114.76-.17 1.204-.17.239 0 .488.03.746.089a4.31 4.31 0 011.444.628c.214.148.399.31.555.49a.269.269 0 01.083.175c.002.062-.027.12-.088.176l-.404.38c-.061.056-.123.082-.186.078a.244.244 0 01-.17-.08z" fill="#002"/></svg>