<svg width="20" height="21" fill="none" xmlns="http://www.w3.org/2000/svg"><g clip-path="url(#clip0)"><path d="M20 4.783a8.549 8.549 0 01-2.363.648 4.077 4.077 0 001.804-2.267 8.192 8.192 0 01-2.6.993A4.099 4.099 0 009.75 6.96c0 .325.027.637.095.935a11.604 11.604 0 01-8.451-4.29A4.128 4.128 0 00.83 5.68c0 1.42.732 2.68 1.821 3.408A4.05 4.05 0 01.8 8.582v.045a4.119 4.119 0 003.285 4.029 4.09 4.09 0 01-1.075.135c-.262 0-.527-.015-.776-.07.531 1.623 2.038 2.817 3.831 2.856a8.239 8.239 0 01-5.084 1.749c-.336 0-.658-.015-.981-.057a11.544 11.544 0 006.29 1.84c7.545 0 11.67-6.25 11.67-11.667 0-.181-.006-.356-.015-.53A8.179 8.179 0 0020 4.783z" fill="#fff"/></g><defs><clipPath id="clip0"><path fill="#fff" transform="translate(0 .984)" d="M0 0h20v20H0z"/></clipPath></defs></svg>