<svg xmlns="http://www.w3.org/2000/svg" height="800" width="1066.667" id="svg2" version="1.1"><g transform="matrix(1.33333 0 0 -1.33333 0 800)" id="g10"><g transform="scale(.1)" id="g12" fill-opacity="1" fill-rule="nonzero" stroke="none"><path id="path24" d="M2457.13 1037.22c-4.45 14.23-8.9 28.45-13.52 43.19-8.34-7.69-3.84-22.73 13.52-43.19zm-46 17.06c-5.78 6.52-13.18 15.29-21.09 23.58-3.1 3.25-7.33 5.41-11.05 8.07-2.96-4.73-8.65-9.68-8.29-14.15.65-8.2 4.86-16.11 6.79-21.79 13.59 1.73 24.59 3.14 33.64 4.29zm24.31-2.02c-11.68-11.49-19.65-19.14-32.99-11.65-3.15 1.77-9.77-1.5-14.28-3.58-9.27-4.29-16.62-2.29-20.72 6.65-4.13 8.98-8.22 18.46-9.6 28.12-1.95 13.78 4.75 22.29 17.78 26.72 9.38 3.19 16.31 1.23 22.31-7.65 7.24-10.72 16.19-20.28 24.4-30.35 1.31.72 2.62 1.45 3.92 2.17-.39 4.78-2.76 10.77-.75 14.09 3.84 6.31 9.34 13.93 15.69 15.82 8.39 2.49 15.07-3.12 17.34-13.19 3.14-13.96 7.59-27.62 11.66-41.36 3.5-11.76-3.53-30.69-14.55-35.86-11.72-5.499-9.96 4.88-11.37 10.9-2.8 11.88-5.39 23.81-8.84 39.17" fill="#fcfcfc"/><path id="path28" d="M2536.27 837.961c-18 28.199-16.72 64.988-46.05 86.687-6.99-3.808-4.66-6.898.05-13.957 9.92-14.902 23.13-30.062 13.29-50.671-4.32-9.059 1.01-12.59 8.85-14.731 7.38-2.008 14.64-4.469 23.86-7.328zm17.05-15.609c-2.51-4.903-3.41-9.571-5.63-10.321-3.02-1-8.68-.269-10.37 1.91-9.2 11.918-20.8 18.231-35.54 21.7-10.85 2.55-15.02 16.449-10.85 26.968 4.35 11-1.05 32.922-10.9 40.711-7.05 5.582-11.65 12.68-6.47 20.059 4.91 6.98 13.01 12 20.46 16.66 1.34.84 7.23-3.617 9.57-6.73 6.51-8.637 12.25-17.86 18.3-26.848.25-.359.65-.652.79-1.039 10.3-27.891 20.58-55.793 30.64-83.07" fill="#fcfcfc"/><path id="path32" d="M2506.95 986.75c-1.69-8.039-2.68-16.32-5.23-24.078-4.19-12.703-13.33-14.192-22.31-3.891-3.87 4.449-6.88 9.629-11.6 13.938 2.02-6.989 4.37-13.918 5.94-21.008.91-4.121 2.22-9.43.45-12.59-3.64-6.531-9.22-11.98-14-17.883-3.62 5.864-8.02 11.391-10.63 17.664-2.83 6.789-3.53 14.43-6 21.399-3.26 9.211-1.02 16.289 7.31 20.769 8.22 4.422 14.84 10.141 21.6 16.59 3.86 3.68 15.57-.262 23.45-2.051 1.14-.257.63-7.75.88-11.879-6.49 1.399-12.97 2.801-19.45 4.2l-1.47-2.969c4.19-5.563 8.37-11.121 13.59-18.031 2.82 6.902 4.91 12.031 7.01 17.152 3.59.789 7.18 1.578 10.78 2.359l-.32.309" fill="#fcfcfc"/><path id="path44" d="M3255.31 1216.17c-43.26 36.54-66.13 87.94-114.74 116.2-15.67 9.11-6.86 31.27 11.84 40.56 27.85 13.85 117.48-11.9 123.55-40.57 8.05-38.03 8.09-78.95-20.65-116.19" fill="#c7c7c7"/><path id="path50" d="M2595.32 866.891c-1.64-7.911-3.61-16.602-15.39-16.582-10.3.011-18.35 11.203-17.95 24.793.33 10.91 10.57 22.128 19.34 21.16 8.08-.883 14.71-14.27 14-29.371" fill="#c7c7c7"/><path id="path52" d="M351.117 1340.83c4.387 7.64 7.188 19.12 12.512 20.44 11.465 2.84 13.945-9.42 16.391-17.79 2.253-7.73 3.027-16.16 2.785-24.23-.098-3.3-4.141-8.5-7.192-9.17-3.824-.83-10.574.81-12.355 3.68-4.848 7.8-7.738 16.82-12.141 27.07" fill="#d3d3d3"/><path id="path54" d="M548.762 1225.17c-.649-11.04-9.485-19.36-18.172-19.06-10.629.36-23.754 10.74-23.723 18.76.035 8.05 10.602 14.57 23.332 13.49 9.281-.79 18.504-2.69 18.563-13.19" fill="#d3d3d3"/><path id="path56" d="M245.313 1597c-2.2-1.73-6.293-7.5-11.098-8.17-9.465-1.32-22.254 11.3-22.555 20.02-.297 8.53 8.235 17.67 16.281 17.44 8.719-.26 17.286-12.46 17.372-29.29" fill="#d3d3d3"/><path id="path58" d="M2546.35 918.082c-2.02-1.73-6.1-7.992-11.21-9-8.21-1.621-23.92 16.297-22.23 25.438.83 4.511 6.74 11.062 10.85 11.441 13.38 1.238 22.89-9.402 22.59-27.879" fill="#c7c7c7"/><path id="path60" d="M2523.24 804.09c-1.63-2.68-3.87-9.449-8.54-12.641-1.95-1.34-9.99 4.082-13.65 7.949-4.66 4.922-8.41 11.063-11.23 17.274-3.85 8.457 1.18 14.558 10.37 13.66 11.44-1.133 23.1-12.57 23.05-26.242" fill="#d3d3d3"/><path id="path62" d="M485.699 1277.46c2.055-3.28 7.52-8.34 8.297-14.05 1.359-9.98-7.234-18.39-16.273-17.58-8.586.77-16.477 3.88-17.602 13.94-.867 7.76 11.496 17.72 25.578 17.69" fill="#d3d3d3"/><path id="path64" d="M335.289 1390.77c-4.262 4.13-10.941 7.63-12.234 12.55-2.11 8 10.941 19.64 19.715 18.8 9.437-.89 14.14-7.67 13.851-16.21-.402-11.75-9.469-13.1-21.332-15.14" fill="#d3d3d3"/><path id="path66" d="M2562.61 1671.26c24.14 2.65 29.16-12.22 29.03-33.5-.17-29.42-15.73-46.06-43.15-48.23-25.05-1.99-36.6 14.92-37.51 38.84-1.05 27.65 17.19 42.95 51.63 42.89" fill="#c7c7c7"/><path id="path70" d="M3274.84 2375.09c7.76.53 15.62 2.13 23.27 1.43 82.27-7.44 164.57-14.75 246.75-23.12 53.38-5.44 106.56-12.85 159.89-18.82 39.15-4.39 47.23.58 49.5 38.51 4.49 74.93 5.9 150.05 9.85 225.01 2.66 50.71 6.35 101.42 11.57 151.93 9.92 95.94 21.66 191.7 31.68 287.63 2.09 20.03 10.08 25.34 29.57 23.25 101.04-10.81 202.16-20.84 303.34-30.26 18.24-1.7 22.4-9.16 21.05-26.35-6.22-79.17-10.48-158.5-17.31-237.61-2.12-24.57 6.07-38.96 28.18-47.45 65.7-25.21 125.02-66.21 196.14-78.34 10.86-1.86 20.39-10.92 30.85-16.02 14.31-6.99 28.34-15.63 43.53-19.5 24.74-6.3 50.8-7.51 75.45-14.08 58.43-15.56 115.48-18.61 172.43 6.67 49.29 21.88 97.25 16.83 144.9-8.67 18.32-9.8 40.3-13.69 61.12-17.56 16.35-3.03 19.79-10.35 19.46-25.99-1.17-54.42-7.85-110.15 1.36-162.98 9.51-54.51 33.67-106.79 54.39-158.87 8.5-21.34 3.81-35.66-4.71-55.56-13.13-30.63-20.3-64.61-24.85-97.87-3.97-28.98-.83-58.94-.83-94.9-20.17 10.88-38.63 19.77-55.9 30.56-9.23 5.78-16.98 14.32-24.38 22.53-16.89 18.73-33.42 20.13-52.96 3.12-8.02-6.98-20.05-9.14-29.42-14.87-6.64-4.07-11.86-10.46-17.71-15.82 5.36-5.72 10.01-12.43 16.24-16.95 14.39-10.47 31.26-18.07 44-30.13 18.91-17.89 14.35-35.26-7.02-49.86-22.15-15.13-44.47-30.87-63.4-49.69-33.02-32.84-67.88-59.39-117.14-59.74-9.21-.07-18.43-3.37-27.58-5.48-17.68-4.08-25.44-15.05-24.41-33.42 1.38-24.54-12.79-39.62-38.3-41.58-9.35-.72-18.97.75-28.12-.82-7.07-1.22-19.7-6.26-19.46-8.48 3.34-30.84-41.2-52.05-17.51-86.89 1.55-2.29-2.9-10.57-6.52-14.01-6.11-5.82-13.67-10.18-20.83-14.82-37.95-24.6-36.69-25.38-20.25-65.82 8.15-20.05 7.81-43.41 12.68-64.96 7.28-32.21 15.77-64.14 25.25-102.26-23.75 5.74-44.96 8.1-63.87 15.98-46.38 19.34-91.8 41.01-137.43 62.15-32.9 15.24-51.18 41.65-55.96 77.29-3.51 26.22-4.35 52.96-10.05 78.66-3.41 15.41-10.14 35.54-21.92 42.56-27.25 16.23-39.45 41.03-53.03 66.73-36.24 68.58-70.38 138.53-111.04 204.43-47.45 76.91-124.08 100.14-210.08 95.04-32.38-1.91-55.88-22.6-74.42-49.26-12.56-18.07-25.97-36.46-42.64-50.32-7.69-6.39-27.17-7.36-36.02-2.02-32.78 19.76-67.68 39.09-93.47 66.42-23.01 24.38-40.57 57.36-50.88 89.62-32.61 102.06-93.2 184.87-167.72 258.9-20.36 20.23-44.26 36.89-66.54 55.19.41 2.52.82 5.03 1.23 7.54" fill="#c7c7c7"/><path id="path72" d="M2219.9 2700.58c-59.61 11.4-113.66 22.41-167.98 31.93-43.74 7.66-87.67 14.44-131.75 19.72-17.15 2.06-24.63 9.69-24.43 25.53.67 52.64-29 95.75-44.42 143.32-.26.8-.55 1.77-1.15 2.27-36.21 29.85-60.34 70.73-93.72 102.97-24.25 23.41-50.61 44.84-77.43 65.31-21.99 16.79-46.44 30.33-69.01 46.4-9.84 7-21.58 15.15-25.82 25.49-17.77 43.27-31.38 88.26-49.72 131.26-13.98 32.79-33.69 63.1-49.16 95.32-12.54 26.12-22.16 53.61-33.81 80.17-9.33 21.27-.23 39.15 11.09 55.01 15.98 22.37 13.47 41.65-1.19 63.32-14.93 22.08-27.23 45.93-40.69 69 1.95 2.4 3.89 4.8 5.84 7.2 10.35-.5 20.7-.85 31.03-1.55 22.11-1.52 26.98 6.73 20.09 26.82-4.38 12.75-4.3 27.51-3.91 41.3.65 23.19-6.65 31.08-27.85 27.02-33.46-6.42-49.06 7.53-53.05 41.65-3 25.69-7.98 52.04-17.59 75.87-17.86 44.3-25.3 88.06-11.51 134.73 13.98 47.28 12.56 95.86 7.92 144.17-2.17 22.56 3.01 40.18 16.43 59.12 37.81 53.34 59.87 114.34 79.38 183.43l429.4-131.5c-16.17-61.81-31.57-121.1-47.22-180.32-22.91-86.67-46.57-173.15-68.34-260.11-2.82-11.28.15-27.19 6.47-37.11 153.69-241.24 309.18-481.34 461.55-723.41 23.56-37.43 34.91-82.98 48.82-125.77 3.5-10.77-2.37-26.81-8.43-37.99-11.35-20.91-24.54-41.23-39.63-59.61-18.8-22.9-21.38-49.21-23.19-76.72-1.5-22.72-4.89-45.32-7.02-64.24" fill="#c7c7c7"/><path id="path74" d="M3196.58 5118.29c15.79-5.36 31.22-13.74 47.41-15.6 124.6-14.38 249.25-28.44 374.08-40.6 62-6.04 124.4-8.13 186.65-11.46 16.09-.87 21.94-6.04 20.18-23.66-18.72-186.88-36.54-373.86-54.74-560.8-1.07-10.92-3.23-21.73-5.38-35.82-48.45 6.08-95.57 11.94-142.66 17.92-204.11 25.93-408.24 51.75-612.3 78.11-18.74 2.42-27.33-5.2-30.27-22.17-2.23-12.86-8.09-20.79-22.43-16.58-47.02 13.78-92.97 5.45-138.44-7.25-15.54-4.34-24.74-.65-29.69 14.44-12.51 38.1-25.57 76.03-37.18 114.4-2.28 7.55.18 16.91 1.76 25.18 8.94 46.92-8.38 66.37-55.71 62.1-4.95-.45-9.93-.63-18.86-1.18 8.57 38.95 12.59 77.42 25.84 112.38 17.58 46.4-5.14 76.54-31.62 107.62-1.65 1.94-3.52 3.82-5.63 5.22-74.42 49.69-80.82 125.26-75.13 203.8 2.56 35.36 12.03 70.23 19 108.87 23.84-5.55 45.14-10.32 66.34-15.47 108.69-26.37 217-54.43 326.17-78.62 56.56-12.53 114.58-18.59 172.07-26.64 6.67-.94 14.18 4.12 21.32 6.41.01.02-.78-.6-.78-.6" fill="#c7c7c7"/><path id="path76" d="M2926.97 2358.61c46.13 281.4 91.77 559.79 138.04 842.06l727.19-72.03c-2.57-18.05-5.5-34.41-7.15-50.89-14.92-148.52-30.47-296.98-43.94-445.63-5-55.21-2.71-55.42 4.33-66.86-5.11-10.73-10.56-17.16-10.99-23.91-3.23-51.12-6.25-102.28-7.66-153.48-.58-21.09-9.91-25.84-28.67-23.81-89.51 9.68-179.07 18.89-268.63 28.1-47.54 4.88-95.09 9.84-142.71 13.71-8.57.7-22.01-.85-25.55-6.31-13.58-20.95-31.1-15.3-49.74-12.43-54.81 8.46-109.78 15.85-164.61 24.16-18.64 2.83-28.06-3.19-32.32-22.57-8.81-40.08-9.77-39.94-49.82-35.33-11.52 1.32-22.98 3.16-37.77 5.22" fill="#c7c7c7"/><path id="path78" d="M6138.97 2261.71c18.69-52.33 18.71-53.04 72.91-51.28 64.9 2.12 129.78 5.13 194.58 9.09 8.44.51 22.99 8.52 23.37 13.86 1.31 18.82-15.06 14-26.09 13.66-64.92-2.01-129.86-3.72-194.71-7.25-24.24-1.32-36.98 3.87-40.44 31.01-4.83 38-16.82 75.1-21.49 113.11-3.68 30.04-.2 60.9-1.32 91.34-.7 19.22 2.45 42.91-7.31 56.68-30.78 43.43-40.71 93.15-53.24 142.54-18.45 72.75-36.9 145.5-57.08 225.05 91.16 8.55 179.78 16.86 273.47 25.65-12.95-46.18 20.56-62.67 43.79-84.59 60.88-57.46 123.73-112.89 183.2-171.76 22.49-22.26 40.06-50.47 55.89-78.24 18.3-32.11 36.16-63.24 66.9-85.75 6.31-4.62 10.56-20.16 7.8-27.77-22.49-61.82-26.48-125.98-26.18-194.06-18.05 1.53-34.56 3.22-51.12 4.28-22.67 1.46-41.55-1.9-39.51-31.83.37-5.53-2.42-11.26-4.27-19.11-20.36 4.29-39.11 8.7-58.05 12.01-9.09 1.59-19.06 3.11-27.64.86-5.65-1.48-9.52-9.74-14.19-14.96 5.13-4.44 9.69-11.63 15.49-12.84 24-4.99 48.48-7.65 72.6-12.13 36.75-6.82 39.98-4.85 44.48 31.24.53 4.22 1.07 8.45 1.58 12.53 63.64 19.64 108.84-28.64 91.54-83.89-9.36-29.9 7.45-47.13 19.46-69.72 35.62-67.01 68.04-135.73 101.72-203.79 32.55-65.77 66.23-131.02 96.92-197.64 7.93-17.21 8.04-38.64 8.99-58.27 1.02-21.09-5.67-43.35-1.15-63.32 12.12-53.48-8.77-99.21-29.77-144.59-5.44-11.78-21.53-20.95-34.77-26.23-17.31-6.91-29.44.19-36.41 20.12-7.53 21.52-17.92 43.02-31.57 61.13-11.16 14.8-27.36 28.19-44.22 35.68-20.34 9.03-35.37 18.33-39.01 42.03-1.32 8.62-6.68 18.26-13.19 24.11-16.5 14.82-34.71 27.13-34.78 53.25-.02 5.46-9.24 11.67-15.22 16.21-37.7 28.63-56.42 65.63-49.37 113.31 2.89 19.49-4.71 31.29-21.96 38.08-17.31 6.81-23.71 19.22-24.63 37.71-2.15 43.45-5.15 86.93-10.33 130.09-1.16 9.64-11.39 19.62-19.76 26.7-28.47 24.09-58.83 45.98-86.89 70.51-43.77 38.29-107.36 57.15-162.74 20.44-13.62-9.03-30.92-23.39-43.56-20.79-28.45 5.83-64.09 13.36-80.52 33.5-35.25 43.17-85.8 42.04-129.59 59.88-6.21 2.53-15.01-.66-22.48-1.99-21.79-3.87-43.39-8.98-65.29-12.09-50.3-7.15-54.24-4.02-74.74 42.74-7.53 17.18-2.67 23.74 14.77 24.76 24.73 1.46 49.65 1.81 74.12 5.22 69.28 9.65 138.38 20.58 207.55 31.09 7.43 1.13 14.78 2.77 23.46 4.42" fill="#c7c7c7"/><path id="path80" d="M2440.64 3324.13c198.89-39.27 395.88-78.17 595.75-117.63-46.1-281.91-91.75-561.15-137.98-843.87-36.3 4.64-69.81 8.56-103.22 13.28-38.03 5.37-76.21 10.21-113.84 17.74-18.63 3.73-37.88 10.19-53.92 20.14-112.42 69.76-224.08 140.73-335.95 211.37-6.49 4.09-12.87 8.4-19.01 13-34.19 25.69-33.92 25.68-23.75 65.58 2.71 10.67 5.22 21.87 4.89 32.74-1.42 46.38 10.99 88.21 42.59 122.26 38.54 41.52 41.17 85.23 15.14 133.68-12.42 23.11-13.54 44.65-2.23 72.09 11.42 27.69 9.04 61.7 9.75 93.01.91 39.71 4.04 42.98 40.46 29.37 43.92-16.42 52.5-11.07 61.06 36.05 5.93 32.62 12.97 65.03 20.26 101.19" fill="#c7c7c7"/><path id="path82" d="M2390.23 3207.26c-15.35 5.15-25.71 8.62-36.06 12.1-39.3 13.22-62.82-3.2-64.22-45.35-.85-25.6-.6-51.23-1.4-76.83-.24-7.33-2.44-14.6-5.16-29.89-32.02 49.86-60.02 93.38-87.94 136.96-109.64 171.13-219.25 342.27-328.89 513.41-17.68 27.59-35.99 54.81-52.77 82.95-3.79 6.34-4.93 16.42-3.03 23.67 36.68 140.45 73.98 280.73 111.27 421.02.84 3.14 3.02 5.93 2.76 5.44 212.54-47.19 423.27-93.98 637.95-141.65-57.37-299.91-114.55-598.82-172.51-901.83" fill="#c7c7c7"/><path id="path84" d="M3170.88 3846.9c12.5-1.25 21.67-1.99 30.79-3.11 64.95-7.98 129.91-15.86 194.83-24.13 47.43-6.03 94.79-12.69 142.21-18.9 29.26-3.84 58.49-8.26 87.87-10.63 11.98-.97 24.35 2.77 32.84 3.89 9.7-4.45 17.15-10.01 25.25-11.24 77.65-11.72 155.31-23.45 233.19-33.42 20.5-2.63 27.68-9.68 26.32-30.46-7.75-119.22-14.45-238.51-21.69-357.76-4.24-69.76-8.82-139.49-13.59-214.64-280.01 27.67-557.84 55.13-839.16 82.93 34.01 207.64 67.43 411.65 101.14 617.47" fill="#c7c7c7"/><path id="path86" d="M3763.67 4401.26c-19.96-198.37-39.57-393.41-59.86-595.12-264.1 35.23-525.47 70.09-791.2 105.54 6.27 34.91 12.54 66.37 17.49 98.03 22.17 141.61 43.64 283.32 66.03 424.89 10.04 63.54 10.63 62.51 73.64 54.43 208.99-26.79 418.09-52.86 627.14-79.22 21.76-2.74 43.51-5.57 66.76-8.55" fill="#c7c7c7"/><path id="path88" d="M2239.85 4206.27c-71.4 17.42-139.92 31.44-206.82 51-166.99 48.82-333.25 100.16-499.81 150.5-1.63.49-3.24 1.08-4.89 1.51-62.36 16.51-62.57 16.52-58.08 80.44 1.37 19.56 3.1 39.24 6.88 58.44 2.23 11.33 7.47 22.64 13.66 32.52 16.58 26.45 38.37 50.33 51 78.43 43.36 96.4 83.97 194.05 124.92 291.53 7.58 18.03 14.8 28.45 37.51 20.47 23.14-8.13 53.01 1.22 68.54-25.98 6.11-10.7 12.47-22.77 13.41-34.64 3.52-44.73 21.75-66.09 67.52-74.33 7.53-1.35 15.41-2.72 22.91-1.97 32.5 3.23 58.9-5.73 87.91-23.65 42.46-26.23 91.87-15.26 138.9-3.63 13.73 3.4 29.03 3.87 43.08 1.88 38.52-5.46 76.86-12.45 115.08-19.83 19.68-3.79 38.94-9.72 58.4-14.66 26.35-6.69 53.87-10.6 78.64-21.05 15.12-6.38 30.77-20.56 37.62-35.23 8.6-18.45-12.33-23.64-24.8-32.05-27.39-18.48-60.42-33.55-78.78-58.95-16.91-23.41-18.21-58.37-25.24-88.5-2.46-10.56-.09-22.23-2.37-32.87-18.69-87.52-37.96-174.92-57.06-262.36-2.34-10.69-4.7-21.38-8.13-37.02" fill="#c7c7c7"/><path id="path90" d="M2448.98 3351.9c47.4 252.19 94.01 500.2 141.38 752.21 31.93-6.25 63.35-12.06 94.63-18.58 64.36-13.41 128.51-27.85 193.03-40.46 20.67-4.03 29.25-10.29 23.3-33.49-7.17-28-9.66-57.19-14.27-85.84-5.83-36.32-3.99-38.5 33.09-43.49 65.13-8.77 130.23-17.83 195.33-26.91 7.47-1.04 14.81-3 26.38-5.41-33.35-204.19-66.56-407.48-100.43-614.86-198.9 39.23-395.09 77.91-592.44 116.83" fill="#c7c7c7"/><path id="path92" d="M4793.34 3587.99c-.68-10.59-2.01-21.18-1.81-31.75.12-6.26 5.98-14.55 3.59-18.39-17.3-27.75-3.22-49.45 15.8-65.53 25.2-21.3 28.98-44.49 27.01-76.17-5-80.04-4.52-160.42-6.19-240.66-.17-8.32-.02-16.65-.02-28.12-10.49 0-18.72-.02-26.95.01-216.99.71-433.99.45-650.97 2.69-70.52.72-140.98 7.98-215.45 12.5 9.43 155.72 18.59 307.07 28 462.59 16.68-1.46 31.46-2.38 46.14-4.09 225.31-26.29 451.29-34.45 677.88-24.12 34.58 1.57 68.99 6.91 103.48 10.51l-.51.53" fill="#c7c7c7"/><path id="path94" d="M5302.8 4889.34c-38.4-19.38-73.48-34.99-106.27-54.47-17.39-10.34-34.35-25.09-45.16-41.92-16.34-25.44-26.21-54.94-40.77-81.66-5.42-9.93-15.68-17.66-24.83-25.01-16.78-13.48-21.41-30.51-23.08-51.52-1.4-17.51-6.74-37.79-17.56-50.87-31.15-37.69-41.21-75.81-23.55-123.26 8.66-23.26 6.71-50.4 10.1-75.7 6.57-49.02 19.81-63.65 68.53-71.11 21-3.22 30.09-14.2 41.04-31.94 13.75-22.26 38.01-37.85 56.67-57.34 8.89-9.28 15.3-20.92 22.84-31.49-1.9-2.36-3.8-4.73-5.69-7.1-189.04-7.77-378.07-15.55-566.07-23.28 0 33.51.11 63.81-.03 94.12-.27 59.69.05 119.39-1.35 179.06-.69 29.3-11.98 54.37-36.14 73.43-5.62 4.44-9.41 16.52-7.91 23.82 9.6 46.57 9.91 92.35 2.74 139.75-5.25 34.71 1.55 71.11.86 106.71-.28 14.15-3.39 29.78-10.14 42.02-33.36 60.51-23.97 125.88-24.18 193.19 15.69 0 31.51-.79 47.22.14 62.32 3.66 122.14-4.33 178.96-32.34 35.94-17.71 74.43-22.95 114.75-18.46 48.83 5.44 95.51-5.9 139.3-26.65 57.68-27.35 115.61-43.78 180.65-28.84 21.52 4.94 49.03 7.12 69.07-19.28" fill="#c7c7c7"/><path id="path96" d="M3764.03 4113.23c15.14 151.91 29.92 300.19 44.26 443.98 254.8-10.51 506.89-20.92 755.95-31.19 12.11-15.29 28.22-30.3 37.47-48.74 9.95-19.86 18.35-42.81 18.97-64.65 2.96-103.99 7.03-208.21-18.13-310.8-4.93-20.08-3.58-41.7-5.19-63.38-26.97 7.28-51.18 15.72-76.09 19.91-18.95 3.19-40.41 5.79-57.88-.01-22.74-7.56-40.34-2.88-57.47 9.2-23.49 16.56-48.6 21.81-77.21 20.41-179.45-8.77-358.23 1.47-536.62 20.86-8.31.9-16.55 2.58-28.06 4.41" fill="#c7c7c7"/><path id="path98" d="M2526.99 5254.3c5.25.5 7.04 1.12 8.58.75 58.86-13.89 50.5-9.19 38.99-58.52-17.72-76.04-19.36-150.7 9.97-223.77 6.93-17.28 20.5-32.39 32.98-46.79 9.97-11.49 23.93-19.46 34.34-30.64 21.23-22.78 37.99-45.21 24.28-81.42-12.86-33.96-17.28-71.16-24.87-107.05-5.46-25.81 4.93-39.08 31.07-40.61 5.93-.34 11.93.37 17.88.74 27.71 1.76 27.43.27 25-27.92-1.56-17.97.79-36.99 5.15-54.61 7.39-29.78 16.95-59.09 27.06-88.09 16.16-46.31 29.44-53.96 76.79-42.2 36.85 9.15 73.31 16.34 111.04 6.39 7.29-1.92 14.67-3.51 24.14-5.76l-58.87-387.7c-54.99 11.56-108.96 22.87-162.9 34.26-149.47 31.56-298.86 63.52-448.48 94.35-21.87 4.51-29.8 12-24.42 35.38 20.46 88.9 40.08 178.01 58.28 267.4 5.4 26.48 4.6 54.18 7.66 81.2 2.02 17.81 11.12 29.81 27.94 39.49 28.49 16.4 54.87 36.58 81.52 56.01 17.56 12.81 26 45.35 10.78 62.22-43.86 48.61-27.04 103.02-16.6 154.9 18.16 90.25 41.93 179.36 62.93 269.05 7.18 30.64 13.12 61.56 19.76 92.94" fill="#c7c7c7"/><path id="path100" d="M3972.67 3637.08c0 35.26-.94 70.16.35 104.98.8 21.84-8.4 30.04-29.23 32.71-62.63 8.03-125.08 17.52-187.58 26.59-11.81 1.72-23.81 2.15-21.83 20.58 9.2 85.62 17.52 171.34 26.51 260.48 38.86-3.98 75.75-9.01 112.81-11.35 150.81-9.52 301.59-22.84 452.89-11.41 23.4 1.77 43.55-2.21 62.72-15.71 24.24-17.07 50.34-21.61 80.1-13.81 43.06 11.28 81.72-9.88 121.42-21.67 2.82-.84 5.89-3.95 7.07-6.75 32.08-76.09 65.12-151.82 95-228.77 7.74-19.93 5.1-43.8 7.85-65.79 3.89-31.18 13.16-59.98 37.64-81.91 3.46-3.1 4.95-8.41 7.34-12.66-39.86-23.17-688.29-1.75-773.06 24.49" fill="#c7c7c7"/><path id="path102" d="M2042.73 5400.6c30.8-8.58 61.59-17.17 92.39-25.76 11.43-5.38 22.38-12.44 34.37-15.87 100.11-28.63 200.43-56.56 300.65-84.82 9.63-2.72 19.02-6.26 26.65-8.79-19.56-163.55-82.72-315.76-95.16-483.37-23.78 6.55-47.91 13.23-72.06 19.85-18.6 5.1-37.01 11.24-55.89 14.93-42.34 8.28-84.77 16.33-127.46 22.34-15.96 2.26-33.45 1.26-49.04-2.84-49.63-13.05-97.02-22.44-142.67 14.4-12.77 10.3-34.91 9.76-53.01 12.45-15.85 2.35-32.56.13-48.01 3.73-23.69 5.53-39.82 16.17-38.68 47.16 1.61 43.84-35.43 78.23-78.91 81.5-13.2 1-26.22 4.41-35.04 5.96 3.09 34.12 5.53 64.99 8.96 95.76.7 6.28 4.62 12.42 7.87 18.16 12.62 22.21 28.57 43.75 6.45 69.49-2.57 2.99-1.43 9.51-1.35 14.39.75 43.94 1.69 87.87 2.44 131.81.23 13.1.04 26.22 3.83 41.91 50.17-39.75 121.4-31.92 169.64-87.1-20.86-13.45-40.32-25.17-58.72-38.36-5.59-4-13.13-15.36-11.51-17.76 13.73-20.28 26.74-42.52 45.34-57.5 12.54-10.09 41.3 9.66 50.16 29.78 2.4 5.45 5.38 11.15 5.79 16.9 2.27 31.55 5.87 62.18 30.35 86.18 3.95 3.87 4.48 12.77 4.13 19.21-1.64 29.61-4.14 59.18-6.27 87.83 31.78-4.34 58.27-7.95 84.76-11.57" fill="#c7c7c7"/><path id="path104" d="M3811.77 4595.34c14.41 150.52 28.53 298.11 43.12 450.53 35.44-2.32 69.78-4.91 104.16-6.76 115.05-6.2 230.08-13.1 345.19-17.81 69.88-2.86 139.91-2.92 209.86-2.66 22.74.09 30.49-9.79 30.22-30.34-.16-11.94 1.09-23.99-.01-35.83-4-43.27 1.25-84.12 19.93-124.47 17.42-37.61 21.18-78.44 14.61-120.36-2.97-18.95-.01-38.91.99-58.38.44-8.46 2.87-16.8 4.14-25.24 7.68-51.01-3.02-64.93-53.28-63.58-170.67 4.56-341.36 9.19-511.97 15.63-61.34 2.31-122.5 9.74-183.72 15.02-6.68.57-13.26 2.38-23.24 4.25" fill="#c7c7c7"/><path id="path106" d="M4793.85 3587.46c-16.27 20.47-32.66 40.85-48.7 61.5-2.79 3.59-6.81 9.87-5.49 12.22 2.42 4.32 8.26 9.12 12.93 9.4 48.64 2.96 97.33 5.18 146.02 7.37 57.12 2.56 114.23 6.29 171.38 6.9 49.19.52 98.43-2.62 147.25-4.13 3.94-30.4 3.44-55.9 11.19-78.58 8.85-25.92 22.66-51.03 38.68-73.38 18.68-26.08 41.39-49.45 63.77-72.62 8.42-8.71 20.13-15.44 31.59-19.74 19.14-7.19 24.29-17.64 17.79-37.35-20.64-62.52-12.61-85.01 47.18-111.74 39.44-17.63 61.4-42.09 61.08-86.45-.2-28.11 9.62-52.17 41.55-59.56-3.51-25.48-1.48-48.65-31.67-61.86-11.56-5.06-16.34-31.45-19.34-48.95-5.48-31.85-4.17-32.26-41.68-26.64 1.42 10.53 2.75 21.16 4.3 31.75 4.17 28.52-1.53 36.1-30.29 35.36-98.15-2.52-196.29-5.63-294.43-8.68-75.03-2.33-150.08-4.47-225.08-7.71-17.58-.76-24.77 4.83-25.01 22.43-1.09 78.37-3.58 156.73-3.82 235.1-.12 36.61 3.2 73.27 5.96 109.84 1.75 23.31-6.19 40.59-24.09 55.94-15.78 13.53-35.26 26.3-18.37 54.57 10.36 17.33-13.95 53.15-33.28 55.61.07-.07.58-.6.58-.6" fill="#c7c7c7"/><path id="path108" d="M4857.45 2613.07c-3.72.64-6.56.41-8.56 1.6-58.64 34.9-119.72 32.45-179.54 6.72-45.57-19.61-89.75-14.18-135.2-4.67-24.19 5.06-48.91 8.16-72.6 14.91-17.37 4.95-33.16 15.17-50.17 21.67-26.12 9.97-52.77 18.54-79.05 28.13-19.02 6.93-38.06 13.94-56.61 22.01-27.36 11.89-53.87 25.83-81.56 36.83-17.18 6.82-22.86 16.53-21.29 34.81 6.38 74.05 11.54 148.2 17.09 222.32.57 7.66.39 15.39 1.14 23.04 2.39 24.38-7.62 34.73-32.94 37-104.63 9.36-209.11 20.53-313.62 31.21-8.3.85-16.45 3.07-25.58 4.83.42 18.25-.83 34.13 25.1 30.49 239.81-33.73 481.17-16.97 721.87-21.51 82.03-1.55 164.06-3.05 246.09-4.5 12.11-.21 23.05 1.11 25.35-16.8 8.7-67.72 23.84-134.99 27.26-202.9 4.16-82.51-.99-165.5-2.45-248.27-.1-5.6-3.05-11.15-4.73-16.92" fill="#c7c7c7"/><path id="path110" d="M5226.92 4722.56c1.54-45.28 17.75-55.57 75.63-46.77 6.54-57.77 49.2-73.02 98.43-81.45 41.2-7.06 81.87-17.21 123.08-24.23 20.34-3.46 32.01-14.95 39.19-32.35 7.16-17.33 13.98-34.93 18.97-52.95 1.57-5.66-2.09-13.76-5.42-19.56-6.34-11.02-16.55-20.37-20.55-32-2.69-7.81-.23-20.71 5.08-26.92 4.4-5.15 17.81-7.44 24.65-4.65 14.69 5.98 27.71 16.04 44.25 26.17-1.59-7.31-1.66-13.59-4.24-18.57-19.22-37-20.75-76.55-20.07-117.15.56-33.14-4.22-66.36-4-99.52.1-16.17 1.97-35.11 10.46-47.85 18.05-27.06 10.64-54.28 7.03-81.69-.57-4.33-11.07-10.02-17.35-10.54-88.48-7.27-176.96-16.18-265.6-18.49-18.94-.49-42.35 20.33-56.95 37.19-25.13 29.01-44.01 62.4-34.6 104.75 7.01 31.55-4.79 56.56-32.12 74.55-23.57 15.52-42.14 34.17-56 60.73-7.97 15.26-33.23 26.86-52.27 29.74-31.23 4.71-41.41 21.92-45.3 48.92-5.2 36.14-13.2 72.03-15.78 108.32-1.15 16.19 3.84 36.18 13.33 49.08 21.28 28.91 37.02 57.11 37.85 95.05.3 13.85 19.44 31.24 34.17 39.97 25.31 15 53.83 24.63 81.16 36.15 5.21 2.2 11.12 2.72 16.97 4.07" fill="#c7c7c7"/><path id="path112" d="M5209.02 4156.54c19.02-52.52 35.47-103.11 82.7-135.52 11.18-7.68 20.75-17.77 30.73-27.09 36.22-33.86 33.21-82.47-6.68-111.6-13.09-9.56-29.06-17.16-38.16-29.69-8.91-12.26-16.88-30.88-14.16-44.49 3.5-17.52-.89-29.08-8.96-42.48-11.3-18.77-21.36-38.29-33.58-60.44-93.51 21.1-191.33 4.13-289.03 2.59-59.96-.95-119.9-4.12-179.76-7.73-17.04-1.03-23.35 4.99-24.24 20.69-5.25 93.14-53.12 171.27-88.91 253.78-21.43 49.39-13.76 100.34-.57 150.26 1.26 4.78 14.79 8.61 22.79 8.96 134 5.82 268.03 10.96 402.04 16.38 49.31 1.99 98.6 4.31 145.79 6.38" fill="#c7c7c7"/><path id="path114" d="M5359.79 4003.15c74.31 5.72 146.66 11.31 219.02 16.86 59.06 4.53 58.94 4.45 85.68-49.13 7.53-15.1 11.58-28.95 2.29-45.79-4.91-8.9-4.65-21.67-3.92-32.5 5.49-81.78 12.14-163.48 17.35-245.27 1.62-25.34-.52-50.9-.17-76.35.27-20.32-3.9-43.13 3.82-60.4 14-31.29 8.71-59.16.12-89.35-10.44-36.68-18.4-74.09-27.02-111.28-5.22-22.53-11.95-42.46-29.98-60.28-14.61-14.43-20.22-38-31.25-60.43-6.18 1.08-15.38 4.69-24.04 3.69-10.2-1.18-20.13-5.9-29.79-10-4.74-2.02-8.6-6.1-12.86-9.24-3.35 5.47-8.47 10.58-9.69 16.49-3.46 16.69-5.9 33.66-7.66 50.63-2.52 24.33-15.36 41.06-36.2 52.4-18 9.79-36.32 19-54.16 29.07-20.5 11.57-28.77 28.03-19.77 51.5 4.26 11.09 8.39 22.64 9.83 34.33 2.74 22.2-3.19 40.55-27.4 48.44-20.22 6.59-33.36 20.15-45.43 38.38-13.89 20.97-34.73 37.3-52.35 55.83-42.36 44.58-50.08 138.16-15.03 188.59 16.44 23.65 32.39 46.58 19.33 77.72-1.49 3.56 2.98 11.18 6.66 15 5.86 6.06 13.22 10.74 20.24 15.58 61.93 42.65 74.14 85.79 42.38 155.51" fill="#c7c7c7"/><path id="path116" d="M4873.37 3025.24c181.18 6.14 358.22 12.14 535.76 18.16 0-24.16-7.14-48.7 2.07-60.99 8.7-11.61 34.58-10.35 59.92-16.45-29.54-63.52-53.15-129.99-89.45-188.6-50.36-81.3-95.55-161.52-84.09-264.61-9.95-.68-19.79-1.94-29.63-1.94-60.67.02-121.35.39-182.02.52-46.38.09-92.76.01-140.78.01 0 24.52 6.7 49.07-1.97 65.51-7.91 15-32.47 21.22-54.11 33.89 17.5 133.05 11.74 271.45-15.7 414.5" fill="#c7c7c7"/><path id="path118" d="M6134.48 2290.43c-50.7-9.62-99.52-21.16-149.01-27.63-49.86-6.51-100.38-7.88-150.6-11.66-44.74-3.36-59.53-29.34-40.17-70.12 6.85-14.44 13.52-28.95 20.07-42.98-29.65-20.29-32.46-18.95-43.51 8.75-3.9 9.76-13.76 17.14-20.89 25.61-8.06-7.73-16.69-14.97-23.98-23.38-4.72-5.44-7.48-12.59-17.56-18.77-3.21 32.29-6.11 64.61-9.71 96.86-15.8 141.63-8.9 283.22.75 424.79 4.13 60.49 9.24 120.93 12.83 181.45.98 16.55 6.83 23.9 23.65 26 81.31 10.13 162.56 20.82 243.69 32.31 17.61 2.49 21.82-6.24 25.35-20.12 23.78-93.52 47.57-187.03 72.45-280.25 4.48-16.79 11.95-33.67 21.76-47.96 15.3-22.31 18.93-44.11 17.72-71.7-2-45.42 5.05-91.29 9.01-136.9 1.16-13.37 4.8-26.53 8.15-44.3" fill="#c7c7c7"/><path id="path120" d="M5565.61 2019.53c-13.4-30.11-44.97-46.12-25.63-76.66 13.05-20.63 33.43-36.63 48.2-59.15-15.36 9.38-31.15 18.14-45.92 28.36-10.47 7.26-18.41 18.92-29.57 24.21-12.8 6.07-28.16 10.06-41.85 8.8-3.89-.36-5.8-22.17-8.76-34.71h-147.19c-3.44 59.17-50.19 65.71-88.35 78.8-11.15 3.83-31.82-6.05-41.74-16-14.9-14.96-25.58-22.87-47.38-12.07-27.14 13.44-56.06 24.34-85.35 31.92-16.1 4.17-34.66.22-51.87-1.94-7.8-.97-15.03-6.46-28.09-12.47 0 41.68-4.08 79.25 1.12 115.48 5.5 38.37 23.86 74.98 28.56 113.35 2.25 18.35-9.72 42.9-23 57.71-22.17 24.72-21.44 55.61-29.42 83.34-10.2 35.43-9.83 73.77-16.56 110.38-3.53 19.2 4.49 28.1 20.38 28.14 61.41.19 122.83-1.25 184.25-2.35 45.21-.81 90.43-2.9 135.63-2.66 18.96.1 26.5-4.12 27.84-25.12 1.25-19.67 8.13-40.25 17.52-57.76 8.42-15.7 7.75-24.98-3.86-38.11-40.6-45.93-58.92-100.9-62-161.61-1.11-21.8 8.03-31.41 30.04-30.7 60.62 1.95 121.27 2.72 181.87 5.11 15.6.61 25.87-2.85 32.51-17.75 5.19-11.62 12.55-22.31 19.3-33.18 10.79-17.39 23.13-33.65-8.79-44.14-5.47-1.8-9.95-21.44-7.14-30.4 5.36-17.11 16.01-32.41 39.05-29.02 8.56 1.26 17.46.2 26.2.2" fill="#c7c7c7"/><path id="path122" d="M7087.92 4783.93c7.38-17.27 14.69-30.83 19.02-45.29 7.25-24.21 11.89-49.19 18.95-73.46 8.49-29.26 12.47-62.06 28.78-86.38 43.74-65.21 58.49-134.01 49.8-211.43-3.49-31.1 3.48-64.42 11.03-95.44 10.16-41.8 15.46-81.48 7.8-125.06-36.46 6.68-74.95 8.45-108.82 21.89-20.71 8.22-35.94 33.13-50.66 52.78-15.99 21.35-31.47 24.99-58.27 18.05-141.13-36.56-283.08-70-424.76-104.44-3.24-.79-6.74-.52-11.18-.82-10.28 21.91-10.96 41.35 7.94 59.94 11.48 11.28 20.16 25.36 30.41 37.93 20.82 25.54 28.32 52.33 17.26 85.58-11.99 36.06-2.43 45.12 35.07 51.98 46.09 8.43 92.32 17.85 137.02 31.59 43.74 13.44 71.13 53.34 68.29 92.78-4.83 66.87 31.81 114.36 55.4 168.73 17.56 40.49 46.24 67.57 87.67 83.32 26.9 10.23 52.2 24.69 79.25 37.75" fill="#c7c7c7"/><path id="path124" d="M5684.61 2852.12c-2.09-32.16-4.07-60.01-5.68-87.88-6.17-106.52-15.02-212.98-17.33-319.58-1.56-72.26 5.9-144.73 9.77-217.08 1.55-28.91 3.58-57.84 6.79-86.61 1.69-15.18-4.24-22.08-18.18-25.07-30.35-6.52-60.61-13.46-94.56-21.05-15.42 26.91-33.74 57.46-50.53 88.84-7.68 14.35-15.71 20.54-33.65 19.54-55.38-3.09-110.92-3.28-166.41-4.51-10.02-.22-20.06-.03-32.81-.03 3.58 54.71 18.12 101.61 51.92 141.28 27.78 32.59 28.13 40.13 7.41 76.08-6.94 12.03-10.24 27.13-11.62 41.18-2.81 28.7-3.08 57.65-4.6 86.48-3.95 74.82 30.44 136.7 66.94 197.75 13.09 21.88 26.78 43.45 41.41 64.32 4.79 6.84 12.88 14.74 20.36 15.81 75.05 10.71 150.29 20.09 230.77 30.53" fill="#c7c7c7"/><path id="path126" d="M7156.7 3331.42c-13.83-15.3-28.36-30.05-41.18-46.16-6.3-7.93-9.43-18.37-14-27.68 9.75-3.35 19.35-7.29 29.3-9.83 5.66-1.44 11.91-.38 17.87-.81 30.13-2.21 35.76-8.53 34.09-37.96-1.34-23.85-12.43-33.4-38.87-32.87-7.65.16-17.31 4.71-22.45 1.49-8.22-5.13-15.32-14.2-19.47-23.18-5.56-12.08-7.85-25.66-11.59-38.58-2.81-9.75-10.85-22.98-7.23-28.33 4.56-6.73 18.53-8.94 28.65-9.56 12.93-.79 26.08 1.96 39.13 3.18 1.11-3.1 2.21-6.19 3.31-9.28-18.78-9.62-36.6-23.01-56.54-28.1-43.99-11.25-71.81-36.34-84.81-79.69-4.12-13.73-11.67-26.57-18.61-39.3-15.63-28.63-39.08-35.39-67.38-20.76-43.98 22.73-87.46 46.69-132.62 66.81-16.89 7.52-39.76 12.01-56.68 7-44.23-13.12-81.36-.43-120.36 17.85-20.67 9.68-45.43 14.63-68.38 14.73-70.35.29-136.24-21.57-200.21-48.68-46.98-19.91-95.47-9.19-143.2-13.79-4.16 23.96 1.58 39.41 21.31 49.79 24.14 12.69 46.98 27.85 71.17 40.4 24.46 12.69 44.71 28 62.73 50.29 15.64 19.35 41.11 35.35 65.23 42.06 28.53 7.93 43.29 23.53 48.43 49.13 5.16 25.74 20.3 32.62 43.94 35.01 189.79 19.2 374.97 63.74 560.9 104 23.77 5.14 46.7 14.13 70.01 21.35 2.5-2.84 5.01-5.68 7.51-8.53" fill="#c7c7c7"/><path id="path128" d="M6521.26 3809.85c.96 7.45 2.27 14.88 2.82 22.36 1.72 23.21 7.15 47.01 3.94 69.55-9.81 68.74-23.31 136.95-34.32 205.53-.99 6.15 4.03 15.37 9.14 19.92 8.02 7.13 18.5 11.49 27.55 16.8 2.43-2.24 4.32-3.13 4.68-4.43 11.08-40.64 11.42-42.16 52.05-32.4 141.15 33.89 282.11 68.61 422.88 104.03 14.62 3.68 23 1.82 32.95-9.25 45.99-51.14 46.99-50.98 33.45-121.32-3.99-20.72-3.23-38.07 10.77-54.92 8.06-9.7 13.98-21.49 19.37-33.04 21.29-45.64 12.57-57.84-25.73-89.63-43.23-35.87-93.84-44.8-144.47-56.85-56.42-13.43-113.41-24.48-169.86-37.82-23.62-5.58-46.68-12.29-52.92-42.77-2.64-12.88-15.04-23.76-25.08-33.46-30.23 57.81-32.98 59.01-86.95 41.49-38.45-12.48-38.27-12.34-63.41 19.13-5.14 6.44-12.14 11.39-18.25 17.03.02 0 .61.77.61.77l.78-.72" fill="#c7c7c7"/><path id="path130" d="M6144.78 4365.41c22.72-42.96 45.77-82.62 64.36-124.26 5.13-11.49.89-31.05-5.77-43.23-28.1-51.48-51.69-104.02-54.1-163.68-.68-16.81-9.41-25.07-24.74-26.93-33.86-4.12-67.8-7.59-101.72-11.23-47.44-5.1-94.85-10.59-142.36-15.01-31.06-2.88-62.28-4.16-93.28-6.15 8.26 46.08 14.32 87 23.19 127.29 8.85 40.19 1.72 76.73-21.18 109.69-33.42 48.13-44.3 98.8-24.63 155.18 4.16 11.92 5.05 25.06 6.84 37.73 4.59 32.51 18.24 49.76 50.21 56.43 24.84 5.19 33.41 18.65 27.79 41.96-4.02 16.68 1.44 28.22 12.07 41.5 10.51 13.12 15.87 30.74 21.79 47.01 3.3 9.08 3.15 19.42 5.12 33.04 29.42-11.13 55.36-21.15 81.46-30.74 20.44-7.51 40.68-16.13 61.75-21.11 14.57-3.45 20.59-7.64 22.75-24.05 2.18-16.53 13.77-31.63 19.45-47.97 4.11-11.85 10.12-26.13 6.93-36.85-11.37-38.33-25.65-75.86-40.16-113.18-7.41-19.04.18-33.51 14.24-41.81 8.48-5 26.26-4.98 33.53.77 20.39 16.12 37.5 36.39 56.46 55.6" fill="#c7c7c7"/><path id="path132" d="M6521.22 3811.62c-19.95-6.82-27.25-23.74-28.04-41.85-1.36-30.99-15.18-49.32-43.95-61.29-27.85-11.59-45.11-33.98-53.48-64.6-4.38-16.05-17.95-29.44-26.37-44.58-6.53-11.77-11.04-24.66-17.3-36.6-8.24-15.73-17.3-31.02-27.16-48.55-26.99 31.8-57.71 30.77-93.45 23.82-41.82-8.13-84.09-8.09-120.94 23.73-13.53 11.68-35.88 13.15-52.83 18.83-14.54 91.75-30.03 183.37-43.11 275.34-5.09 35.75-4.72 72.29-6.57 103.95 56.36 10.68 105.2 21.44 154.58 28.39 14.91 2.1 31.55-5.54 46.99-10.1 71.11-21.04 148.9 5.95 193.33 65.25 16.08 21.47 36.46 39.71 59.2 64.04 5.39-20.3 7.17-33.02 12.07-44.4 22-51.09 15.83-107.57 31.29-160.12 5.19-17.63-.7-38.77-2.72-58.19-1.71-16.32-3.54-31.6 18.5-34.84l-.78.72c.01.01.74 1.05.74 1.05" fill="#c7c7c7"/><path id="path134" d="M6051.64 3550.08c15.64-4.36 33.44-4.26 43.54-13.02 43.27-37.54 93.62-33.01 143.55-26.65 43.62 5.55 45.96 4.9 67.21-33.06 22.68-40.53 48.56-79.26 73.79-119.98-6.7-6.96-16.97-16.96-26.48-27.64-20.78-23.34-41.93-46.41-61.54-70.72-23.14-28.68-45.27-54.01-86.81-59.58-163.17-21.9-326.03-46.21-488.68-71.65-45.07-7.05-89.01-21.27-133.57-31.78-7.96-1.87-16.4-1.68-29.68-2.92 4.25 25.34 7.94 47.25 11.37 67.72 5.34 1.32 7.06 2.33 8.51 2.03 48.62-9.96 47.87-9.78 61.25 39.77 3.33 12.36 12.74 23.25 20.13 34.3 5.17 7.72 15.72 13.96 16.88 21.89 7.3 49.61 48.39 47.51 80.71 48.51 51.41 1.58 97.95 9.35 135.84 47.26 3.69 3.7 13.29 4.53 18.91 2.75 25.48-8.07 39.4 5.66 48.82 25.59 10.92 23.11 19.22 47.46 29.95 70.67 3.69 8 10.46 19.33 17.19 20.38 35.52 5.54 40.2 32.48 45.49 59.81.79 4.05 1.78 8.05 3.62 16.32" fill="#c7c7c7"/><path id="path136" d="M5453.9 2852.34c8.79 22.71 15.84 40.91 22.86 59.12 15.22 39.44 33.32 78.21 31.59 121.97-.89 22.44 12.3 29.63 31.55 31.14 22.96 1.81 46.4 1.25 68.78 5.84 62.33 12.81 123.69 31.13 186.4 41.17 132.99 21.27 266.58 38.81 399.97 57.6 79.4 11.19 158.88 21.86 238.34 32.68 4.79.66 9.68.62 16.71 1.03-4.26-21.65-8.69-35.65-32.22-44.51-35.11-13.22-71.25-28.61-91.33-65.85-5.41-10.03-19.22-16.14-30.09-22.48-29.45-17.18-59.4-33.5-89.14-50.18-20.2-11.32-32.13-27.72-31.27-51.7.57-16.21-5.4-23.45-23.16-25.69-166.73-21.03-333.32-43.15-499.95-64.97-59.2-7.75-118.38-15.57-177.58-23.29-5.73-.75-11.52-1.03-21.46-1.88" fill="#c7c7c7"/><path id="path138" d="M7143.8 3367.32c-278.68-77.37-561.44-119.87-845.88-153.22-1.92 2.19-3.83 4.38-5.75 6.56 33.24 35.33 66.64 70.52 99.64 106.06 10.15 10.93 19 12.06 33.38 5.35 12.98-6.06 30.46-9.34 44.01-5.99 37.99 9.38 75.2 22.12 112.28 34.83 48.92 16.78 71.18 55.63 81.7 103.17 3.13 14.16 4.18 28.82 7.98 42.76 5.72 20.91 1.7 47.63 31.51 55.55 3.56.95 5.36 8.32 8.07 12.66 28.4 45.48 56.25 91.32 85.86 135.99 4.24 6.4 16.77 8.48 25.91 10.19 16.33 3.06 33.22 3.28 49.46 6.64 15.83 3.27 46.55-20.92 47.57-39.77 2.14-39.46 20.17-67.59 57.24-82.81 8.67-3.56 17.08-7.78 25.71-11.44 59.23-25.17 50.36-17.88 53.36-91.03.55-13.34 2.45-26.64 2.71-39.98.12-5.94-1.45-12.25-3.68-17.83-3.95-9.91-15.27-24.61-12.4-28.07 8.43-10.14 21.88-16.67 34.32-22.63 4.33-2.08 11.7.89 17.25 2.8 36.54 12.54 36.5 12.65 49.75-29.79" fill="#c7c7c7"/><path id="path140" d="M5972.25 3962.65c9.99-62.54 19.98-121.02 28.37-179.73 2.99-20.92 1.4-42.45 3.21-63.59 1.43-16.7 1.79-34.49 7.97-49.62 20.59-50.4 12.73-100.51 2.08-150.8-1.12-5.3-7.5-12.11-12.7-13.49-26.49-7.06-38.16-27.05-47.01-50.1-4.59-11.96-9.27-23.88-13.75-35.87-7.54-20.13-12.46-41.48-43.82-31.21-8.03 2.63-22.5-6.57-30.76-13.97-24.38-21.83-50.76-35.69-84.51-36.45-29.51-.66-58.93-5.07-93.74-8.33 4.28 19.11 7.65 37.79 12.78 55.98 5.55 19.67 15.85 38.5 18.36 58.41 2.54 20.13-1.28 41.21-3.55 61.73-1.48 13.4-9.27 27.26-7.17 39.72 12.33 73-5.14 144.44-8.96 216.55-2.34 44.33-5.26 88.63-7.52 132.96-.38 7.39 1.27 14.88 2.37 26.36 30.4-8.93 53.58-1.14 69.93 24.35 2.01 3.14 9.09 3.84 13.94 4.22 57.64 4.45 115.3 8.72 172.98 12.79 9.16.65 18.42.09 21.5.09" fill="#c7c7c7"/><path id="path142" d="M6914.43 2879.55c-36.82-22.77-43.57-54.34-47.4-85.64-4.98-40.66-25.72-70.47-54.04-98.08-12.28-11.97-22.99-28.76-27.07-45.18-6.27-25.22-20.73-41.42-39.9-56.81-25.46-20.43-49.13-43.07-76.07-66.98-27.5 8.82-41.57 37.59-53.31 66.22-20.73 50.55-55.87 88.93-95.54 124.64-58.35 52.52-115.94 105.89-173.87 158.89-29.06 26.58-25.44 43.97 11.14 58.22 58.13 22.65 116.33 43.62 179.75 47.2 25.66 1.45 49.04.33 71.25-13.34 40.53-24.94 83.27-33.16 129.99-18.82 10.61 3.25 24.94 2.79 34.9-1.78 45.53-20.87 90.12-43.81 140.17-68.54" fill="#c7c7c7"/><path id="path144" d="M7486.48 4609.87c-9.63 11.54-23.28 21.58-28.23 34.87-28.3 75.94-54.69 152.61-81.25 229.2-2.3 6.65-4.37 16.66-1.14 21.44 31.62 46.82 31.32 101.88 41.98 154.19 11.71 57.4 23.94 114.73 38.14 171.55 8.21 32.84 19.16 39.29 53.24 40.39 15.35.49 30.95-1.46 46.05.57 27.79 3.72 41.61-10.21 48.02-34.52 8.03-30.5 17.87-60.85 22.19-91.93 5.5-39.65 27-64.99 60.49-82.94 15.76-8.44 31.56-16.83 47.09-25.69 37.82-21.58 40.68-54.65 4.95-78.27-27.57-18.23-51.48-38.26-67.12-68.23-4.34-8.3-16.67-16.6-25.89-17.28-17.43-1.29-25.84-9.04-31.92-24.08-13-32.14-33.49-58.61-61.28-79.91-35.57-27.25-51.16-64.87-52.68-109.03-.4-11.67-1.8-23.3-2.75-34.95-3.3-1.79-6.59-3.58-9.89-5.38" fill="#c7c7c7"/><path id="path146" d="M6521.01 3768.02c41.52-52.39 82.77-14.57 124.91-8.16 3.96-15.58 6.38-30.54 11.63-44.42 7.86-20.83 21.78-25.03 36.82-9.27 17.24 18.07 30.9 39.53 46.52 59.19 3.31 4.16 7.92 8.22 12.79 9.99 7.93 2.89 16.94 2.83 24.83 5.79 30.85 11.6 49.96-1.46 64.5-31.64-9.56 0-17.7-.8-25.62.14-26.32 3.16-40.01-11.43-52.31-32.36-25-42.51-52.05-83.82-78.27-125.62-.91-1.44-1.78-3.64-3.08-3.99-42.12-11.41-32.61-49.78-41.1-78.67-1.92-6.53-3.77-13.27-4.24-20.01-4.67-67.42-46.28-100.74-106.98-116.76-18.12-4.78-36.42-9.13-54.09-15.27-23.84-8.28-46.2-3.48-61.09 14.27-27.19 32.42-51.19 67.58-75.32 102.43-2.91 4.2-.11 14.43 2.97 20.35 13.68 26.37 24.23 56.08 43.85 77.21 24.57 26.45 33.35 58.2 46.17 89.2 1.81 4.38 6.11 8.88 10.39 10.91 39.35 18.63 63.91 49.7 76.72 96.69" fill="#c7c7c7"/><path id="path148" d="M5522.29 4820.23c-8.65-5.45-19.11-9.31-25.59-16.67-16.08-18.27-14.19-39.94-4.28-60.07 9.03-18.32 25.5-14.49 42.53-12.23 8.1 1.07 20.87-5.81 25.72-13 11.45-17 25.15-24.59 45.2-21.57 5.05.76 10.25.97 15.36.75 46.35-2 89.65-.42 128.53 34.25 25.11 22.39 59.64 32.55 94.25 7.99 8.31-5.89 23.44-5.86 34.43-3.63 39.26 8 62.55-9.84 65.21-52.79-29.8 0-59.59.44-89.35-.15-22.45-.45-44.85-1.98-58.28-24.76-1.86-3.16-6.37-5.08-10.02-6.81-37.37-17.83-75.48-34.26-111.86-53.91-11.81-6.39-20.33-20.29-28.24-32.17-12.69-19.04-23.63-39.25-38.54-64.44-5.36 15-8.92 24.93-12.46 34.86-12.48 35.04-31.7 59.83-73.2 64.97-46.48 5.76-92.29 17.23-138.22 26.97-36.86 7.81-52.05 26.97-54.39 63.97-.89 13.98 3.85 21.4 17.9 21.88 33.09 1.15 56.86 16.54 77.79 42.41 19.14 23.66 43.77 42.97 66.7 63.39 5.91 5.25 14.53 7.46 21.9 11.07 2.97-3.44 5.94-6.87 8.91-10.31" fill="#c7c7c7"/><path id="path150" d="M7119.75 4786.07c62.38 17.21 122.03 33.66 185.86 51.27-4.21-29.49-5.31-60.79-13.52-90.1-21.56-76.96-24.36-154.19-11.67-232.55 2.31-14.29 3.96-28.69 6.35-46.19-11.48-3.19-22.74-9.05-33.6-8.4-7.44.45-17.43 8.45-20.97 15.68-18.25 37.29-35.52 75.12-51.66 113.38-9.52 22.55-21.28 45.86-23.19 69.55-2.96 36.77-12.3 70.26-29.16 102.48-4.11 7.86-5.83 16.97-8.44 24.88" fill="#c7c7c7"/><path id="path152" d="M7316.13 4475.7c-7.49 59.48-22.96 116.69-10.07 177.71 13.81 65.42 20.21 132.4 30.07 198.66.68 4.57 3.32 8.86 7.62 19.9 6.72-14.99 11.63-24.23 15.1-33.99 22.83-64.26 45.66-128.53 67.83-193.03 9.3-27.03 23.02-48.93 51.6-59.27 12.76-4.62 15.56-33.08 3.01-40.19-50.81-28.76-97.97-66.22-159.45-71.15-.81-.07-1.66.37-5.71 1.36" fill="#c7c7c7"/><path id="path154" d="M7117.35 4136.1c34.02-6.26 65.85-11.53 97.33-18.46 5.54-1.23 13.19-9.01 13.76-14.41 10.24-97.7 19.08-195.46-27.27-287.81-2.23-4.44-5.46-8.38-8.84-13.49-22.62 8.42-45.38 15.08-66.46 25.25-20.57 9.92-23.46 56.88-6.04 72.17 30.79 27.02 35.66 44.91 21.75 83.5-4.32 11.98-7.59 25.67-15.66 34.73-32.67 36.66-18.83 75.64-8.57 118.52" fill="#c7c7c7"/><path id="path156" d="M7415.43 4184.8c-47.62-36.24-89.85-83.42-154.64-94.6-5.82 72.64-11.48 143.34-17.53 218.79 50.07 16.2 105.61 34.17 164.12 53.09 11.14-35.89 21.14-68.13 30.32-97.72-40.26-23.34-78.65-44.9-116.21-67.84-9.73-5.94-19.54-14.88-24.34-24.84-4.1-8.51-1.07-20.45-1.19-30.88 10.24-.05 21.86-3.29 30.46.45 24.16 10.51 47.02 24.01 70.53 36.06 5.89 3.01 12.3 5.02 18.48 7.49" fill="#c7c7c7"/><path id="path158" d="M7235.65 4428.02c89.77 13.72 177.07 28.32 249.15 89.16 12.28-20.94 19.64-36.4 7.12-57.31-12.38-20.66-3.79-34.87 18.04-43.67 15.47-6.24 29.88-15.39 44.12-24.28 18.33-11.45 35.78-17.22 52.79 5.04-1.84-36.43-35.96-58.34-84.48-57.19-19.54 52.9-42.96 66.74-103.6 52.32-52.95-12.6-104.58-30.76-156.78-46.47-8.75-2.64-17.49-5.33-30.37-9.25 1.45 33.18 2.74 62.61 4.01 91.65" fill="#c7c7c7"/><path id="path160" d="M6850.82 3795.19c59.44 14.64 118.76 29.81 178.48 43.19 6.87 1.54 15.98-6.91 23.42-14.84-26.13 3.86-36.3-11.35-44.08-29.76-17.59-41.6-22.52-83.45-4.68-126.71 3.63-8.78 1.41-19.98 1.89-30.06-12.95 2.23-28.37.91-38.12 7.72-9.27 6.47-18.99 22.41-17.46 32.51 7.57 50.03-34.19 60.04-61.9 81.5-13.07 10.11-26.85 19.3-40.3 28.91.92 2.52 1.83 5.03 2.75 7.54" fill="#c7c7c7"/><path id="path162" d="M7059.5 3800.69c11.71-30.16 23.39-60.33 35.12-90.48 15.23-39.15 20.34-41.27 57.79-24.31 3.85 1.74 7.85 3.15 19.43 7.75-2.66-19.84-1.01-37.3-7.6-50.72-15.73-32.02-28.33-63.4-22.75-100.28 1.43-9.47-4.78-20.09-7.49-30.18-2.64.21-5.29.43-7.94.64 0 7.66-1.78 15.84.3 22.88 10.58 35.78-3.03 67.05-16.88 98.38-2.39 5.41-4.57 13.95-8.59 15.14-47.27 13.96-38.19 59-49.3 91.59-6.14 17.98-1.1 39.78-1.1 59.85 3-.08 6.01-.17 9.01-.26" fill="#c7c7c7"/><path id="path164" d="M7466.47 4271.08c-9.26 29.2-18.52 58.39-29.95 94.45 17.31-1.62 33.03.61 44.12-5.53 6.39-3.54 7.91-20.81 7.02-31.52-1.58-19.19-6.64-38.1-10.24-57.12-3.65-.09-7.3-.19-10.95-.28" fill="#c7c7c7"/><path id="path166" d="M7073.2 3858.76c26.37-45.28 52.74-90.55 80.81-138.75-5.87-3.2-14.79-8.07-26.69-14.56-20.2 52.63-39.26 102.28-58.32 151.94 1.4.46 2.8.91 4.2 1.37" fill="#c7c7c7"/><path id="path168" d="M7024.66 3675.45l-9.15 62.89c3.88.61 7.76 1.22 11.64 1.84 3.45-21.32 6.89-42.63 10.33-63.95l-12.82-.78" fill="#c7c7c7"/><path id="path172" d="M2610.98 830.699c.79 11.031 1.89 22.039 2.28 33.082.33 9.481 1.73 19.5-.67 28.391-4.58 16.957-23.33 28.808-46.03 19.789.47 30.258-19.72 50.121-36.39 71.73-9.22 11.957-21.21 22.629-27.24 36.009-9.42 20.91-15.78 43.39-21.57 65.69-3.15 12.13-8.71 19.13-20.67 22.34-3.61.97-7.14 4.9-9.23 8.37-6.93 11.45-12.58 23.73-20.11 34.74-1.99 2.93-8.93 2.48-13.61 3.59-1-4.36-2.73-8.69-2.82-13.06-.1-4.69 1.86-9.4 1.98-14.12.1-4.16-1.11-8.34-1.75-12.51-5.21 1.37-10.5 2.54-15.59 4.28-1.26.43-2.74 2.82-2.64 4.2 2.24 29.58-23.29 35.46-38.3 46.61 8.29 7.85 16.86 16.48 25.99 24.46 8.76 7.66 17.67 15.3 27.34 21.7 6.6 4.37 17.51-1.9 18.27-10.47 1.58-17.72 5.91-34.25 16.6-48.75 2.31-3.13 3.93-7.29 6.98-9.28 20.62-13.48 31.45-34.91 44.1-54.61 4.97-7.74 5.44-18.21 9.15-26.92 11.97-28.08 20.67-57.29 35.7-84.421 13.36-24.098 36.28-34.437 55.64-50.109 18.16-14.7 34.52-30.899 31.25-56.551-1.98-15.5-7.61-30.539-11.6-45.777-2.35.527-4.71 1.07-7.06 1.597" fill="#c7c7c7"/><path id="path174" d="M2339.72 1160.88c6.54-11.56 12.73-21.53 17.83-32.03 1.58-3.27.23-7.96.23-12-3.98.87-9.47.36-11.68 2.81-14.18 15.74-29.53 30.94-40.72 48.7-8.66 13.76-16.81 26.69-32.11 32.71-10.96 4.31-14.34 10.35-11.52 21.88 1.69 6.92.31 14.6.31 23.15 25.38-12.32 39.91-30.21 42.74-57.41 2.28-21.9 10.76-27.99 34.92-27.81" fill="#c7c7c7"/><path id="path176" d="M2411.13 1054.28c-9.05-1.15-20.05-2.56-33.64-4.29-1.93 5.68-6.14 13.59-6.79 21.79-.36 4.47 5.33 9.42 8.29 14.15 3.72-2.66 7.95-4.82 11.05-8.07 7.91-8.29 15.31-17.06 21.09-23.58" fill="#c7c7c7"/><path id="path178" d="M2457.13 1037.22c-17.36 20.46-21.86 35.5-13.52 43.19 4.62-14.74 9.07-28.96 13.52-43.19" fill="#d3d3d3"/><path id="path180" d="M3486.76 761.512c-1.7 11.168-2.09 22.73-5.34 33.437-9.98 32.922-24.06 64.942-30.64 98.461-4.26 21.75-3.17 47.371 4.48 67.93 9.48 25.48 28.24 47.51 43.7 72.17 21.4-12.03 51.73-29.07 82.04-46.119 2.1-1.18 5.05-1.942 6.07-3.762 23.61-41.918 47-83.957 72.32-129.348-64.2-10.179-126.06-33.402-163.7-98.84-2.98 2.02-5.96 4.039-8.93 6.071" fill="#c7c7c7"/><path id="path182" d="M2536.27 837.961c-9.22 2.859-16.48 5.32-23.86 7.328-7.84 2.141 163.15-98.91 167.47-89.848 9.84 20.61-179.69 140.348-189.61 155.25-4.71 7.059-7.04 10.149-.05 13.957 29.33-21.699 28.05-58.488 46.05-86.687" fill="#c7c7c7"/><path id="path184" d="M1228.5 1385.8c4.32 4.92 7.05 8.03 8.39 9.55 13.18-9.84 29.69-16.49 36.31-28.56 8.51-15.52 13.38-32.8 27.65-44.9.97-.82-.09-6.32-1.75-7.55-6.42-4.74-26.02 3.1-27.9 11.08-1.28 5.45-2.2 11.2-1.96 16.76.73 17.75-7.87 28.62-23.79 34.95-5.14 2.04-9.9 5.03-16.95 8.67" fill="#c7c7c7"/><path id="path186" d="M2424.16 961.602c-2.52 4.886-5.73 9.558-7.39 14.73-2.21 6.887-2.89 14.25-4.8 21.25-2.31 8.428-7.65 13.138-17 13.168-3.78.02-7.55 1.95-14.7 3.95 26.57 10.7 36.87 5.42 40.47-16.981 1.84-11.43 3.63-22.867 5.44-34.297-.68-.613-1.35-1.223-2.02-1.82" fill="#d3d3d3"/><path id="path188" d="M2496.49 984.082c-2.1-5.121-4.19-10.25-7.01-17.152-5.22 6.91-9.4 12.468-13.59 18.031l1.47 2.969c6.48-1.399 12.96-2.801 19.45-4.2l-.32.352" fill="#c7c7c7"/><path id="path190" d="M666.234 1150.25c-14.679 9.15-28.285 17.63-43.629 27.19 35.04 1.54 40.579-1.88 43.629-27.19" fill="#d3d3d3"/><path id="path192" d="M1018.62 1126.3c2.78-12.77-.84-19.75-14.01-21.26-14.29-1.65-28.348-7.85-43.454.84 4.68 1.41 9.485 2.51 14.012 4.3 5.977 2.37 14.477 3.74 17.051 8.28 6.683 11.79 15.751 9.73 26.401 7.84" fill="#d3d3d3"/><path id="path194" d="M1161.48 1130.04c-8.16 0-11.43-.84-14.01.15-10.44 4.01-20.09 2.42-30.44-1.12-4.41-1.5-10.51 1.94-15.84 3.14 3.86 4.08 7.18 10.85 11.66 11.72 11.83 2.31 24.25 3.21 36.21 2.14 3.82-.34 6.93-8.61 12.42-16.03" fill="#d3d3d3"/><path id="path196" d="M1221.47 1073.74c12.59-3.85 23.09-6.7 33.28-10.37 3.33-1.2 8.3-4.58 8.28-6.92-.06-5.12-1.62-13.61-4.7-14.71-10.83-3.86-21.69-1.04-29.4 8.03-6.18 7.25-14.9 14.7-7.46 23.97" fill="#c7c7c7"/><path id="path198" d="M3065.75 1401.86c-24.18 5.23-48.7 9.28-72.44 16.05-21.86 6.24-29.07 22.35-15.87 41.46 10.99 15.93 27.06 38.55 47.76 19.9 20.5-18.48 33.14-45.68 49.22-69.05-2.89-2.79-5.78-5.57-8.67-8.36" fill="#c7c7c7"/><path id="path200" d="M930.121 1121.88c-12.812-4.21-25.621-8.43-38.433-12.65 5.871 12.28 20.082 17.29 37.261 16.12l1.172-3.47" fill="#d3d3d3"/><path id="path202" d="M3323.88 1248.69l52.83-38.79c-1.08-4.1-2.16-8.2-3.23-12.3-12.37.66-28.38-3.25-36.24 3.04-11.82 9.48-17.95 26.08-26.5 39.65l13.14 8.4" fill="#d3d3d3"/><path id="path204" d="M2679.88 1689.66c26.83 3.72 49.62 5.48 52.93-24.64 1.06-9.64-11.66-29.98-16.97-29.61-29.66 2.06-31.74 26.73-35.96 54.25" fill="#c7c7c7"/></g></g></svg>