<svg xmlns="http://www.w3.org/2000/svg"
     viewBox="0 0 490.56 484.44"
     height="484.44"
     width="490.56"
     id="svg2"
     version="1.1">
<!--    <defs id="defs6"/>-->
    <g transform="matrix(1.3333333,0,0,-1.3333333,0,484.44)" id="g10">
        <g transform="scale(0.1)" id="g12">
            <path id="nova_scotia" style="fill:#c7c7c7;fill-opacity:1;fill-rule:nonzero;stroke:#F5F5F5;stroke-width:6" d="m 3118.5,1072.31 c -7.91,-1.55 -3.16,-1.55 -11.07,3.11 -11.08,7.77 -11.08,1.56 -22.15,0 -12.66,-1.55 -11.08,6.22 -18.99,-6.22 -7.91,-10.88 -12.66,-10.88 -23.73,-12.43 -6.33,0 -11.08,-6.22 -15.83,-7.77 -6.32,-1.56 -11.07,1.55 -17.4,0 0,0 -17.4,-4.67 -18.99,-3.11 -6.33,-1.56 -11.07,-4.67 -14.24,-7.77 -1.58,-4.67 -4.74,-7.78 -4.74,-12.44 0,0 1.58,-1.55 3.16,-1.55 7.91,-6.22 -6.33,-29.54 -7.91,-37.31 6.33,-1.55 9.49,7.77 12.66,10.879 4.74,3.111 9.49,4.661 14.24,6.221 11.07,4.66 18.98,9.32 30.06,10.88 1.58,0 3.16,-1.56 3.16,-4.66 -3.16,-4.67 -12.65,-6.22 -17.4,-10.89 -6.33,-6.211 -6.33,-12.43 -11.08,-18.648 -3.16,4.668 -4.74,13.988 -11.07,10.878 -4.75,0 -15.82,-24.871 -18.99,-29.531 -6.33,-9.328 -9.49,-23.32 -17.4,-29.527 0,-7.781 -6.33,-10.891 -7.91,-17.102 -1.59,-6.218 1.58,-7.781 1.58,-12.441 1.58,-7.77 1.58,-15.539 4.75,-23.32 6.32,-13.989 14.24,-10.879 26.89,-15.539 11.08,-4.661 15.83,-13.989 25.32,0 -3.17,9.332 3.16,17.101 7.91,24.871 6.33,9.328 9.49,20.211 11.08,31.089 1.58,9.329 -3.17,24.872 1.58,32.641 3.16,9.328 11.07,4.668 18.98,6.219 11.08,3.109 3.17,10.879 7.92,20.211 3.16,4.66 11.07,7.769 17.4,12.429 7.91,6.219 14.24,15.55 22.15,23.32 7.91,9.33 11.08,20.21 18.99,29.53 3.16,4.67 9.49,7.78 12.66,12.44 4.74,6.22 4.74,9.33 11.07,12.43 -1.58,7.78 -6.33,3.11 -12.66,3.11 z m 31.65,80.83 c -6.33,4.67 -9.49,-3.11 -15.82,-3.11 -3.17,-1.55 -6.33,0 -9.5,0 -1.58,0 -4.74,-4.66 -7.91,-4.66 -9.49,1.56 -4.75,10.88 -4.75,17.1 0,9.33 -3.16,13.99 -11.07,20.21 -12.66,10.88 -12.66,-15.55 -11.08,-21.76 0,-4.67 0,-10.89 0,-15.55 0,-9.33 0,-18.65 -7.91,-26.42 3.17,-10.89 11.08,-35.76 26.9,-31.09 12.66,3.11 31.65,17.1 36.39,27.98 3.17,9.32 6.33,17.1 11.08,24.87 -4.75,3.11 -7.91,7.77 -6.33,12.43 v 0"/>
            <path id="newfoundland_and_labrador" style="fill:#c7c7c7;fill-opacity:1;fill-rule:nonzero;stroke:#F5F5F5;stroke-width:6" d="m 3006.82,1631.41 c -6.24,1.57 -20.29,6.28 -26.53,1.57 -6.24,-4.71 -1.56,-17.28 -4.68,-18.85 -1.56,-1.57 -6.24,-3.14 -6.24,-4.71 -4.68,10.99 -12.48,26.7 -26.53,26.7 -18.72,-1.57 -15.6,-18.85 -20.28,-32.98 -4.69,-9.43 -9.37,-25.13 -14.05,-34.55 -6.24,-12.57 -18.72,-15.71 -24.96,-26.7 0,0 -1.56,1.57 -3.13,1.57 0,15.7 6.25,23.55 14.05,37.69 6.24,9.42 7.8,18.85 12.48,29.84 4.68,11 15.61,20.42 20.29,29.84 9.36,28.27 -31.21,31.41 -39.01,4.71 -9.37,9.43 -31.21,11 -43.7,7.86 -6.24,-1.57 -34.32,-20.42 -34.32,-4.72 0,6.29 -1.57,11 -1.57,17.28 -34.33,1.57 -60.85,3.14 -82.7,32.98 3.12,4.71 3.12,9.43 4.68,14.14 -7.8,12.56 -28.09,17.27 -39.01,23.56 35.89,17.27 -54.61,40.83 -51.49,29.84 -4.68,12.56 -21.85,34.55 -40.57,32.98 -3.13,0 -23.41,29.84 -28.09,32.98 -10.92,9.42 -29.65,15.71 -39.01,26.7 0,-1.57 0,-1.57 0,-3.14 v 0 c 4.68,-15.71 7.8,-31.41 24.96,-36.12 -1.56,-4.71 -1.56,-12.57 -3.12,-17.28 21.85,3.14 26.53,-10.99 15.61,-28.27 10.92,-6.28 20.28,-7.85 31.21,-3.14 24.96,-29.84 -20.29,-56.54 46.81,-54.97 0,-3.14 1.56,-9.42 1.56,-12.57 6.24,-48.68 15.6,-59.68 43.69,-89.52 10.93,-12.56 26.53,-28.27 24.97,-48.69 0,-29.84 -12.48,-20.41 -34.33,-36.12 -3.12,1.57 -3.12,4.71 -4.68,7.85 -3.12,-4.71 -9.36,-7.85 -12.49,-14.13 -20.28,3.14 -37.45,9.42 -59.29,7.85 4.68,-4.71 10.92,-17.27 15.6,-20.42 -10.92,-1.57 -20.28,-6.28 -29.65,-7.85 6.25,-3.14 10.93,-9.42 17.17,-12.56 -4.68,-4.71 -6.24,-15.71 -10.92,-21.99 4.68,-3.14 4.68,-4.71 10.92,-6.28 -1.56,-7.86 1.56,-14.14 0,-20.42 20.28,-14.14 49.93,-4.71 59.3,-31.41 -14.05,-7.86 -26.53,-17.28 -15.61,-31.41 12.48,1.57 23.41,12.56 31.21,20.41 0,-15.7 10.92,-26.7 21.85,-37.69 26.52,12.56 53.05,-18.85 87.38,0 -9.36,14.14 -15.6,29.84 -21.85,47.12 4.69,3.14 14.05,6.28 18.73,6.28 17.16,-34.55 99.87,21.99 118.59,32.98 20.29,12.57 121.72,97.38 143.56,61.25 14.05,18.85 23.41,32.99 23.41,61.26 -15.6,18.84 -46.81,54.97 -70.22,61.25 z m 287.12,-224.59 c 0,14.13 20.29,34.55 10.92,45.54 -12.48,-4.71 -18.72,-17.27 -32.77,-21.98 -1.56,6.28 -4.68,7.85 -9.36,12.56 3.12,14.13 -1.56,28.27 -17.16,29.84 -17.17,3.14 -21.85,-10.99 -31.21,-20.42 -7.8,-9.42 -17.17,-14.13 -28.09,-18.84 -28.09,-12.57 -10.92,6.28 -28.09,14.13 -14.04,6.28 -14.04,-12.56 -24.96,-18.84 -9.37,-6.29 -4.69,-7.86 -12.49,3.14 -9.36,12.56 -9.36,40.83 -10.92,54.97 -1.56,10.99 7.8,59.68 -12.49,50.25 1.57,3.15 1.57,3.15 1.57,3.15 -46.82,-51.83 -7.81,-147.64 1.56,-207.32 4.68,-26.7 -15.61,-20.42 -20.29,-43.98 10.92,3.14 17.16,11 29.65,9.43 0,-12.57 -10.92,-42.41 0,-53.4 15.6,-15.71 34.33,10.99 42.13,20.42 14.04,17.27 31.21,15.7 46.81,28.27 15.61,10.99 20.29,20.41 37.45,26.69 15.61,7.86 26.53,21.99 45.26,20.42 -10.93,-9.42 -20.29,-59.68 1.56,-43.97 14.04,9.42 10.92,62.82 14.04,80.1 1.56,6.28 9.36,7.85 7.8,15.7 -1.56,4.71 -10.92,12.57 -10.92,14.14 z m 67.1,6.28 c -14.05,1.57 -10.92,-17.28 -23.41,-20.42 9.36,3.14 -10.92,32.98 -18.72,36.13 -6.25,1.57 0,-45.55 0,-45.55 0,3.14 -14.05,0 -14.05,-9.43 1.56,-6.28 12.49,-17.27 15.61,-23.55 1.56,-7.86 0,-26.7 12.48,-18.85 1.56,0 17.17,40.83 18.73,7.85 34.32,-14.13 10.92,61.25 9.36,73.82 v 0"/>
            <path id="prince_edward_island" style="fill:#c7c7c7;fill-opacity:1;fill-rule:nonzero;stroke:#F5F5F5;stroke-width:6" d="m 3027.58,1100.1 c 7.91,5.05 17.4,21.89 26.9,16.84 -1.59,-5.05 -6.33,-10.11 -7.92,-16.84 -1.58,-8.42 -1.58,-10.11 1.59,-16.84 1.58,-5.05 7.91,-8.42 -3.17,-11.79 -3.16,-3.37 -14.24,-1.68 -18.98,-1.68 0,5.05 -1.59,8.42 -6.33,6.73 -4.75,-1.68 -3.17,-5.05 -6.33,-8.42 -3.17,-1.68 -15.82,-1.68 -18.99,-3.37 -9.49,0 -9.49,3.37 -15.82,5.06 -1.58,0 -4.75,-3.37 -7.91,-3.37 -3.17,0 -4.75,3.37 -6.33,5.05 -3.17,1.69 -11.08,3.37 -12.66,6.74 -3.16,5.05 1.58,13.47 1.58,18.52 1.59,13.47 9.5,-6.74 11.08,-10.1 4.75,-3.37 9.49,-1.69 14.24,-6.74 3.16,1.68 4.75,5.05 6.33,5.05 3.16,0 7.91,0 9.49,0 6.33,1.69 12.66,6.74 17.41,8.42 4.74,3.37 12.65,5.05 15.82,6.74 v 0"/>
            <path id="new_brunswick" style="fill:#c7c7c7;fill-opacity:1;fill-rule:nonzero;stroke:#F5F5F5;stroke-width:6" d="m 2967.75,1051.85 c 9.28,4.74 30.93,14.22 20.1,-6.31 -1.54,0 -1.54,0 0,-1.58 -6.18,-1.58 -10.82,-4.74 -13.91,-7.9 -1.55,-4.74 -4.64,-7.9 -4.64,-12.64 -4.64,-1.58 -6.19,-11.05 -7.73,-14.21 -1.55,-6.32 -4.64,-12.64 -9.28,-17.378 -9.28,-11.051 -15.46,-31.582 -27.83,-39.48 -4.64,-4.743 -7.73,-3.161 -10.83,-9.481 -4.63,-9.473 -4.63,-7.902 -10.82,-11.051 -9.28,-4.738 -38.65,-17.379 -46.39,-9.48 -3.09,3.16 -3.09,11.058 -9.27,14.211 -4.64,4.738 -12.37,3.16 -18.56,7.898 -6.18,7.903 -9.28,18.949 -10.82,28.43 -4.64,20.531 -17.01,74.231 -49.48,63.181 -7.73,-1.58 -17.01,-12.64 -23.19,-18.95 1.54,1.57 -1.55,1.57 -4.64,1.57 1.54,6.32 4.64,11.06 7.73,17.38 4.64,12.63 0,25.27 -1.55,37.9 6.19,4.74 12.37,11.06 20.1,15.8 7.73,3.16 15.46,1.58 23.2,3.16 9.27,3.16 10.82,11.05 17,17.37 3.1,1.58 15.47,7.9 20.11,9.48 1.54,0 3.09,0 4.63,0 -1.54,-1.58 -3.09,-4.74 -4.63,-7.9 4.63,3.16 9.27,4.74 13.91,7.9 v 0 c 1.55,-1.58 4.64,-1.58 7.73,0 1.55,0 3.1,0 4.64,0 9.28,-3.16 9.28,-17.38 21.65,-14.22 1.54,18.96 24.74,37.91 27.83,9.48 1.55,-12.64 -10.82,-34.75 13.92,-26.85 1.54,-14.22 18.55,-28.43 29.38,-34.75 7.73,-3.16 13.91,-4.74 21.64,-1.58 v 0"/>
            <path id="quebec" style="fill:#c7c7c7;fill-opacity:1;fill-rule:nonzero;stroke:#F5F5F5;stroke-width:6" d="m 2932.22,1278.2 c -28.21,1.57 -56.43,-1.57 -79.94,-18.79 1.56,-1.57 1.56,-3.13 1.56,-3.13 26.65,-4.7 53.3,-9.4 79.95,-6.27 9.4,0 26.65,1.57 34.49,6.27 25.08,17.22 -28.22,21.92 -36.06,21.92 z m -20.38,169.11 c -18.81,-10.96 -101.89,-67.33 -119.13,-32.88 -4.7,0 -14.11,-3.13 -18.81,-6.26 6.27,-17.23 12.54,-32.89 21.94,-46.98 -34.48,-18.79 -61.13,12.53 -87.78,0 -10.97,10.96 -21.94,21.92 -21.94,37.58 -7.84,-7.83 -18.82,-18.79 -31.36,-20.35 -10.97,14.09 1.57,23.48 15.68,31.31 -9.41,26.62 -39.19,17.23 -59.57,31.32 1.57,6.26 -1.56,12.53 0,20.36 -6.27,1.56 -6.27,3.13 -10.97,6.26 4.7,6.26 6.27,17.23 10.97,21.92 -6.27,3.14 -10.97,9.4 -17.24,12.53 9.4,1.57 18.81,6.26 29.78,7.83 -4.7,3.13 -10.97,15.66 -15.67,20.36 21.94,1.56 39.19,-4.7 59.56,-7.83 3.14,6.26 9.41,9.39 12.54,14.09 1.57,-3.13 1.57,-6.26 4.71,-7.83 21.94,15.66 34.48,6.26 34.48,36.02 1.57,20.35 -14.1,36.01 -25.08,48.54 -28.21,29.75 -37.62,40.71 -43.89,89.25 0,3.14 -1.57,9.4 -1.57,12.53 -67.4,-1.57 -21.94,25.05 -47.02,54.81 -10.98,-4.7 -20.38,-3.14 -31.35,3.13 10.97,17.22 6.27,31.32 -15.68,28.18 1.57,4.7 1.57,12.53 3.14,17.23 -17.25,4.7 -20.38,20.36 -25.09,36.01 -3.13,-20.35 -3.13,-42.28 0,-61.07 3.14,-28.18 6.27,-78.29 -20.37,-97.08 -31.35,-20.36 -58,25.05 -84.65,-18.79 -4.7,17.22 7.84,32.88 0,50.11 -23.51,15.66 -23.51,39.14 -32.92,61.07 -9.41,23.48 -20.38,28.18 -43.89,21.92 -29.79,-7.83 -32.92,-3.13 -53.3,18.79 -12.54,14.09 -36.05,28.18 -54.86,28.18 -21.95,1.57 -28.22,-14.09 -39.19,-28.18 -18.81,-4.7 -42.33,0 -59.57,4.7 -10.97,1.56 -29.78,-10.96 -31.35,-21.93 -3.14,-17.22 14.11,-23.48 21.95,-36.01 7.83,-15.66 -1.57,-31.32 3.13,-45.41 4.7,-14.09 20.38,-18.79 26.65,-31.32 17.24,-29.75 -4.7,-56.37 -9.41,-82.99 -6.27,-34.45 29.79,-45.41 53.3,-61.07 51.73,-40.71 73.68,-97.08 39.19,-159.72 -6.27,-10.96 -12.54,-25.05 -21.95,-36.01 -10.97,-9.4 -26.65,-9.4 -36.05,-18.79 -20.38,-20.36 18.81,-37.59 26.65,-57.94 9.4,-26.62 21.94,-45.41 37.62,-70.47 15.68,-23.49 3.13,-51.67 9.4,-79.86 -9.4,1.57 -15.67,7.83 -21.94,14.1 18.81,-108.05 28.22,-292.818 130.11,-324.139 36.05,-10.961 75.24,-14.09 111.29,-21.922 21.95,10.961 40.76,37.582 68.98,25.051 4.7,-10.961 9.4,-21.922 12.54,-32.879 6.27,3.129 14.1,6.258 20.37,7.828 37.63,14.09 78.38,21.922 114.44,39.141 1.56,7.832 -4.71,18.789 0,25.059 3.13,6.261 12.54,3.132 18.81,9.39 18.81,21.922 6.27,62.641 4.7,87.692 -1.57,14.089 3.13,28.191 4.7,40.709 1.57,4.7 3.14,10.97 7.84,14.1 0,1.56 4.7,1.56 7.84,1.56 1.56,6.27 4.7,10.96 7.83,17.23 4.71,12.53 0,25.05 -1.56,37.58 6.27,4.7 12.54,10.96 20.38,15.66 7.83,3.13 15.67,1.56 23.51,3.13 9.4,3.13 10.97,10.96 17.24,17.22 3.14,1.57 15.68,7.83 20.38,9.4 1.57,0 3.14,0 4.7,0 6.27,6.26 12.54,9.4 20.38,10.96 23.51,7.83 36.06,15.66 43.89,39.15 14.11,54.8 -48.59,43.84 -75.24,25.05 -37.62,-26.62 -86.22,-72.03 -100.32,-115.87 -12.54,-40.72 -20.38,-93.961 -50.16,-125.27 -21.95,-25.059 -51.73,-43.852 -70.55,-72.031 3.14,7.832 4.71,15.652 9.41,21.922 7.84,12.531 17.24,23.488 26.65,36.007 15.67,17.231 31.35,32.891 39.19,54.813 9.4,23.489 14.11,48.539 17.24,73.599 3.14,23.48 12.54,43.84 23.51,65.76 7.84,15.66 23.52,21.93 31.35,36.02 6.28,12.52 -3.13,29.75 1.57,43.84 6.27,25.06 32.92,39.15 51.73,54.81 23.52,18.79 45.46,20.35 73.68,29.75 36.05,12.53 83.08,28.19 109.73,54.81 15.67,15.65 15.67,36.01 20.37,56.37 4.71,28.18 15.68,57.93 32.92,81.42 6.27,6.27 10.98,12.53 15.68,18.79 -21.95,36.02 -123.84,-48.54 -144.22,-61.07 v 0"/>
            <path id="ontario" style="fill:#c7c7c7;fill-opacity:1;fill-rule:evenodd;stroke:#F5F5F5;stroke-width:6" d="m 2548.58,827.48 c 4.71,-10.91 9.42,-21.832 12.56,-32.742 -18.84,-7.797 -32.98,-18.718 -45.54,-40.547 -9.42,-15.601 -17.27,-31.191 -23.55,-48.351 -7.85,9.359 -21.98,12.48 -28.26,0 -7.85,-15.59 0,-18.711 -20.41,-21.828 -26.7,-3.121 -51.82,-10.922 -70.66,-31.192 -9.42,-9.359 -15.7,-20.269 -18.84,-34.308 9.42,-3.121 50.24,7.797 43.96,-12.481 -3.14,-17.152 -40.82,-20.269 -53.38,-24.949 -18.85,-9.352 -36.12,-18.711 -54.96,-26.512 -23.55,-9.359 -26.69,-35.871 -48.67,-48.34 -28.27,-14.039 -26.7,10.911 -15.71,28.071 7.86,15.59 12.57,31.191 20.42,46.781 3.14,4.68 7.85,7.797 9.42,10.918 4.71,6.238 3.14,15.59 3.14,24.949 -1.57,10.922 -6.28,15.602 -7.85,23.391 -1.57,17.16 14.13,26.519 14.13,40.551 0,10.918 -10.99,18.718 -6.28,31.191 12.56,-7.801 34.54,-18.711 48.67,-3.121 10.99,14.039 1.57,35.871 -10.99,46.789 -28.26,21.832 -78.51,17.148 -111.48,18.711 -9.42,0 -17.27,0 -26.69,-1.563 -12.56,-3.117 -20.41,-12.468 -34.54,-10.918 -14.14,3.122 -20.42,12.481 -32.98,18.719 -7.85,4.68 -12.56,6.242 -15.7,15.59 -3.14,7.801 -1.57,15.602 -6.28,23.402 14.13,4.68 9.42,24.95 -1.57,21.829 -6.28,4.679 -3.14,10.921 -7.85,15.589 -6.28,4.68 -14.13,3.121 -20.41,4.68 -9.42,-17.148 -37.69,12.481 -43.97,21.84 -3.14,24.953 -26.69,21.832 -45.53,21.832 -20.41,0 -31.41,17.148 -43.97,-4.68 -6.28,-14.031 -15.7,-29.633 -26.69,-42.109 -10.99,-10.91 -42.39,-14.031 -56.53,-10.91 -10.99,1.558 -17.27,10.91 -26.69,9.347 -10.99,-1.55 -12.56,-15.589 -26.69,-7.789 -12.56,6.239 -3.14,9.352 -18.84,10.91 -21.98,0 -20.41,9.36 -39.26,17.161 -15.7,4.679 -32.97,-1.559 -48.67,0 -15.7,3.121 -23.55,-1.559 -31.4,17.148 -4.71,12.481 4.71,29.633 -12.57,32.75 -1.57,-1.559 -3.14,-4.68 -3.14,-7.789 1.57,53.02 3.14,106.04 3.14,159.07 0,21.83 0,76.41 0,76.41 0,0 36.12,34.31 50.25,49.91 54.96,67.05 113.05,138.79 161.73,210.53 14.13,-4.68 23.55,-15.6 32.97,-26.51 6.28,-9.36 9.42,-20.28 18.84,-24.96 7.85,-3.11 18.84,1.56 28.26,-1.55 6.28,-1.56 9.42,-9.36 15.71,-10.92 7.85,-3.12 15.7,3.12 25.12,-1.56 6.28,-3.12 7.85,-14.04 14.13,-18.71 9.42,-4.68 17.27,0 26.69,1.56 17.27,3.11 34.55,4.67 51.82,4.67 20.41,0 37.68,4.68 42.39,-17.15 6.28,-23.39 4.71,-46.79 12.56,-71.74 9.42,-23.39 12.56,-46.78 31.41,-63.94 12.56,-9.36 25.12,-15.59 29.83,-29.63 7.85,-6.24 18.84,-9.36 25.12,-15.59 7.85,-6.24 10.99,-18.72 17.27,-23.4 31.41,-20.27 29.84,15.6 36.12,32.75 0,-1.56 0,-1.56 0,-1.56 18.84,-107.6 28.26,-291.621 130.32,-322.809 36.11,-10.922 75.37,-14.039 111.48,-21.84 21.98,10.918 40.82,37.43 69.09,24.949 v 0"/>
            <path id="manitoba" style="fill:#c7c7c7;fill-opacity:1;fill-rule:evenodd;stroke:#F5F5F5;stroke-width:6" d="m 1823.26,1420.63 c 1.56,-1.57 4.69,-1.57 6.26,-1.57 -48.53,-72.46 -106.45,-144.91 -161.24,-212.64 -14.09,-15.75 -50.09,-50.4 -50.09,-50.4 0,0 0,-55.13 0,-77.19 0,-53.55 -1.57,-107.1 -3.13,-160.658 v 0 c -1.57,-6.301 -3.13,-12.602 -1.57,-18.902 0,-6.301 -68.87,0 -73.57,0 -65.75,1.582 -129.93,6.3 -190.98,12.601 4.7,111.839 12.53,223.669 20.35,337.079 7.83,126.01 12.53,255.16 25.05,381.17 75.14,-9.45 153.41,-14.17 234.81,-15.75 -1.57,-6.3 -1.57,-12.6 -3.13,-17.32 -3.13,-20.48 -9.4,-61.43 15.65,-69.31 23.48,-6.3 42.27,14.18 53.22,-18.9 7.83,-25.2 7.83,-55.13 9.4,-80.33 0,-9.45 32.87,3.15 36,3.15 14.09,4.72 34.44,4.72 46.96,-1.58 6.26,-3.15 6.26,-9.45 14.09,-11.02 6.26,-3.15 14.09,1.57 21.92,1.57 v 0"/>
            <path id="saskatchewan" style="fill:#c7c7c7;fill-opacity:1;fill-rule:evenodd;stroke:#F5F5F5;stroke-width:6" d="m 1399.15,1625.37 c -12.53,-124.72 -17.23,-252.57 -25.06,-377.29 -7.83,-112.25 -15.67,-222.94 -20.37,-333.639 -131.58,12.469 -253.76,34.297 -363.415,60.809 167.615,690.66 167.615,690.66 167.615,690.66 75.19,-17.15 156.64,-31.18 241.23,-40.54 v 0"/>
            <path id="nunavut" style="fill:#c7c7c7;fill-opacity:1;fill-rule:nonzero;stroke:#F5F5F5;stroke-width:6" d="m 1310.41,2148.61 c 7.83,-4.69 18.79,7.83 26.62,10.96 7.82,1.56 15.65,0 23.48,0 3.13,12.52 20.35,7.82 25.04,18.78 -6.26,7.82 -14.08,7.82 -21.91,4.69 9.39,0 9.39,0 9.39,0 -3.13,0 -93.92,-14.08 -62.62,-34.43 z m 108.02,333.36 c -9.4,-12.52 10.95,-29.73 15.65,-39.12 3.13,-4.7 17.22,21.91 15.65,28.17 -1.56,12.52 -21.91,23.48 -31.3,10.95 z m -12.53,89.22 c 15.66,-1.57 31.31,-1.57 43.83,10.95 9.4,7.83 25.05,32.87 17.22,45.39 -7.82,12.52 -31.3,7.83 -42.26,18.78 -1.57,1.57 -3.13,0 -4.7,1.57 -1.56,7.82 4.7,35.99 -1.56,40.69 -25.05,23.47 -17.22,-72 -17.22,-72 -4.7,-3.13 -9.39,-1.56 -15.66,1.57 -3.13,-15.65 -7.82,-29.74 -10.95,-45.39 9.39,3.13 17.22,0 31.3,-1.56 z m -194.1,-363.11 c -1.57,-4.69 0,-7.82 3.13,-12.52 28.17,-3.13 56.35,-17.21 84.53,-6.26 14.09,4.7 25.04,4.7 37.57,7.83 12.52,3.13 20.35,18.78 31.3,18.78 12.53,-1.57 29.75,-21.91 40.7,-28.17 0,0 0,-3.13 -1.56,-3.13 20.35,-12.52 39.13,-3.13 56.35,-12.52 3.13,10.95 3.13,21.91 7.83,31.3 -14.09,-1.57 -21.92,7.82 -18.78,20.34 12.52,-1.56 43.83,-7.82 50.09,6.26 10.96,23.48 -29.74,37.57 -40.7,51.65 -17.22,21.91 -14.09,34.43 -18.79,59.48 -3.13,17.21 -10.95,31.3 -10.95,46.95 -1.57,14.09 1.56,28.17 0,42.26 -14.09,15.65 -40.7,59.47 -48.53,12.52 -1.57,-9.39 3.13,-86.08 -17.22,-79.82 -18.79,6.26 6.26,75.12 -9.39,81.38 -3.13,1.57 -9.4,0 -15.66,-3.13 -23.48,-95.47 -39.13,-162.77 -39.13,-162.77 0,0 -92.36,10.96 -144.02,31.3 -4.69,-14.08 6.26,-37.56 12.53,-54.77 25.04,3.13 43.83,-25.05 40.7,-46.96 z m 330.29,552.48 c 14.09,-12.52 15.66,-32.86 18.79,-9.39 3.13,17.22 3.13,43.83 -4.7,59.47 -6.26,15.66 -25.05,28.18 -42.26,26.61 -7.83,3.13 -7.83,3.13 -7.83,3.13 1.56,0 1.56,1.57 -1.57,1.57 -7.82,-14.09 -15.65,-42.26 -4.69,-57.91 9.39,-14.09 29.74,-10.96 42.26,-23.48 z M 1559.31,2651 c -6.26,1.57 -10.96,9.39 -17.22,9.39 0,-3.12 0,-3.12 0,-3.12 -9.39,-14.09 9.4,-25.05 6.26,-39.13 -14.08,-1.57 -17.22,20.34 -25.04,28.17 0,-9.39 0,-18.78 -3.13,-26.61 -3.13,-7.82 -15.66,-15.65 -15.66,-23.47 -1.56,-23.48 32.88,10.95 40.7,0 6.27,-10.96 -29.74,-51.65 12.53,-46.96 23.48,1.57 23.48,32.87 26.61,50.09 1.56,12.52 6.26,34.43 0,45.39 -4.7,7.82 -6.26,6.25 -14.09,9.39 -1.57,0 -7.83,-3.14 -10.96,-3.14 z m -4.69,-327.1 c 4.69,4.7 4.69,12.52 10.95,17.22 4.7,4.69 12.53,3.13 17.22,7.82 15.66,14.09 14.09,36 10.96,54.78 -3.13,0 -4.7,1.57 -7.83,1.57 3.13,15.65 -7.82,18.78 -20.35,25.04 0,18.78 25.05,26.6 17.22,48.52 -12.52,3.12 -17.22,-6.27 -26.61,-6.27 -9.39,1.57 -10.96,15.65 -18.78,10.96 -10.96,3.13 -25.05,-7.83 -26.61,-17.22 9.39,-4.69 7.82,-10.95 -1.57,-14.08 3.13,1.56 15.65,-25.04 12.52,-31.3 -10.95,-18.78 -21.91,3.13 -23.48,14.08 -26.61,-29.73 18.79,-64.17 31.31,-92.34 7.83,-17.21 10.96,-31.3 25.05,-18.78 z m 26.61,-118.95 c -6.26,7.83 -17.22,31.31 -26.61,14.09 -7.83,-6.26 -6.27,-18.78 -6.27,-28.17 -25.04,-1.57 -25.04,-23.48 -7.82,-36 10.96,-7.82 39.13,-15.65 53.22,-12.52 14.09,1.57 20.35,12.52 10.96,25.04 4.69,14.09 -15.66,28.17 -23.48,37.56 z m 12.52,558.74 c 1.57,-12.52 -9.39,-17.21 3.13,-29.73 6.26,3.13 10.96,7.82 14.09,14.08 6.26,-3.13 9.39,-1.56 15.65,1.57 0,15.65 -17.22,67.3 -40.7,48.52 1.57,0 1.57,0 1.57,0 -10.96,-12.53 3.13,-23.48 6.26,-34.44 z m 34.44,-225.37 c 20.35,-1.57 28.18,29.74 12.52,43.82 -25.04,20.35 -51.66,-43.82 -12.52,-43.82 z m 18.78,170.59 c 18.79,12.52 -4.69,26.61 -18.78,23.48 -10.96,1.57 -21.92,-1.57 -20.35,-12.52 9.39,-1.57 15.65,-4.7 21.92,-6.26 4.69,-1.57 9.39,-9.39 17.21,-4.7 z m 48.53,14.09 c 0,-4.7 0,-4.7 0,-4.7 -7.83,3.13 -15.65,-3.13 -15.65,-10.95 6.26,-3.13 14.09,-4.7 21.91,-4.7 3.13,7.83 0,15.65 -6.26,20.35 z m -18.78,-313.02 c 12.52,4.7 39.13,65.73 26.61,76.69 -15.66,10.96 -37.57,-12.52 -46.96,10.96 -7.83,17.21 -42.27,-34.44 -43.84,-42.26 -3.13,-15.65 -1.56,-40.69 0,-54.78 18.79,-3.13 9.4,-32.87 23.49,-43.82 18.78,14.08 4.69,28.17 10.95,45.39 7.83,20.34 14.09,1.56 29.75,7.82 z m -29.75,410.06 c -1.56,-1.57 -6.26,-1.57 -9.39,-6.27 -1.56,-3.13 1.57,-21.91 3.13,-26.6 4.7,0 10.96,0 15.66,1.56 6.26,-7.82 4.69,-20.34 14.09,-25.04 10.95,-3.13 23.48,6.26 29.74,14.09 12.52,14.08 46.96,48.52 42.26,71.99 -1.56,9.39 -17.22,18.78 -25.04,25.04 -7.83,6.26 -18.79,9.39 -26.62,15.65 -12.52,12.52 -28.17,89.22 -54.78,75.13 7.82,1.56 7.82,1.56 7.82,1.56 -7.82,-7.82 -20.35,-25.04 -20.35,-37.56 0,-17.21 15.66,-26.61 4.7,-45.39 -32.87,4.7 -10.96,-25.04 -9.39,-43.82 18.78,-6.26 50.09,10.96 28.17,-20.34 z m 106.45,-292.68 c 9.39,-1.56 26.61,1.57 36,3.13 17.22,3.13 28.18,18.78 42.27,20.35 9.39,0 14.09,-10.96 26.61,-4.7 14.09,7.83 15.66,28.18 9.39,40.7 -3.13,7.82 9.4,15.65 -1.56,26.6 -6.26,7.83 -15.66,7.83 -25.05,7.83 -12.52,1.56 -29.74,1.56 -40.7,-4.7 -4.69,-1.56 -9.39,-7.82 -14.09,-10.95 -3.13,0 -10.95,0 -12.52,0 -12.52,-6.26 -14.09,-12.52 -29.74,-12.52 -21.92,-1.57 -14.09,9.39 -26.61,18.78 -10.96,6.26 -26.62,-9.39 -28.18,9.39 -1.57,12.52 14.09,17.21 10.96,26.61 1.56,-1.57 -20.35,14.08 -20.35,14.08 -10.96,3.13 -18.79,-6.26 -29.75,-6.26 1.57,9.39 1.57,12.52 -9.39,14.09 -4.69,1.56 -4.69,1.56 -4.69,1.56 -17.22,15.65 -36.01,18.78 -34.44,-7.82 10.95,-7.83 23.48,-23.48 37.57,-26.61 9.39,-3.13 14.09,6.26 23.48,-4.7 18.78,-23.47 0,-90.77 34.44,-103.29 18.78,-6.26 20.35,7.82 32.87,15.65 9.39,-4.7 12.52,-14.09 23.48,-17.22 z m -70.44,430.4 c 9.39,-6.26 29.74,4.7 40.7,9.39 -3.13,-15.65 -15.66,-40.69 7.82,-42.26 12.53,-1.56 31.31,12.53 40.71,18.79 7.82,6.26 28.17,32.87 31.3,12.52 3.13,-18.78 -31.3,-20.35 -34.44,-34.43 -3.13,-10.96 18.79,-31.31 20.35,-46.96 -20.35,4.7 -26.61,26.61 -45.39,31.31 -28.18,6.26 -20.35,-17.22 -9.39,-31.31 6.26,-7.82 12.52,-9.39 17.22,-18.78 6.26,-9.39 3.13,-17.21 12.52,-25.04 4.69,-4.69 21.91,0 21.91,-10.95 1.57,-10.96 -14.08,-9.4 -20.35,-9.4 -29.74,-4.69 -40.7,-14.08 -42.26,-45.38 7.82,-10.96 12.52,-1.57 21.91,-4.7 14.09,-6.26 3.13,-3.13 10.96,-14.08 12.52,-15.66 14.09,1.56 25.05,-3.13 17.22,-7.83 3.13,-18.79 -10.96,-18.79 -10.96,0 -14.09,4.7 -23.48,12.53 0,1.56 0,3.12 0,4.69 -20.35,9.39 -21.92,-7.82 -26.61,-23.48 37.57,-15.65 -29.75,-35.99 0,-64.16 12.52,-1.57 29.74,0 39.13,0 10.96,-1.57 17.22,-9.39 25.05,7.82 15.65,-6.26 32.87,9.39 50.09,10.96 0,-7.83 0,-14.09 3.13,-20.35 10.96,7.82 65.75,53.22 29.74,62.6 -3.13,-6.26 -9.39,-10.95 -17.22,-9.38 1.57,1.56 0,4.69 1.57,6.25 -14.09,9.39 -37.57,-1.56 -42.27,21.92 17.22,1.56 26.62,-12.53 42.27,0 17.22,14.08 0,23.47 4.7,40.69 10.95,1.56 37.57,15.65 12.52,17.21 -1.57,14.09 18.78,4.7 15.65,21.91 -4.69,0 -9.39,3.14 -14.09,3.14 7.83,10.95 12.53,17.21 -3.13,26.6 -4.69,0 -9.39,1.57 -15.65,4.7 0,3.13 0,1.56 -3.13,4.69 0,6.26 -4.7,7.83 -12.52,7.83 6.26,7.82 17.22,6.26 23.48,12.52 3.13,4.69 9.39,21.91 9.39,28.17 0,-1.56 25.05,6.26 26.61,7.83 9.39,9.39 4.7,28.17 -7.83,32.86 6.27,10.96 12.53,17.22 15.66,29.74 3.13,10.95 4.69,21.91 7.82,34.43 h 1.57 c 3.13,4.7 3.13,34.43 3.13,40.69 -15.65,-3.13 -17.22,-29.74 -32.87,-37.56 0,15.65 1.56,29.74 -4.7,42.26 4.7,0 9.39,1.56 14.09,-3.13 14.09,17.21 28.18,50.08 6.26,68.86 -15.65,14.09 -36,-12.52 -50.09,-3.13 -7.83,6.27 3.13,9.39 -9.39,15.66 -7.83,3.12 -14.09,0 -20.35,-3.14 -7.83,-3.13 -28.18,-10.95 -32.88,-15.65 -7.82,-6.26 -4.69,-7.82 -9.39,-17.21 -4.69,-7.83 -12.52,-10.96 -21.91,-7.83 -6.27,-9.39 -9.4,-15.65 -14.09,-26.6 -7.83,-15.66 -7.83,-14.09 -26.61,-7.83 -1.57,-1.57 -6.27,-7.83 -7.83,-10.96 4.7,-4.69 6.26,-9.39 9.39,-15.65 -1.56,-1.56 -3.13,-3.13 -4.69,-4.69 -14.09,7.82 -14.09,-1.57 -23.49,-7.83 -7.82,-3.13 -17.21,-4.69 -25.04,-10.95 0,-1.57 -1.57,-6.27 -1.57,-7.83 21.92,0 9.4,-26.61 21.92,-36 z m 101.75,-986.01 c 15.65,-9.39 25.04,-26.6 46.96,-14.08 15.65,9.39 20.35,32.87 28.18,48.52 -3.13,3.13 -25.05,14.08 -28.18,12.52 9.39,6.26 36,21.91 39.13,3.13 28.18,-3.13 36.01,12.52 54.79,29.73 15.66,15.66 39.14,26.61 31.31,54.78 0,3.13 -48.53,64.17 -46.96,64.17 39.13,4.7 18.78,40.69 0,57.91 -20.35,-7.83 -36,18.78 -56.35,1.56 -7.83,6.27 -14.09,3.14 -21.92,6.27 -3.13,-10.96 -1.57,-20.35 3.13,-29.74 4.7,-1.57 7.83,-1.57 12.52,-1.57 7.83,-21.91 1.57,-68.86 -4.69,-90.77 -23.48,-98.6 -82.97,3.13 -54.79,37.56 -15.65,12.52 -25.05,28.17 -40.7,40.69 -1.57,-21.91 12.52,-50.08 0,-65.73 -4.7,1.56 -10.96,4.69 -15.66,7.82 1.57,28.18 -7.82,70.43 -46.96,59.48 -4.69,25.04 4.7,50.08 0,75.12 -3.13,12.52 -17.22,50.09 -25.04,64.17 -15.66,0 -28.18,6.26 -39.14,7.83 0,-17.22 -15.65,-42.26 -18.78,-57.91 -14.09,-54.78 28.18,-59.48 46.96,-111.12 10.96,-32.87 9.39,-21.91 -14.09,-51.65 -15.65,-21.91 -14.09,-32.87 -21.92,-61.04 -1.56,-6.26 -15.65,9.39 -17.21,10.96 -9.4,17.21 -6.27,37.56 6.26,50.08 -7.83,-7.83 -23.48,6.26 -28.18,7.82 -17.22,9.39 -32.87,0 -29.74,-21.91 15.65,1.57 18.78,-4.69 28.17,-10.95 -17.21,-23.48 -26.61,-1.57 -45.39,0 -18.79,1.56 -40.7,-6.26 -59.49,-3.13 -34.43,9.39 -111.14,101.73 -140.88,35.99 -1.57,-4.69 -1.57,-62.6 -1.57,-62.6 -10.95,0 -14.09,1.57 -20.35,7.83 25.05,76.69 -117.4,71.99 -151.84,106.42 4.7,10.96 6.26,10.96 15.65,12.52 21.92,-14.08 23.49,20.35 14.09,36 -10.95,15.65 -34.44,17.22 -51.65,18.78 -10.96,23.48 -34.44,42.26 -54.79,61.04 -3.13,-1.57 -4.7,-1.57 -6.26,-3.13 -14.09,-10.96 -36.01,-59.47 -34.44,-76.69 1.56,-29.74 36,-46.95 53.22,-67.3 21.92,-26.61 12.52,-54.78 34.44,-78.25 17.22,-20.35 31.31,-53.22 50.09,-70.43 14.09,-12.52 34.44,-4.7 46.96,-15.65 12.53,-10.96 10.96,-32.87 14.09,-45.39 25.05,-9.39 56.36,-17.22 82.97,-25.04 40.7,-14.09 108.01,-54.78 108.01,-54.78 0,0 -3.13,-97.04 -9.39,-137.73 -6.27,-36 -10.96,-73.56 -15.66,-109.56 75.14,-9.39 153.41,-14.08 234.81,-15.65 10.96,54.78 34.44,114.25 67.31,158.08 12.53,15.65 59.49,21.91 34.44,50.08 -15.65,17.22 -57.92,20.35 -79.83,23.48 -1.57,29.73 56.35,3.13 70.44,-3.13 17.22,-6.26 21.91,-12.52 36,7.82 10.96,15.65 14.09,21.91 36.01,15.65 12.52,14.09 21.91,36 29.74,51.65 4.7,9.39 6.26,21.91 -3.13,29.74 -9.39,7.82 -17.22,-3.13 -28.18,-3.13 -25.04,1.56 -43.83,28.17 -65.75,37.56 14.09,-6.26 37.57,3.13 53.23,-4.7 z m 104.88,508.66 c 3.13,-6.26 9.39,-14.09 14.09,-23.48 14.09,-25.04 10.96,-12.52 29.74,-1.56 10.96,6.26 15.65,1.56 26.61,3.13 26.61,4.69 15.66,23.47 -1.56,36 -14.09,10.95 -40.7,7.82 -54.79,3.13 -15.66,-4.7 -17.22,-10.96 -14.09,-17.22 z m 93.92,-657.34 c 1.57,-1.56 1.57,-1.56 1.57,-1.56 -14.09,-1.57 -28.18,0 -36.01,-14.09 -6.26,-12.52 1.57,-40.69 20.35,-37.56 10.96,3.13 26.62,34.43 29.75,43.82 3.13,12.52 -1.57,23.48 -15.66,9.39 z m 9.39,71.99 c -3.13,0 -3.13,0 -6.26,0 0,23.48 -14.08,23.48 -25.04,39.13 -10.96,1.57 -15.66,14.09 -25.05,20.35 -9.39,6.26 -25.05,9.39 -34.44,14.08 -10.96,-40.69 -25.04,17.22 -36,17.22 -9.39,-1.56 -15.66,-34.43 -6.26,-37.56 1.56,-1.57 4.69,-1.57 6.26,-3.13 0,-18.78 4.69,-39.13 -1.57,-57.91 -4.69,-15.65 -18.78,-28.17 -23.48,-43.82 12.53,-3.13 29.74,9.39 39.14,7.82 18.78,-4.69 0,-28.17 20.35,-37.56 14.09,7.83 26.61,36 34.44,50.08 17.21,32.87 14.08,17.22 42.26,6.26 10.96,-4.69 26.61,-7.82 37.57,-9.39 6.26,9.39 21.92,20.35 12.52,31.3 -6.26,9.4 -25.04,6.26 -34.44,3.13 z m 75.14,-87.64 c -23.48,-3.13 -1.56,-43.82 6.27,-53.21 17.21,6.26 14.08,54.77 -6.27,53.21 z m 28.18,336.5 c 3.13,15.65 -3.13,12.52 -6.26,23.47 -3.13,9.39 3.13,28.17 -14.09,23.48 3.13,0 3.13,0 3.13,0 -14.09,0 -28.18,0 -32.87,-14.09 -3.13,-10.95 3.13,-39.13 3.13,-50.08 15.65,-12.52 43.83,0 46.96,17.22 z m 12.52,-259.81 c 1.57,-1.57 1.57,-1.57 1.57,-1.57 -1.57,1.57 -1.57,1.57 -3.13,3.13 -1.57,1.57 -3.13,1.57 -4.7,1.57 v 0 c -4.69,1.56 -7.82,0 -12.52,-3.13 3.13,-20.35 28.18,-17.22 18.78,-1.57 v 1.57 z m 223.85,103.3 c 17.22,35.99 68.88,-9.39 92.36,-10.96 50.1,-4.7 34.44,42.26 7.83,36 4.7,1.56 6.26,4.69 14.09,4.69 -12.52,6.26 -10.96,18.78 -20.35,28.17 -7.83,9.39 -18.79,7.83 -25.05,20.35 -20.35,-4.7 -7.82,14.09 -20.35,20.35 -9.39,4.69 -21.91,-9.39 -32.87,-4.7 -15.66,6.26 -21.92,45.39 -42.27,12.52 0,17.22 -12.52,17.22 -21.91,28.17 26.61,0 -1.57,43.83 39.13,34.44 6.26,-1.57 12.52,-10.96 15.66,-10.96 7.82,0 17.22,9.39 25.04,10.96 1.57,-10.96 42.27,-48.52 53.23,-40.7 6.26,4.7 9.39,10.96 9.39,18.78 -26.61,17.22 -3.13,21.92 1.56,34.44 7.83,18.78 1.57,46.95 1.57,65.73 -10.96,12.52 -29.74,17.22 -46.96,20.35 -10.96,1.56 -21.92,-1.57 -31.31,0 -10.96,1.56 -17.22,9.39 -28.18,10.95 -14.09,3.13 -31.31,-9.39 -45.39,-6.26 -10.96,1.57 -10.96,14.09 -17.22,15.65 -17.22,6.26 -39.14,-12.52 -54.79,1.57 9.39,3.13 18.78,26.6 7.83,31.3 15.65,-6.26 28.17,6.26 15.65,18.78 -9.39,-7.82 -21.92,-7.82 -34.44,-7.82 -14.09,17.21 18.79,21.91 15.65,34.43 0,7.82 -20.35,3.13 -28.17,12.52 -3.13,-20.35 -12.53,-20.35 -28.18,-21.91 -3.13,12.52 15.65,21.91 9.39,34.43 -6.26,14.08 -29.74,7.82 -37.57,-1.57 -3.13,3.13 -7.82,4.7 -9.39,10.96 -9.39,-7.83 -17.22,-17.22 -28.18,-18.78 -1.56,15.65 18.79,54.78 -14.08,46.95 0,-1.56 1.56,-3.13 1.56,-4.69 0,-1.57 -6.26,-3.13 -6.26,-3.13 -1.57,-7.83 -4.7,-14.09 -6.26,-21.92 -9.39,4.7 -14.09,20.35 -23.48,23.48 -6.27,0 -20.35,-7.82 -25.05,-9.39 12.52,21.91 9.39,29.74 -14.09,40.69 -1.56,0 -20.35,6.26 -21.91,6.26 -1.57,1.57 -6.26,3.13 -9.4,4.7 -12.52,-7.83 -20.35,4.69 -31.3,-7.83 -9.4,-10.95 -1.57,-26.6 -3.13,-39.12 -9.4,0 -14.09,9.39 -18.79,17.21 -14.09,-4.69 -1.56,-21.91 -15.65,-29.74 -10.96,20.35 6.26,39.13 -7.83,62.61 -6.26,12.52 -10.96,32.86 -25.05,37.56 -20.35,7.83 -26.61,-17.22 -36,-17.22 -29.74,1.57 -26.61,-39.12 -23.48,-57.9 3.13,-18.79 4.7,-14.09 -1.57,-36 12.53,-12.52 28.18,-31.3 21.92,-50.08 -28.18,17.21 -36,46.95 -40.7,75.12 -4.7,20.35 -7.83,17.22 -1.57,39.13 4.7,14.08 12.53,29.73 14.09,43.82 -32.87,-9.39 -54.79,-18.78 -65.74,-51.65 -6.27,-18.78 -17.22,-100.16 -1.57,-114.25 15.65,-14.09 42.27,3.13 54.79,-23.48 -15.65,-4.69 -26.61,4.7 -40.7,1.57 -1.57,-9.39 6.26,-39.13 17.22,-42.26 4.69,-3.13 37.57,10.96 36,15.65 12.53,-34.43 120.54,-23.47 137.76,-3.13 48.52,-15.65 3.13,25.04 6.26,36 9.39,-1.57 25.04,1.56 32.87,-3.13 9.39,-4.7 9.39,-15.65 15.65,-23.48 14.09,-14.08 40.7,-18.78 53.23,-35.99 -7.83,-12.52 -15.66,-20.35 -4.7,-34.44 9.39,6.26 10.96,23.48 21.92,32.87 9.39,-3.13 18.78,-9.39 23.48,-18.78 1.56,0 6.26,1.56 7.83,1.56 14.08,-26.6 40.7,-26.6 59.48,-48.51 12.52,-15.65 14.09,-17.22 9.39,-34.43 -3.13,-10.96 -21.91,-25.05 -3.13,-34.44 0,-18.78 -25.04,-28.17 -23.48,-50.08 14.09,0 28.18,-1.57 37.57,-14.09 -7.83,-9.39 -20.35,-20.34 -32.87,-23.47 -1.57,-6.26 -6.26,-9.39 -9.39,-15.65 -26.62,7.82 -50.1,10.95 -54.79,-20.35 -14.09,1.57 -17.22,-12.52 -14.09,-25.04 10.96,0 15.65,-6.26 15.65,-15.65 20.35,-3.13 26.61,-7.83 45.4,4.69 9.39,7.83 23.48,36 37.57,18.78 14.09,29.74 46.96,1.57 62.61,-9.39 4.7,-3.13 4.7,-10.95 10.96,-12.52 6.26,-3.13 15.65,3.13 20.35,1.57 14.09,-4.7 18.79,-7.83 18.79,-26.61 7.82,-3.13 18.78,-4.69 26.61,-4.69 7.82,1.56 18.78,7.82 25.04,6.26 12.53,-1.57 18.79,-14.09 29.75,-18.78 17.21,-6.27 28.17,4.69 42.26,6.26 18.79,3.13 37.57,-1.57 56.35,0 -4.69,50.08 -93.92,39.12 -122.1,76.69 v 0"/>
            <path id="northwest_territories" style="fill:#c7c7c7;fill-opacity:1;fill-rule:nonzero;stroke:#F5F5F5;stroke-width:6" d="m 1060.53,2470.95 c 3.15,-10.88 -6.29,-23.31 -3.15,-34.19 11.02,-31.09 36.19,15.54 44.06,-7.77 25.18,3.11 28.32,17.09 42.48,34.19 11.02,12.43 26.75,21.76 42.49,27.98 18.88,6.21 44.05,1.55 59.79,12.43 14.16,10.88 17.31,38.85 7.87,52.84 -11.02,17.1 -36.19,18.65 -51.93,27.98 -3.14,0 -4.72,0 -7.87,1.55 -4.72,0 -4.72,23.32 -7.86,26.42 -6.3,6.22 -12.59,0 -22.03,1.56 -11.02,3.11 -18.88,12.43 -29.9,9.32 -15.73,-4.66 -9.44,-23.31 -12.59,-35.74 -7.86,-23.32 -33.04,-35.75 -50.35,-52.85 -12.58,-13.98 -31.47,-18.65 -25.17,-38.85 3.15,-9.33 12.59,-13.99 14.16,-24.87 z m 201.4,-174.07 c -18.88,-9.33 -55.07,26.42 -75.52,27.97 -18.88,1.56 -26.75,-4.66 -29.9,-13.98 51.93,-20.21 144.76,-31.09 144.76,-31.09 0,0 15.73,66.83 39.34,161.64 -9.44,-4.66 -18.88,-12.43 -22.03,-15.54 -4.72,0 -9.44,0 -15.74,0 v 0 c 0,15.54 20.46,46.63 -14.16,41.96 -9.44,-1.55 -22.03,-21.76 -31.47,-15.54 -9.44,6.22 7.87,13.99 11.02,18.65 33.04,45.07 -36.19,13.99 -51.93,10.88 -12.58,-1.55 -22.03,7.77 -26.75,-10.88 -3.14,0 -4.72,-1.55 -7.86,-1.55 -3.15,-21.76 -34.62,-23.32 -20.46,-49.74 11.02,-20.2 37.77,-13.99 55.07,-24.87 -20.45,-3.1 -73.95,4.67 -61.36,-27.97 9.44,-27.98 47.2,-21.76 70.8,-29.53 11.02,-4.66 62.94,-27.98 36.19,-40.41 z m -15.73,382.33 c 6.29,6.22 3.15,12.44 7.87,18.66 3.14,3.1 9.44,0 14.16,4.66 4.72,4.66 6.29,31.08 18.88,26.42 12.59,-4.66 -11.02,-27.98 9.44,-29.53 7.87,0 20.45,20.21 22.03,26.42 4.72,10.88 9.44,26.42 14.16,37.3 -6.29,3.11 -11.01,-1.55 -17.31,0 -1.57,1.56 -12.59,4.66 -12.59,4.66 -11.01,0 -22.02,-4.66 -33.04,-12.43 4.72,1.56 4.72,1.56 4.72,1.56 -7.87,-7.78 -17.31,-17.1 -26.75,-21.76 -11.01,-6.22 -31.47,-3.11 -39.33,-10.88 -22.03,-21.76 29.89,-26.42 37.76,-45.08 z m 39.34,-13.98 c 1.57,-3.11 3.14,-4.66 6.29,-4.66 0,0 -7.87,-7.78 -11.01,-9.33 1.57,-1.56 1.57,-4.66 3.14,-6.22 -11.01,-4.66 -23.6,-1.55 -20.45,-17.09 1.57,-6.22 12.58,-13.99 18.88,-17.1 11.01,-6.22 11.01,-6.22 22.03,-4.66 4.72,0 14.16,17.09 14.16,-1.56 9.44,-4.66 48.78,3.11 39.34,-15.54 -3.15,-10.88 -44.06,-12.43 -53.5,-12.43 -1.58,-3.11 -1.58,-7.77 0,-10.88 22.03,-12.44 34.61,-6.22 56.64,3.11 4.72,1.55 9.44,3.1 12.59,3.1 3.15,15.55 7.87,29.53 11.01,45.08 -6.29,3.1 -12.58,9.32 -15.73,12.43 -7.87,12.43 -3.15,41.97 -26.75,38.86 14.16,37.3 -45.63,18.64 -56.64,-3.11 z m 121.15,69.94 c 9.44,9.32 28.33,57.5 -1.57,43.51 0,1.56 0,1.56 0,1.56 -14.16,-7.77 -28.32,-6.22 -29.9,-24.87 -3.14,-31.08 17.31,-10.88 31.47,-20.2 z m -174.65,-780.22 c -3.15,12.44 -1.58,34.2 -14.16,45.08 -12.59,10.88 -33.05,3.1 -47.21,15.54 -18.88,17.09 -33.04,49.73 -50.35,69.94 -22.03,23.31 -12.59,51.29 -34.61,77.71 -17.31,20.2 -51.93,37.3 -53.5,66.83 -1.58,17.09 20.45,65.28 34.61,76.15 1.58,1.56 3.15,1.56 6.3,3.11 -15.74,12.44 -29.9,24.87 -39.34,40.41 -20.45,1.56 -26.75,-12.43 -44.057,-7.77 14.157,32.64 22.027,62.17 -15.735,24.87 0,24.87 6.293,55.95 -9.441,76.15 9.441,-15.54 -89.688,6.22 -91.262,6.22 -17.305,-7.77 -116.433,-15.54 -62.937,21.76 1.574,0 -3.149,6.22 -3.149,6.22 -15.734,-6.22 -31.469,-9.33 -47.203,-6.22 4.723,-6.22 3.149,-12.43 6.293,-17.1 -50.351,7.78 -47.203,65.28 -66.086,102.58 0,-1.55 0,-1.55 -1.57,-1.55 11.012,-35.75 25.176,-76.16 42.48,-102.58 -12.586,-20.2 -45.629,-49.73 -44.054,-73.05 -58.219,-12.43 3.144,-32.64 9.441,-38.85 17.309,-21.76 0,-43.52 -18.883,-65.28 3.149,-3.11 4.719,-7.77 7.867,-10.88 6.293,-1.55 9.442,-7.77 17.309,-10.88 -3.148,-23.31 -20.457,-20.2 -29.895,-35.75 -4.722,-9.32 -12.589,-24.86 -11.015,-35.74 0,-18.65 12.586,-13.99 22.027,-27.98 -3.144,-17.09 -6.293,-21.76 -4.719,-35.74 1.575,-10.88 7.868,-17.1 1.575,-27.98 -3.149,-7.77 -15.735,-9.33 -18.883,-17.1 -4.723,-9.32 3.148,-23.31 3.148,-32.64 -1.574,-23.31 -18.883,-31.08 -26.75,-49.73 9.442,-3.11 20.453,4.66 29.895,7.77 15.734,-23.31 -1.574,-49.73 1.574,-76.16 4.719,-29.52 28.32,-34.19 51.926,-46.62 9.437,-4.66 9.437,1.55 11.012,-13.99 1.574,-7.77 -3.145,-17.1 -4.719,-24.87 0,-7.77 0,-15.54 0,-24.86 36.187,-15.55 73.953,-32.64 113.289,-48.18 91.262,-35.75 193.532,-68.39 305.252,-93.26 75.53,-17.09 157.35,-31.08 242.32,-40.41 4.72,35.75 9.44,73.05 15.73,108.8 6.29,40.41 9.44,136.77 9.44,136.77 0,0 -67.66,40.41 -108.57,54.4 -26.75,7.77 -58.22,15.54 -83.39,24.86 z m 154.2,850.16 c 4.72,-15.55 33.04,-15.55 44.05,-6.22 v 0 c 1.58,4.66 1.58,9.32 3.15,13.99 -7.87,12.43 -39.33,-1.56 -47.2,-7.77 v 0"/>
            <path id="alberta" style="fill:#c7c7c7;fill-opacity:1;fill-rule:evenodd;stroke:#F5F5F5;stroke-width:6" d="M 1155.28,1665.04 C 987.781,971.699 987.781,971.699 987.781,971.699 923.602,985.781 864.117,1003 809.328,1018.65 c -7.828,32.87 -4.695,67.3 17.219,93.91 -9.395,1.56 -14.09,7.82 -25.047,7.82 1.566,42.26 -18.785,111.12 -56.355,131.47 7.828,15.65 7.828,36 -12.524,31.3 18.785,51.65 -57.918,87.65 -29.738,136.17 34.437,61.04 104.879,237.89 148.711,339.63 90.793,-36 192.546,-68.87 303.686,-93.91 v 0"/>
            <path id="yukon" style="fill:#c7c7c7;fill-opacity:1;fill-rule:nonzero;stroke:#F5F5F5;stroke-width:6" d="m 744.867,1858.87 c 1.563,-7.78 -3.125,-17.13 -4.687,-24.91 0,-7.79 0,-15.57 0,-24.92 -184.391,87.2 -318.778,188.42 -401.598,274.06 v 0 c 0,3.11 1.563,14.01 -1.562,15.57 -6.25,1.56 -12.5,4.67 -18.75,6.23 -3.125,3.11 -6.25,7.78 -9.375,10.9 56.253,52.94 339.089,383.05 392.218,437.55 10.942,-35.81 25.004,-76.3 42.192,-102.77 -12.5,-20.24 -45.317,-49.83 -43.754,-73.18 -57.817,-12.46 3.125,-32.7 9.379,-38.93 17.187,-21.8 0,-43.6 -18.754,-65.4 3.125,-3.12 4.687,-7.79 7.812,-10.9 6.25,-1.56 9.375,-7.79 17.192,-10.9 -3.125,-23.36 -20.317,-20.24 -29.692,-35.82 -4.687,-9.34 -12.5,-24.91 -10.937,-35.81 0,-18.69 12.5,-14.01 21.875,-28.03 -3.125,-17.13 -6.25,-21.8 -4.688,-35.81 1.563,-10.9 7.813,-17.13 1.563,-28.03 -3.125,-7.79 -15.625,-9.34 -18.75,-17.13 -4.688,-9.34 3.125,-23.36 3.125,-32.7 -1.563,-23.35 -18.754,-31.14 -26.567,-49.83 9.375,-3.11 20.317,4.67 29.692,7.79 15.625,-23.36 -1.563,-49.83 1.562,-76.3 4.688,-29.59 28.125,-34.26 51.567,-46.71 9.375,-4.68 9.375,1.55 10.937,-14.02 v 0"/>
            <path id="british_columbia" style="fill:#c7c7c7;fill-opacity:1;fill-rule:nonzero;stroke:#F5F5F5;stroke-width:6" d="m 410.422,1227.41 c -6.25,18.69 0,37.38 -9.371,54.51 -9.375,15.58 -26.555,24.93 -37.488,38.94 -9.372,10.91 -10.934,34.27 -28.118,38.95 -23.429,7.78 -9.371,-20.25 -3.125,-29.6 -23.425,-6.23 0,-31.15 7.813,-38.94 4.683,-6.23 12.496,-10.9 14.058,-20.25 1.563,-9.35 -6.25,-10.9 -6.25,-20.25 -1.562,-17.13 15.622,-23.36 24.993,-35.83 10.933,-14.01 3.125,-31.15 14.058,-46.73 7.809,-12.46 26.555,-32.71 39.047,-40.49 10.938,-6.24 7.813,35.82 7.813,38.94 -1.563,24.92 -14.059,37.38 -23.43,60.75 z m 393.617,-104.37 c 1.563,42.06 -18.742,110.6 -56.23,130.85 7.808,15.57 7.808,35.82 -12.496,31.15 18.742,51.4 -57.793,87.23 -29.676,135.51 34.363,60.75 104.648,236.77 148.386,338.02 -39.05,15.57 -76.539,32.71 -112.464,48.28 -184.313,87.23 -318.641,188.48 -401.426,274.15 1.562,-21.8 1.562,-42.05 1.562,-63.86 0,-9.35 0,-20.25 0,-29.6 0,-6.23 1.563,-9.34 3.121,-9.34 3.125,-1.56 7.813,0 14.059,-1.56 6.25,-1.56 12.496,-12.46 15.621,-1.56 4.688,0 6.246,4.67 9.371,7.79 4.688,6.23 1.563,4.67 7.809,4.67 7.812,1.56 15.621,-3.11 23.429,1.56 6.25,-3.11 9.375,-20.25 7.813,-28.04 -1.563,0 -1.563,0 -1.563,0 -4.687,-7.79 -3.125,-23.36 -3.125,-32.71 -1.562,-4.67 -1.562,-10.9 0,-15.57 4.688,-14.02 9.372,-20.25 7.809,-35.83 -1.559,-4.67 -1.559,-9.35 -4.684,-14.02 -1.562,-4.67 -6.25,-4.67 -6.25,-9.35 -1.558,-7.78 4.688,-20.25 4.688,-28.03 1.562,-10.91 1.562,-20.25 -4.688,-29.6 0,-1.56 -4.683,-3.11 -4.683,-4.67 0,-1.56 1.562,-4.67 0,-6.23 0,-4.68 3.125,-7.79 -6.25,-9.35 -3.121,-7.79 3.125,-21.81 7.812,-29.59 7.809,-12.47 15.618,-26.48 21.868,-38.95 10.933,-20.25 -6.25,-37.38 -15.622,-52.96 -12.496,-23.36 -37.488,-35.82 -43.734,-62.3 -3.125,-10.91 -17.183,-46.73 -1.562,-54.52 6.25,-3.12 14.058,6.23 20.304,7.79 24.992,4.67 3.125,-15.58 -1.562,-21.81 -4.684,-6.23 -4.684,-10.9 -4.684,-18.69 0,-6.23 -3.125,-14.02 -3.125,-20.25 0,-7.79 3.125,-12.46 0,-18.69 -4.683,-7.79 -9.371,-7.79 -4.683,-17.14 7.808,-10.9 23.425,-10.9 35.921,-12.46 -1.558,-14.02 -17.179,-17.13 -28.113,-20.25 -14.058,-6.23 -18.746,-17.13 -24.992,-29.59 -1.562,-3.12 -3.125,-12.46 -4.687,-15.58 -1.559,-6.23 3.125,-20.25 7.812,-26.48 14.059,0 31.238,-10.9 31.238,-26.48 -1.562,-7.79 -4.687,-7.79 1.563,-15.58 4.683,-4.67 12.496,-6.23 17.179,-10.9 9.375,-7.79 24.993,-18.69 20.305,-31.15 -1.558,-6.23 -6.246,-9.35 -6.246,-17.14 0,-7.79 3.125,-10.9 7.813,-17.13 10.933,-10.91 15.617,-29.6 21.867,-45.17 7.808,-14.02 1.562,-18.7 15.621,-28.04 9.371,-4.67 135.89,-68.54 337.383,-130.85 -7.809,32.72 -4.684,66.98 17.183,93.46 -9.375,1.56 -14.058,7.79 -24.992,7.79 v 0"/>
        </g>
    </g>
</svg>