<svg width="500" height="750" viewBox="0 0 500 750" fill="none" xmlns="http://www.w3.org/2000/svg">
<path d="M587.281 54.5489C509.935 15.7191 360.192 31.4439 301.78 40.5886C220.886 47.8697 91.3814 169.436 67.2116 217.973C43.0418 266.51 12.7926 358.297 4.44146 407.559C-7.75772 479.521 4.44117 537.735 50.1529 592.25C116.939 671.899 -26.14 787.32 99.4006 736.631C191.073 699.616 484.083 732.174 564.702 643.57C635.605 565.645 700.457 365.294 657.762 275.645C624.776 206.382 683.964 103.086 587.281 54.5489Z" fill="#79BBC0"/>
<path d="M667.281 25.834C589.935 -12.9957 440.192 2.72904 381.78 11.8737C300.886 19.1548 171.381 140.721 147.212 189.258C123.042 237.795 92.7926 329.582 84.4415 378.845C72.2423 450.806 84.4412 509.02 130.153 563.536C196.939 643.184 53.86 758.605 179.401 707.916C271.073 670.901 564.083 703.459 644.702 614.855C715.605 536.93 780.457 336.579 737.762 246.93C704.776 177.667 763.964 74.3713 667.281 25.834Z" stroke="#000022"/>
<g clip-path="url(#clip0)">
<path d="M434.198 512.237C434.122 512.334 434.052 512.432 433.993 512.535C434.052 512.506 434.11 512.483 434.174 512.46C434.18 512.386 434.192 512.311 434.198 512.237Z" fill="#000022"/>
<path d="M430.033 533.737C429.787 533.737 429.524 533.582 429.501 533.273C429.495 533.181 429.489 533.095 429.489 533.009C429.448 533.153 429.408 533.296 429.372 533.445C429.32 533.651 429.291 533.863 429.291 534.081C429.659 534.609 429.986 534.654 430.278 534.23C430.313 534.196 430.348 534.156 430.377 534.116C430.231 534.018 430.12 533.886 430.033 533.737Z" fill="#000022"/>
<path d="M420.19 524.927C420.359 524.526 420.499 524.107 420.599 523.683C420.622 523.574 420.692 523.374 420.721 523.162C420.569 523.385 420.4 523.643 420.26 523.924C420.155 524.251 420.125 524.595 420.19 524.927Z" fill="#000022"/>
<path d="M419.634 526.899C419.004 526.378 418.834 525.61 418.939 524.807C418.869 525.019 418.811 525.237 418.764 525.461C418.612 526.2 418.378 527.822 419.874 527.203C420.02 527.14 420.172 527.037 420.318 526.911C420.096 527.071 419.851 527.077 419.634 526.899Z" fill="#000022"/>
<path d="M422.047 522.474C422.176 523.34 422.071 524.205 421.749 524.996C421.948 524.595 422.106 524.165 422.205 523.729C422.264 523.466 422.485 522.881 422.339 522.663L422.047 522.474Z" fill="#000022"/>
<path d="M431.114 531.943C430.974 532.241 430.652 532.969 430.98 533.084C431.067 532.912 431.388 532.299 431.587 531.76C431.57 531.611 431.546 531.462 431.511 531.324C431.359 531.513 431.219 531.72 431.114 531.943Z" fill="#000022"/>
<path d="M432.404 515.727C432.41 515.727 432.41 515.727 432.404 515.727C432.404 515.504 432.416 515.274 432.433 515.057C432.328 515.401 432.287 515.681 432.404 515.727Z" fill="#000022"/>
<path d="M434.081 516.054C434.455 515.837 434.706 515.126 434.817 514.747C434.881 514.512 435.027 513.962 434.922 513.601C434.77 514.105 434.566 514.593 434.303 515.063C434.291 515.086 434.28 515.109 434.268 515.126C434.285 515.344 434.151 515.51 433.976 515.59C433.847 515.785 433.695 515.98 433.532 516.158C433.614 516.238 433.783 516.226 434.081 516.054Z" fill="#000022"/>
<path d="M431.376 498.159C431.785 497.677 431.984 496.68 432.112 496.072C432.124 496.009 432.153 495.906 432.182 495.786C432.147 495.78 432.118 495.78 432.083 495.78C431.779 495.797 430.774 497.247 431.131 497.339C431.744 497.494 431.481 498.422 430.868 498.267C430.774 498.245 430.687 498.21 430.611 498.17C430.593 498.313 430.582 498.457 430.582 498.594C430.804 498.64 431.072 498.525 431.376 498.159Z" fill="#000022"/>
<path d="M404.324 539.493C404.318 539.498 404.318 539.504 404.312 539.516C404.3 539.561 404.283 539.602 404.271 539.647C404.423 539.424 404.552 539.189 404.657 538.942C404.528 539.114 404.417 539.298 404.324 539.493Z" fill="#000022"/>
<path d="M404.114 541.286C404.143 541.355 404.178 541.401 404.219 541.435C404.744 541.091 405.288 540.26 405.556 539.808C405.831 539.154 406.076 538.409 405.936 538.111C405.714 539.326 405.083 540.45 404.114 541.286Z" fill="#000022"/>
<path d="M404.4 558.649C404.149 558.947 403.903 559.256 403.687 559.583C403.903 559.761 403.979 560.093 403.74 560.294C403.933 560.443 404.154 560.34 404.353 560.15C404.546 559.772 404.692 559.451 404.733 559.348C404.943 558.872 405.124 558.374 405.276 557.875C404.99 557.858 404.575 558.442 404.4 558.649Z" fill="#000022"/>
<path d="M402.752 521.029C402.963 520.554 403.144 520.055 403.296 519.556C403.009 519.545 402.589 520.13 402.419 520.336C402.168 520.634 401.923 520.943 401.707 521.27C401.923 521.448 401.999 521.78 401.759 521.981C401.952 522.13 402.174 522.027 402.373 521.838C402.566 521.454 402.712 521.133 402.752 521.029Z" fill="#000022"/>
<path d="M418.227 508.62C418.192 508.614 418.163 508.614 418.128 508.614C417.824 508.631 416.819 510.082 417.175 510.173C417.789 510.328 417.526 511.257 416.912 511.102C416.819 511.079 416.731 511.045 416.655 511.005C416.638 511.148 416.626 511.291 416.626 511.429C416.842 511.469 417.111 511.354 417.421 510.987C417.83 510.506 418.028 509.508 418.157 508.901C418.168 508.849 418.198 508.746 418.227 508.62Z" fill="#000022"/>
<path d="M418.94 547.809C418.841 547.626 418.765 547.419 418.712 547.202C418.73 547.431 418.788 547.654 418.905 547.861C418.916 547.844 418.928 547.826 418.94 547.809Z" fill="#000022"/>
<path d="M420.429 546.858C420.441 546.829 420.447 546.8 420.458 546.778C420.622 546.359 420.756 545.923 420.844 545.482C420.855 545.419 420.902 545.247 420.943 545.046C420.844 544.748 420.639 544.565 420.336 544.72C420.558 545.425 420.587 546.158 420.429 546.858Z" fill="#000022"/>
<path d="M419.132 568.76C419.132 568.536 419.144 568.307 419.162 568.089C419.051 568.433 419.01 568.714 419.132 568.76Z" fill="#000022"/>
<path d="M420.92 565.269C420.844 565.366 420.774 565.464 420.715 565.567C420.774 565.538 420.832 565.516 420.896 565.493C420.908 565.418 420.914 565.344 420.92 565.269Z" fill="#000022"/>
<path d="M421.019 568.101C421.007 568.124 420.996 568.147 420.984 568.164C421.002 568.382 420.867 568.548 420.692 568.628C420.558 568.823 420.412 569.018 420.248 569.196C420.347 569.27 420.511 569.264 420.809 569.092C421.183 568.875 421.434 568.164 421.545 567.786C421.609 567.551 421.755 567 421.65 566.639C421.486 567.144 421.282 567.631 421.019 568.101Z" fill="#000022"/>
<path d="M420.049 548.577C419.921 548.583 419.786 548.56 419.646 548.497C419.558 548.606 419.465 548.715 419.36 548.818C419.582 548.904 419.827 548.852 420.049 548.577Z" fill="#000022"/>
<path d="M453.37 554.969C452.739 554.447 452.569 553.679 452.675 552.876C452.604 553.089 452.546 553.306 452.499 553.53C452.347 554.269 452.114 555.891 453.609 555.272C453.755 555.209 453.907 555.106 454.053 554.98C453.831 555.146 453.58 555.146 453.37 554.969Z" fill="#000022"/>
<path d="M464.849 560.018C464.709 560.317 464.388 561.045 464.715 561.159C464.802 560.987 465.124 560.374 465.322 559.835C465.305 559.686 465.282 559.537 465.246 559.399C465.089 559.589 464.954 559.789 464.849 560.018Z" fill="#000022"/>
<path d="M456.828 510.253C456.583 510.253 456.32 510.099 456.297 509.789C456.291 509.697 456.285 509.611 456.285 509.525C456.244 509.669 456.203 509.812 456.168 509.961C456.116 510.167 456.087 510.379 456.087 510.597C456.455 511.125 456.782 511.17 457.074 510.746C457.109 510.712 457.144 510.672 457.173 510.632C457.027 510.528 456.916 510.402 456.828 510.253Z" fill="#000022"/>
<path d="M452.64 575.931C452.652 575.913 452.663 575.896 452.675 575.879C452.576 575.696 452.5 575.489 452.447 575.271C452.465 575.501 452.523 575.724 452.64 575.931Z" fill="#000022"/>
<path d="M453.095 576.888C453.317 576.974 453.562 576.922 453.784 576.647C453.656 576.653 453.522 576.63 453.381 576.567C453.288 576.682 453.194 576.785 453.095 576.888Z" fill="#000022"/>
<path d="M451.962 536.695C451.927 536.689 451.898 536.689 451.863 536.689C451.559 536.707 450.554 538.157 450.911 538.249C451.524 538.403 451.261 539.332 450.648 539.177C450.554 539.154 450.467 539.12 450.391 539.08C450.373 539.223 450.362 539.366 450.362 539.504C450.578 539.544 450.846 539.429 451.156 539.063C451.565 538.581 451.764 537.584 451.892 536.976C451.904 536.924 451.933 536.816 451.962 536.695Z" fill="#000022"/>
<path d="M466.14 543.803C466.14 543.803 466.146 543.803 466.14 543.803C466.14 543.579 466.152 543.35 466.169 543.132C466.064 543.476 466.017 543.757 466.14 543.803Z" fill="#000022"/>
<path d="M457.909 508.459C457.769 508.757 457.448 509.485 457.775 509.6C457.862 509.428 458.184 508.815 458.382 508.276C458.365 508.127 458.341 507.978 458.306 507.84C458.149 508.029 458.014 508.23 457.909 508.459Z" fill="#000022"/>
<path d="M453.925 553.003C454.094 552.602 454.235 552.183 454.334 551.759C454.357 551.65 454.421 551.449 454.457 551.237C454.305 551.461 454.141 551.719 453.995 552C453.89 552.321 453.861 552.67 453.925 553.003Z" fill="#000022"/>
<path d="M454.065 572.795C454.287 573.495 454.322 574.234 454.165 574.933C454.176 574.905 454.182 574.876 454.194 574.853C454.358 574.435 454.492 573.999 454.579 573.558C454.591 573.495 454.638 573.323 454.679 573.122C454.574 572.824 454.369 572.641 454.065 572.795Z" fill="#000022"/>
<path d="M455.783 550.55C455.911 551.415 455.806 552.281 455.485 553.072C455.683 552.665 455.841 552.241 455.94 551.805C456.005 551.541 456.221 550.957 456.075 550.739L455.783 550.55Z" fill="#000022"/>
<path d="M449.766 520.749C449.748 520.6 449.725 520.451 449.69 520.313C449.538 520.502 449.398 520.703 449.292 520.932C449.152 521.23 448.831 521.958 449.158 522.073C449.24 521.901 449.561 521.287 449.766 520.749Z" fill="#000022"/>
<path d="M437.031 547.632C436.745 547.62 436.324 548.205 436.155 548.411C435.904 548.709 435.658 549.019 435.442 549.345C435.658 549.523 435.734 549.856 435.495 550.056C435.687 550.205 435.909 550.102 436.108 549.913C436.301 549.535 436.447 549.214 436.488 549.11C436.698 548.623 436.879 548.13 437.031 547.632Z" fill="#000022"/>
<path d="M463.768 561.813C463.523 561.813 463.26 561.658 463.236 561.349C463.23 561.257 463.225 561.171 463.225 561.085C463.184 561.228 463.143 561.372 463.108 561.521C463.055 561.727 463.026 561.939 463.026 562.157C463.394 562.684 463.721 562.73 464.013 562.306C464.048 562.271 464.083 562.231 464.113 562.191C463.967 562.088 463.85 561.962 463.768 561.813Z" fill="#000022"/>
<path d="M468.027 543.138C468.015 543.161 468.003 543.184 467.992 543.201C468.009 543.419 467.875 543.585 467.699 543.665C467.565 543.86 467.419 544.055 467.255 544.233C467.355 544.307 467.518 544.302 467.816 544.13C468.19 543.912 468.447 543.201 468.552 542.823C468.617 542.588 468.763 542.037 468.657 541.676C468.5 542.186 468.295 542.674 468.027 543.138Z" fill="#000022"/>
<path d="M467.483 526.274C467.892 525.793 468.091 524.795 468.219 524.188C468.231 524.125 468.26 524.022 468.289 523.901C468.254 523.896 468.225 523.896 468.19 523.896C467.886 523.913 466.881 525.363 467.238 525.455C467.851 525.609 467.588 526.538 466.975 526.383C466.881 526.36 466.794 526.326 466.718 526.286C466.7 526.429 466.689 526.572 466.689 526.71C466.905 526.756 467.174 526.641 467.483 526.274Z" fill="#000022"/>
<path d="M448.06 496.88C447.984 496.978 447.914 497.075 447.856 497.178C447.914 497.15 447.972 497.127 448.037 497.104C448.048 497.029 448.054 496.955 448.06 496.88Z" fill="#000022"/>
<path d="M438.059 567.562C438.053 567.568 438.053 567.573 438.047 567.585C438.036 567.631 438.018 567.671 438.006 567.717C438.158 567.493 438.287 567.258 438.392 567.012C438.264 567.184 438.147 567.367 438.059 567.562Z" fill="#000022"/>
<path d="M437.843 569.362C437.873 569.431 437.908 569.477 437.949 569.511C438.474 569.167 439.018 568.336 439.286 567.883C439.561 567.23 439.806 566.485 439.666 566.187C439.444 567.396 438.813 568.519 437.843 569.362Z" fill="#000022"/>
<path d="M467.933 540.312C467.857 540.409 467.787 540.507 467.729 540.61C467.787 540.581 467.845 540.558 467.91 540.536C467.916 540.461 467.927 540.387 467.933 540.312Z" fill="#000022"/>
<path d="M448.212 522.726C447.967 522.726 447.704 522.571 447.681 522.262C447.675 522.17 447.669 522.084 447.669 521.998C447.628 522.141 447.587 522.285 447.552 522.434C447.5 522.64 447.47 522.852 447.47 523.07C447.838 523.597 448.166 523.643 448.458 523.219C448.493 523.185 448.528 523.144 448.557 523.104C448.411 523.007 448.3 522.875 448.212 522.726Z" fill="#000022"/>
<path d="M447.943 500.698C448.317 500.481 448.568 499.77 448.679 499.392C448.744 499.157 448.89 498.606 448.784 498.245C448.633 498.75 448.428 499.237 448.165 499.707C448.154 499.73 448.142 499.753 448.13 499.77C448.148 499.988 448.013 500.154 447.838 500.234C447.71 500.429 447.558 500.624 447.394 500.802C447.482 500.882 447.651 500.87 447.943 500.698Z" fill="#000022"/>
<path d="M446.273 500.371C446.273 500.148 446.284 499.918 446.302 499.701C446.191 500.045 446.15 500.325 446.273 500.371Z" fill="#000022"/>
<path d="M440.53 564.805C440.268 564.828 440.01 564.879 439.765 564.954C439.759 564.954 439.753 564.954 439.748 564.954C439.742 564.833 439.73 564.719 439.718 564.598C439.672 564.18 439.216 563.962 438.877 564.26C438.848 564.289 438.813 564.312 438.784 564.34C438.644 564.312 438.492 564.335 438.351 564.449C437.294 565.32 436.529 566.496 436.231 567.82C436.044 568.651 435.781 570.307 436.844 570.714C437.131 570.823 437.428 570.8 437.721 570.697C438.363 570.892 438.965 570.336 439.345 569.826C439.683 569.362 440.326 568.307 440.636 567.287C440.863 566.65 440.992 565.98 441.027 565.286C441.033 565.045 440.787 564.782 440.53 564.805ZM438.048 567.585C438.054 567.579 438.054 567.573 438.059 567.562C438.153 567.367 438.264 567.183 438.392 567.011C438.287 567.258 438.159 567.493 438.007 567.716C438.018 567.671 438.03 567.63 438.048 567.585ZM439.286 567.877C439.017 568.336 438.474 569.161 437.948 569.505C437.907 569.476 437.872 569.425 437.843 569.356C438.813 568.519 439.444 567.395 439.66 566.175C439.806 566.478 439.561 567.224 439.286 567.877Z" fill="#000022"/>
<path d="M438.234 548.085C438.264 547.827 438.264 547.54 438.199 547.282C438.31 546.835 438.345 546.382 438.164 546.027C437.849 545.414 437.125 545.385 436.552 545.643C435.968 545.906 435.518 546.457 435.185 547.03C434.671 547.54 434.175 548.239 434.099 548.922C433.322 549.489 433.275 550.481 433.742 551.168C433.701 551.747 433.789 552.389 434.268 552.676C434.975 553.106 435.664 552.55 436.242 551.713C437.487 551.117 438.088 549.369 438.234 548.085ZM435.495 550.051C435.734 549.856 435.658 549.518 435.442 549.34C435.658 549.013 435.904 548.704 436.155 548.406C436.33 548.199 436.745 547.615 437.031 547.626C436.879 548.125 436.704 548.623 436.488 549.099C436.441 549.197 436.301 549.523 436.108 549.902C435.904 550.097 435.688 550.2 435.495 550.051Z" fill="#000022"/>
<path d="M406.409 556.27C406.094 555.657 405.369 555.628 404.797 555.886C404.213 556.15 403.763 556.7 403.43 557.273C402.916 557.783 402.419 558.483 402.343 559.165C401.566 559.732 401.52 560.724 401.987 561.412C401.946 561.991 402.034 562.633 402.513 562.919C403.219 563.349 403.909 562.793 404.487 561.956C405.731 561.349 406.333 559.6 406.479 558.322C406.508 558.064 406.508 557.778 406.444 557.52C406.555 557.073 406.59 556.625 406.409 556.27ZM404.732 559.342C404.686 559.446 404.546 559.767 404.353 560.145C404.154 560.334 403.932 560.437 403.739 560.288C403.979 560.093 403.903 559.755 403.687 559.577C403.903 559.251 404.148 558.941 404.399 558.643C404.575 558.437 404.99 557.852 405.276 557.864C405.124 558.368 404.949 558.867 404.732 559.342Z" fill="#000022"/>
<path d="M454.766 549.552C454.62 549.317 454.258 549.174 453.972 549.403C452.944 550.228 452.173 551.295 451.746 552.538C451.437 553.444 451.139 554.82 451.664 555.708C453.066 558.098 455.865 554.585 456.449 553.306C456.84 552.447 457.307 551.123 456.951 550.188C456.606 549.271 455.555 549.145 454.766 549.552ZM452.5 553.524C452.546 553.301 452.605 553.083 452.675 552.871C452.57 553.673 452.739 554.441 453.37 554.963C453.586 555.141 453.837 555.141 454.054 554.969C453.908 555.089 453.762 555.198 453.61 555.261C452.108 555.892 452.348 554.264 452.5 553.524ZM454.334 551.753C454.235 552.183 454.095 552.596 453.925 552.997C453.861 552.665 453.89 552.315 453.995 551.994C454.135 551.719 454.299 551.455 454.457 551.232C454.422 551.444 454.357 551.65 454.334 551.753ZM455.94 551.799C455.835 552.24 455.683 552.665 455.485 553.066C455.806 552.28 455.911 551.415 455.783 550.544L456.081 550.727C456.221 550.951 456.005 551.535 455.94 551.799Z" fill="#000022"/>
<path d="M453.317 536.833C453.335 536.569 453.329 536.3 453.3 536.036C453.27 535.784 453.189 535.578 453.072 535.417C453.031 535.102 452.92 534.815 452.698 534.609C452.33 534.265 451.915 534.288 451.53 534.466C451.588 534.082 451.062 533.698 450.688 534.041C449.257 535.36 447.984 537.997 449.181 539.831C449.246 540.335 449.368 540.828 449.561 541.31C449.666 541.573 449.999 541.791 450.285 541.596C450.461 541.476 450.63 541.344 450.799 541.206C451.051 541.149 451.302 541.006 451.512 540.782C452.102 540.163 453.428 538.134 453.317 536.833ZM450.361 539.51C450.367 539.372 450.373 539.229 450.391 539.086C450.466 539.126 450.554 539.154 450.648 539.183C451.261 539.338 451.524 538.409 450.91 538.254C450.554 538.163 451.559 536.713 451.863 536.695C451.898 536.695 451.933 536.695 451.962 536.701C451.933 536.827 451.904 536.93 451.892 536.988C451.763 537.59 451.565 538.593 451.156 539.074C450.846 539.43 450.577 539.55 450.361 539.51Z" fill="#000022"/>
<path d="M465.882 528.516C465.987 528.779 466.32 528.997 466.607 528.802C466.782 528.682 466.951 528.55 467.121 528.413C467.372 528.355 467.623 528.212 467.833 527.988C468.429 527.369 469.755 525.346 469.644 524.039C469.662 523.775 469.656 523.506 469.627 523.242C469.598 522.99 469.516 522.784 469.399 522.623C469.358 522.308 469.247 522.021 469.025 521.815C468.657 521.471 468.242 521.494 467.857 521.672C467.915 521.288 467.389 520.904 467.016 521.247C465.584 522.566 464.311 525.203 465.508 527.037C465.567 527.541 465.689 528.04 465.882 528.516ZM466.718 526.292C466.794 526.332 466.881 526.36 466.975 526.389C467.588 526.544 467.851 525.615 467.238 525.461C466.881 525.369 467.886 523.919 468.19 523.901C468.225 523.901 468.26 523.901 468.289 523.907C468.26 524.033 468.231 524.136 468.219 524.194C468.09 524.796 467.892 525.799 467.483 526.28C467.173 526.641 466.905 526.762 466.688 526.722C466.688 526.578 466.7 526.435 466.718 526.292Z" fill="#000022"/>
<path d="M455.298 571.253C454.702 570.818 453.983 571.179 453.352 571.735C453.049 571.701 452.716 571.97 452.792 572.302C452.459 572.681 452.184 573.065 452.026 573.311C451.711 573.798 451.518 574.354 451.477 574.91C451.407 575.306 451.395 575.707 451.471 576.103C451.635 577.02 452.353 578.12 453.44 577.994C454.725 577.84 455.146 576.177 455.426 575.174C455.601 574.549 455.893 573.598 455.759 572.847C455.818 572.182 455.73 571.569 455.298 571.253ZM452.64 575.931C452.523 575.724 452.464 575.501 452.447 575.272C452.499 575.489 452.575 575.696 452.675 575.879C452.663 575.896 452.651 575.914 452.64 575.931ZM453.095 576.888C453.195 576.785 453.288 576.676 453.382 576.567C453.522 576.63 453.662 576.659 453.785 576.647C453.557 576.922 453.311 576.98 453.095 576.888ZM454.579 573.558C454.486 573.999 454.357 574.435 454.194 574.853C454.182 574.876 454.176 574.905 454.164 574.933C454.322 574.234 454.293 573.495 454.065 572.795C454.369 572.641 454.573 572.824 454.673 573.122C454.632 573.323 454.591 573.5 454.579 573.558Z" fill="#000022"/>
<path d="M465.55 558.001C465.521 557.984 465.491 557.967 465.462 557.955C465.637 557.823 465.818 557.703 466.005 557.594C466.543 557.273 466.052 556.436 465.509 556.763C463.716 557.84 462.197 559.784 462.057 561.904C462.004 562.678 462.337 563.55 463.225 563.653C464.084 563.75 464.808 562.988 465.223 562.311C465.708 562.076 466.023 561.475 466.157 560.959C466.233 560.672 466.292 560.374 466.315 560.07C466.408 559.772 466.461 559.48 466.467 559.205C466.467 558.672 466.14 557.995 465.55 558.001ZM464.013 562.306C463.721 562.73 463.394 562.678 463.026 562.157C463.026 561.945 463.05 561.732 463.108 561.52C463.143 561.371 463.178 561.228 463.225 561.085C463.225 561.171 463.231 561.262 463.237 561.348C463.26 561.658 463.523 561.813 463.768 561.813C463.85 561.962 463.967 562.094 464.113 562.191C464.084 562.231 464.048 562.266 464.013 562.306ZM464.714 561.159C464.387 561.045 464.709 560.317 464.849 560.019C464.96 559.789 465.094 559.589 465.246 559.4C465.281 559.537 465.304 559.686 465.322 559.835C465.117 560.374 464.796 560.987 464.714 561.159Z" fill="#000022"/>
<path d="M468.979 540.564C468.949 540.547 468.92 540.536 468.891 540.524C468.944 540.106 468.967 539.682 468.949 539.257C468.932 538.885 468.546 538.667 468.208 538.839C468.167 538.856 468.132 538.879 468.097 538.902C467.921 538.759 467.67 538.724 467.477 538.942C466.788 539.71 463.523 544.313 465.731 544.846C465.97 544.903 466.198 544.881 466.408 544.812C466.467 544.898 466.537 544.978 466.619 545.052C467.162 545.517 467.898 545.293 468.394 544.892C469.352 544.124 470.486 541.332 468.979 540.564ZM466.145 543.803C466.145 543.803 466.14 543.803 466.145 543.803C466.017 543.757 466.064 543.476 466.169 543.132C466.151 543.344 466.14 543.574 466.145 543.803ZM467.933 540.312C467.927 540.387 467.915 540.461 467.904 540.536C467.845 540.559 467.781 540.582 467.723 540.61C467.787 540.507 467.857 540.41 467.933 540.312ZM468.546 542.823C468.441 543.201 468.19 543.912 467.81 544.13C467.518 544.302 467.349 544.307 467.249 544.233C467.413 544.055 467.565 543.86 467.693 543.665C467.869 543.585 467.997 543.425 467.986 543.201C467.997 543.178 468.009 543.155 468.021 543.138C468.289 542.674 468.494 542.181 468.64 541.676C468.757 542.037 468.611 542.593 468.546 542.823Z" fill="#000022"/>
<path d="M446.746 501.627C447.289 502.091 448.025 501.867 448.521 501.466C449.479 500.692 450.613 497.901 449.1 497.133C449.071 497.116 449.041 497.104 449.012 497.093C449.065 496.674 449.088 496.25 449.071 495.826C449.053 495.453 448.667 495.235 448.329 495.407C448.288 495.425 448.253 495.447 448.218 495.47C448.042 495.327 447.791 495.293 447.598 495.511C446.909 496.279 443.644 500.881 445.852 501.415C446.091 501.472 446.319 501.449 446.529 501.38C446.594 501.478 446.664 501.558 446.746 501.627ZM448.06 496.88C448.054 496.955 448.042 497.03 448.031 497.104C447.972 497.127 447.908 497.15 447.85 497.179C447.92 497.075 447.99 496.978 448.06 496.88ZM447.832 500.239C448.007 500.159 448.136 499.999 448.124 499.775C448.136 499.752 448.148 499.729 448.159 499.712C448.428 499.248 448.632 498.755 448.778 498.25C448.889 498.606 448.738 499.162 448.673 499.397C448.568 499.775 448.317 500.486 447.937 500.704C447.645 500.876 447.476 500.881 447.376 500.807C447.552 500.629 447.698 500.429 447.832 500.239ZM446.272 500.371C446.144 500.325 446.191 500.045 446.296 499.701C446.278 499.918 446.267 500.148 446.272 500.371Z" fill="#000022"/>
<path d="M421.966 565.527C421.936 565.51 421.907 565.499 421.878 565.487C421.931 565.069 421.954 564.645 421.936 564.22C421.919 563.848 421.533 563.63 421.195 563.802C421.154 563.819 421.119 563.842 421.084 563.865C420.908 563.722 420.657 563.687 420.464 563.905C419.775 564.673 416.51 569.276 418.718 569.809C418.957 569.866 419.185 569.843 419.395 569.775C419.454 569.861 419.524 569.941 419.606 570.015C420.149 570.48 420.885 570.256 421.381 569.855C422.345 569.087 423.473 566.29 421.966 565.527ZM419.132 568.76C419.004 568.714 419.051 568.433 419.156 568.089C419.138 568.307 419.127 568.537 419.132 568.76ZM420.92 565.269C420.914 565.344 420.902 565.418 420.891 565.493C420.832 565.516 420.768 565.539 420.71 565.567C420.78 565.464 420.85 565.367 420.92 565.269ZM421.533 567.786C421.428 568.164 421.177 568.875 420.797 569.093C420.505 569.265 420.336 569.27 420.237 569.196C420.4 569.018 420.552 568.823 420.681 568.628C420.856 568.548 420.984 568.388 420.973 568.164C420.984 568.141 420.996 568.118 421.008 568.101C421.276 567.637 421.481 567.144 421.627 566.639C421.75 566.995 421.598 567.551 421.533 567.786Z" fill="#000022"/>
<path d="M406.795 536.735C406.532 536.758 406.275 536.81 406.03 536.884C406.024 536.884 406.018 536.884 406.012 536.884C406.006 536.764 405.995 536.649 405.983 536.529C405.936 536.11 405.481 535.893 405.142 536.191C405.113 536.219 405.078 536.242 405.048 536.271C404.908 536.242 404.756 536.265 404.616 536.38C403.559 537.251 402.794 538.426 402.496 539.75C402.309 540.576 402.046 542.232 403.109 542.645C403.395 542.754 403.693 542.731 403.985 542.628C404.628 542.823 405.23 542.267 405.609 541.757C405.948 541.292 406.591 540.238 406.9 539.217C407.128 538.581 407.257 537.91 407.292 537.217C407.297 536.976 407.052 536.712 406.795 536.735ZM404.312 539.515C404.318 539.51 404.318 539.504 404.324 539.492C404.418 539.297 404.529 539.114 404.657 538.942C404.552 539.189 404.423 539.424 404.272 539.647C404.283 539.601 404.301 539.555 404.312 539.515ZM405.557 539.802C405.288 540.26 404.745 541.086 404.219 541.43C404.178 541.401 404.143 541.35 404.114 541.281C405.083 540.444 405.714 539.32 405.931 538.099C406.071 538.403 405.831 539.154 405.557 539.802Z" fill="#000022"/>
<path d="M402.513 523.649C403.758 523.041 404.359 521.293 404.505 520.015C404.535 519.757 404.535 519.47 404.47 519.212C404.581 518.765 404.616 518.312 404.435 517.957C404.12 517.344 403.395 517.315 402.823 517.573C402.239 517.837 401.789 518.387 401.456 518.96C400.942 519.47 400.445 520.17 400.37 520.852C399.593 521.419 399.546 522.411 400.013 523.099C399.972 523.678 400.06 524.32 400.539 524.606C401.24 525.042 401.929 524.486 402.513 523.649ZM401.76 521.975C401.999 521.78 401.923 521.442 401.707 521.264C401.923 520.938 402.169 520.628 402.42 520.33C402.595 520.124 403.01 519.539 403.296 519.551C403.144 520.049 402.963 520.548 402.753 521.024C402.706 521.121 402.566 521.448 402.373 521.826C402.175 522.027 401.953 522.124 401.76 521.975Z" fill="#000022"/>
<path d="M421.031 521.483C420.885 521.248 420.523 521.104 420.237 521.334C419.208 522.159 418.437 523.225 418.011 524.469C417.701 525.375 417.403 526.75 417.929 527.639C419.331 530.029 422.129 526.515 422.713 525.237C423.105 524.377 423.572 523.053 423.216 522.119C422.871 521.202 421.82 521.07 421.031 521.483ZM418.764 525.455C418.811 525.231 418.87 525.014 418.94 524.802C418.835 525.604 419.004 526.372 419.635 526.894C419.851 527.071 420.102 527.071 420.318 526.899C420.172 527.02 420.026 527.129 419.874 527.192C418.379 527.817 418.613 526.194 418.764 525.455ZM420.599 523.684C420.499 524.114 420.359 524.526 420.19 524.928C420.126 524.595 420.155 524.246 420.26 523.925C420.4 523.649 420.564 523.386 420.721 523.162C420.686 523.369 420.622 523.575 420.599 523.684ZM422.211 523.73C422.106 524.171 421.954 524.595 421.755 524.996C422.077 524.211 422.182 523.346 422.053 522.474L422.351 522.658C422.486 522.881 422.269 523.466 422.211 523.73Z" fill="#000022"/>
<path d="M419.582 508.757C419.6 508.494 419.594 508.224 419.565 507.96C419.536 507.708 419.454 507.502 419.337 507.341C419.296 507.026 419.185 506.74 418.963 506.533C418.595 506.189 418.18 506.212 417.795 506.39C417.853 506.006 417.327 505.622 416.954 505.966C415.522 507.284 414.249 509.921 415.446 511.755C415.511 512.26 415.633 512.752 415.826 513.234C415.931 513.498 416.264 513.715 416.55 513.521C416.726 513.4 416.895 513.268 417.065 513.131C417.316 513.073 417.567 512.93 417.777 512.707C418.367 512.088 419.693 510.064 419.582 508.757ZM416.626 511.434C416.632 511.297 416.638 511.153 416.656 511.01C416.732 511.05 416.819 511.079 416.913 511.107C417.526 511.262 417.789 510.334 417.176 510.179C416.819 510.087 417.824 508.637 418.128 508.62C418.163 508.62 418.198 508.62 418.227 508.625C418.198 508.752 418.169 508.855 418.157 508.912C418.028 509.514 417.83 510.517 417.421 510.998C417.111 511.36 416.843 511.474 416.626 511.434Z" fill="#000022"/>
<path d="M429.782 500.4C429.887 500.664 430.22 500.881 430.506 500.687C430.681 500.566 430.851 500.434 431.02 500.297C431.271 500.239 431.523 500.096 431.733 499.873C432.329 499.254 433.655 497.23 433.544 495.923C433.561 495.66 433.556 495.39 433.526 495.127C433.497 494.874 433.415 494.668 433.298 494.507C433.258 494.192 433.147 493.906 432.925 493.699C432.557 493.355 432.142 493.378 431.756 493.556C431.815 493.172 431.289 492.788 430.915 493.132C429.484 494.45 428.21 497.087 429.408 498.921C429.466 499.426 429.589 499.924 429.782 500.4ZM430.617 498.176C430.693 498.216 430.781 498.245 430.874 498.273C431.488 498.428 431.75 497.5 431.137 497.345C430.781 497.253 431.786 495.803 432.089 495.786C432.13 495.786 432.159 495.786 432.189 495.791C432.159 495.918 432.13 496.021 432.118 496.078C431.99 496.68 431.791 497.683 431.382 498.164C431.073 498.526 430.804 498.646 430.588 498.606C430.588 498.463 430.6 498.319 430.617 498.176Z" fill="#000022"/>
<path d="M419.699 549.919C420.984 549.764 421.405 548.102 421.685 547.099C421.861 546.474 422.153 545.523 422.018 544.772C422.083 544.113 422.001 543.499 421.568 543.178C420.973 542.743 420.254 543.104 419.623 543.66C419.319 543.625 418.986 543.895 419.062 544.227C418.729 544.606 418.455 544.99 418.297 545.236C417.982 545.723 417.789 546.279 417.748 546.835C417.678 547.231 417.666 547.632 417.742 548.028C417.9 548.945 418.618 550.045 419.699 549.919ZM420.943 545.053C420.903 545.253 420.856 545.425 420.844 545.488C420.751 545.93 420.622 546.365 420.459 546.784C420.447 546.807 420.441 546.835 420.429 546.864C420.587 546.165 420.558 545.425 420.33 544.726C420.634 544.565 420.844 544.749 420.943 545.053ZM419.641 548.498C419.781 548.561 419.921 548.589 420.044 548.578C419.822 548.853 419.576 548.905 419.355 548.819C419.46 548.715 419.553 548.606 419.641 548.498ZM418.94 547.81C418.928 547.827 418.916 547.844 418.905 547.861C418.788 547.655 418.729 547.431 418.712 547.202C418.765 547.42 418.84 547.621 418.94 547.81Z" fill="#000022"/>
<path d="M431.815 529.931C431.786 529.914 431.756 529.897 431.727 529.885C431.903 529.753 432.084 529.633 432.271 529.524C432.808 529.203 432.317 528.366 431.774 528.693C429.981 529.771 428.462 531.714 428.322 533.835C428.269 534.608 428.602 535.48 429.49 535.583C430.349 535.68 431.073 534.918 431.488 534.242C431.973 534.007 432.288 533.405 432.422 532.889C432.498 532.602 432.557 532.304 432.58 532C432.674 531.702 432.726 531.41 432.732 531.135C432.738 530.602 432.405 529.92 431.815 529.931ZM430.279 534.23C429.986 534.654 429.659 534.603 429.291 534.081C429.291 533.869 429.315 533.657 429.373 533.445C429.408 533.296 429.443 533.153 429.49 533.009C429.49 533.095 429.496 533.187 429.502 533.273C429.525 533.582 429.788 533.737 430.033 533.737C430.115 533.886 430.232 534.018 430.378 534.115C430.349 534.156 430.314 534.196 430.279 534.23ZM430.98 533.084C430.652 532.969 430.974 532.241 431.114 531.943C431.225 531.714 431.359 531.513 431.511 531.324C431.546 531.462 431.57 531.611 431.587 531.76C431.388 532.304 431.061 532.912 430.98 533.084Z" fill="#000022"/>
<path d="M449.666 523.231C450.151 522.996 450.467 522.394 450.601 521.878C450.677 521.591 450.735 521.293 450.759 520.99C450.852 520.691 450.905 520.399 450.911 520.124C450.916 519.585 450.583 518.903 449.993 518.915C449.964 518.897 449.935 518.88 449.906 518.869C450.081 518.737 450.262 518.616 450.449 518.508C450.987 518.187 450.496 517.35 449.953 517.676C448.159 518.754 446.64 520.697 446.5 522.818C446.448 523.592 446.781 524.463 447.669 524.566C448.533 524.669 449.252 523.901 449.666 523.231ZM448.457 523.219C448.165 523.643 447.838 523.592 447.47 523.07C447.47 522.858 447.493 522.646 447.552 522.434C447.587 522.285 447.622 522.142 447.669 521.998C447.669 522.084 447.674 522.176 447.68 522.262C447.704 522.572 447.966 522.726 448.212 522.726C448.294 522.875 448.41 523.007 448.556 523.105C448.527 523.145 448.492 523.179 448.457 523.219ZM449.292 520.932C449.403 520.703 449.538 520.502 449.69 520.313C449.725 520.451 449.748 520.6 449.766 520.749C449.561 521.288 449.24 521.901 449.158 522.073C448.831 521.958 449.146 521.23 449.292 520.932Z" fill="#000022"/>
<path d="M458.61 506.441C458.581 506.424 458.552 506.407 458.522 506.396C458.698 506.264 458.879 506.143 459.066 506.034C459.603 505.713 459.112 504.877 458.569 505.203C456.776 506.281 455.257 508.224 455.117 510.345C455.064 511.119 455.397 511.99 456.285 512.093C457.144 512.191 457.868 511.428 458.283 510.752C458.768 510.517 459.083 509.915 459.218 509.399C459.294 509.112 459.352 508.814 459.375 508.511C459.469 508.213 459.521 507.92 459.527 507.645C459.533 507.112 459.2 506.436 458.61 506.441ZM457.074 510.746C456.782 511.17 456.455 511.119 456.086 510.597C456.086 510.385 456.11 510.173 456.168 509.961C456.197 509.812 456.238 509.668 456.285 509.525C456.285 509.611 456.291 509.703 456.297 509.789C456.32 510.098 456.583 510.253 456.828 510.253C456.91 510.402 457.027 510.534 457.173 510.631C457.144 510.672 457.109 510.706 457.074 510.746ZM457.775 509.6C457.448 509.485 457.769 508.757 457.909 508.459C458.02 508.23 458.154 508.029 458.306 507.84C458.341 507.978 458.365 508.127 458.382 508.276C458.184 508.814 457.856 509.428 457.775 509.6Z" fill="#000022"/>
<path d="M434.659 516.823C435.618 516.049 436.751 513.257 435.238 512.489C435.209 512.472 435.179 512.46 435.15 512.449C435.203 512.031 435.226 511.606 435.209 511.182C435.191 510.81 434.806 510.592 434.467 510.764C434.426 510.781 434.391 510.804 434.356 510.827C434.18 510.684 433.929 510.649 433.737 510.867C433.047 511.635 429.782 516.238 431.99 516.771C432.229 516.828 432.457 516.805 432.668 516.737C432.726 516.823 432.796 516.903 432.878 516.977C433.427 517.447 434.163 517.23 434.659 516.823ZM432.41 515.728C432.282 515.682 432.329 515.401 432.434 515.057C432.416 515.275 432.405 515.504 432.41 515.728ZM434.198 512.237C434.192 512.311 434.18 512.386 434.169 512.46C434.11 512.483 434.046 512.506 433.988 512.535C434.052 512.432 434.122 512.334 434.198 512.237ZM433.964 515.596C434.14 515.516 434.268 515.355 434.256 515.132C434.268 515.109 434.28 515.086 434.291 515.069C434.56 514.604 434.765 514.111 434.911 513.607C435.022 513.962 434.87 514.518 434.806 514.753C434.7 515.132 434.449 515.842 434.069 516.06C433.777 516.232 433.608 516.238 433.509 516.163C433.684 515.986 433.836 515.791 433.964 515.596Z" fill="#000022"/>
</g>
<defs>
<clipPath id="clip0">
<rect width="70" height="85" fill="white" transform="translate(399.709 493)"/>
</clipPath>
</defs>
</svg>
