<svg width="20" height="21" viewBox="0 0 20 21" fill="none" xmlns="http://www.w3.org/2000/svg">
<g clip-path="url(#clip0)">
<path d="M10 20.9844C15.5228 20.9844 20 16.5072 20 10.9844C20 5.46153 15.5228 0.984375 10 0.984375C4.47715 0.984375 0 5.46153 0 10.9844C0 16.5072 4.47715 20.9844 10 20.9844Z" fill="white"/>
<path d="M12.5139 11.3758H10.7295V17.9129H8.02602V11.3758H6.74023V9.07836H8.02602V7.59167C8.02602 6.52853 8.53103 4.86377 10.7536 4.86377L12.7561 4.87215V7.10217H11.3031C11.0648 7.10217 10.7297 7.22125 10.7297 7.7284V9.0805H12.7501L12.5139 11.3758Z" fill="#000022"/>
</g>
<defs>
<clipPath id="clip0">
<rect width="20" height="20" fill="white" transform="translate(0 0.984375)"/>
</clipPath>
</defs>
</svg>
