<svg width="24" height="24" viewBox="0 0 24 24" fill="none" xmlns="http://www.w3.org/2000/svg">
<path d="M16.5 0L7.5 0C3.3585 0 0 3.3585 0 7.5L0 16.5C0 20.6415 3.3585 24 7.5 24L16.5 24C20.6415 24 24 20.6415 24 16.5L24 7.5C24 3.3585 20.6415 0 16.5 0ZM21.75 16.5C21.75 19.395 19.395 21.75 16.5 21.75L7.5 21.75C4.605 21.75 2.25 19.395 2.25 16.5L2.25 7.5C2.25 4.605 4.605 2.25 7.5 2.25L16.5 2.25C19.395 2.25 21.75 4.605 21.75 7.5L21.75 16.5Z" fill="#000022"/>
<path d="M12 6C8.6865 6 6 8.6865 6 12C6 15.3135 8.6865 18 12 18C15.3135 18 18 15.3135 18 12C18 8.6865 15.3135 6 12 6ZM12 15.75C9.933 15.75 8.25 14.067 8.25 12C8.25 9.9315 9.933 8.25 12 8.25C14.067 8.25 15.75 9.9315 15.75 12C15.75 14.067 14.067 15.75 12 15.75Z" fill="#000022"/>
<path d="M18.4499 6.34924C18.8914 6.34924 19.2494 5.9913 19.2494 5.54974C19.2494 5.10819 18.8914 4.75024 18.4499 4.75024C18.0083 4.75024 17.6504 5.10819 17.6504 5.54974C17.6504 5.9913 18.0083 6.34924 18.4499 6.34924Z" fill="#000022"/>
</svg>
