<svg width="20" height="21" viewBox="0 0 20 21" fill="none" xmlns="http://www.w3.org/2000/svg">
<g clip-path="url(#clip0)">
<path d="M13.75 0.386719H6.25C2.79875 0.386719 0 3.18547 0 6.63672V14.1367C0 17.588 2.79875 20.3867 6.25 20.3867H13.75C17.2013 20.3867 20 17.588 20 14.1367V6.63672C20 3.18547 17.2013 0.386719 13.75 0.386719ZM18.125 14.1367C18.125 16.5492 16.1625 18.5117 13.75 18.5117H6.25C3.8375 18.5117 1.875 16.5492 1.875 14.1367V6.63672C1.875 4.22422 3.8375 2.26172 6.25 2.26172H13.75C16.1625 2.26172 18.125 4.22422 18.125 6.63672V14.1367Z" fill="white"/>
<path d="M10 5.38672C7.23875 5.38672 5 7.62547 5 10.3867C5 13.148 7.23875 15.3867 10 15.3867C12.7613 15.3867 15 13.148 15 10.3867C15 7.62547 12.7613 5.38672 10 5.38672ZM10 13.5117C8.2775 13.5117 6.875 12.1092 6.875 10.3867C6.875 8.66297 8.2775 7.26172 10 7.26172C11.7225 7.26172 13.125 8.66297 13.125 10.3867C13.125 12.1092 11.7225 13.5117 10 13.5117Z" fill="white"/>
<path d="M15.3752 5.67771C15.7432 5.67771 16.0415 5.37942 16.0415 5.01146C16.0415 4.64351 15.7432 4.34521 15.3752 4.34521C15.0073 4.34521 14.709 4.64351 14.709 5.01146C14.709 5.37942 15.0073 5.67771 15.3752 5.67771Z" fill="white"/>
</g>
<defs>
<clipPath id="clip0">
<rect width="20" height="20" fill="white" transform="translate(0 0.386719)"/>
</clipPath>
</defs>
</svg>
