<svg width="1440" height="911" viewBox="0 0 1440 911" fill="none" xmlns="http://www.w3.org/2000/svg">
<path d="M93.5706 888.93C305.928 881.97 482.59 891.07 643.285 899.347C708.788 902.721 771.639 905.959 833.173 907.916C1045.68 914.676 1242.6 906.18 1479.23 835.392C1597.34 800.058 1659.62 734.192 1686.72 655.339C1713.86 576.414 1705.81 484.328 1682.94 396.526C1660.07 308.741 1622.42 225.357 1590.47 163.906C1574.5 133.183 1559.96 107.951 1549.41 90.4009C1544.14 81.626 1539.86 74.772 1536.9 70.1129C1535.43 67.7834 1534.28 66.0027 1533.5 64.805C1533.11 64.2062 1532.81 63.7531 1532.62 63.4501L1532.56 63.3687C1147.23 8.51143 883.827 -7.82611 645.182 5.99352C406.567 19.8114 192.66 63.7803 -93.7062 129.588C-93.7309 129.636 -93.7578 129.688 -93.7867 129.743C-93.9807 130.117 -94.2692 130.676 -94.647 131.412C-95.4026 132.886 -96.5151 135.074 -97.9411 137.928C-100.793 143.636 -104.9 152.007 -109.915 162.655C-119.945 183.952 -133.609 214.357 -148.138 250.782C-177.201 323.641 -209.711 420.547 -223.557 516.812C-237.408 613.11 -232.553 708.573 -187.109 778.711C-141.719 848.765 -55.6513 893.82 93.5706 888.93Z" stroke="#000022" stroke-width="2"/>
</svg>