<svg width="121" height="41" viewBox="0 0 121 41" fill="none" xmlns="http://www.w3.org/2000/svg">
<path d="M37.8526 40.3867H3.16462C1.49462 40.3867 0.140625 39.0572 0.140625 37.4174V3.35608C0.140625 1.71626 1.49462 0.386719 3.16462 0.386719H37.8526C39.5226 0.386719 40.8766 1.71626 40.8766 3.35608V37.4174C40.8766 39.0572 39.5226 40.3867 37.8526 40.3867Z" fill="#79BBC0"/>
<path d="M8.34766 9.51185C8.34766 9.21236 8.44966 8.95608 8.65166 8.74005C8.85366 8.52501 9.14066 8.41602 9.51166 8.41602H14.5407C14.8427 8.41602 15.1087 8.51126 15.3367 8.70274C15.5637 8.89422 15.6767 9.16425 15.6767 9.51185V25.534H31.5537C31.8577 25.534 32.1197 25.6381 32.3387 25.8453C32.5577 26.0535 32.6687 26.3314 32.6687 26.6809V31.2371C32.6687 31.5366 32.5677 31.7978 32.3647 32.0217C32.1617 32.2456 31.8907 32.3575 31.5537 32.3575H9.46066C8.71966 32.3575 8.34766 31.9932 8.34766 31.2626V9.51185Z" fill="white"/>
<path d="M32.0869 15.6714H25.9228C25.6008 15.6714 25.3398 15.4152 25.3398 15.099V9.04634C25.3398 8.73016 25.6008 8.47388 25.9228 8.47388H32.0869C32.4089 8.47388 32.6699 8.73016 32.6699 9.04634V15.099C32.6699 15.4152 32.4089 15.6714 32.0869 15.6714Z" fill="#E62735"/>
<path d="M49.5196 9.2144C49.5196 9.13879 49.5456 9.07497 49.5956 9.01998C49.6466 8.96597 49.7186 8.93848 49.8116 8.93848H51.0745C51.1505 8.93848 51.2175 8.96204 51.2745 9.01016C51.3315 9.05827 51.3605 9.12603 51.3605 9.21342V16.5141H55.3485C55.4245 16.5141 55.4905 16.5406 55.5455 16.5926C55.6005 16.6447 55.6285 16.7144 55.6285 16.8028V17.9477C55.6285 18.0233 55.6035 18.0881 55.5525 18.1451C55.5015 18.201 55.4335 18.2295 55.3485 18.2295H49.7986C49.6126 18.2295 49.5186 18.1382 49.5186 17.9546V9.2144H49.5196Z" fill="#000022"/>
<path d="M57.5527 9.23895C57.5527 9.03863 57.6457 8.93848 57.8327 8.93848H63.9747C64.0857 8.93848 64.1637 8.96892 64.2107 9.0298C64.2577 9.09068 64.2807 9.16629 64.2807 9.25859V10.3633C64.2807 10.4389 64.2537 10.5056 64.2007 10.5646C64.1477 10.6235 64.0677 10.6519 63.9617 10.6519H59.4317V12.5481H62.9227C63.0077 12.5392 63.0757 12.5579 63.1267 12.6011C63.1777 12.6443 63.2027 12.7189 63.2027 12.823V13.9552C63.2027 14.0308 63.1817 14.0976 63.1387 14.1555C63.0967 14.2134 63.0277 14.2429 62.9347 14.2429H59.4307V16.5141H64.1257C64.2447 16.5141 64.3237 16.5396 64.3617 16.5897C64.3997 16.6398 64.4197 16.7173 64.4197 16.8214V17.9644C64.4197 18.1402 64.3257 18.2276 64.1397 18.2276H57.8327C57.7567 18.2276 57.6907 18.2069 57.6357 18.1647C57.5807 18.1235 57.5527 18.0567 57.5527 17.9644V9.23895Z" fill="white"/>
<path d="M65.9303 17.9978C65.9513 17.9143 65.9763 17.8377 66.0033 17.7661C66.0303 17.6954 66.0553 17.6305 66.0763 17.5716L69.5103 9.1761C69.5233 9.12995 69.5583 9.07889 69.6153 9.02292C69.6733 8.96597 69.7503 8.93848 69.8483 8.93848H70.8743C70.9763 8.93848 71.0493 8.96401 71.0943 9.01409C71.1383 9.06416 71.1713 9.10835 71.1933 9.14566L71.4033 9.63368L74.7674 17.8976C74.7674 17.9104 74.7703 17.932 74.7773 17.9634C74.7833 17.9948 74.7873 18.0204 74.7873 18.042C74.7873 18.1667 74.6933 18.2295 74.5073 18.2295H73.2503C73.1563 18.2295 73.0843 18.2109 73.0333 18.1736C72.9823 18.1362 72.9393 18.0773 72.9053 17.9988L72.7913 17.7111C72.7103 17.5107 72.6293 17.3104 72.5493 17.1101C72.4683 16.9098 72.3903 16.7075 72.3133 16.5033H68.3823C68.2713 16.7949 68.1643 17.0699 68.0603 17.3261C67.9563 17.5824 67.8683 17.8073 67.7953 17.9988C67.7363 18.1529 67.6253 18.2305 67.4643 18.2305H66.1903C66.1093 18.2305 66.0453 18.2158 65.9963 18.1873C65.9473 18.1578 65.9233 18.1146 65.9233 18.0557C65.9243 18.0282 65.9263 18.0096 65.9303 17.9978ZM70.3643 11.3226C70.1353 11.898 69.9063 12.495 69.6793 13.1117C69.4523 13.7293 69.2243 14.3234 68.9943 14.8949H71.7083L70.3643 11.3226Z" fill="white"/>
<path d="M76.7803 9.23305C76.7803 9.03666 76.8733 8.93945 77.0603 8.93945H80.9592C81.3882 8.93945 81.7892 9.01899 82.1632 9.17708C82.5372 9.33615 82.8632 9.55022 83.1412 9.82123C83.4192 10.0922 83.6382 10.4114 83.7972 10.7786C83.9562 11.1459 84.0362 11.5357 84.0362 11.9481C84.0362 12.2358 83.9952 12.5107 83.9152 12.7739C83.8342 13.0371 83.7222 13.2806 83.5772 13.5064C83.4322 13.7313 83.2612 13.9355 83.0612 14.1162C82.8612 14.2969 82.6412 14.451 82.3982 14.5758L84.0542 17.7847C84.0632 17.8269 84.0772 17.8682 84.0992 17.9104C84.1202 17.9516 84.1312 17.9958 84.1312 18.042C84.1312 18.1667 84.0572 18.2295 83.9082 18.2295H82.4302C82.2772 18.2295 82.1752 18.1529 82.1242 17.9978L80.5822 14.995C80.5142 14.995 80.4412 14.996 80.3622 14.998C80.2832 14.9999 80.1752 15.0009 80.0372 15.0009C79.8992 15.0009 79.7182 15.0009 79.4952 15.0009C79.2723 15.0009 78.9843 15.0009 78.6323 15.0009V17.9595C78.6323 18.1392 78.5343 18.2285 78.3393 18.2285H77.0603C76.9753 18.2285 76.9073 18.2069 76.8563 18.1628C76.8053 18.1186 76.7803 18.0508 76.7803 17.9595V9.23305ZM82.1502 11.9569C82.1502 11.7782 82.1162 11.6044 82.0482 11.4355C81.9802 11.2666 81.8842 11.1164 81.7612 10.9829C81.6382 10.8493 81.4912 10.7413 81.3212 10.6588C81.1512 10.5754 80.9662 10.5282 80.7672 10.5155C80.6182 10.5115 80.4732 10.5086 80.3302 10.5056C80.1882 10.5037 80.0402 10.5027 79.8872 10.5027H78.6323V13.4053H80.3142C80.3992 13.4053 80.4782 13.4053 80.5532 13.4053C80.6272 13.4053 80.7072 13.4014 80.7922 13.3925C80.9922 13.3798 81.1752 13.3346 81.3432 13.2551C81.5112 13.1765 81.6542 13.0714 81.7732 12.9398C81.8922 12.8093 81.9842 12.659 82.0502 12.4901C82.1182 12.3222 82.1502 12.1445 82.1502 11.9569Z" fill="white"/>
<path d="M86.2856 9.22029C86.2856 9.14174 86.3096 9.07497 86.3586 9.01998C86.4076 8.96597 86.4766 8.93848 86.5656 8.93848H88.0306C88.0906 8.93848 88.1466 8.95222 88.1996 8.97874C88.2526 9.00623 88.3006 9.04845 88.3426 9.10737C89.0686 10.1247 89.7886 11.1351 90.5026 12.1376C91.2166 13.1411 91.9356 14.1516 92.6626 15.1688V9.17709C92.6756 9.10148 92.7076 9.04354 92.7586 9.0023C92.8096 8.96106 92.8706 8.93946 92.9436 8.93946H94.1726C94.2576 8.93946 94.3306 8.96499 94.3926 9.01507C94.4536 9.06515 94.4846 9.13192 94.4846 9.21538V17.9732C94.4846 18.1441 94.3846 18.2295 94.1856 18.2295H92.8026C92.7096 18.2295 92.6216 18.1736 92.5416 18.0606C91.7936 16.9972 91.0496 15.9347 90.3086 14.8733C89.5676 13.8118 88.8246 12.7474 88.0816 11.68V17.9546C88.0816 18.0459 88.0596 18.1146 88.0146 18.1608C87.9696 18.2069 87.8946 18.2295 87.7886 18.2295H86.5656C86.4676 18.2295 86.3966 18.206 86.3526 18.1578C86.3076 18.1097 86.2856 18.0439 86.2856 17.9605V9.22029Z" fill="white"/>
<path d="M97.1865 9.2144C97.1865 9.13879 97.2095 9.07497 97.2565 9.01998C97.3035 8.96597 97.3736 8.93848 97.4656 8.93848H98.7286C98.8006 8.93848 98.8686 8.96401 98.9316 9.01409C98.9946 9.06416 99.0266 9.13094 99.0266 9.2144V17.9536C99.0266 18.1372 98.9266 18.2285 98.7276 18.2285H97.4646C97.2785 18.2285 97.1855 18.1372 97.1855 17.9536V9.2144H97.1865Z" fill="white"/>
<path d="M101.742 9.22029C101.742 9.14174 101.766 9.07497 101.815 9.01998C101.864 8.96597 101.933 8.93848 102.022 8.93848H103.487C103.547 8.93848 103.603 8.95222 103.656 8.97874C103.709 9.00623 103.757 9.04845 103.799 9.10737C104.525 10.1247 105.245 11.1351 105.959 12.1376C106.673 13.1411 107.392 14.1516 108.119 15.1688V9.17709C108.132 9.10148 108.164 9.04354 108.215 9.0023C108.266 8.96106 108.327 8.93946 108.4 8.93946H109.629C109.714 8.93946 109.787 8.96499 109.849 9.01507C109.91 9.06515 109.941 9.13192 109.941 9.21538V17.9732C109.941 18.1441 109.841 18.2295 109.642 18.2295H108.259C108.166 18.2295 108.078 18.1736 107.998 18.0606C107.25 16.9972 106.506 15.9347 105.765 14.8733C105.024 13.8118 104.281 12.7474 103.538 11.68V17.9546C103.538 18.0459 103.516 18.1146 103.471 18.1608C103.426 18.2069 103.351 18.2295 103.245 18.2295H102.022C101.924 18.2295 101.853 18.206 101.809 18.1578C101.764 18.1097 101.742 18.0439 101.742 17.9605V9.22029Z" fill="white"/>
<path d="M118.523 14.344C118.523 14.2605 118.546 14.1938 118.593 14.1437C118.64 14.0936 118.71 14.0681 118.803 14.0681H119.841C119.913 14.0681 119.981 14.0936 120.045 14.1437C120.109 14.1938 120.141 14.2605 120.141 14.344V17.2152C120.141 17.2653 120.128 17.3134 120.103 17.3585C120.077 17.4047 120.031 17.4479 119.963 17.4901C119.959 17.4901 119.957 17.4911 119.957 17.4931C119.957 17.495 119.955 17.496 119.95 17.496C119.75 17.6335 119.536 17.7562 119.307 17.8652C119.078 17.9742 118.838 18.0645 118.587 18.1372C118.336 18.2099 118.08 18.2668 117.816 18.3061C117.553 18.3454 117.289 18.365 117.026 18.365C116.58 18.365 116.149 18.3081 115.733 18.1961C115.316 18.0832 114.929 17.9231 114.57 17.715C114.211 17.5068 113.884 17.2574 113.589 16.9677C113.294 16.6781 113.04 16.357 112.828 16.0044C112.616 15.6519 112.452 15.2729 112.338 14.8664C112.223 14.4599 112.166 14.0357 112.166 13.5928C112.166 13.1549 112.224 12.7327 112.338 12.3261C112.453 11.9196 112.616 11.5386 112.828 11.1841C113.04 10.8297 113.294 10.5066 113.589 10.214C113.884 9.92236 114.212 9.67197 114.573 9.46282C114.934 9.25465 115.322 9.09263 115.736 8.97775C116.15 8.86286 116.582 8.80591 117.032 8.80591C117.334 8.80591 117.634 8.83242 117.933 8.88446C118.232 8.93651 118.522 9.01506 118.803 9.11914C118.909 9.16137 119.035 9.21341 119.182 9.27527C119.329 9.33812 119.468 9.40685 119.599 9.48148C119.731 9.55709 119.842 9.63368 119.934 9.71321C120.025 9.79275 120.071 9.86934 120.071 9.94495C120.071 9.97833 120.052 10.0314 120.013 10.104C119.975 10.1767 119.927 10.2592 119.87 10.3505C119.813 10.4428 119.748 10.5371 119.676 10.6352C119.604 10.7334 119.534 10.8218 119.466 10.9014C119.398 10.9809 119.336 11.0457 119.281 11.0987C119.226 11.1508 119.183 11.1773 119.154 11.1773C119.128 11.1773 119.098 11.1724 119.062 11.1616C119.026 11.1517 118.989 11.1311 118.951 11.1026C118.683 10.919 118.382 10.7727 118.046 10.6647C117.71 10.5567 117.368 10.5017 117.02 10.5017C116.566 10.5017 116.149 10.5852 115.771 10.7521C115.393 10.919 115.068 11.1439 114.796 11.4277C114.524 11.7114 114.312 12.0394 114.159 12.4125C114.006 12.7857 113.93 13.1784 113.93 13.5918C113.93 14.017 114.012 14.4167 114.175 14.7898C114.339 15.1629 114.559 15.488 114.838 15.7658C115.116 16.0427 115.442 16.2617 115.816 16.4228C116.19 16.5838 116.587 16.6633 117.008 16.6633C117.165 16.6633 117.32 16.6515 117.473 16.629C117.626 16.6054 117.769 16.5769 117.903 16.5416C118.037 16.5062 118.157 16.4669 118.263 16.4228C118.369 16.3786 118.456 16.3363 118.524 16.2941V14.344H118.523Z" fill="white"/>
<path d="M55.2557 24.6033C55.1967 24.566 55.0997 24.4934 54.9647 24.3853C54.8297 24.2773 54.6647 24.1683 54.4677 24.0564C54.2707 23.9444 54.0507 23.8443 53.8067 23.7549C53.5617 23.6656 53.2987 23.6214 53.0157 23.6214C52.6827 23.6214 52.3957 23.6607 52.1547 23.7392C51.9147 23.8178 51.7157 23.9219 51.5597 24.0525C51.4037 24.1831 51.2887 24.3303 51.2147 24.4934C51.1407 24.6573 51.1037 24.8213 51.1037 24.9873C51.1037 25.219 51.1817 25.4134 51.3377 25.5715C51.4937 25.7286 51.7007 25.8661 51.9577 25.982C52.2147 26.0978 52.5067 26.2029 52.8337 26.2962C53.1607 26.3895 53.4937 26.4877 53.8337 26.5908C54.1727 26.6948 54.5067 26.8107 54.8337 26.9393C55.1607 27.068 55.4527 27.2271 55.7097 27.4176C55.9667 27.608 56.1737 27.8359 56.3297 28.101C56.4857 28.3661 56.5637 28.6872 56.5637 29.0643C56.5637 29.4992 56.4717 29.894 56.2887 30.2475C56.1047 30.601 55.8537 30.9044 55.5357 31.1548C55.2177 31.4052 54.8427 31.5996 54.4127 31.7361C53.9827 31.8726 53.5207 31.9413 53.0267 31.9413C52.6977 31.9413 52.3717 31.905 52.0487 31.8323C51.7257 31.7597 51.4157 31.6546 51.1187 31.5152C50.8217 31.3767 50.5437 31.2078 50.2867 31.0085C50.0297 30.8092 49.7997 30.5823 49.5967 30.3251C49.5417 30.2593 49.5157 30.1925 49.5177 30.1267C49.5197 30.0609 49.5567 29.9981 49.6287 29.9401L50.1287 29.5297C50.2007 29.4718 50.2697 29.4462 50.3377 29.4521C50.4047 29.458 50.4667 29.4943 50.5207 29.5611L50.6027 29.6416C50.7797 29.8361 50.9817 30.0049 51.2067 30.1483C51.4327 30.2907 51.6577 30.4095 51.8837 30.5018C52.1097 30.5951 52.3257 30.6648 52.5317 30.71C52.7377 30.7551 52.9137 30.7787 53.0567 30.7787C53.3137 30.7787 53.5777 30.7453 53.8477 30.6795C54.1177 30.6137 54.3647 30.5116 54.5877 30.3751C54.8107 30.2386 54.9947 30.0658 55.1377 29.8567C55.2807 29.6475 55.3527 29.402 55.3527 29.1202C55.3527 28.8846 55.2817 28.6842 55.1407 28.5203C54.9997 28.3563 54.8087 28.2139 54.5677 28.0912C54.3267 27.9684 54.0457 27.8594 53.7227 27.7612C53.3997 27.664 53.0557 27.5619 52.6887 27.4539C52.1827 27.3086 51.7477 27.1573 51.3847 26.9973C51.0217 26.8382 50.7237 26.6615 50.4897 26.469C50.2557 26.2765 50.0837 26.0615 49.9737 25.8229C49.8637 25.5843 49.8097 25.3162 49.8097 25.0177C49.8097 24.6406 49.8867 24.296 50.0407 23.9827C50.1947 23.6705 50.4127 23.3995 50.6957 23.1717C50.9787 22.9439 51.3187 22.7671 51.7177 22.6404C52.1167 22.5138 52.5627 22.4509 53.0557 22.4509C53.3217 22.4509 53.5977 22.4843 53.8847 22.5501C54.1717 22.6159 54.4507 22.7082 54.7227 22.826C54.9947 22.9439 55.2497 23.0853 55.4887 23.2483C55.7267 23.4122 55.9327 23.5929 56.1057 23.7922C56.1647 23.8541 56.1957 23.9199 56.1977 23.9877C56.1997 24.0564 56.1677 24.1212 56.0997 24.1831L55.6507 24.6053C55.5837 24.6672 55.5147 24.6966 55.4447 24.6917C55.3797 24.6917 55.3147 24.6613 55.2557 24.6033Z" fill="#000022"/>
<path d="M59.9006 28.0018C59.9006 28.3955 59.9586 28.7618 60.0746 29.1015C60.1906 29.4413 60.3616 29.7358 60.5876 29.9872C60.8136 30.2376 61.0886 30.434 61.4136 30.5774C61.7386 30.7207 62.1096 30.7914 62.5276 30.7914C62.9746 30.7914 63.3646 30.7187 63.6986 30.5744C64.0316 30.4291 64.3066 30.2317 64.5246 29.9813C64.7416 29.7309 64.9036 29.4354 65.0116 29.0966C65.1186 28.7569 65.1726 28.3926 65.1726 28.0027V22.8633C65.1726 22.7887 65.2006 22.7249 65.2586 22.6709C65.3156 22.6168 65.3866 22.5903 65.4706 22.5903H66.0786C66.1586 22.5903 66.2326 22.6149 66.2996 22.665C66.3666 22.715 66.4006 22.7808 66.4006 22.8633V28.1697C66.4006 28.7284 66.2996 29.2419 66.0966 29.7074C65.8946 30.1728 65.6166 30.5734 65.2646 30.9063C64.9126 31.2402 64.5006 31.4994 64.0306 31.686C63.5596 31.8725 63.0596 31.9658 62.5276 31.9658C61.9956 31.9658 61.4966 31.8666 61.0276 31.6673C60.5596 31.4689 60.1486 31.196 59.7966 30.8503C59.4446 30.5047 59.1666 30.1011 58.9646 29.6416C58.7626 29.182 58.6606 28.6911 58.6606 28.1687V22.8633C58.6606 22.8015 58.6846 22.7406 58.7336 22.6797C58.7816 22.6198 58.8466 22.5894 58.9266 22.5894H59.6036C59.6666 22.5894 59.7326 22.6168 59.7996 22.6699C59.8666 22.7239 59.9006 22.7877 59.9006 22.8623V28.0018Z" fill="white"/>
<path d="M68.8155 22.8879C68.8155 22.6885 68.9085 22.5894 69.0935 22.5894H72.7445C73.1665 22.5894 73.5585 22.6669 73.9215 22.8221C74.2845 22.9772 74.6005 23.1883 74.8705 23.4554C75.1405 23.7225 75.3524 24.0357 75.5065 24.3932C75.6604 24.7516 75.7374 25.1335 75.7374 25.5401C75.7374 25.8297 75.6965 26.1086 75.6145 26.3757C75.5325 26.6428 75.4175 26.8902 75.2695 27.118C75.1215 27.3458 74.9444 27.5501 74.7375 27.7298C74.5304 27.9095 74.3005 28.0597 74.0475 28.1805L75.7185 31.5416V31.6222C75.7185 31.7508 75.6405 31.8146 75.4845 31.8146H74.7185C74.5875 31.8146 74.4865 31.738 74.4145 31.5848L72.8955 28.4535C72.8615 28.4574 72.8245 28.4603 72.7845 28.4603C72.7445 28.4603 72.6875 28.4613 72.6135 28.4633C72.5395 28.4652 72.4415 28.4662 72.3195 28.4662C72.1975 28.4662 72.0355 28.4662 71.8355 28.4662C71.6355 28.4662 71.3895 28.4662 71.0985 28.4662C70.8075 28.4662 70.4555 28.4662 70.0415 28.4662V31.5416C70.0415 31.7243 69.9445 31.8146 69.7505 31.8146H69.0925C68.9065 31.8146 68.8145 31.7233 68.8145 31.5416V22.8879H68.8155ZM74.5235 25.5283C74.5235 25.3005 74.4774 25.0815 74.3875 24.8694C74.2965 24.6583 74.1725 24.4717 74.0145 24.3107C73.8565 24.1487 73.6685 24.019 73.4515 23.9218C73.2345 23.8246 72.9985 23.7755 72.7455 23.7755H70.0435V27.28H72.7705C73.0195 27.28 73.2515 27.2319 73.4665 27.1367C73.6815 27.0414 73.8675 26.9128 74.0235 26.7518C74.1795 26.5897 74.3015 26.4042 74.3905 26.193C74.4795 25.9819 74.5235 25.761 74.5235 25.5283Z" fill="white"/>
<path d="M78.0239 22.8761C78.0239 22.6856 78.1169 22.5903 78.3019 22.5903H84.276C84.47 22.5903 84.567 22.6895 84.567 22.8888V23.5035C84.567 23.5821 84.541 23.6508 84.488 23.7088C84.435 23.7667 84.365 23.7952 84.276 23.7952H79.2509V26.846C79.9219 26.846 80.5819 26.847 81.2319 26.849C81.881 26.8509 82.544 26.8519 83.219 26.8519C83.295 26.8519 83.36 26.8745 83.415 26.9207C83.47 26.9658 83.497 27.0414 83.497 27.1445V27.772C83.497 27.8466 83.473 27.9124 83.424 27.9703C83.375 28.0283 83.307 28.0568 83.218 28.0568H79.2509V31.5544C79.2509 31.7282 79.1519 31.8156 78.9539 31.8156H78.3019C78.1159 31.8156 78.0239 31.7292 78.0239 31.5544V22.8761Z" fill="white"/>
<path d="M86.2365 31.5868C86.2065 31.6575 86.1645 31.7135 86.1105 31.7547C86.0555 31.796 85.9855 31.8166 85.9015 31.8166H85.2305C85.0365 31.8166 84.9395 31.7439 84.9395 31.5996C84.9395 31.5701 84.9405 31.5465 84.9425 31.5279C84.9445 31.5092 84.9475 31.4916 84.9515 31.4749C84.9555 31.4582 84.9595 31.4434 84.9645 31.4317L88.6155 22.8191C88.6245 22.7985 88.6345 22.7749 88.6475 22.7474C88.6605 22.7209 88.6775 22.6954 88.6985 22.6728C88.7195 22.6502 88.7505 22.6306 88.7905 22.6139C88.8305 22.5972 88.8845 22.5894 88.9525 22.5894H89.3705C89.4335 22.5894 89.4855 22.5982 89.5255 22.6139C89.5655 22.6306 89.5965 22.6502 89.6175 22.6728C89.6385 22.6954 89.6555 22.7209 89.6685 22.7474C89.6805 22.7749 89.6915 22.7985 89.6995 22.8191L93.3195 31.4317C93.3235 31.4523 93.3275 31.4729 93.3325 31.4935C93.3365 31.5141 93.3405 31.5338 93.3455 31.5524C93.3495 31.5711 93.3515 31.5868 93.3515 31.5986C93.3515 31.7439 93.2545 31.8156 93.0605 31.8156H92.3895C92.3055 31.8156 92.2355 31.795 92.1805 31.7537C92.1255 31.7125 92.0835 31.6565 92.0535 31.5858L91.3575 29.8773H86.9155C86.7675 30.2455 86.6325 30.5793 86.5105 30.8778C86.3865 31.1764 86.2955 31.413 86.2365 31.5868ZM87.4195 28.6724H90.8685L89.1595 24.4226L87.4195 28.6724Z" fill="white"/>
<path d="M102.594 23.367C102.64 23.4004 102.678 23.4387 102.708 23.4819C102.737 23.5251 102.752 23.5702 102.752 23.6154C102.752 23.6733 102.735 23.7234 102.701 23.7647L102.366 24.3116C102.294 24.4108 102.22 24.4609 102.145 24.4609C102.115 24.4609 102.083 24.454 102.047 24.4393C102.011 24.4245 101.97 24.401 101.924 24.3676C101.62 24.1565 101.301 23.9944 100.965 23.8825C100.63 23.7706 100.276 23.7048 99.9045 23.6841C99.3605 23.6841 98.8585 23.7804 98.3985 23.9728C97.9385 24.1653 97.5415 24.4245 97.2055 24.7495C96.8705 25.0746 96.6075 25.4516 96.4175 25.8807C96.2275 26.3098 96.1325 26.7625 96.1325 27.2387C96.1325 27.7444 96.2295 28.2108 96.4235 28.64C96.6175 29.0691 96.8775 29.4383 97.2045 29.7495C97.5315 30.0598 97.9105 30.3024 98.3435 30.4762C98.7755 30.65 99.2305 30.7374 99.7065 30.7374C99.8795 30.7374 100.053 30.7246 100.226 30.7C100.399 30.6755 100.575 30.6323 100.755 30.5724C100.934 30.5125 101.121 30.4359 101.315 30.3426C101.509 30.2493 101.716 30.1345 101.935 29.998C102.015 29.9528 102.081 29.9292 102.131 29.9292C102.207 29.9292 102.277 29.9813 102.34 30.0844L102.701 30.6686C102.731 30.7226 102.745 30.7717 102.745 30.8179C102.745 30.9171 102.694 30.9956 102.593 31.0535C102.196 31.3354 101.76 31.5563 101.283 31.7154C100.806 31.8744 100.292 31.955 99.7385 31.955C99.2915 31.955 98.8625 31.899 98.4505 31.787C98.0395 31.6751 97.6555 31.516 97.2985 31.3088C96.9415 31.1017 96.6175 30.8542 96.3235 30.5665C96.0305 30.2788 95.7795 29.9597 95.5705 29.6091C95.3615 29.2596 95.2005 28.8825 95.0865 28.4779C94.9725 28.0744 94.9155 27.6521 94.9155 27.2132C94.9155 26.7782 94.9725 26.3589 95.0865 25.9554C95.2005 25.5518 95.3625 25.1737 95.5735 24.8212C95.7845 24.4697 96.0365 24.1486 96.3295 23.8579C96.6225 23.5683 96.9485 23.3199 97.3075 23.1156C97.6655 22.9104 98.0505 22.7513 98.4625 22.6374C98.8735 22.5235 99.3035 22.4666 99.7505 22.4666C100.278 22.4666 100.778 22.5431 101.251 22.6963C101.725 22.8485 102.172 23.0724 102.594 23.367Z" fill="white"/>
<path d="M111.143 22.5894C111.337 22.5894 111.434 22.6885 111.434 22.8879V23.5026C111.434 23.5811 111.41 23.6499 111.361 23.7078C111.312 23.7657 111.236 23.7942 111.13 23.7942H106.03V26.3482H110.042C110.118 26.3482 110.183 26.3698 110.238 26.414C110.293 26.4572 110.32 26.5308 110.32 26.6349V27.2683C110.32 27.3429 110.297 27.4087 110.25 27.4666C110.204 27.5246 110.134 27.553 110.041 27.553H106.029V30.6098H111.155C111.349 30.6098 111.446 30.707 111.446 30.9014V31.5416C111.446 31.7243 111.353 31.8146 111.167 31.8146H105.08C104.894 31.8146 104.802 31.7282 104.802 31.5534V22.8731C104.802 22.6827 104.895 22.5874 105.08 22.5874H111.143V22.5894Z" fill="white"/>
<path d="M118.831 24.6033C118.772 24.566 118.675 24.4934 118.54 24.3853C118.405 24.2773 118.24 24.1683 118.043 24.0564C117.847 23.9444 117.626 23.8443 117.382 23.7549C117.137 23.6656 116.874 23.6214 116.591 23.6214C116.258 23.6214 115.971 23.6607 115.73 23.7392C115.49 23.8178 115.291 23.9219 115.135 24.0525C114.979 24.1831 114.864 24.3303 114.79 24.4934C114.716 24.6573 114.679 24.8213 114.679 24.9873C114.679 25.219 114.757 25.4134 114.913 25.5715C115.069 25.7286 115.276 25.8661 115.533 25.982C115.79 26.0978 116.082 26.2029 116.409 26.2962C116.736 26.3895 117.069 26.4877 117.409 26.5908C117.748 26.6948 118.082 26.8107 118.409 26.9393C118.736 27.068 119.028 27.2271 119.285 27.4176C119.542 27.608 119.749 27.8359 119.905 28.101C120.061 28.3661 120.139 28.6872 120.139 29.0643C120.139 29.4992 120.047 29.894 119.864 30.2475C119.68 30.601 119.429 30.9044 119.111 31.1548C118.793 31.4052 118.418 31.5996 117.988 31.7361C117.558 31.8726 117.096 31.9413 116.602 31.9413C116.273 31.9413 115.947 31.905 115.624 31.8323C115.301 31.7597 114.991 31.6546 114.694 31.5152C114.397 31.3767 114.119 31.2078 113.862 31.0085C113.605 30.8101 113.375 30.5823 113.172 30.3251C113.117 30.2593 113.091 30.1925 113.093 30.1267C113.095 30.0609 113.132 29.9981 113.204 29.9401L113.704 29.5297C113.776 29.4718 113.845 29.4462 113.913 29.4521C113.98 29.458 114.042 29.4943 114.096 29.5611L114.178 29.6416C114.355 29.8361 114.557 30.0049 114.782 30.1483C115.008 30.2907 115.233 30.4095 115.459 30.5018C115.685 30.5951 115.901 30.6648 116.107 30.71C116.314 30.7551 116.489 30.7787 116.632 30.7787C116.889 30.7787 117.153 30.7453 117.423 30.6795C117.693 30.6137 117.94 30.5116 118.163 30.3751C118.386 30.2386 118.57 30.0658 118.713 29.8567C118.856 29.6475 118.928 29.402 118.928 29.1202C118.928 28.8846 118.857 28.6842 118.716 28.5203C118.575 28.3563 118.384 28.2139 118.143 28.0912C117.902 27.9684 117.621 27.8594 117.298 27.7612C116.975 27.664 116.631 27.5619 116.264 27.4539C115.758 27.3086 115.323 27.1573 114.96 26.9973C114.597 26.8382 114.299 26.6615 114.065 26.469C113.831 26.2765 113.659 26.0615 113.549 25.8229C113.439 25.5843 113.385 25.3162 113.385 25.0177C113.385 24.6406 113.462 24.296 113.616 23.9827C113.77 23.6705 113.988 23.3995 114.271 23.1717C114.554 22.9439 114.894 22.7671 115.293 22.6404C115.692 22.5138 116.138 22.4509 116.631 22.4509C116.897 22.4509 117.173 22.4843 117.46 22.5501C117.747 22.6159 118.026 22.7082 118.298 22.826C118.57 22.9439 118.825 23.0853 119.064 23.2483C119.302 23.4122 119.508 23.5929 119.681 23.7922C119.74 23.8541 119.771 23.9199 119.773 23.9877C119.775 24.0564 119.743 24.1212 119.675 24.1831L119.226 24.6053C119.159 24.6672 119.09 24.6966 119.02 24.6917C118.954 24.6917 118.89 24.6613 118.831 24.6033Z" fill="white"/>
</svg>
