<svg width="108" height="36" viewBox="0 0 108 36" fill="none" xmlns="http://www.w3.org/2000/svg">
<g clip-path="url(#clip0)">
<rect width="108" height="36" fill="white"/>
<path d="M33.9408 36H2.7216C1.2186 36 0 34.8034 0 33.3276V2.67243C0 1.19658 1.2186 0 2.7216 0H33.9408C35.4438 0 36.6624 1.19658 36.6624 2.67243V33.3276C36.6624 34.8034 35.4438 36 33.9408 36Z" fill="#79BBC0"/>
<path d="M7.38623 8.21233C7.38623 7.94279 7.47803 7.71213 7.65983 7.51771C7.84163 7.32417 8.09993 7.22607 8.43383 7.22607H12.9599C13.2317 7.22607 13.4711 7.3118 13.6763 7.48413C13.8806 7.65646 13.9823 7.89948 13.9823 8.21233V22.6323H28.2716C28.5452 22.6323 28.781 22.726 28.9781 22.9124C29.1752 23.0998 29.2751 23.3499 29.2751 23.6645V27.7651C29.2751 28.0346 29.1842 28.2697 29.0015 28.4712C28.8188 28.6727 28.5749 28.7734 28.2716 28.7734H8.38793C7.72103 28.7734 7.38623 28.4455 7.38623 27.788V8.21233Z" fill="white"/>
<path d="M28.7515 13.7561H23.2039C22.9141 13.7561 22.6792 13.5255 22.6792 13.2409V7.79354C22.6792 7.50898 22.9141 7.27832 23.2039 7.27832H28.7515C29.0413 7.27832 29.2762 7.50898 29.2762 7.79354V13.2409C29.2762 13.5255 29.0413 13.7561 28.7515 13.7561Z" fill="#E62735"/>
<path d="M44.4408 7.94462C44.4408 7.87657 44.4642 7.81913 44.5092 7.76964C44.5551 7.72103 44.6199 7.69629 44.7036 7.69629H45.8403C45.9087 7.69629 45.969 7.7175 46.0203 7.7608C46.0716 7.80411 46.0977 7.86508 46.0977 7.94374V14.5143H49.6869C49.7553 14.5143 49.8147 14.5382 49.8642 14.585C49.9137 14.6319 49.9389 14.6946 49.9389 14.7742V15.8046C49.9389 15.8726 49.9164 15.931 49.8705 15.9822C49.8246 16.0326 49.7634 16.0582 49.6869 16.0582H44.6919C44.5245 16.0582 44.4399 15.976 44.4399 15.8108V7.94462H44.4408Z" fill="#000022"/>
<path d="M51.6704 7.96671C51.6704 7.78643 51.7541 7.69629 51.9224 7.69629H57.4502C57.5501 7.69629 57.6203 7.72369 57.6626 7.77848C57.7049 7.83327 57.7256 7.90132 57.7256 7.98439V8.9786C57.7256 9.04664 57.7013 9.10674 57.6536 9.15976C57.6059 9.21279 57.5339 9.23841 57.4385 9.23841H53.3615V10.9449H56.5034C56.5799 10.937 56.6411 10.9538 56.687 10.9926C56.7329 11.0315 56.7554 11.0987 56.7554 11.1924V12.2113C56.7554 12.2794 56.7365 12.3395 56.6978 12.3916C56.66 12.4437 56.5979 12.4702 56.5142 12.4702H53.3606V14.5143H57.5861C57.6932 14.5143 57.7643 14.5373 57.7985 14.5824C57.8327 14.6275 57.8507 14.6973 57.8507 14.7909V15.8196C57.8507 15.9778 57.7661 16.0565 57.5987 16.0565H51.9224C51.854 16.0565 51.7946 16.0379 51.7451 15.9999C51.6956 15.9628 51.6704 15.9027 51.6704 15.8196V7.96671Z" fill="#000022"/>
<path d="M59.2109 15.8497C59.2298 15.7746 59.2523 15.7056 59.2766 15.6411C59.3009 15.5775 59.3234 15.5191 59.3423 15.4661L62.4329 7.91015C62.4446 7.86862 62.4761 7.82266 62.5274 7.77229C62.5796 7.72103 62.6489 7.69629 62.7371 7.69629H63.6605C63.7523 7.69629 63.818 7.71927 63.8585 7.76434C63.8981 7.80941 63.9278 7.84918 63.9476 7.88276L64.1366 8.32198L67.1642 15.7595C67.1642 15.771 67.1669 15.7905 67.1732 15.8187C67.1786 15.847 67.1822 15.87 67.1822 15.8894C67.1822 16.0017 67.0976 16.0582 66.9302 16.0582H65.7989C65.7143 16.0582 65.6495 16.0414 65.6036 16.0079C65.5577 15.9743 65.519 15.9213 65.4884 15.8506L65.3858 15.5916C65.3129 15.4113 65.24 15.2311 65.168 15.0508C65.0951 14.8705 65.0249 14.6884 64.9556 14.5046H61.4177C61.3178 14.7671 61.2215 15.0145 61.1279 15.2452C61.0343 15.4758 60.9551 15.6782 60.8894 15.8506C60.8363 15.9893 60.7364 16.0591 60.5915 16.0591H59.4449C59.372 16.0591 59.3144 16.0459 59.2703 16.0202C59.2262 15.9937 59.2046 15.9548 59.2046 15.9018C59.2055 15.8771 59.2073 15.8603 59.2109 15.8497ZM63.2015 9.84201C62.9954 10.3599 62.7893 10.8972 62.585 11.4522C62.3807 12.0081 62.1755 12.5427 61.9685 13.0571H64.4111L63.2015 9.84201Z" fill="#000022"/>
<path d="M68.9756 7.9615C68.9756 7.78476 69.0593 7.69727 69.2276 7.69727H72.7367C73.1227 7.69727 73.4836 7.76885 73.8202 7.91113C74.1568 8.0543 74.4502 8.24695 74.7004 8.49086C74.9506 8.73478 75.1477 9.02199 75.2908 9.35251C75.4339 9.68303 75.5059 10.0339 75.5059 10.405C75.5059 10.664 75.469 10.9114 75.397 11.1483C75.3241 11.3851 75.2233 11.6043 75.0928 11.8075C74.9623 12.0099 74.8084 12.1937 74.6284 12.3563C74.4484 12.519 74.2504 12.6577 74.0317 12.7699L75.5221 15.658C75.5302 15.696 75.5428 15.7331 75.5626 15.7711C75.5815 15.8082 75.5914 15.848 75.5914 15.8895C75.5914 16.0018 75.5248 16.0583 75.3907 16.0583H74.0605C73.9228 16.0583 73.831 15.9894 73.7851 15.8498L72.3974 13.1473C72.3362 13.1473 72.2705 13.1482 72.1994 13.1499C72.1283 13.1517 72.0311 13.1526 71.9069 13.1526C71.7827 13.1526 71.6198 13.1526 71.4191 13.1526C71.2184 13.1526 70.9592 13.1526 70.6424 13.1526V15.8153C70.6424 15.977 70.5542 16.0574 70.3787 16.0574H69.2276C69.1511 16.0574 69.0899 16.038 69.044 15.9982C68.9981 15.9585 68.9756 15.8975 68.9756 15.8153V7.9615ZM73.8085 10.413C73.8085 10.2522 73.7779 10.0957 73.7167 9.94373C73.6555 9.79173 73.5691 9.65652 73.4584 9.53633C73.3477 9.41614 73.2154 9.31893 73.0624 9.24469C72.9094 9.16958 72.743 9.12716 72.5639 9.11567C72.4298 9.11213 72.2993 9.10948 72.1706 9.10683C72.0428 9.10506 71.9096 9.10418 71.7719 9.10418H70.6424V11.7165H72.1562C72.2327 11.7165 72.3038 11.7165 72.3713 11.7165C72.4379 11.7165 72.5099 11.713 72.5864 11.705C72.7664 11.6935 72.9311 11.6529 73.0823 11.5813C73.2334 11.5106 73.3621 11.416 73.4692 11.2976C73.5763 11.1801 73.6591 11.0449 73.7185 10.8929C73.7797 10.7417 73.8085 10.5818 73.8085 10.413Z" fill="#000022"/>
<path d="M77.5303 7.94992C77.5303 7.87922 77.5519 7.81913 77.596 7.76964C77.6401 7.72103 77.7022 7.69629 77.7823 7.69629H79.1008C79.1548 7.69629 79.2052 7.70866 79.2529 7.73252C79.3006 7.75727 79.3438 7.79527 79.3816 7.84829C80.035 8.76385 80.683 9.67321 81.3256 10.5755C81.9682 11.4787 82.6153 12.3881 83.2696 13.3036V7.91104C83.2813 7.84299 83.3101 7.79085 83.356 7.75373C83.4019 7.71662 83.4568 7.69717 83.5225 7.69717H84.6286C84.7051 7.69717 84.7708 7.72015 84.8266 7.76522C84.8815 7.81029 84.9094 7.87039 84.9094 7.9455V15.8276C84.9094 15.9813 84.8194 16.0582 84.6403 16.0582H83.3956C83.3119 16.0582 83.2327 16.0079 83.1607 15.9062C82.4875 14.9491 81.8179 13.9929 81.151 13.0376C80.4841 12.0823 79.8154 11.1243 79.1467 10.1637V15.8108C79.1467 15.893 79.1269 15.9548 79.0864 15.9964C79.0459 16.0379 78.9784 16.0582 78.883 16.0582H77.7823C77.6941 16.0582 77.6302 16.037 77.5906 15.9937C77.5501 15.9504 77.5303 15.8912 77.5303 15.8161V7.94992Z" fill="#000022"/>
<path d="M87.3412 7.94462C87.3412 7.87657 87.3619 7.81913 87.4042 7.76964C87.4465 7.72103 87.5095 7.69629 87.5923 7.69629H88.7291C88.7939 7.69629 88.8551 7.71927 88.9118 7.76434C88.9685 7.80941 88.9973 7.8695 88.9973 7.94462V15.8099C88.9973 15.9752 88.9073 16.0573 88.7282 16.0573H87.5914C87.424 16.0573 87.3403 15.9752 87.3403 15.8099V7.94462H87.3412Z" fill="#000022"/>
<path d="M91.4404 7.94992C91.4404 7.87922 91.462 7.81913 91.5061 7.76964C91.5502 7.72103 91.6123 7.69629 91.6924 7.69629H93.0109C93.0649 7.69629 93.1153 7.70866 93.163 7.73252C93.2107 7.75727 93.2539 7.79527 93.2917 7.84829C93.9451 8.76385 94.5931 9.67321 95.2357 10.5755C95.8783 11.4787 96.5254 12.3881 97.1797 13.3036V7.91104C97.1914 7.84299 97.2202 7.79085 97.2661 7.75373C97.312 7.71662 97.3669 7.69717 97.4326 7.69717H98.5387C98.6152 7.69717 98.6809 7.72015 98.7367 7.76522C98.7916 7.81029 98.8195 7.87039 98.8195 7.9455V15.8276C98.8195 15.9813 98.7295 16.0582 98.5504 16.0582H97.3057C97.222 16.0582 97.1428 16.0079 97.0708 15.9062C96.3976 14.9491 95.728 13.9929 95.0611 13.0376C94.3942 12.0823 93.7255 11.1243 93.0568 10.1637V15.8108C93.0568 15.893 93.037 15.9548 92.9965 15.9964C92.956 16.0379 92.8885 16.0582 92.7931 16.0582H91.6924C91.6042 16.0582 91.5403 16.037 91.5007 15.9937C91.4602 15.9504 91.4404 15.8912 91.4404 15.8161V7.94992Z" fill="#000022"/>
<path d="M106.544 12.5614C106.544 12.4863 106.564 12.4262 106.607 12.3812C106.649 12.3361 106.712 12.3131 106.796 12.3131H107.73C107.795 12.3131 107.856 12.3361 107.913 12.3812C107.971 12.4262 108 12.4863 108 12.5614V15.1455C108 15.1906 107.988 15.2339 107.966 15.2745C107.942 15.316 107.901 15.3549 107.84 15.3929C107.836 15.3929 107.834 15.3938 107.834 15.3956C107.834 15.3973 107.832 15.3982 107.828 15.3982C107.648 15.522 107.455 15.6324 107.249 15.7305C107.043 15.8286 106.827 15.9099 106.601 15.9753C106.375 16.0407 106.145 16.092 105.907 16.1273C105.671 16.1627 105.433 16.1803 105.196 16.1803C104.795 16.1803 104.407 16.1291 104.033 16.0283C103.657 15.9267 103.309 15.7827 102.986 15.5953C102.663 15.408 102.368 15.1835 102.103 14.9228C101.837 14.6621 101.609 14.3731 101.418 14.0558C101.227 13.7386 101.08 13.3974 100.977 13.0316C100.874 12.6657 100.822 12.2839 100.822 11.8854C100.822 11.4912 100.874 11.1112 100.977 10.7454C101.081 10.3795 101.227 10.0366 101.418 9.71756C101.609 9.39853 101.837 9.10778 102.103 8.84443C102.368 8.58196 102.664 8.35661 102.989 8.16837C103.313 7.98102 103.663 7.8352 104.035 7.7318C104.408 7.62841 104.797 7.57715 105.202 7.57715C105.473 7.57715 105.743 7.60101 106.013 7.64785C106.282 7.69469 106.543 7.76538 106.796 7.85906C106.891 7.89706 107.004 7.9439 107.137 7.99958C107.269 8.05613 107.394 8.118 107.512 8.18516C107.631 8.25321 107.731 8.32214 107.813 8.39372C107.895 8.46531 107.937 8.53424 107.937 8.60228C107.937 8.63233 107.92 8.68005 107.885 8.74545C107.85 8.81085 107.807 8.88508 107.756 8.96727C107.705 9.05034 107.646 9.13518 107.581 9.22355C107.516 9.31193 107.453 9.39146 107.392 9.46305C107.331 9.53463 107.275 9.59296 107.226 9.64068C107.176 9.68752 107.138 9.71138 107.111 9.71138C107.088 9.71138 107.061 9.70696 107.029 9.69724C106.996 9.6884 106.963 9.66984 106.929 9.64421C106.688 9.47895 106.417 9.34728 106.114 9.25007C105.812 9.15285 105.504 9.10336 105.191 9.10336C104.782 9.10336 104.407 9.17848 104.067 9.32872C103.727 9.47895 103.434 9.68133 103.189 9.93673C102.944 10.1921 102.754 10.4873 102.616 10.8231C102.478 11.1589 102.41 11.5124 102.41 11.8845C102.41 12.2671 102.484 12.6268 102.63 12.9626C102.778 13.2985 102.976 13.591 103.227 13.8411C103.477 14.0903 103.771 14.2874 104.107 14.4323C104.444 14.5772 104.801 14.6488 105.18 14.6488C105.321 14.6488 105.461 14.6382 105.599 14.6179C105.736 14.5967 105.865 14.5711 105.986 14.5392C106.106 14.5074 106.214 14.4721 106.31 14.4323C106.405 14.3925 106.483 14.3545 106.544 14.3165V12.5614H106.544Z" fill="#000022"/>
<path d="M49.6033 21.7946C49.5502 21.761 49.4629 21.6956 49.3414 21.5984C49.2199 21.5012 49.0714 21.4031 48.8941 21.3023C48.7168 21.2016 48.5188 21.1114 48.2992 21.031C48.0787 20.9506 47.842 20.9108 47.5873 20.9108C47.2876 20.9108 47.0293 20.9462 46.8124 21.0169C46.5964 21.0876 46.4173 21.1813 46.2769 21.2988C46.1365 21.4163 46.033 21.5489 45.9664 21.6956C45.8998 21.8432 45.8665 21.9908 45.8665 22.1401C45.8665 22.3487 45.9367 22.5237 46.0771 22.666C46.2175 22.8073 46.4038 22.9311 46.6351 23.0354C46.8664 23.1396 47.1292 23.2342 47.4235 23.3181C47.7178 23.4021 48.0175 23.4905 48.3235 23.5833C48.6286 23.6769 48.9292 23.7812 49.2235 23.897C49.5178 24.0128 49.7806 24.1559 50.0119 24.3274C50.2432 24.4988 50.4295 24.7039 50.5699 24.9425C50.7103 25.1811 50.7805 25.4701 50.7805 25.8094C50.7805 26.2009 50.6977 26.5562 50.533 26.8743C50.3674 27.1925 50.1415 27.4655 49.8553 27.6909C49.5691 27.9163 49.2316 28.0912 48.8446 28.2141C48.4576 28.3369 48.0418 28.3988 47.5972 28.3988C47.3011 28.3988 47.0077 28.3661 46.717 28.3007C46.4263 28.2353 46.1473 28.1407 45.88 28.0152C45.6127 27.8906 45.3625 27.7386 45.1312 27.5592C44.8999 27.3798 44.6929 27.1757 44.5102 26.9441C44.4607 26.8849 44.4373 26.8248 44.4391 26.7656C44.4409 26.7064 44.4742 26.6499 44.539 26.5977L44.989 26.2283C45.0538 26.1762 45.1159 26.1532 45.1771 26.1585C45.2374 26.1638 45.2932 26.1965 45.3418 26.2566L45.4156 26.3291C45.5749 26.504 45.7567 26.656 45.9592 26.7851C46.1626 26.9132 46.3651 27.0201 46.5685 27.1032C46.7719 27.1872 46.9663 27.2499 47.1517 27.2906C47.3371 27.3312 47.4955 27.3524 47.6242 27.3524C47.8555 27.3524 48.0931 27.3224 48.3361 27.2632C48.5791 27.204 48.8014 27.112 49.0021 26.9892C49.2028 26.8664 49.3684 26.7108 49.4971 26.5226C49.6258 26.3344 49.6906 26.1134 49.6906 25.8598C49.6906 25.6477 49.6267 25.4674 49.4998 25.3198C49.3729 25.1722 49.201 25.0441 48.9841 24.9336C48.7672 24.8232 48.5143 24.7251 48.2236 24.6367C47.9329 24.5492 47.6233 24.4573 47.293 24.3601C46.8376 24.2293 46.4461 24.0932 46.1194 23.9491C45.7927 23.806 45.5245 23.6469 45.3139 23.4737C45.1033 23.3005 44.9485 23.1069 44.8495 22.8922C44.7505 22.6774 44.7019 22.4362 44.7019 22.1675C44.7019 21.8282 44.7712 21.518 44.9098 21.2361C45.0484 20.955 45.2446 20.7111 45.4993 20.5061C45.754 20.3011 46.06 20.142 46.4191 20.028C46.7782 19.914 47.1796 19.8574 47.6233 19.8574C47.8627 19.8574 48.1111 19.8875 48.3694 19.9467C48.6277 20.0059 48.8788 20.089 49.1236 20.195C49.3684 20.3011 49.5979 20.4283 49.813 20.575C50.0272 20.7226 50.2126 20.8852 50.3683 21.0646C50.4214 21.1203 50.4493 21.1795 50.4511 21.2405C50.4529 21.3023 50.4241 21.3607 50.3629 21.4163L49.9588 21.7963C49.8985 21.852 49.8364 21.8785 49.7734 21.8741C49.7149 21.8741 49.6564 21.8467 49.6033 21.7946Z" fill="#000022"/>
<path d="M53.784 24.8531C53.784 25.2075 53.8362 25.5371 53.9406 25.8429C54.045 26.1486 54.1989 26.4138 54.4023 26.64C54.6057 26.8654 54.8532 27.0421 55.1457 27.1711C55.4382 27.3001 55.7721 27.3638 56.1483 27.3638C56.5506 27.3638 56.9016 27.2984 57.2022 27.1685C57.5019 27.0377 57.7494 26.8601 57.9456 26.6347C58.1409 26.4093 58.2867 26.1433 58.3839 25.8385C58.4802 25.5327 58.5288 25.2048 58.5288 24.854V20.2285C58.5288 20.1613 58.554 20.1039 58.6062 20.0553C58.6575 20.0067 58.7214 19.9828 58.797 19.9828H59.3442C59.4162 19.9828 59.4828 20.0049 59.5431 20.05C59.6034 20.0951 59.634 20.1543 59.634 20.2285V25.0042C59.634 25.5071 59.5431 25.9692 59.3604 26.3881C59.1786 26.807 58.9284 27.1676 58.6116 27.4672C58.2948 27.7676 57.924 28.001 57.501 28.1689C57.0771 28.3368 56.6271 28.4207 56.1483 28.4207C55.6695 28.4207 55.2204 28.3315 54.7983 28.1521C54.3771 27.9736 54.0072 27.7279 53.6904 27.4168C53.3736 27.1057 53.1234 26.7425 52.9416 26.3289C52.7598 25.9153 52.668 25.4735 52.668 25.0033V20.2285C52.668 20.1728 52.6896 20.118 52.7337 20.0632C52.7769 20.0093 52.8354 19.9819 52.9074 19.9819H53.5167C53.5734 19.9819 53.6328 20.0067 53.6931 20.0544C53.7534 20.103 53.784 20.1604 53.784 20.2276V24.8531Z" fill="#000022"/>
<path d="M61.8071 20.2506C61.8071 20.0712 61.8908 19.9819 62.0573 19.9819H65.3432C65.723 19.9819 66.0758 20.0517 66.4025 20.1914C66.7292 20.331 67.0136 20.521 67.2566 20.7614C67.4996 21.0018 67.6904 21.2837 67.829 21.6054C67.9676 21.9279 68.0369 22.2717 68.0369 22.6376C68.0369 22.8983 68 23.1493 67.9262 23.3896C67.8524 23.63 67.7489 23.8527 67.6157 24.0577C67.4825 24.2628 67.3232 24.4466 67.1369 24.6083C66.9506 24.77 66.7436 24.9052 66.5159 25.0139L68.0198 28.039V28.1115C68.0198 28.2272 67.9496 28.2847 67.8092 28.2847H67.1198C67.0019 28.2847 66.911 28.2157 66.8462 28.0779L65.4791 25.2596C65.4485 25.2632 65.4152 25.2658 65.3792 25.2658C65.3432 25.2658 65.2919 25.2667 65.2253 25.2685C65.1587 25.2702 65.0705 25.2711 64.9607 25.2711C64.8509 25.2711 64.7051 25.2711 64.5251 25.2711C64.3451 25.2711 64.1237 25.2711 63.8618 25.2711C63.5999 25.2711 63.2831 25.2711 62.9105 25.2711V28.039C62.9105 28.2034 62.8232 28.2847 62.6486 28.2847H62.0564C61.889 28.2847 61.8062 28.2025 61.8062 28.039V20.2506H61.8071ZM66.9443 22.627C66.9443 22.4219 66.9029 22.2249 66.8219 22.034C66.74 21.844 66.6284 21.6761 66.4862 21.5311C66.344 21.3853 66.1748 21.2687 65.9795 21.1812C65.7842 21.0937 65.5718 21.0495 65.3441 21.0495H62.9123V24.2036H65.3666C65.5907 24.2036 65.7995 24.1603 65.993 24.0745C66.1865 23.9888 66.3539 23.873 66.4943 23.7281C66.6347 23.5823 66.7445 23.4153 66.8246 23.2253C66.9047 23.0353 66.9443 22.8364 66.9443 22.627Z" fill="#000022"/>
<path d="M70.0947 20.2401C70.0947 20.0686 70.1784 19.9829 70.3449 19.9829H75.7216C75.8962 19.9829 75.9835 20.0722 75.9835 20.2516V20.8048C75.9835 20.8755 75.9601 20.9373 75.9124 20.9895C75.8647 21.0416 75.8017 21.0673 75.7216 21.0673H71.199V23.813C71.8029 23.813 72.3969 23.8139 72.9819 23.8157C73.566 23.8175 74.1628 23.8183 74.7703 23.8183C74.8387 23.8183 74.8972 23.8387 74.9467 23.8802C74.9962 23.9209 75.0205 23.9889 75.0205 24.0817V24.6464C75.0205 24.7136 74.9989 24.7728 74.9548 24.8249C74.9107 24.8771 74.8495 24.9027 74.7694 24.9027H71.199V28.0506C71.199 28.207 71.1099 28.2856 70.9317 28.2856H70.3449C70.1775 28.2856 70.0947 28.2079 70.0947 28.0506V20.2401Z" fill="#000022"/>
<path d="M77.4861 28.0796C77.4591 28.1433 77.4213 28.1936 77.3727 28.2308C77.3232 28.2679 77.2602 28.2864 77.1846 28.2864H76.5808C76.4062 28.2864 76.3188 28.221 76.3188 28.0911C76.3188 28.0646 76.3198 28.0434 76.3216 28.0266C76.3234 28.0098 76.326 27.9939 76.3296 27.9789C76.3332 27.9639 76.3368 27.9506 76.3413 27.94L79.6272 20.1887C79.6353 20.1702 79.6443 20.149 79.656 20.1242C79.6677 20.1004 79.683 20.0774 79.7019 20.0571C79.7208 20.0367 79.7487 20.0191 79.7847 20.004C79.8207 19.989 79.8693 19.9819 79.9305 19.9819H80.3067C80.3634 19.9819 80.4102 19.9899 80.4462 20.004C80.4822 20.0191 80.5101 20.0367 80.529 20.0571C80.5479 20.0774 80.5632 20.1004 80.5749 20.1242C80.5857 20.149 80.5956 20.1702 80.6028 20.1887L83.8608 27.94C83.8644 27.9586 83.868 27.9771 83.8725 27.9957C83.8761 28.0142 83.8797 28.0319 83.8842 28.0487C83.8878 28.0655 83.8896 28.0796 83.8896 28.0902C83.8896 28.221 83.8023 28.2855 83.6277 28.2855H83.0238C82.9482 28.2855 82.8852 28.267 82.8357 28.2299C82.7862 28.1928 82.7484 28.1424 82.7214 28.0788L82.095 26.541H78.0972C77.964 26.8724 77.8425 27.1729 77.7327 27.4416C77.6211 27.7102 77.5392 27.9232 77.4861 28.0796ZM78.5508 25.4567H81.6549L80.1168 21.6319L78.5508 25.4567Z" fill="#000022"/>
<path d="M92.2076 20.682C92.249 20.712 92.2832 20.7465 92.3102 20.7854C92.3363 20.8243 92.3498 20.8649 92.3498 20.9056C92.3498 20.9577 92.3345 21.0028 92.3039 21.0399L92.0024 21.5321C91.9376 21.6214 91.871 21.6665 91.8035 21.6665C91.7765 21.6665 91.7477 21.6603 91.7153 21.647C91.6829 21.6338 91.646 21.6125 91.6046 21.5825C91.331 21.3925 91.0439 21.2467 90.7415 21.1459C90.44 21.0452 90.1214 20.986 89.7875 20.9674C89.2979 20.9674 88.8461 21.054 88.4321 21.2272C88.0181 21.4004 87.6608 21.6338 87.3584 21.9263C87.0569 22.2188 86.8202 22.5581 86.6492 22.9443C86.4782 23.3305 86.3927 23.7379 86.3927 24.1665C86.3927 24.6217 86.48 25.0415 86.6546 25.4276C86.8292 25.8138 87.0632 26.1461 87.3575 26.4263C87.6518 26.7055 87.9929 26.9238 88.3826 27.0802C88.7714 27.2367 89.1809 27.3153 89.6093 27.3153C89.765 27.3153 89.9207 27.3038 90.0764 27.2817C90.2321 27.2596 90.3905 27.2207 90.5525 27.1668C90.7136 27.1129 90.8819 27.044 91.0565 26.96C91.2311 26.8761 91.4174 26.7727 91.6145 26.6499C91.6865 26.6092 91.7459 26.588 91.7909 26.588C91.8593 26.588 91.9223 26.6348 91.979 26.7276L92.3039 27.2534C92.3309 27.3021 92.3435 27.3462 92.3435 27.3878C92.3435 27.477 92.2976 27.5477 92.2067 27.5999C91.8494 27.8535 91.457 28.0523 91.0277 28.1955C90.5984 28.3387 90.1358 28.4111 89.6381 28.4111C89.2358 28.4111 88.8497 28.3608 88.4789 28.26C88.109 28.1593 87.7634 28.0161 87.4421 27.8296C87.1208 27.6432 86.8292 27.4205 86.5646 27.1615C86.3009 26.9026 86.075 26.6154 85.8869 26.2999C85.6988 25.9853 85.5539 25.6459 85.4513 25.2818C85.3487 24.9186 85.2974 24.5386 85.2974 24.1436C85.2974 23.7521 85.3487 23.3747 85.4513 23.0115C85.5539 22.6483 85.6997 22.308 85.8896 21.9908C86.0795 21.6744 86.3063 21.3854 86.57 21.1238C86.8337 20.8631 87.1271 20.6396 87.4502 20.4557C87.7724 20.271 88.1189 20.1279 88.4897 20.0254C88.8596 19.9228 89.2466 19.8716 89.6489 19.8716C90.1232 19.8716 90.5732 19.9405 90.9989 20.0784C91.4255 20.2154 91.8278 20.4168 92.2076 20.682Z" fill="#000022"/>
<path d="M99.9017 19.9822C100.076 19.9822 100.164 20.0715 100.164 20.2509V20.8041C100.164 20.8748 100.142 20.9367 100.098 20.9888C100.054 21.041 99.9854 21.0666 99.89 21.0666H95.3V23.3652H98.9108C98.9792 23.3652 99.0377 23.3846 99.0872 23.4244C99.1367 23.4633 99.161 23.5296 99.161 23.6232V24.1933C99.161 24.2604 99.1403 24.3196 99.098 24.3718C99.0566 24.4239 98.9936 24.4495 98.9099 24.4495H95.2991V27.2006H99.9125C100.087 27.2006 100.174 27.2881 100.174 27.4631V28.0393C100.174 28.2037 100.091 28.285 99.9233 28.285H94.445C94.2776 28.285 94.1948 28.2072 94.1948 28.0499V20.2376C94.1948 20.0662 94.2785 19.9805 94.445 19.9805H99.9017V19.9822Z" fill="#000022"/>
<path d="M106.821 21.7946C106.768 21.761 106.681 21.6956 106.559 21.5984C106.438 21.5012 106.289 21.4031 106.112 21.3023C105.935 21.2016 105.737 21.1114 105.517 21.031C105.296 20.9506 105.06 20.9108 104.805 20.9108C104.505 20.9108 104.247 20.9462 104.03 21.0169C103.814 21.0876 103.635 21.1813 103.495 21.2988C103.354 21.4163 103.251 21.5489 103.184 21.6956C103.118 21.8432 103.084 21.9908 103.084 22.1401C103.084 22.3487 103.154 22.5237 103.295 22.666C103.435 22.8073 103.622 22.9311 103.853 23.0354C104.084 23.1396 104.347 23.2342 104.641 23.3181C104.936 23.4021 105.235 23.4905 105.541 23.5833C105.846 23.6769 106.147 23.7812 106.441 23.897C106.736 24.0128 106.998 24.1559 107.23 24.3274C107.461 24.4988 107.647 24.7039 107.788 24.9425C107.928 25.1811 107.998 25.4701 107.998 25.8094C107.998 26.2009 107.915 26.5562 107.751 26.8743C107.585 27.1925 107.359 27.4655 107.073 27.6909C106.787 27.9163 106.449 28.0912 106.062 28.2141C105.675 28.3369 105.26 28.3988 104.815 28.3988C104.519 28.3988 104.225 28.3661 103.935 28.3007C103.644 28.2353 103.365 28.1407 103.098 28.0152C102.83 27.8906 102.58 27.7386 102.349 27.5592C102.118 27.3807 101.911 27.1757 101.728 26.9441C101.678 26.8849 101.655 26.8248 101.657 26.7656C101.659 26.7064 101.692 26.6499 101.757 26.5977L102.207 26.2283C102.272 26.1762 102.334 26.1532 102.395 26.1585C102.455 26.1638 102.511 26.1965 102.56 26.2566L102.633 26.3291C102.793 26.504 102.974 26.656 103.177 26.7851C103.38 26.9132 103.583 27.0201 103.786 27.1032C103.99 27.1872 104.184 27.2499 104.369 27.2906C104.556 27.3312 104.713 27.3524 104.842 27.3524C105.073 27.3524 105.311 27.3224 105.554 27.2632C105.797 27.204 106.019 27.112 106.22 26.9892C106.421 26.8664 106.586 26.7108 106.715 26.5226C106.844 26.3344 106.908 26.1134 106.908 25.8598C106.908 25.6477 106.844 25.4674 106.718 25.3198C106.591 25.1722 106.419 25.0441 106.202 24.9336C105.985 24.8232 105.732 24.7251 105.441 24.6367C105.151 24.5492 104.841 24.4573 104.511 24.3601C104.055 24.2293 103.664 24.0932 103.337 23.9491C103.01 23.806 102.742 23.6469 102.532 23.4737C102.321 23.3005 102.166 23.1069 102.067 22.8922C101.968 22.6774 101.92 22.4362 101.92 22.1675C101.92 21.8282 101.989 21.518 102.128 21.2361C102.266 20.955 102.462 20.7111 102.717 20.5061C102.972 20.3011 103.278 20.142 103.637 20.028C103.996 19.914 104.397 19.8574 104.841 19.8574C105.08 19.8574 105.329 19.8875 105.587 19.9467C105.845 20.0059 106.097 20.089 106.341 20.195C106.586 20.3011 106.816 20.4283 107.031 20.575C107.245 20.7226 107.43 20.8852 107.586 21.0646C107.639 21.1203 107.667 21.1795 107.669 21.2405C107.671 21.3023 107.642 21.3607 107.581 21.4163L107.177 21.7963C107.116 21.852 107.054 21.8785 106.991 21.8741C106.932 21.8741 106.874 21.8467 106.821 21.7946Z" fill="#000022"/>
</g>
<defs>
<clipPath id="clip0">
<rect width="108" height="36" fill="white"/>
</clipPath>
</defs>
</svg>
