<?xml version="1.0" encoding="utf-8"?><svg viewBox="0 0 1175 334" xmlns="http://www.w3.org/2000/svg" xmlns:xlink="http://www.w3.org/1999/xlink"><style>:root>svg{display:none}:root>svg:target{display:block}</style><svg viewBox="0 0 41 41" id="f_1" xmlns="http://www.w3.org/2000/svg"><path d="M20.113 30.623c5.523 0 10-4.478 10-10 0-5.523-4.477-10-10-10s-10 4.477-10 10c0 5.522 4.477 10 10 10zM20.113 10.623v20M20.113 17.051L26.7 13.1M20.113 22.05l9.142-5.484M20.113 27.051l10-6" stroke-width="2" stroke-miterlimit="10" stroke-linejoin="round"/><path d="M20.113 1.532v5.454M6.614 7.124l3.857 3.857M1.022 20.623h5.455M6.614 34.121l3.857-3.856M20.113 39.714v-5.455M33.612 34.121l-3.857-3.856M39.204 20.623h-5.455M33.612 7.124l-3.857 3.857" stroke-width="2" stroke-miterlimit="10" stroke-linecap="round" stroke-linejoin="round"/></svg><svg viewBox="0 0 41 41" id="f_2" xmlns="http://www.w3.org/2000/svg"><g clip-path="url(#bclip0)" stroke-width="2" stroke-miterlimit="10" stroke-linejoin="round"><path d="M30.31 22.177l-6.066 6.026c-3.022 3.004-7.922 3.004-10.945 0a7.657 7.657 0 010-10.876l6.065-6.027-6.255-6.215-6.065 6.026c-6.476 6.436-6.476 16.872 0 23.308 6.477 6.436 16.979 6.436 23.455 0l6.065-6.027-6.255-6.215z"/><path d="M36.564 28.392l4.043-4.018-6.254-6.214-4.044 4.017M19.364 11.3l4.044-4.018-6.255-6.214-4.044 4.017"/></g><defs><clipPath id="bclip0"><path transform="translate(.607 .532)" d="M0 0h40v40H0z"/></clipPath></defs></svg><svg viewBox="0 0 41 41" id="f_3" xmlns="http://www.w3.org/2000/svg"><g clip-path="url(#cclip0)" stroke-width="2" stroke-miterlimit="10"><path d="M21.966 33.276l-3.405 3.405 3.405 3.404"/><path d="M37.48 13.813c1.516 5.157.622 11.285-3.157 16.068a17.889 17.889 0 01-14.06 6.8h-1.667M31.94 10.298l4.656 1.242 1.242-4.646M16.009 36.213C8.17 34.315 2.392 27.234 2.392 18.808c0-3.03.774-6.102 2.4-8.91l.85-1.472"/><path d="M7.32 6.442C10.433 3.166 15.131.928 20.263.936c6.17.017 12.17 3.226 15.48 8.953l.852 1.473M6.885 13.242l-1.25-4.646L.986 9.838M33.915 18.808s-6.094 6.809-13.617 6.809c-7.524 0-13.617-6.809-13.617-6.809S12.774 12 20.298 12c7.523 0 13.617 6.808 13.617 6.808z"/><path d="M20.298 23.064a4.255 4.255 0 100-8.511 4.255 4.255 0 000 8.51z"/></g><defs><clipPath id="cclip0"><path transform="translate(.766 .085)" d="M0 0h40v40H0z"/></clipPath></defs></svg><svg viewBox="0 0 41 41" id="f_4" xmlns="http://www.w3.org/2000/svg"><g clip-path="url(#dclip0)" stroke-width="2" stroke-miterlimit="10"><path d="M8.216 26.195l1.268-1.268c.442-.442.536-1.115.128-2.919-.417-1.804.255-4.11 1.268-5.123l1.702-1.702M30.445 22.842l-7.66 7.66c-2.553 2.553-4.255.85-5.957 2.553l-.85.851"/><path d="M6.618 24.54l-5.11 5.109L11.722 39.86l5.11-5.11L6.617 24.54zM5.765 28.8l1.702 1.702M23.637 13.48l-1.702 1.703M26.19 16.034l-1.702 1.702M28.743 18.587l-1.702 1.702"/><path d="M14.275 16.885l-7.66-7.66-3.404-7.66 7.66 3.405 7.66 7.66M10.871 4.97L6.616 9.225M29.594 23.693l8.162 8.162a1.705 1.705 0 010 2.409l-1.847 1.846a1.705 1.705 0 01-2.408 0l-8.162-8.161M35.552 29.65l-4.256 4.256" stroke-linejoin="round"/><path d="M30.446 22.842c1.378-1.378.28-3.813-1.703-4.255.409-.928-.808-2.817-2.553-2.553.426-1.277-1.2-2.766-2.553-2.553 0-1.932-2.553-3.405-4.255-1.703l-5.958 5.958"/></g><defs><clipPath id="dclip0"><path transform="translate(.135 .821)" d="M0 0h40v40H0z"/></clipPath></defs></svg><svg viewBox="0 0 41 41" id="f_5" xmlns="http://www.w3.org/2000/svg"><g clip-path="url(#eclip0)" stroke-width="2" stroke-miterlimit="10"><path d="M13.793 33.954c.317-.317.65-.833 1.667-.833h11.666c.925 0 6.017-5.109 6.667-5.834.625-.7 3.4-4.866 4.167-6.666-.484-.65-1.792-1.192-3.334-.834-1.475.342-2.341 1.4-3.333 3.334l-3.817 1.983" stroke-linejoin="round"/><path d="M18.793 28.12h6.666c3.334 0 3.334-4.166 0-4.166h-4.4c-.691 0-2-1.667-3.1-1.667h-4.166c-1.125 0-2.525.917-3.334 1.667l-3.333 3.333M5.454 25.62l-4.166 4.167 10 10 4.165-4.167-10-10zM5.46 29.787l1.666 1.667" stroke-linejoin="round"/><path d="M32.126 21.454l-1.666-1.667h-2.5l-2.5-1.666h-1.667l-1.667-.834-1.667 1.667h-2.5l-2.5 1.667v1.666M17.168 10.254c2.191 1.275 2.458 4.533 2.458 4.533s-3.125 1.242-5.317-.033c-2.191-1.275-4.683-5.8-4.683-5.8s5.35.025 7.542 1.3zM23.443 14.47c-2.033-2.091-1.775-5.758-.6-7.216 3.15-3.9 7.458-2.758 10.883-4.967 1.792 3.084.825 8.084-2.116 11.159-1.984 2.066-4.675 1.791-6.034 1.475M22.126 18.12c.692-6.25 5.533-8.6 8.758-11.366"/></g><defs><clipPath id="eclip0"><path transform="translate(.658 .821)" d="M0 0h40v40H0z"/></clipPath></defs></svg><svg viewBox="0 0 41 41" id="f_6" xmlns="http://www.w3.org/2000/svg"><g clip-path="url(#fclip0)" stroke-width="2" stroke-miterlimit="10"><path d="M8.526 1.73H1.253v7.273h7.273V1.73zM8.526 32.64H1.253v7.272h7.273V32.64zM39.435 1.73h-7.273v7.273h7.273V1.73zM39.435 32.64h-7.273v7.272h7.273V32.64zM8.525 5.367h4.546M14.89 5.367h4.545M21.253 5.367h4.545M27.616 5.367h4.546M8.525 36.276h4.546M14.89 36.276h4.545M21.253 36.276h4.545M27.616 36.276h4.546M4.89 9.003v4.546M4.89 15.367v4.545M4.89 21.73v4.546M4.89 28.094v4.545M35.799 9.003v4.546M35.799 15.367v4.545M35.799 21.73v4.546M35.799 28.094v4.545"/></g><defs><clipPath id="fclip0"><path transform="translate(.344 .821)" d="M0 0h40v40H0z"/></clipPath></defs></svg><svg viewBox="0 0 1175 334" id="icons" xmlns="http://www.w3.org/2000/svg"><g clip-path="url(#gclip0)"><path d="M142.421 120.01c.609-.745 1.001-1.547 1.849-2.009.564 1.341 1.618 2.308 2.624 3.29.682.662 1.444 1.16 2.434 1.428 2.116.585 2.898 3.129 1.772 5.005-.742 1.239-1.581 2.287-2.879 2.979-.526.287-.91.393-1.54.138-1.46-.606-2.955-1.114-4.389-1.775-1.038-.475-2.23-.272-3.355-.403-1.131-.123-1.459-.507-.993-1.514.812-1.781 1.619-3.59 2.961-5.064.376-.42.953-.83.206-1.452-.207-.174-.116-.49-.038-.718.399-1.104.024-1.953-.753-2.757-1.602-1.644-2.1-3.726-2.589-5.924-.683-3.077-2.048-5.942-4.886-7.734-1.295-.82-2.706-1.341-4.238-1.642-3.109-.608-5.474.524-7.423 2.843-.481.566-.935 1.163-1.456 1.7-2.195 2.301-3.242 5.231-3.607 8.207-.471 3.861 1.694 6.709 4.73 8.927 1.742 1.277 3.609 2.261 5.774 2.401.927.063 1.901-.161 2.806-.41 2.228-.615 4.463-1.053 6.788-.861.435.03.732.182.883.623.172.48-.043.831-.349 1.153-.348.365-.612.114-.983-.054-1.365-.636-2.811-.407-4.186-.052-1.94.489-3.874.935-5.866.538-2.415-.479-4.448-1.694-6.302-3.346-1.426-1.271-2.659-2.588-3.384-4.39-1.048-2.587-1.51-5.148-.163-7.776.64-1.252.581-2.797 1.568-3.897 1.696-1.897 3.017-4.113 5.219-5.584 2.325-1.556 4.696-1.428 7.217-.824 4.816 1.146 7.095 4.692 8.619 8.964.306.86.319 1.818.585 2.699.358 1.18.805 2.29 1.884 3.102 1.063.8 1.551 1.988 1.347 3.369a3.39 3.39 0 00-.035.529c.031.059.079.13.148.291zm5.718 9.145c1.108-.719 1.299-2.047 2.392-2.592.251-.127.131-.423.112-.67-.071-1.135-.994-1.564-1.753-2.085-1.455-1.008-2.871-2.087-4.064-3.375-.652-.703-.963-.631-1.458.023-.364.49-.966.882-.131 1.519.344.259.083.725-.005 1.105-.34 1.467-.542 2.947-.529 4.472.008.88.63.785 1.042.846.63.084.387-.522.381-.822-.05-1.661.083-3.302.447-4.924.073-.341.054-.725.445-.875.25-.091.428.123.5.298.159.361.622.779.295 1.148-.898.993-.699 2.207-.73 3.33-.072 2.448.014 2.448 1.79 3.096.148-.103.089-.244.088-.38.044-1.483.079-2.972.159-4.454.026-.499.282-.906.877-.86.523.043.602.567.473.832-.67 1.378-.246 2.828-.331 4.368zm-5.754-7.57c-1.04 1.567-1.974 2.867-2.68 4.329-.62 1.291-.575 1.435.902 1.658.588.09 1.241.141 1.164-.592-.194-1.752.389-3.402.614-5.395z"/><path d="M132.247 112.096c-.436 1.103-1.335 1.258-2.213 1.144-.704-.1-.942-.061-.833.731.116.884-.175 1.562-1.251 1.466-.139.725.723 1.221.368 1.939-.317.646-.912.908-1.561 1.23 2.471.433 4.945.881 7.423 1.27.847.141 1.655.388 2.462.636.475.144.586.47.476.896-.116.471-.526.373-.781.264-2.935-1.21-6.125-1.175-9.155-1.911-.611-.143-1.253-.174-1.874-.287-.496-.098-1.168-.089-1.054-.881.087-.652.651-.924 1.175-1.138.349-.144.753-.174 1.14-.216.852-.089.901-.534.56-1.173-.127-.252-.243-.52-.396-.752-.235-.342-.41-.714-.214-1.09.229-.439.612-.115.935-.067.762.104.773-.442.733-.952-.124-1.455-.138-1.453 1.28-1.284 1.564.188 1.866-.112 1.695-1.639-.033-.245-.097-.5-.064-.735.028-.227.05-.531.344-.615.302-.078.424.181.584.37.832.967.989 2.324 1.926 3.231 1.619 1.57 2.992 3.394 4.942 4.622.352.229.484.594.492.994.006.3.176.681-.186.876-.416.219-.719-.147-.888-.392-.417-.619-.947-1.098-1.462-1.616-1.563-1.542-3.198-3.037-4.603-4.921zM141.739 108.979c.303-.422 3.628-1.518 3.989-1.37.23.092.258.309.293.519.068.332-.057.575-.352.695-1.038.399-2.076.799-3.125 1.178-.332.119-.684.026-.82-.281-.095-.228.011-.547.015-.741zM142.552 98.543c.445.356.414 1.171-.076 1.373-1.115.455-2.181.945-2.869 2.039-.256.408-.586.096-.708-.213-.236-.563.021-1.007.435-1.411.788-.789 2.028-.92 2.673-1.921.126-.193.357.12.545.133zM122.685 98.293c-.322.396-.587.132-.733-.145a7.715 7.715 0 01-.83-4.106c.024-.377.165-.744.634-.677.464.074.905.54.7.86-.728 1.115.215 2.014.235 3.013-.012.36.165.697-.006 1.055zM108.094 120.81c.429-.049.648-.594.981-.44.858.382 1.382-.141 2.014-.524.306-.186.739-.651 1.059-.051.237.441.121.825-.44 1.075-.936.411-1.853.848-2.857 1.062-.382.07-.599-.073-.702-.307-.103-.234-.037-.532-.055-.815zM121.676 132.773c-.361.381-.617.344-.858-.075-.418-.756-.047-1.511.062-2.246.086-.616.384-1.202.37-1.852-.01-.327.139-.553.487-.574.364-.009.471.253.499.556.025.24.111.548.005.73-.564.974-.454 2.038-.541 3.084-.005.144-.018.282-.024.377zM131.804 93.775c.409-.482.635-1.157 1.028-.813.334.29.772.949.104 1.552-.576.51-.848 1.214-.968 1.965-.055.367-.119.764-.651.579-.455-.155-.661-.673-.469-.94.552-.786.384-1.855.956-2.343zM110.361 111.725c.215.266.408.478.561.711.123.188.126.424-.04.587-.142.145-.308.05-.473-.044-.834-.451-1.736-.533-2.668-.452-.549.061-1.083-.002-1.059-.686.02-.627.512-.593 1.013-.553.914.065 1.822.139 2.666.437zM113.602 128.019c-.141-.472-.526-.896-.055-1.346.608-.572 1.257-1.115 1.898-1.665.221-.186.439-.559.762-.203.203.232.361.628.108.878-.745.745-1.527 1.439-2.169 2.283-.065.089-.324.038-.544.053zM111.843 102.619c.354.759 1.223 1.212 1.798 1.92.305.38.635.949.16 1.285-.43.307-.721-.247-.942-.591-.41-.664-1.084-1.062-1.604-1.607-.31-.322-.377-.641-.029-.97.155-.147.275-.504.617-.037z"/></g><g clip-path="url(#gclip1)"><path d="M1126.79 21.81c-.56 1.242-.62 2.459-.99 3.597-.76 2.423-1.3 4.899-1.75 7.396-.07.412-.13.82.06 1.136.4.678-.22.94-.52 1.08-1.68.823-3.75-.544-3.81-2.418-.07-1.963.29-3.857.76-5.746.06-.237.19-.462-.01-.819-1.18 1.259-2.22 2.574-3.09 3.974-.59.946-1.42 1.55-2.25 2.189-.4.315-2.38-.418-2.53-.882-.07-.214.09-.323.17-.47 1.86-3.257 3.73-6.513 5.57-9.777.39-.709 1.11-1.08 1.55-1.743 1.12-1.679 1.49-3.635 2.11-5.53-.98.524-1.44 1.475-1.96 2.345-.59.982-1.17 1.946-2.11 2.626-.45.316-.92.631-1.47.334-.57-.288-.6-.82-.53-1.388.25-2.103 1.09-3.954 2.44-5.63 1.31-1.607 2.44-3.334 4.53-4.065.81-.28 1.59-.62 2.45-.562.85.063 1.06-.323 1.1-1.11.04-1.172.57-2.105 1.74-2.53 1.17-.427 2.33-.576 3.42.264.84.649 1.04 1.372.52 2.318-.47.87-1.02 1.692-1.95 2.161 2.31 1.487 2.3 3.723 2.08 6.023-.08.917-.27 1.83-.35 2.739-.22 2.411-1.23 4.344-3.14 5.874-.53.418-1.09.265-1.61.477-.35.14-.44-.35-.39-.682.05-.354.19-.685-.04-1.18zm1.63.417c1.23-1.365 2.19-2.631 2.3-4.407.07-1.27.19-2.537.46-3.777.29-1.343-.48-3.549-1.62-4.28-.98-.618-2.14-.576-3.17-.942-2.23-.79-3.86.202-5.3 1.69-1.77 1.856-3.23 3.911-3.78 6.485-.05.264-.28.619 0 .76.27.133.54-.091.79-.37.55-.62.79-1.404 1.25-2.068.95-1.396 1.8-2.884 3.94-2.439.62.127.78.475.58.82-.99 1.664-1.36 3.647-2.46 5.222-1.93 2.747-3.69 5.596-5.55 8.39-.48.732-1.03 1.455-1.2 2.364-.08.438-.1.895.37 1.116.42.186.61-.222.84-.487 2.08-2.287 3.85-4.8 5.57-7.367.33-.493.31-1.696 1.29-1.357.91.313.02 1.194.22 1.793.02.089.02.223-.03.3-1.16 1.49-1.2 3.364-1.69 5.061-.36 1.227-.45 2.578-.09 3.883.15.518.41 1.116 1.02 1.059.39-.029.83-.389.88-.926.16-2.04.61-4.023 1.17-5.99.44-1.544.88-3.09 1.23-4.657.48-2.149 1.5-4.121 2.02-6.262.22-.917.78-1.265 1.64-1.01.38.11.62.355.27.67-.56.495-.68 1.184-.86 1.798-.44 1.554-.67 3.147-.09 4.928zm2.36-17.44c-1.11-.58-2.68-.241-3.09.548-.27.516.35 2.06.96 2.392.7.382 1.99-.34 2.57-1.461.36-.713.12-1.222-.44-1.478zM1139.56 30.625c-1.84.232-1.89.072-1.61-1.576.22-1.315 1.02-2.28 1.59-3.393 1.07-2.094 2.6-3.85 4.16-5.575.71-.786 1.54-1.161 2.55-.93.46.106.52.003.55-.418.09-1.248.74-2.23 1.9-2.585 1.1-.337 2.22-.074 3.09.865.69.757.69 1.795-.31 2.784-.59.588-.58 1.027-.25 1.691.46.955.4 1.926.06 2.943-.88 2.656-1.35 5.413-1.97 8.126-.17.73-.54 1.072-1.34.88-.66-.158-1.08.224-1.07.84.02 1.159-.43 2.364.3 3.474.25.37-.08.573-.36.749-.65.392-1.39.36-2.06.274-.7-.09-.88.223-1 .743-.27 1.173-.38 2.367-.73 3.532-.32 1.026-1.09 1.548-1.8 2.169-.37.32-1.33-.423-1.58-1.204-.14-.424-.01-1.087-.38-1.246-.4-.163-.74.415-1.12.65-.85.518-1.09.367-1.18-.603-.16-1.766.49-3.33 1.15-4.898.51-1.22.47-1.33-.74-1.937-1.46-.735-1.54-1.723-.32-2.857.83-.72 1.55-1.546 2.47-2.498zm-1.25 11.365c.72-.741 1.28-1.366 1.9-1.941.19-.175.49-.414.76-.272.32.168.27.557.25.87-.06.739-.43 1.438-.29 2.198.06.322-.1.846.39.861.44.02.52-.468.63-.844.47-1.59.58-3.263 1.14-4.836.36-.985.7-1.26 1.67-.817.59.27.84.072.78-.483-.18-1.474.33-2.881.38-4.308.1-2.917 1.12-5.57 2.08-8.253.06-.17-.14-.639.33-.449.33.128.67.462.53.83-.52 1.317-.5 2.775-1.14 4.053-.48.937-.64 1.926-.27 2.948.1.259.08.662.44.628.33-.028.31-.403.36-.69a40.97 40.97 0 012.02-7.39c.33-.864-.33-2.886-1.07-2.914-1.15-.026-2.2-.454-3.31-.646-.5-.087-.91.18-1.32.53-2.09 1.737-3.38 4.01-4.53 6.386-.28.588-.83 1.073-.78 1.892.79-.103.87-1.065 1.58-1.23.55-.127.84-.634 1.16-1.123.7-1.059 1.03-2.344 2-3.239.32-.297.63-.633 1.09-.265.42.343.16.684-.04 1.03-.41.659-.83 1.31-1.2 1.995-.63 1.184-1.03 2.479-2.05 3.45a66.93 66.93 0 00-3.23 3.32c-1.06 1.164-.97 1.441.48 2.01.29.111.6.177.91.274.35.105.49.341.21.616-.54.526-.64 1.268-.85 1.909-.43 1.205-1.08 2.393-1.01 3.9zm9.91-23.94c-.6 1.144.6 1.41 1.08 1.717.87.555 1.29-.556 1.73-1.033.45-.48-.05-1.037-.59-1.325-.91-.496-1.77-.241-2.22.642zM1152.25 48.759c1.07-1.266 1.73-2.813 2.93-3.995.57-.557.9-1.328 1.34-2.014.08-.117.16-.279 0-.367a.452.452 0 00-.38-.012c-.65.28-1.28.628-1.94.873-.38.145-.8.594-1.23.029-.41-.549-.5-1.232-.03-1.646 1.56-1.39 2.79-3.247 5-3.822.56-.146.83-.433.99-1.069.49-2.033 2.96-2.89 4.46-1.614 1.08.925.85 2.384-.58 3.339-.46.306-.74.303-.16.949.93 1.024.91 2.486.94 3.819.02.814-.05 1.628.23 2.41.18.535-.01.89-.44 1.178-.51.338-.68-.19-.96-.376-.33-.217-.62-.48-.94-.706-1-.72-1.11-.683-1.35.57-.23 1.213.53 2.323.43 3.549-.04.559.06 1.13.08 1.699.03.876-.53 1.255-1.27 1.469-.79.227-.96-.407-1.2-.902-.39-.83-.74-1.683-1.15-2.508-.34-.718-.81-.917-1.48-.31-.69.63-1.53 1.018-2.34 1.478-.36.203-.78.407-1.1.203-.39-.236-.13-.711-.13-1.091-.02-.412.12-.766.28-1.133zm10.06-3.851c.13-.73.06-1.266.1-1.794.18-2.698-2.22-4.81-4.64-4.051-1.59.495-2.6 1.793-3.9 3.015.37.025.52.087.62.038.79-.393 1.57-.809 2.34-1.22.53-.284 1.02-.425 1.53.087.55.547.15.952-.13 1.373-.45.67-.89 1.347-1.4 1.975-1.18 1.455-2.34 2.928-3.37 4.49-.13.192-.37.43-.09.64.19.137.39-.056.56-.183.58-.418 1.16-.824 1.73-1.233 1.42-1.027 1.92-.86 2.44.86.28.92.75 1.73 1.27 2.636.42-1.688-.49-3.088-.41-4.609.06-1.064.56-2.042.43-3.146-.05-.37.36-.704.73-.844.41-.154.61.167.84.46.37.495.81.927 1.35 1.506zm.48-7.77c.15-.543.04-.94-.49-1.17-.8-.35-1.66-.108-1.91.582-.26.69.35 1.103.62 1.611.13.246 1.58-.589 1.78-1.024z"/></g><g clip-path="url(#gclip2)"><path d="M37.974 300.926c.323 3.171.628 6.747-.078 10.351-.538 2.76-.934 5.53-2.372 8.028-.927 1.611-2.137 3.018-3.125 4.568-.77 1.201-1.41 2.429-2.891 2.903-2.566.816-5.124.642-7.675-.042-1.84-.498-3.583-1.282-5.43-1.808-.966-.276-1.736-1.172-2.642-1.694-4.106-2.411-7.468-5.647-8.855-10.193-1.528-4.972-2.34-10.159.55-15.098 1.757-2.997 4.452-4.925 7.425-6.493 3.626-1.905 7.568-2.582 11.627-2.749 3.19-.128 5.822.751 8.099 3.187 4.566 4.914 4.366 5.875 5.367 9.04zm-19.705-9.509c-2.003.362-3.215 1.044-4.446 1.654-5.095 2.547-8.964 5.964-8.798 12.351.12 4.595 1.056 8.887 4.458 12.158 4.066 3.933 8.97 6.448 14.526 7.483 1.15.213 2.545.84 3.565.253 2.33-1.309 4.423-2.943 5.818-5.369 2.153-3.731 3.145-7.78 3.368-12 .255-4.877-.33-9.599-3.895-13.383-1.89-2.011-3.83-3.793-6.877-4.01-2.888-.197-5.56.8-7.719.863z"/><path d="M26.344 316.474c-3.302.527-6.42-.026-9.312-1.733-.31-.182-.612-.459-.785-.769-.407-.743-.229-1.668.257-2.117.561-.515.76.436 1.092.767 1.47 1.456 6.886 2.79 8.542 1.916 1.1-.576 1.472-1.89 2.029-2.959.714-1.356 1.033-2.872 1.145-4.412.043-.551.152-1.088.876-1.089.945.018.574.731.563 1.166-.137 3.119-1.447 5.815-3.102 8.37-.308.48-.777.755-1.305.86zM24.376 301.115c-.495.174-1.727 1.077-1.485-1.036.095-.888 3.062-1.822 3.635-1.153.548.63.604 1.387-.324 1.795-.411.199-.9.217-1.826.394zM14.927 305.014c-.669.219-1.107.193-1.338-.226-.305-.523-.081-1.151.312-1.422.785-.541 1.787-.722 2.546-1.427.324-.299 1.058.036 1.362.498.304.461-.169.722-.424 1.049-.692.903-1.924.851-2.459 1.528z"/></g><g clip-path="url(#gclip3)"><path d="M1014.47 286.309c1.55.246 2.25 1.58 3.29 2.521 1.24 1.136.5 2.898 1.53 4.056 1.25 1.369.89 3.125 1.15 4.76.28 1.71.83 3.406.94 5.154.27 4.401-.9 8.377-3.64 11.898-.58.737-1.91 1.391-1.1 2.784.03.061-.14.297-.27.381-3.22 2.24-5.78 5.312-9.3 7.169-4.53 2.413-9.299 2.767-14.224 1.672-5.392-1.186-9.995-3.899-14.513-7.015-3.667-2.529-5.982-5.722-8.191-9.511-3.006-5.142-2.408-10.303-1.271-15.43.916-4.138 3.582-7.588 6.648-10.636 3.644-3.651 7.988-5.869 12.91-7.218 4.646-1.284 9.341-1.715 14.011-.516 2.42.625 4.7 1.83 6.87 3.213 2.65 1.68 4.89 3.775 7.05 5.991.39.396.83.744.97 1.398-1.92-.383-2.36-2.709-4.26-3.171-.05 1.223 1.57 1.426 1.44 2.581-1.13-.959-2.28-1.908-3.41-2.867-.42-.357-1.24-.814-1.19-1.079.5-2.257-1.28-1.971-2.46-2.481-.17 1.377.64 2.264 1.25 3.214 2.59 3.981 4.62 8.105 4.34 13.065-.15 2.388.09 2.476 2.62 2.238.88-.086 1.76-.192 2.64-.229.8-.035 1.08-.416.98-1.173-.16-1.195-.17-2.37-.59-3.55-1.02-2.675-2.48-5.028-4.22-7.219zm-4.88 20.183c.72-1.738 1.09-3.573 1.57-5.384.22-.854-.11-.96-.8-.902-4.46.385-8.87-.13-13.251-.922-.847-.15-1.329.02-1.577.948-.584 2.139-1.169 4.278-1.945 6.345-.544 1.452-.231 2.088 1.296 2.209 3.311.271 6.577.829 9.917.908 3.49.055 3.49.055 4.79-3.202zm-16.468-4.07a.195.195 0 00.094.018c.302-1.074.511-2.166.901-3.207.341-.91.037-1.258-.778-1.58-3.058-1.214-5.919-2.772-8.052-5.379-.622-.751-.902-.405-1.351.213-2.015 2.74-2.62 5.959-3.441 9.13-.207.775.253 1.198.757 1.505 2.874 1.746 5.722 3.517 9.036 4.359.918.227 1.346-.064 1.58-.913.389-1.393.836-2.764 1.254-4.146zm-22.572-7.78c-1.001 5.746-1.177 10.765 1.898 15.631 2.275 3.613 8.171 9.521 11.204 10.174-3.575-3.399-4.946-7.86-5.223-12.564-.187-2.846.074-5.324-2.945-7.042-2.159-1.244-3.587-3.503-4.934-6.199zm27.226-1.597s.015.005 0 0c-.277.782-.524 1.576-.874 2.331-.647 1.413-.226 2.207 1.285 2.372 4.063.438 8.113 1.302 12.253.95.83-.073 1.13-.211 1.09-1.164-.11-2.284-.57-4.496-.97-6.736-.15-.878-.68-1.294-1.66-1.226-2.11.13-4.21.146-6.3.247-1.19.055-2.56-1.076-3.465-.128-.774.813-.935 2.225-1.359 3.354zm-14.766-1.925c.315-.484.376-.913-.159-1.315-1.818-1.351-3.171-3.096-4.298-5.04-.387-.664-.798-.818-1.542-.127-1.602 1.507-2.832 3.27-4.009 5.07-.515.794-1.453 1.646-1.198 2.661.914 3.538 3.33 6.016 6.16 8.148.482.365.922.396 1.098-.341.784-3.252 1.842-6.384 3.948-9.056zm29.04 28.318c-.19-.171-.27-.317-.34-.31-2.81.233-5.64.495-8.46.524-.4 0-.88.255-1.2.52-1.49 1.248-3.346 1.705-5.087 2.423-.614.255-1.116.167-1.664-.289 1.442-1.216 3.206-1.591 5.061-2.702a897.408 897.408 0 00-6.782-.871c-2.876-.359-2.975-.363-3.144 2.451-.055.949.235 2.63.774 2.799 2.716.918 5.552 1.563 8.47 1.32 4.812-.422 8.742-2.674 12.372-5.865zm-4.27-8.192c-4.94.323-9.488-.579-14.074-.928-.993-.071-1.312.244-1.451 1.061-.29 1.531-.53 3.063-.864 4.577-.196.88.458 1.008.944 1.006 3.079-.049 6.027.923 9.075 1.08.56.026.97-.073 1.33-.491 1.72-1.913 3.44-3.827 5.04-6.305zm-10.929-20.505c.667-.754.462-1.633.869-2.317.201-.359.058-.647-.303-.799-1.699-.688-2.855-2.108-4.325-3.094-.789-.53-1.283-.548-2.057-.002-1.903 1.327-3.369 3.051-4.817 4.816-.524.64-.378.963.172 1.503 2.066 2.03 4.265 3.791 7.018 4.924 1.333.55 1.884.506 2.044-.856.158-1.58 1.36-2.735 1.399-4.175zm14.399 15.787c-.24.645-.43 1.228-.67 1.789-.57 1.292.04 1.419 1.1 1.166 2.17-.509 4.35-.746 6.55-.922.83-.073 1.25-.419 1.49-1.233.62-2.143.43-4.271.16-6.412-.14-1.189-.66-1.6-1.88-1.323-1.01.24-2.1.284-3.15.275-1.3-.004-1.83.65-2.15 1.818-.46 1.633-.71 3.363-1.45 4.842zm-26.551 7.872c1.188.445 2.368.955 3.584 1.327.808.253 1.396.156 1.622-.981.293-1.495.262-3.062.905-4.51.428-.961-.392-1.051-1.07-1.205-2.333-.557-4.546-1.437-6.595-2.707-.881-.548-1.924-1.692-2.692-1.294-.915.476-.325 1.935-.207 2.916.459 3.501.863 5.726 4.453 6.454zm-.384-25.735c.462.241.627-.066.816-.346.854-1.252 2.038-2.179 3.131-3.175.969-.89 2.65-1.447 2.991-2.49.402-1.205-1.288-2.273-1.721-3.573l-.077-.33c-.168-.531-.449-.586-1.008-.478-3.055.61-5.721 2.053-8.23 3.838-.203.141-.524.104-.53.52.006 1.056 3.518 5.651 4.628 6.034zm19.955 29.464c2.72-.202 4.94-.224 7.11-.565.97-.152 2.2.008 2.94-.887 1.53-1.801 3.06-3.618 4.22-5.711.53-.986.13-1.155-.79-1.015-2.41.401-4.83.747-7.25 1.128-.38.061-.71.103-.98.504-1.51 2.16-2.97 4.355-5.25 6.546zm5.6-29.73c-2.32-3.179-3.74-6.557-6.13-9.559a26.378 26.378 0 00-3.39 6.222c-.858 2.204-.392 2.746 2.01 3.113 2.4.346 4.77.181 7.51.224zm-7.13-11.004c-2.64.096-4.98-.764-7.396-.432-1.25.166-2.784.109-3.594.976-.671.719.72 1.692.863 2.649.149.942.523 1.015 1.347.555 2.55-1.402 4.807-3.717 8.17-2.873.09.033.3-.405.61-.875zm-1.46 2.295c-2.55.198-4.568 1.164-6.524 2.32-.537.317-.77.715-.222 1.172 1.025.835 1.822 1.921 2.986 2.608.669.401.856.304 1.127-.464.66-1.893 1.443-3.757 2.633-5.636zm-18.383 36.392c1.128 2.079 2.825 3.217 3.991 4.792.263.366.742.83 1.224.66.477-.156.257-.774.332-1.197.082-.488.112-1.012.321-1.435.582-1.153-.061-1.445-1.005-1.648-1.494-.343-2.991-.721-4.863-1.172z"/></g><defs><clipPath id="gclip0"><path transform="rotate(-54.302 165.283 -38.373)" d="M0 0h40.83v47.07H0z"/></clipPath><clipPath id="gclip1"><path transform="rotate(26.281 561.539 2407.35)" d="M0 0h56.16v33.07H0z"/></clipPath><clipPath id="gclip2"><path transform="rotate(-14.448 1160.408 147.09)" d="M0 0h35.09v38.942H0z"/></clipPath><clipPath id="gclip3"><path transform="rotate(20.558 -247.947 2832.74)" d="M0 0h53.716v50.865H0z"/></clipPath></defs></svg><svg viewBox="0 0 11 11" id="mail" xmlns="http://www.w3.org/2000/svg"><g clip-path="url(#hclip0)" stroke-linecap="round" stroke-linejoin="round"><path d="M2.595 2.229H9.26c.459 0 .834.375.834.833v5a.836.836 0 01-.834.834H2.595a.836.836 0 01-.834-.834v-5c0-.458.375-.833.834-.833z"/><path d="M10.095 3.062L5.928 5.98 1.76 3.062"/></g><defs><clipPath id="hclip0"><path transform="translate(.928 .562)" d="M0 0h10v10H0z"/></clipPath></defs></svg><svg viewBox="0 0 10 11" id="map-pin" xmlns="http://www.w3.org/2000/svg"><g clip-path="url(#iclip0)"><path d="M8.75 4.667C8.75 7.583 5 10.083 5 10.083s-3.75-2.5-3.75-5.416a3.75 3.75 0 117.5 0z"/><path d="M5 5.917a1.25 1.25 0 100-2.5 1.25 1.25 0 000 2.5z"/></g><defs><clipPath id="iclip0"><path transform="translate(0 .5)" d="M0 0h10v10H0z"/></clipPath></defs></svg><svg viewBox="0 0 9 10" id="phone" xmlns="http://www.w3.org/2000/svg"><path d="M8.437 6.976v1.25a.833.833 0 01-.908.833 8.246 8.246 0 01-3.596-1.28 8.125 8.125 0 01-2.5-2.5 8.246 8.246 0 01-1.28-3.612.833.833 0 01.83-.908h1.25a.833.833 0 01.833.717c.053.4.15.792.292 1.17a.833.833 0 01-.188.88l-.529.529a6.667 6.667 0 002.5 2.5l.53-.53a.833.833 0 01.879-.187c.378.141.77.239 1.17.292a.833.833 0 01.717.846z"/></svg></svg>