<svg width="9" height="9" viewBox="0 0 9 9" fill="none" xmlns="http://www.w3.org/2000/svg">
<path d="M8.53672 6.22574V7.47574C8.53719 7.59178 8.51342 7.70664 8.46693 7.81297C8.42044 7.91929 8.35226 8.01473 8.26675 8.09318C8.18124 8.17163 8.08029 8.23136 7.97036 8.26853C7.86043 8.30571 7.74395 8.31952 7.62838 8.30907C6.34623 8.16976 5.11463 7.73163 4.03255 7.02991C3.02581 6.39018 2.17227 5.53664 1.53255 4.52991C0.828373 3.44291 0.39015 2.20532 0.253382 0.917407C0.24297 0.802185 0.256663 0.686057 0.29359 0.576417C0.330518 0.466777 0.38987 0.366027 0.467868 0.280582C0.545866 0.195137 0.640801 0.126869 0.746628 0.0801244C0.852456 0.0333797 0.966857 0.00918255 1.08255 0.0090736H2.33255C2.53476 0.00708341 2.7308 0.0786897 2.88412 0.210546C3.03744 0.342401 3.13758 0.52551 3.16588 0.72574C3.21864 1.12577 3.31649 1.51854 3.45755 1.89657C3.51361 2.04571 3.52574 2.20779 3.49251 2.36361C3.45928 2.51943 3.38207 2.66245 3.27005 2.77574L2.74088 3.30491C3.33403 4.34805 4.19774 5.21176 5.24088 5.80491L5.77005 5.27574C5.88334 5.16371 6.02636 5.08651 6.18218 5.05328C6.338 5.02005 6.50008 5.03218 6.64921 5.08824C7.02725 5.2293 7.42002 5.32715 7.82005 5.37991C8.02245 5.40846 8.2073 5.51041 8.33944 5.66636C8.47158 5.82232 8.54179 6.0214 8.53672 6.22574Z" fill="#E62735"/>
</svg>
