<svg width="20" height="21" viewBox="0 0 20 21" fill="none" xmlns="http://www.w3.org/2000/svg">
<g clip-path="url(#clip0)">
<path d="M20 4.78313C19.2563 5.10938 18.4637 5.32562 17.6375 5.43062C18.4875 4.92313 19.1363 4.12562 19.4412 3.16437C18.6488 3.63687 17.7738 3.97063 16.8412 4.15688C16.0887 3.35563 15.0162 2.85938 13.8462 2.85938C11.5763 2.85938 9.74875 4.70188 9.74875 6.96063C9.74875 7.28562 9.77625 7.59812 9.84375 7.89562C6.435 7.72937 3.41875 6.09563 1.3925 3.60688C1.03875 4.22063 0.83125 4.92313 0.83125 5.67938C0.83125 7.09938 1.5625 8.35812 2.6525 9.08687C1.99375 9.07437 1.3475 8.88313 0.8 8.58187C0.8 8.59438 0.8 8.61062 0.8 8.62687C0.8 10.6194 2.22125 12.2744 4.085 12.6556C3.75125 12.7469 3.3875 12.7906 3.01 12.7906C2.7475 12.7906 2.4825 12.7756 2.23375 12.7206C2.765 14.3444 4.2725 15.5381 6.065 15.5769C4.67 16.6681 2.89875 17.3256 0.98125 17.3256C0.645 17.3256 0.3225 17.3106 0 17.2694C1.81625 18.4406 3.96875 19.1094 6.29 19.1094C13.835 19.1094 17.96 12.8594 17.96 7.44187C17.96 7.26062 17.9538 7.08563 17.945 6.91188C18.7588 6.33438 19.4425 5.61313 20 4.78313Z" fill="white"/>
</g>
<defs>
<clipPath id="clip0">
<rect width="20" height="20" fill="white" transform="translate(0 0.984375)"/>
</clipPath>
</defs>
</svg>
