<svg width="41" height="41" fill="none" xmlns="http://www.w3.org/2000/svg"><path d="M20.113 30.623c5.523 0 10-4.478 10-10 0-5.523-4.477-10-10-10s-10 4.477-10 10c0 5.522 4.477 10 10 10zm0-20v20m0-13.572L26.7 13.1m-6.587 8.95l9.142-5.484m-9.142 10.485l10-6" stroke="#79BBC0" stroke-width="2" stroke-miterlimit="10" stroke-linejoin="round"/><path d="M20.113 1.532v5.454m-13.499.138l3.857 3.857m-9.449 9.642h5.455m.137 13.498l3.857-3.856m9.642 9.449v-5.455m13.499-.138l-3.857-3.856m9.449-9.642h-5.455m-.137-13.499l-3.857 3.857" stroke="#79BBC0" stroke-width="2" stroke-miterlimit="10" stroke-linecap="round" stroke-linejoin="round"/></svg>