<svg width="41" height="41" fill="none" xmlns="http://www.w3.org/2000/svg"><g clip-path="url(#clip0)" stroke="#79BBC0" stroke-width="2" stroke-miterlimit="10" stroke-linejoin="round"><path d="M30.31 22.177l-6.066 6.026c-3.022 3.004-7.922 3.004-10.945 0a7.657 7.657 0 010-10.876l6.065-6.027-6.255-6.215-6.065 6.026c-6.476 6.436-6.476 16.872 0 23.308 6.477 6.436 16.979 6.436 23.455 0l6.065-6.027-6.255-6.215z"/><path d="M36.564 28.392l4.043-4.018-6.254-6.214-4.044 4.017M19.364 11.3l4.044-4.018-6.255-6.214-4.044 4.017"/></g><defs><clipPath id="clip0"><path fill="#fff" transform="translate(.607 .532)" d="M0 0h40v40H0z"/></clipPath></defs></svg>