<svg width="41" height="41" fill="none" xmlns="http://www.w3.org/2000/svg"><g clip-path="url(#clip0)" stroke="#79BBC0" stroke-width="2" stroke-miterlimit="10"><path d="M21.966 33.276l-3.405 3.405 3.405 3.404"/><path d="M37.48 13.813c1.516 5.157.622 11.285-3.157 16.068a17.889 17.889 0 01-14.06 6.8h-1.667M31.94 10.298l4.656 1.242 1.242-4.646M16.009 36.213C8.17 34.315 2.392 27.234 2.392 18.808c0-3.03.774-6.102 2.4-8.91l.85-1.472"/><path d="M7.32 6.442C10.433 3.166 15.131.928 20.263.936c6.17.017 12.17 3.226 15.48 8.953l.852 1.473m-29.71 1.88l-1.25-4.646L.986 9.838m32.929 8.97s-6.094 6.809-13.617 6.809c-7.524 0-13.617-6.809-13.617-6.809S12.774 12 20.298 12c7.523 0 13.617 6.808 13.617 6.808z"/><path d="M20.298 23.064a4.255 4.255 0 100-8.511 4.255 4.255 0 000 8.51z"/></g><defs><clipPath id="clip0"><path fill="#fff" transform="translate(.766 .085)" d="M0 0h40v40H0z"/></clipPath></defs></svg>