<svg width="41" height="41" fill="none" xmlns="http://www.w3.org/2000/svg"><g clip-path="url(#clip0)" stroke="#79BBC0" stroke-width="2" stroke-miterlimit="10"><path d="M13.793 33.954c.317-.317.65-.833 1.667-.833h11.666c.925 0 6.017-5.109 6.667-5.834.625-.7 3.4-4.866 4.167-6.666-.484-.65-1.792-1.192-3.334-.834-1.475.342-2.341 1.4-3.333 3.334l-3.817 1.983" stroke-linejoin="round"/><path d="M18.793 28.12h6.666c3.334 0 3.334-4.166 0-4.166h-4.4c-.691 0-2-1.667-3.1-1.667h-4.166c-1.125 0-2.525.917-3.334 1.667l-3.333 3.333M5.454 25.62l-4.166 4.167 10 10 4.165-4.167-10-10zm.006 4.167l1.666 1.667" stroke-linejoin="round"/><path d="M32.126 21.454l-1.666-1.667h-2.5l-2.5-1.666h-1.667l-1.667-.834-1.667 1.667h-2.5l-2.5 1.667v1.666m1.709-12.033c2.191 1.275 2.458 4.533 2.458 4.533s-3.125 1.242-5.317-.033c-2.191-1.275-4.683-5.8-4.683-5.8s5.35.025 7.542 1.3zm6.275 4.216c-2.033-2.091-1.775-5.758-.6-7.216 3.15-3.9 7.458-2.758 10.883-4.967 1.792 3.084.825 8.084-2.116 11.159-1.984 2.066-4.675 1.791-6.034 1.475m-3.45 3.199c.692-6.25 5.533-8.6 8.758-11.366"/></g><defs><clipPath id="clip0"><path fill="#fff" transform="translate(.658 .821)" d="M0 0h40v40H0z"/></clipPath></defs></svg>