<svg width="41" height="41" fill="none" xmlns="http://www.w3.org/2000/svg"><g clip-path="url(#clip0)" stroke="#79BBC0" stroke-width="2" stroke-miterlimit="10"><path d="M8.526 1.73H1.253v7.273h7.273V1.73zm0 30.91H1.253v7.272h7.273V32.64zM39.435 1.73h-7.273v7.273h7.273V1.73zm0 30.91h-7.273v7.272h7.273V32.64zM8.525 5.367h4.546m1.819 0h4.545m1.818 0h4.545m1.818 0h4.546M8.525 36.276h4.546m1.819 0h4.545m1.818 0h4.545m1.818 0h4.546M4.89 9.003v4.546m0 1.818v4.545m0 1.818v4.546m0 1.818v4.545M35.799 9.003v4.546m0 1.818v4.545m0 1.818v4.546m0 1.818v4.545"/></g><defs><clipPath id="clip0"><path fill="#fff" transform="translate(.344 .821)" d="M0 0h40v40H0z"/></clipPath></defs></svg>