<svg width="41" height="41" viewBox="0 0 41 41" fill="none" xmlns="http://www.w3.org/2000/svg">
<path d="M20.1128 30.6226C25.6356 30.6226 30.1128 26.1454 30.1128 20.6226C30.1128 15.0997 25.6356 10.6226 20.1128 10.6226C14.5899 10.6226 10.1128 15.0997 10.1128 20.6226C10.1128 26.1454 14.5899 30.6226 20.1128 30.6226Z" stroke="#79BBC0" stroke-width="2" stroke-miterlimit="10" stroke-linejoin="round"/>
<path d="M20.1128 10.6226V30.6226" stroke="#79BBC0" stroke-width="2" stroke-miterlimit="10" stroke-linejoin="round"/>
<path d="M20.1128 17.0511L26.7003 13.0989" stroke="#79BBC0" stroke-width="2" stroke-miterlimit="10" stroke-linejoin="round"/>
<path d="M20.1128 22.0509L29.2548 16.5657" stroke="#79BBC0" stroke-width="2" stroke-miterlimit="10" stroke-linejoin="round"/>
<path d="M20.1128 27.051L30.1128 21.051" stroke="#79BBC0" stroke-width="2" stroke-miterlimit="10" stroke-linejoin="round"/>
<path d="M20.1128 1.53174V6.98628" stroke="#79BBC0" stroke-width="2" stroke-miterlimit="10" stroke-linecap="round" stroke-linejoin="round"/>
<path d="M6.61426 7.12378L10.4711 10.9806" stroke="#79BBC0" stroke-width="2" stroke-miterlimit="10" stroke-linecap="round" stroke-linejoin="round"/>
<path d="M1.02197 20.6226H6.47652" stroke="#79BBC0" stroke-width="2" stroke-miterlimit="10" stroke-linecap="round" stroke-linejoin="round"/>
<path d="M6.61426 34.1215L10.4711 30.2646" stroke="#79BBC0" stroke-width="2" stroke-miterlimit="10" stroke-linecap="round" stroke-linejoin="round"/>
<path d="M20.1128 39.7136V34.259" stroke="#79BBC0" stroke-width="2" stroke-miterlimit="10" stroke-linecap="round" stroke-linejoin="round"/>
<path d="M33.6117 34.1215L29.7549 30.2646" stroke="#79BBC0" stroke-width="2" stroke-miterlimit="10" stroke-linecap="round" stroke-linejoin="round"/>
<path d="M39.2036 20.6226H33.749" stroke="#79BBC0" stroke-width="2" stroke-miterlimit="10" stroke-linecap="round" stroke-linejoin="round"/>
<path d="M33.6117 7.12378L29.7549 10.9806" stroke="#79BBC0" stroke-width="2" stroke-miterlimit="10" stroke-linecap="round" stroke-linejoin="round"/>
</svg>
