<svg width="41" height="41" viewBox="0 0 41 41" fill="none" xmlns="http://www.w3.org/2000/svg">
<g clip-path="url(#clip0)">
<path d="M21.9658 33.2764L18.5615 36.6806L21.9658 40.0849" stroke="#79BBC0" stroke-width="2" stroke-miterlimit="10"/>
<path d="M37.4808 13.8127C38.9957 18.9702 38.1021 25.0978 34.3234 29.8808C31.0468 34.0255 25.9574 36.6808 20.2638 36.6808H18.5957" stroke="#79BBC0" stroke-width="2" stroke-miterlimit="10"/>
<path d="M31.9404 10.2978L36.5957 11.5404L37.8383 6.89355" stroke="#79BBC0" stroke-width="2" stroke-miterlimit="10"/>
<path d="M16.0086 36.2128C8.17033 34.3149 2.3916 27.234 2.3916 18.8085C2.3916 15.7787 3.16607 12.7064 4.7916 9.89788L5.64267 8.42554" stroke="#79BBC0" stroke-width="2" stroke-miterlimit="10"/>
<path d="M7.31934 6.44244C10.4342 3.16585 15.1321 0.927549 20.264 0.936059C26.4342 0.953081 32.4342 4.16159 35.7449 9.88925L36.5959 11.3616" stroke="#79BBC0" stroke-width="2" stroke-miterlimit="10"/>
<path d="M6.88518 13.2425L5.63411 8.5957L0.987305 9.83826" stroke="#79BBC0" stroke-width="2" stroke-miterlimit="10"/>
<path d="M33.9147 18.8085C33.9147 18.8085 27.8211 25.617 20.2977 25.617C12.7743 25.617 6.68066 18.8085 6.68066 18.8085C6.68066 18.8085 12.7743 12 20.2977 12C27.8211 12 33.9147 18.8085 33.9147 18.8085Z" stroke="#79BBC0" stroke-width="2" stroke-miterlimit="10"/>
<path d="M20.2983 23.0636C22.6484 23.0636 24.5536 21.1584 24.5536 18.8083C24.5536 16.4581 22.6484 14.553 20.2983 14.553C17.9481 14.553 16.043 16.4581 16.043 18.8083C16.043 21.1584 17.9481 23.0636 20.2983 23.0636Z" stroke="#79BBC0" stroke-width="2" stroke-miterlimit="10"/>
</g>
<defs>
<clipPath id="clip0">
<rect width="40" height="40" fill="white" transform="translate(0.765625 0.0849609)"/>
</clipPath>
</defs>
</svg>
