<svg width="41" height="41" viewBox="0 0 41 41" fill="none" xmlns="http://www.w3.org/2000/svg">
<g clip-path="url(#clip0)">
<path d="M8.21582 26.1954C8.21582 26.1954 9.04135 25.3699 9.48391 24.9273C9.92646 24.4847 10.0201 23.8124 9.61157 22.0081C9.19454 20.2039 9.86688 17.8975 10.8797 16.8847L12.5818 15.1826" stroke="#79BBC0" stroke-width="2" stroke-miterlimit="10"/>
<path d="M30.4451 22.8423C28.9217 24.3657 22.7856 30.5019 22.7856 30.5019C20.2324 33.0551 18.5302 31.3529 16.8281 33.0551C16.1898 33.6934 15.9771 33.9061 15.9771 33.9061" stroke="#79BBC0" stroke-width="2" stroke-miterlimit="10"/>
<path d="M6.61796 24.5395L1.50879 29.6487L11.7211 39.861L16.8303 34.7518L6.61796 24.5395Z" stroke="#79BBC0" stroke-width="2" stroke-miterlimit="10"/>
<path d="M5.76465 28.7998L7.46678 30.5019" stroke="#79BBC0" stroke-width="2" stroke-miterlimit="10"/>
<path d="M23.6367 13.4805L21.9346 15.1826" stroke="#79BBC0" stroke-width="2" stroke-miterlimit="10"/>
<path d="M26.1899 16.0337L24.4878 17.7358" stroke="#79BBC0" stroke-width="2" stroke-miterlimit="10"/>
<path d="M28.7431 18.5869L27.041 20.289" stroke="#79BBC0" stroke-width="2" stroke-miterlimit="10"/>
<path d="M14.2753 16.8848L6.61568 9.22525L3.21143 1.56567L10.871 4.96993L18.5306 12.6295" stroke="#79BBC0" stroke-width="2" stroke-miterlimit="10" stroke-linejoin="round"/>
<path d="M10.871 4.96997L6.61572 9.22529" stroke="#79BBC0" stroke-width="2" stroke-miterlimit="10" stroke-linejoin="round"/>
<path d="M29.5942 23.6934L37.7559 31.8551C38.4197 32.5189 38.4197 33.5997 37.7559 34.2636L35.9091 36.1104C35.2453 36.7742 34.1644 36.7742 33.5006 36.1104L25.3389 27.9487" stroke="#79BBC0" stroke-width="2" stroke-miterlimit="10" stroke-linejoin="round"/>
<path d="M35.5517 29.6509L31.2964 33.9062" stroke="#79BBC0" stroke-width="2" stroke-miterlimit="10" stroke-linejoin="round"/>
<path d="M30.4456 22.8423C31.8243 21.4636 30.7264 19.0295 28.7435 18.587C29.152 17.6593 27.935 15.7699 26.1903 16.0338C26.6158 14.7572 24.9903 13.2678 23.6371 13.4806C23.6371 11.5487 21.0839 10.0763 19.3818 11.7785L13.4243 17.7359" stroke="#79BBC0" stroke-width="2" stroke-miterlimit="10"/>
</g>
<defs>
<clipPath id="clip0">
<rect width="40" height="40" fill="white" transform="translate(0.134766 0.821289)"/>
</clipPath>
</defs>
</svg>
