<svg width="41" height="41" viewBox="0 0 41 41" fill="none" xmlns="http://www.w3.org/2000/svg">
<g clip-path="url(#clip0)">
<path d="M13.793 33.954C14.1096 33.6373 14.443 33.1207 15.4596 33.1207C16.4763 33.1207 26.1096 33.1207 27.1263 33.1207C28.0513 33.1207 33.143 28.0123 33.793 27.2873C34.418 26.5873 37.193 22.4207 37.9596 20.6207C37.4763 19.9707 36.168 19.429 34.6263 19.7873C33.1513 20.129 32.2846 21.1873 31.293 23.1207L27.4763 25.104" stroke="#79BBC0" stroke-width="2" stroke-miterlimit="10" stroke-linejoin="round"/>
<path d="M18.7926 28.1207C18.7926 28.1207 24.626 28.1207 25.4593 28.1207C28.7926 28.1207 28.7926 23.954 25.4593 23.954C24.626 23.954 23.376 23.954 21.0593 23.954C20.3676 23.954 19.0593 22.2874 17.9593 22.2874C17.4676 22.2874 14.9176 22.2874 13.7926 22.2874C12.6676 22.2874 11.2676 23.204 10.4593 23.954C9.20931 25.204 7.12598 27.2874 7.12598 27.2874" stroke="#79BBC0" stroke-width="2" stroke-miterlimit="10" stroke-linejoin="round"/>
<path d="M5.45359 25.6209L1.2876 29.7869L11.2872 39.7864L15.4532 35.6204L5.45359 25.6209Z" stroke="#79BBC0" stroke-width="2" stroke-miterlimit="10" stroke-linejoin="round"/>
<path d="M5.45947 29.7874L7.12614 31.454" stroke="#79BBC0" stroke-width="2" stroke-miterlimit="10" stroke-linejoin="round"/>
<path d="M32.1261 21.454L30.4595 19.7874H27.9595L25.4595 18.1207H23.7928L22.1261 17.2874L20.4595 18.954H17.9595L15.4595 20.6207V22.2874" stroke="#79BBC0" stroke-width="2" stroke-miterlimit="10"/>
<path d="M17.1676 10.2541C19.3593 11.5291 19.626 14.7874 19.626 14.7874C19.626 14.7874 16.501 16.0291 14.3093 14.7541C12.1176 13.4791 9.62598 8.9541 9.62598 8.9541C9.62598 8.9541 14.976 8.9791 17.1676 10.2541Z" stroke="#79BBC0" stroke-width="2" stroke-miterlimit="10"/>
<path d="M23.4431 14.4707C21.4098 12.379 21.6681 8.71235 22.8431 7.25402C25.9931 3.35402 30.3014 4.49569 33.7264 2.28735C35.5181 5.37069 34.5514 10.3707 31.6098 13.4457C29.6264 15.5124 26.9348 15.2374 25.5764 14.9207" stroke="#79BBC0" stroke-width="2" stroke-miterlimit="10"/>
<path d="M22.126 18.1206C22.8176 11.8706 27.6593 9.52057 30.8843 6.75391" stroke="#79BBC0" stroke-width="2" stroke-miterlimit="10"/>
</g>
<defs>
<clipPath id="clip0">
<rect width="40" height="40" fill="white" transform="translate(0.658203 0.821289)"/>
</clipPath>
</defs>
</svg>
