<svg width="41" height="41" viewBox="0 0 41 41" fill="none" xmlns="http://www.w3.org/2000/svg">
<g clip-path="url(#clip0)">
<path d="M8.52566 1.73047H1.25293V9.0032H8.52566V1.73047Z" stroke="#79BBC0" stroke-width="2" stroke-miterlimit="10"/>
<path d="M8.52566 32.6396H1.25293V39.9124H8.52566V32.6396Z" stroke="#79BBC0" stroke-width="2" stroke-miterlimit="10"/>
<path d="M39.4348 1.73047H32.1621V9.0032H39.4348V1.73047Z" stroke="#79BBC0" stroke-width="2" stroke-miterlimit="10"/>
<path d="M39.4348 32.6396H32.1621V39.9124H39.4348V32.6396Z" stroke="#79BBC0" stroke-width="2" stroke-miterlimit="10"/>
<path d="M8.52539 5.36694H13.0708" stroke="#79BBC0" stroke-width="2" stroke-miterlimit="10"/>
<path d="M14.8896 5.36694H19.4351" stroke="#79BBC0" stroke-width="2" stroke-miterlimit="10"/>
<path d="M21.2529 5.36694H25.7984" stroke="#79BBC0" stroke-width="2" stroke-miterlimit="10"/>
<path d="M27.6162 5.36694H32.1617" stroke="#79BBC0" stroke-width="2" stroke-miterlimit="10"/>
<path d="M8.52539 36.2759H13.0708" stroke="#79BBC0" stroke-width="2" stroke-miterlimit="10"/>
<path d="M14.8896 36.2759H19.4351" stroke="#79BBC0" stroke-width="2" stroke-miterlimit="10"/>
<path d="M21.2529 36.2759H25.7984" stroke="#79BBC0" stroke-width="2" stroke-miterlimit="10"/>
<path d="M27.6162 36.2759H32.1617" stroke="#79BBC0" stroke-width="2" stroke-miterlimit="10"/>
<path d="M4.88965 9.00317V13.5486" stroke="#79BBC0" stroke-width="2" stroke-miterlimit="10"/>
<path d="M4.88965 15.3669V19.9124" stroke="#79BBC0" stroke-width="2" stroke-miterlimit="10"/>
<path d="M4.88965 21.7305V26.2759" stroke="#79BBC0" stroke-width="2" stroke-miterlimit="10"/>
<path d="M4.88965 28.094V32.6394" stroke="#79BBC0" stroke-width="2" stroke-miterlimit="10"/>
<path d="M35.7988 9.00317V13.5486" stroke="#79BBC0" stroke-width="2" stroke-miterlimit="10"/>
<path d="M35.7988 15.3669V19.9124" stroke="#79BBC0" stroke-width="2" stroke-miterlimit="10"/>
<path d="M35.7988 21.7305V26.2759" stroke="#79BBC0" stroke-width="2" stroke-miterlimit="10"/>
<path d="M35.7988 28.094V32.6394" stroke="#79BBC0" stroke-width="2" stroke-miterlimit="10"/>
</g>
<defs>
<clipPath id="clip0">
<rect width="40" height="40" fill="white" transform="translate(0.34375 0.821289)"/>
</clipPath>
</defs>
</svg>
