<svg width="1175" height="334" viewBox="0 0 1175 334" fill="none" xmlns="http://www.w3.org/2000/svg">
    <g clip-path="url(#clip0)">
        <path d="M142.421 120.01C143.03 119.265 143.422 118.463 144.27 118.001C144.834 119.342 145.888 120.309 146.894 121.291C147.576 121.953 148.338 122.451 149.328 122.719C151.444 123.304 152.226 125.848 151.1 127.724C150.358 128.963 149.519 130.011 148.221 130.703C147.695 130.99 147.311 131.096 146.681 130.841C145.221 130.235 143.726 129.727 142.292 129.066C141.254 128.591 140.062 128.794 138.937 128.663C137.806 128.54 137.478 128.156 137.944 127.149C138.756 125.368 139.563 123.559 140.905 122.085C141.281 121.665 141.858 121.255 141.111 120.633C140.904 120.459 140.995 120.143 141.073 119.915C141.472 118.811 141.097 117.962 140.32 117.158C138.718 115.514 138.22 113.432 137.731 111.234C137.048 108.157 135.683 105.292 132.845 103.5C131.55 102.68 130.139 102.159 128.607 101.858C125.498 101.25 123.133 102.382 121.184 104.701C120.703 105.267 120.249 105.864 119.728 106.401C117.533 108.702 116.486 111.632 116.121 114.608C115.65 118.469 117.815 121.317 120.851 123.535C122.593 124.812 124.46 125.796 126.625 125.936C127.552 125.999 128.526 125.775 129.431 125.526C131.659 124.911 133.894 124.473 136.219 124.665C136.654 124.695 136.951 124.847 137.102 125.288C137.274 125.768 137.059 126.119 136.753 126.441C136.405 126.806 136.141 126.555 135.77 126.387C134.405 125.751 132.959 125.98 131.584 126.335C129.644 126.824 127.71 127.27 125.718 126.873C123.303 126.394 121.27 125.179 119.416 123.527C117.99 122.256 116.757 120.939 116.032 119.137C114.984 116.55 114.522 113.989 115.869 111.361C116.509 110.109 116.45 108.564 117.437 107.464C119.133 105.567 120.454 103.351 122.656 101.88C124.981 100.324 127.352 100.452 129.873 101.056C134.689 102.202 136.968 105.748 138.492 110.02C138.798 110.88 138.811 111.838 139.077 112.719C139.435 113.899 139.882 115.009 140.961 115.821C142.024 116.621 142.512 117.809 142.308 119.19C142.28 119.366 142.273 119.547 142.273 119.719C142.304 119.778 142.352 119.849 142.421 120.01ZM148.139 129.155C149.247 128.436 149.438 127.108 150.531 126.563C150.782 126.436 150.662 126.14 150.643 125.893C150.572 124.758 149.649 124.329 148.89 123.808C147.435 122.8 146.019 121.721 144.826 120.433C144.174 119.73 143.863 119.802 143.368 120.456C143.004 120.946 142.402 121.338 143.237 121.975C143.581 122.234 143.32 122.7 143.232 123.08C142.892 124.547 142.69 126.027 142.703 127.552C142.711 128.432 143.333 128.337 143.745 128.398C144.375 128.482 144.132 127.876 144.126 127.576C144.076 125.915 144.209 124.274 144.573 122.652C144.646 122.311 144.627 121.927 145.018 121.777C145.268 121.686 145.446 121.9 145.518 122.075C145.677 122.436 146.14 122.854 145.813 123.223C144.915 124.216 145.114 125.43 145.083 126.553C145.011 129.001 145.097 129.001 146.873 129.649C147.021 129.546 146.962 129.405 146.961 129.269C147.005 127.786 147.04 126.297 147.12 124.815C147.146 124.316 147.402 123.909 147.997 123.955C148.52 123.998 148.599 124.522 148.47 124.787C147.8 126.165 148.224 127.615 148.139 129.155ZM142.385 121.585C141.345 123.152 140.411 124.452 139.705 125.914C139.085 127.205 139.13 127.349 140.607 127.572C141.195 127.662 141.848 127.713 141.771 126.98C141.577 125.228 142.16 123.578 142.385 121.585Z"
              fill="#000022"/>
        <path d="M132.247 112.096C131.811 113.199 130.912 113.354 130.034 113.24C129.33 113.14 129.092 113.179 129.201 113.971C129.317 114.855 129.026 115.533 127.95 115.437C127.811 116.162 128.673 116.658 128.318 117.376C128.001 118.022 127.406 118.284 126.757 118.606C129.228 119.039 131.702 119.487 134.18 119.876C135.027 120.017 135.835 120.264 136.642 120.512C137.117 120.656 137.228 120.982 137.118 121.408C137.002 121.879 136.592 121.781 136.337 121.672C133.402 120.462 130.212 120.497 127.182 119.761C126.571 119.618 125.929 119.587 125.308 119.474C124.812 119.376 124.14 119.385 124.254 118.593C124.341 117.941 124.905 117.669 125.429 117.455C125.778 117.311 126.182 117.281 126.569 117.239C127.421 117.15 127.47 116.705 127.129 116.066C127.002 115.814 126.886 115.546 126.733 115.314C126.498 114.972 126.323 114.6 126.519 114.224C126.748 113.785 127.131 114.109 127.454 114.157C128.216 114.261 128.227 113.715 128.187 113.205C128.063 111.75 128.049 111.752 129.467 111.921C131.031 112.109 131.333 111.809 131.162 110.282C131.129 110.037 131.065 109.782 131.098 109.547C131.126 109.32 131.148 109.016 131.442 108.932C131.744 108.854 131.866 109.113 132.026 109.302C132.858 110.269 133.015 111.626 133.952 112.533C135.571 114.103 136.944 115.927 138.894 117.155C139.246 117.384 139.378 117.749 139.386 118.149C139.392 118.449 139.562 118.83 139.2 119.025C138.784 119.244 138.481 118.878 138.312 118.633C137.895 118.014 137.365 117.535 136.85 117.017C135.287 115.475 133.652 113.98 132.247 112.096Z"
              fill="#000022"/>
        <path d="M141.739 108.979C142.042 108.557 145.367 107.461 145.728 107.609C145.958 107.701 145.986 107.918 146.021 108.128C146.089 108.46 145.964 108.703 145.669 108.823C144.631 109.222 143.593 109.622 142.544 110.001C142.212 110.12 141.86 110.027 141.724 109.72C141.629 109.492 141.735 109.173 141.739 108.979Z"
              fill="#000022"/>
        <path d="M142.552 98.5425C142.997 98.8995 142.966 99.7143 142.476 99.9164C141.361 100.371 140.295 100.861 139.607 101.955C139.351 102.363 139.021 102.051 138.899 101.742C138.663 101.179 138.92 100.735 139.334 100.331C140.122 99.5424 141.362 99.411 142.007 98.4096C142.133 98.217 142.364 98.5304 142.552 98.5425Z"
              fill="#000022"/>
        <path d="M122.685 98.2927C122.363 98.6893 122.098 98.4247 121.952 98.1476C121.303 96.8566 121.015 95.4922 121.122 94.0417C121.146 93.6652 121.287 93.2982 121.756 93.3646C122.22 93.4392 122.661 93.9042 122.456 94.2245C121.728 95.3396 122.671 96.2385 122.691 97.2383C122.679 97.5987 122.856 97.9351 122.685 98.2927Z"
              fill="#000022"/>
        <path d="M108.094 120.81C108.523 120.761 108.742 120.216 109.075 120.37C109.933 120.752 110.457 120.229 111.089 119.846C111.395 119.66 111.828 119.195 112.148 119.795C112.385 120.236 112.269 120.62 111.708 120.87C110.772 121.281 109.855 121.718 108.851 121.932C108.469 122.002 108.252 121.859 108.149 121.625C108.046 121.391 108.112 121.093 108.094 120.81Z"
              fill="#000022"/>
        <path d="M121.676 132.773C121.315 133.154 121.059 133.117 120.818 132.698C120.4 131.942 120.771 131.187 120.88 130.452C120.966 129.836 121.264 129.25 121.25 128.6C121.24 128.273 121.389 128.047 121.737 128.026C122.101 128.017 122.208 128.279 122.236 128.582C122.261 128.822 122.347 129.13 122.241 129.312C121.677 130.286 121.787 131.35 121.7 132.396C121.695 132.54 121.682 132.678 121.676 132.773Z"
              fill="#000022"/>
        <path d="M131.804 93.7753C132.213 93.2929 132.439 92.6181 132.832 92.9622C133.166 93.2514 133.604 93.9106 132.936 94.5144C132.36 95.0242 132.088 95.7279 131.968 96.4786C131.913 96.8458 131.849 97.2431 131.317 97.058C130.862 96.9033 130.656 96.3854 130.848 96.1174C131.4 95.3319 131.232 94.2631 131.804 93.7753Z"
              fill="#000022"/>
        <path d="M110.361 111.725C110.576 111.991 110.769 112.203 110.922 112.436C111.045 112.624 111.048 112.86 110.882 113.023C110.74 113.168 110.574 113.073 110.409 112.979C109.575 112.528 108.673 112.446 107.741 112.527C107.192 112.588 106.658 112.525 106.682 111.841C106.702 111.214 107.194 111.248 107.695 111.288C108.609 111.353 109.517 111.427 110.361 111.725Z"
              fill="#000022"/>
        <path d="M113.602 128.019C113.461 127.547 113.076 127.123 113.547 126.673C114.155 126.101 114.804 125.558 115.445 125.008C115.666 124.822 115.884 124.449 116.207 124.805C116.41 125.037 116.568 125.433 116.315 125.683C115.57 126.428 114.788 127.122 114.146 127.966C114.081 128.055 113.822 128.004 113.602 128.019Z"
              fill="#000022"/>
        <path d="M111.843 102.619C112.197 103.378 113.066 103.831 113.641 104.539C113.946 104.919 114.276 105.488 113.801 105.824C113.371 106.131 113.08 105.577 112.859 105.233C112.449 104.569 111.775 104.171 111.255 103.626C110.945 103.304 110.878 102.985 111.226 102.656C111.381 102.509 111.501 102.152 111.843 102.619Z"
              fill="#000022"/>
    </g>
    <g clip-path="url(#clip1)">
        <path d="M1126.79 21.8106C1126.23 23.0522 1126.17 24.2689 1125.8 25.4067C1125.04 27.8299 1124.5 30.3057 1124.05 32.8034C1123.98 33.2152 1123.92 33.6225 1124.11 33.939C1124.51 34.6168 1123.89 34.8793 1123.59 35.0194C1121.91 35.8417 1119.84 34.4745 1119.78 32.601C1119.71 30.638 1120.07 28.7445 1120.54 26.8549C1120.6 26.6176 1120.73 26.3933 1120.53 26.0365C1119.35 27.2946 1118.31 28.6101 1117.44 30.0097C1116.85 30.9563 1116.02 31.5597 1115.19 32.1989C1114.79 32.5139 1112.81 31.7813 1112.66 31.317C1112.59 31.1027 1112.75 30.9945 1112.83 30.8465C1114.69 27.5905 1116.56 24.3344 1118.4 21.0696C1118.79 20.361 1119.51 19.9907 1119.95 19.3266C1121.07 17.6485 1121.44 15.6923 1122.06 13.7975C1121.08 14.3211 1120.62 15.2716 1120.1 16.1417C1119.51 17.124 1118.93 18.0884 1117.99 18.7684C1117.54 19.0837 1117.07 19.3991 1116.52 19.1022C1115.95 18.8143 1115.92 18.2823 1115.99 17.714C1116.24 15.6107 1117.08 13.7596 1118.43 12.0848C1119.74 10.4772 1120.87 8.74984 1122.96 8.01946C1123.77 7.73818 1124.55 7.3989 1125.41 7.45723C1126.26 7.5201 1126.47 7.13443 1126.51 6.34717C1126.55 5.17524 1127.08 4.24241 1128.25 3.81623C1129.42 3.39005 1130.58 3.24115 1131.67 4.08099C1132.51 4.72977 1132.71 5.45327 1132.19 6.3995C1131.72 7.26945 1131.17 8.09059 1130.24 8.56028C1132.55 10.047 1132.54 12.2832 1132.32 14.583C1132.24 15.5002 1132.05 16.4134 1131.97 17.3217C1131.75 19.7333 1130.74 21.6658 1128.83 23.1958C1128.3 23.6144 1127.74 23.4606 1127.22 23.6734C1126.87 23.8137 1126.78 23.3223 1126.83 22.9911C1126.88 22.6375 1127.02 22.3059 1126.79 21.8106ZM1128.42 22.2274C1129.65 20.8617 1130.61 19.5958 1130.72 17.8198C1130.79 16.5494 1130.91 15.2831 1131.18 14.043C1131.47 12.6999 1130.7 10.4944 1129.56 9.76221C1128.58 9.14542 1127.42 9.18694 1126.39 8.82087C1124.16 8.03141 1122.53 9.02336 1121.09 10.5108C1119.32 12.3666 1117.86 14.4221 1117.31 16.9963C1117.26 17.2604 1117.03 17.6149 1117.31 17.7566C1117.58 17.8894 1117.85 17.6645 1118.1 17.386C1118.65 16.7661 1118.89 15.9822 1119.35 15.3181C1120.3 13.9225 1121.15 12.4335 1123.29 12.8791C1123.91 13.0057 1124.07 13.3537 1123.87 13.6991C1122.88 15.3632 1122.51 17.3462 1121.41 18.9214C1119.48 21.668 1117.72 24.5165 1115.86 27.3119C1115.38 28.0432 1114.83 28.766 1114.66 29.6747C1114.58 30.1134 1114.56 30.5696 1115.03 30.7909C1115.45 30.9767 1115.64 30.5688 1115.87 30.3037C1117.95 28.0171 1119.72 25.5039 1121.44 22.9373C1121.77 22.4437 1121.75 21.2408 1122.73 21.5803C1123.64 21.8933 1122.75 22.7742 1122.95 23.3725C1122.97 23.4619 1122.97 23.596 1122.92 23.6723C1121.76 25.1628 1121.72 27.0369 1121.23 28.7343C1120.87 29.9615 1120.78 31.3125 1121.14 32.6166C1121.29 33.1346 1121.55 33.7326 1122.16 33.6759C1122.55 33.6471 1122.99 33.2872 1123.04 32.7503C1123.2 30.7102 1123.65 28.7267 1124.21 26.7607C1124.65 25.2156 1125.09 23.6705 1125.44 22.1035C1125.92 19.9545 1126.94 17.9817 1127.46 15.8414C1127.68 14.9235 1128.24 14.5763 1129.1 14.8315C1129.48 14.9414 1129.72 15.1862 1129.37 15.501C1128.81 15.9957 1128.69 16.685 1128.51 17.2986C1128.07 18.8526 1127.84 20.4458 1128.42 22.2274ZM1130.78 4.78756C1129.67 4.2072 1128.1 4.54593 1127.69 5.33508C1127.42 5.8507 1128.04 7.395 1128.65 7.72742C1129.35 8.10853 1130.64 7.38657 1131.22 6.26567C1131.58 5.55279 1131.34 5.04415 1130.78 4.78756Z"
              fill="#000022"/>
        <path d="M1139.56 30.6247C1137.72 30.8574 1137.67 30.6967 1137.95 29.0495C1138.17 27.7336 1138.97 26.7681 1139.54 25.6562C1140.61 23.5624 1142.14 21.8062 1143.7 20.0811C1144.41 19.2949 1145.24 18.9197 1146.25 19.1517C1146.71 19.2567 1146.77 19.1536 1146.8 18.733C1146.89 17.4848 1147.54 16.5022 1148.7 16.1476C1149.8 15.8112 1150.92 16.074 1151.79 17.0133C1152.48 17.7702 1152.48 18.8077 1151.48 19.7966C1150.89 20.3853 1150.9 20.8236 1151.23 21.4883C1151.69 22.4431 1151.63 23.4138 1151.29 24.4307C1150.41 27.087 1149.94 29.8442 1149.32 32.5575C1149.15 33.2873 1148.78 33.629 1147.98 33.4362C1147.32 33.2785 1146.9 33.6607 1146.91 34.2778C1146.93 35.436 1146.48 36.6413 1147.21 37.7512C1147.46 38.1212 1147.13 38.3241 1146.85 38.4998C1146.2 38.8922 1145.46 38.8601 1144.79 38.7739C1144.09 38.6835 1143.91 38.9974 1143.79 39.5168C1143.52 40.6899 1143.41 41.8845 1143.06 43.049C1142.74 44.0747 1141.97 44.5973 1141.26 45.218C1140.89 45.5373 1139.93 44.7952 1139.68 44.0138C1139.54 43.5896 1139.67 42.9271 1139.3 42.768C1138.9 42.6045 1138.56 43.1831 1138.18 43.4175C1137.33 43.936 1137.09 43.7851 1137 42.8151C1136.84 41.0494 1137.49 39.4854 1138.15 37.9169C1138.66 36.6979 1138.62 36.5863 1137.41 35.9796C1135.95 35.2445 1135.87 34.2565 1137.09 33.1234C1137.92 32.4038 1138.64 31.5774 1139.56 30.6247ZM1138.31 41.9902C1139.03 41.2488 1139.59 40.6243 1140.21 40.0488C1140.4 39.8735 1140.7 39.6349 1140.97 39.7767C1141.29 39.9451 1141.24 40.3344 1141.22 40.6476C1141.16 41.3858 1140.79 42.0853 1140.93 42.8449C1140.99 43.1666 1140.83 43.6906 1141.32 43.7061C1141.76 43.7262 1141.84 43.2384 1141.95 42.8621C1142.42 41.2722 1142.53 39.5991 1143.09 38.0265C1143.45 37.0409 1143.79 36.7664 1144.76 37.2088C1145.35 37.4787 1145.6 37.2807 1145.54 36.7264C1145.36 35.2515 1145.87 33.8447 1145.92 32.4178C1146.02 29.5014 1147.04 26.8489 1148 24.1653C1148.06 23.995 1147.86 23.5264 1148.33 23.7164C1148.66 23.8445 1149 24.1782 1148.86 24.5456C1148.34 25.863 1148.36 27.3208 1147.72 28.5986C1147.24 29.5356 1147.08 30.5248 1147.45 31.5471C1147.55 31.806 1147.53 32.2086 1147.89 32.1755C1148.22 32.147 1148.2 31.7715 1148.25 31.485C1148.69 28.956 1149.37 26.493 1150.27 24.0958C1150.6 23.2311 1149.94 21.2085 1149.2 21.1808C1148.05 21.1552 1147 20.7266 1145.89 20.5354C1145.39 20.4484 1144.98 20.7143 1144.57 21.0652C1142.48 22.8018 1141.19 25.0755 1140.04 27.4515C1139.76 28.0388 1139.21 28.5245 1139.26 29.3426C1140.05 29.2403 1140.13 28.2784 1140.84 28.1139C1141.39 27.9859 1141.68 27.4792 1142 26.9901C1142.7 25.9312 1143.03 24.646 1144 23.7513C1144.32 23.4545 1144.63 23.1176 1145.09 23.4865C1145.51 23.8288 1145.25 24.1699 1145.05 24.5153C1144.64 25.1747 1144.22 25.8253 1143.85 26.5114C1143.22 27.6951 1142.82 28.9896 1141.8 29.9606C1140.68 31.0261 1139.61 32.145 1138.57 33.2816C1137.51 34.4451 1137.6 34.722 1139.05 35.2917C1139.34 35.4021 1139.65 35.4676 1139.96 35.5645C1140.31 35.6701 1140.45 35.9064 1140.17 36.1806C1139.63 36.7065 1139.53 37.4494 1139.32 38.09C1138.89 39.2951 1138.24 40.4834 1138.31 41.9902ZM1148.22 18.0507C1147.62 19.1941 1148.82 19.4609 1149.3 19.7671C1150.17 20.3218 1150.59 19.2107 1151.03 18.7344C1151.48 18.2537 1150.98 17.6971 1150.44 17.4091C1149.53 16.9127 1148.67 17.1675 1148.22 18.0507Z"
              fill="#000022"/>
        <path d="M1152.25 48.759C1153.32 47.4926 1153.98 45.9464 1155.18 44.7642C1155.75 44.2069 1156.08 43.436 1156.52 42.7496C1156.6 42.6329 1156.68 42.4715 1156.52 42.3829C1156.42 42.3208 1156.24 42.3216 1156.14 42.3713C1155.49 42.6519 1154.86 42.9993 1154.2 43.2441C1153.82 43.3891 1153.4 43.8384 1152.97 43.2725C1152.56 42.7245 1152.47 42.0407 1152.94 41.6269C1154.5 40.2373 1155.73 38.3797 1157.94 37.8053C1158.5 37.6594 1158.77 37.3718 1158.93 36.736C1159.42 34.7032 1161.89 33.8457 1163.39 35.1218C1164.47 36.0466 1164.24 37.5057 1162.81 38.4609C1162.35 38.7673 1162.07 38.7642 1162.65 39.4098C1163.58 40.4338 1163.56 41.8963 1163.59 43.2289C1163.61 44.0427 1163.54 44.857 1163.82 45.6382C1164 46.174 1163.81 46.5282 1163.38 46.8166C1162.87 47.1546 1162.7 46.6276 1162.42 46.4412C1162.09 46.2237 1161.8 45.9613 1161.48 45.7348C1160.48 45.0153 1160.37 45.0516 1160.13 46.305C1159.9 47.5181 1160.66 48.6279 1160.56 49.8538C1160.52 50.413 1160.62 50.9849 1160.64 51.5528C1160.67 52.4292 1160.11 52.8077 1159.37 53.0215C1158.58 53.249 1158.41 52.6148 1158.17 52.1196C1157.78 51.2897 1157.43 50.4373 1157.02 49.6119C1156.68 48.8936 1156.21 48.6947 1155.54 49.3017C1154.85 49.9313 1154.01 50.32 1153.2 50.7802C1152.84 50.9832 1152.42 51.1866 1152.1 50.9825C1151.71 50.7473 1151.97 50.272 1151.97 49.8919C1151.95 49.4805 1152.09 49.1265 1152.25 48.759ZM1162.31 44.9078C1162.44 44.1782 1162.37 43.6419 1162.41 43.114C1162.59 40.4163 1160.19 38.3039 1157.77 39.0628C1156.18 39.5581 1155.17 40.8556 1153.87 42.0785C1154.24 42.1035 1154.39 42.1654 1154.49 42.1157C1155.28 41.7227 1156.06 41.3073 1156.83 40.8966C1157.36 40.6122 1157.85 40.4711 1158.36 40.9829C1158.91 41.5303 1158.51 41.9348 1158.23 42.3565C1157.78 43.0251 1157.34 43.7026 1156.83 44.3312C1155.65 45.7861 1154.49 47.2587 1153.46 48.8201C1153.33 49.0131 1153.09 49.2513 1153.37 49.4601C1153.56 49.5978 1153.76 49.4045 1153.93 49.2784C1154.51 48.8596 1155.09 48.4543 1155.66 48.0445C1157.08 47.0178 1157.58 47.1852 1158.1 48.9044C1158.38 49.8243 1158.85 50.6359 1159.37 51.5412C1159.79 49.8531 1158.88 48.4534 1158.96 46.9324C1159.02 45.8677 1159.52 44.8903 1159.39 43.7863C1159.34 43.4154 1159.75 43.0824 1160.12 42.942C1160.53 42.7879 1160.73 43.1089 1160.96 43.4029C1161.33 43.8975 1161.77 44.3291 1162.31 44.9078ZM1162.79 37.1372C1162.94 36.5954 1162.83 36.1978 1162.3 35.9679C1161.5 35.6186 1160.64 35.8599 1160.39 36.5499C1160.13 37.2398 1160.74 37.6527 1161.01 38.1613C1161.14 38.4066 1162.59 37.572 1162.79 37.1372Z"
              fill="#000022"/>
    </g>
    <g clip-path="url(#clip2)">
        <path d="M37.9738 300.926C38.2972 304.097 38.6018 307.673 37.8961 311.277C37.3583 314.037 36.9617 316.807 35.5238 319.305C34.5974 320.916 33.3871 322.323 32.3987 323.873C31.6286 325.074 30.9892 326.302 29.5078 326.776C26.9423 327.592 24.3843 327.418 21.8334 326.734C19.9937 326.236 18.2497 325.452 16.4025 324.926C15.4372 324.65 14.6666 323.754 13.7611 323.232C9.65501 320.821 6.29266 317.585 4.9055 313.039C3.37766 308.067 2.56534 302.88 5.45605 297.941C7.21268 294.944 9.90775 293.016 12.8806 291.448C16.5066 289.543 20.4492 288.866 24.5078 288.699C27.6975 288.571 30.3295 289.45 32.6068 291.886C37.1727 296.8 36.9732 297.761 37.9738 300.926ZM18.2693 291.417C16.2656 291.779 15.0536 292.461 13.8231 293.071C8.72772 295.618 4.85911 299.035 5.02456 305.422C5.14452 310.017 6.08078 314.309 9.48322 317.58C13.5495 321.513 18.4531 324.028 24.0088 325.063C25.1584 325.276 26.5536 325.903 27.5742 325.316C29.9044 324.007 31.9967 322.373 33.3917 319.947C35.5451 316.216 36.5372 312.167 36.7604 307.947C37.015 303.07 36.4306 298.348 32.8651 294.564C30.9747 292.553 29.0352 290.771 25.9879 290.554C23.1001 290.357 20.4273 291.354 18.2693 291.417Z"
              fill="#000022"/>
        <path d="M26.3443 316.474C23.0416 317.001 19.9231 316.448 17.0316 314.741C16.7225 314.559 16.4199 314.282 16.2475 313.972C15.8401 313.229 16.0182 312.304 16.5039 311.855C17.0651 311.34 17.2639 312.291 17.5958 312.622C19.0658 314.078 24.4824 315.412 26.1384 314.538C27.2388 313.962 27.6097 312.648 28.1669 311.579C28.8815 310.223 29.2002 308.707 29.3122 307.167C29.3553 306.616 29.4637 306.079 30.188 306.078C31.1334 306.096 30.7619 306.809 30.7505 307.244C30.6136 310.363 29.3039 313.059 27.6491 315.614C27.3411 316.094 26.8723 316.369 26.3443 316.474Z"
              fill="#000022"/>
        <path d="M24.376 301.115C23.8811 301.289 22.649 302.192 22.8909 300.079C22.986 299.191 25.9525 298.257 26.5259 298.926C27.0737 299.556 27.1299 300.313 26.2021 300.721C25.7906 300.92 25.3018 300.938 24.376 301.115Z"
              fill="#000022"/>
        <path d="M14.9265 305.014C14.258 305.233 13.8197 305.207 13.5885 304.788C13.2841 304.265 13.5078 303.637 13.9006 303.366C14.6862 302.825 15.6881 302.644 16.4471 301.939C16.7709 301.64 17.5049 301.975 17.8088 302.437C18.1127 302.898 17.6402 303.159 17.3854 303.486C16.6929 304.389 15.4612 304.337 14.9265 305.014Z"
              fill="#000022"/>
    </g>
    <g clip-path="url(#clip3)">
        <path d="M1014.47 286.309C1016.02 286.555 1016.72 287.889 1017.76 288.83C1019 289.966 1018.26 291.728 1019.29 292.886C1020.54 294.255 1020.18 296.011 1020.44 297.646C1020.72 299.356 1021.27 301.052 1021.38 302.8C1021.65 307.201 1020.48 311.177 1017.74 314.698C1017.16 315.435 1015.83 316.089 1016.64 317.482C1016.67 317.543 1016.5 317.779 1016.37 317.863C1013.15 320.103 1010.59 323.175 1007.07 325.032C1002.54 327.445 997.771 327.799 992.846 326.704C987.454 325.518 982.851 322.805 978.333 319.689C974.666 317.16 972.351 313.967 970.142 310.178C967.136 305.036 967.734 299.875 968.871 294.748C969.787 290.61 972.453 287.16 975.519 284.112C979.163 280.461 983.507 278.243 988.429 276.894C993.075 275.61 997.77 275.179 1002.44 276.378C1004.86 277.003 1007.14 278.208 1009.31 279.591C1011.96 281.271 1014.2 283.366 1016.36 285.582C1016.75 285.978 1017.19 286.326 1017.33 286.98C1015.41 286.597 1014.97 284.271 1013.07 283.809C1013.02 285.032 1014.64 285.235 1014.51 286.39C1013.38 285.431 1012.23 284.482 1011.1 283.523C1010.68 283.166 1009.86 282.709 1009.91 282.444C1010.41 280.187 1008.63 280.473 1007.45 279.963C1007.28 281.34 1008.09 282.227 1008.7 283.177C1011.29 287.158 1013.32 291.282 1013.04 296.242C1012.89 298.63 1013.13 298.718 1015.66 298.48C1016.54 298.394 1017.42 298.288 1018.3 298.251C1019.1 298.216 1019.38 297.835 1019.28 297.078C1019.12 295.883 1019.11 294.708 1018.69 293.528C1017.67 290.853 1016.21 288.5 1014.47 286.309ZM1009.59 306.492C1010.31 304.754 1010.68 302.919 1011.16 301.108C1011.38 300.254 1011.05 300.148 1010.36 300.206C1005.9 300.591 1001.49 300.076 997.109 299.284C996.262 299.134 995.78 299.304 995.532 300.232C994.948 302.371 994.363 304.51 993.587 306.577C993.043 308.029 993.356 308.665 994.883 308.786C998.194 309.057 1001.46 309.615 1004.8 309.694C1008.29 309.749 1008.29 309.749 1009.59 306.492ZM993.122 302.422C993.151 302.433 993.181 302.444 993.216 302.44C993.518 301.366 993.727 300.274 994.117 299.233C994.458 298.323 994.154 297.975 993.339 297.653C990.281 296.439 987.42 294.881 985.287 292.274C984.665 291.523 984.385 291.869 983.936 292.487C981.921 295.227 981.316 298.446 980.495 301.617C980.288 302.392 980.748 302.815 981.252 303.122C984.126 304.868 986.974 306.639 990.288 307.481C991.206 307.708 991.634 307.417 991.868 306.568C992.257 305.175 992.704 303.804 993.122 302.422ZM970.55 294.642C969.549 300.388 969.373 305.407 972.448 310.273C974.723 313.886 980.619 319.794 983.652 320.447C980.077 317.048 978.706 312.587 978.429 307.883C978.242 305.037 978.503 302.559 975.484 300.841C973.325 299.597 971.897 297.338 970.55 294.642ZM997.776 293.045C997.776 293.045 997.791 293.05 997.776 293.045C997.499 293.827 997.252 294.621 996.902 295.376C996.255 296.789 996.676 297.583 998.187 297.748C1002.25 298.186 1006.3 299.05 1010.44 298.698C1011.27 298.625 1011.57 298.487 1011.53 297.534C1011.42 295.25 1010.96 293.038 1010.56 290.798C1010.41 289.92 1009.88 289.504 1008.9 289.572C1006.79 289.702 1004.69 289.718 1002.6 289.819C1001.41 289.874 1000.04 288.743 999.135 289.691C998.361 290.504 998.2 291.916 997.776 293.045ZM983.01 291.12C983.325 290.636 983.386 290.207 982.851 289.805C981.033 288.454 979.68 286.709 978.553 284.765C978.166 284.101 977.755 283.947 977.011 284.638C975.409 286.145 974.179 287.908 973.002 289.708C972.487 290.502 971.549 291.354 971.804 292.369C972.718 295.907 975.134 298.385 977.964 300.517C978.446 300.882 978.886 300.913 979.062 300.176C979.846 296.924 980.904 293.792 983.01 291.12ZM1012.05 319.438C1011.86 319.267 1011.78 319.121 1011.71 319.128C1008.9 319.361 1006.07 319.623 1003.25 319.652C1002.85 319.652 1002.37 319.907 1002.05 320.172C1000.56 321.42 998.704 321.877 996.963 322.595C996.349 322.85 995.847 322.762 995.299 322.306C996.741 321.09 998.505 320.715 1000.36 319.604C997.825 319.272 995.704 318.995 993.578 318.733C990.702 318.374 990.603 318.37 990.434 321.184C990.379 322.133 990.669 323.814 991.208 323.983C993.924 324.901 996.76 325.546 999.678 325.303C1004.49 324.881 1008.42 322.629 1012.05 319.438ZM1007.78 311.246C1002.84 311.569 998.292 310.667 993.706 310.318C992.713 310.247 992.394 310.562 992.255 311.379C991.965 312.91 991.725 314.442 991.391 315.956C991.195 316.836 991.849 316.964 992.335 316.962C995.414 316.913 998.362 317.885 1001.41 318.042C1001.97 318.068 1002.38 317.969 1002.74 317.551C1004.46 315.638 1006.18 313.724 1007.78 311.246ZM996.851 290.741C997.518 289.987 997.313 289.108 997.72 288.424C997.921 288.065 997.778 287.777 997.417 287.625C995.718 286.937 994.562 285.517 993.092 284.531C992.303 284.001 991.809 283.983 991.035 284.529C989.132 285.856 987.666 287.58 986.218 289.345C985.694 289.985 985.84 290.308 986.39 290.848C988.456 292.878 990.655 294.639 993.408 295.772C994.741 296.322 995.292 296.278 995.452 294.916C995.61 293.336 996.812 292.181 996.851 290.741ZM1011.25 306.528C1011.01 307.173 1010.82 307.756 1010.58 308.317C1010.01 309.609 1010.62 309.736 1011.68 309.483C1013.85 308.974 1016.03 308.737 1018.23 308.561C1019.06 308.488 1019.48 308.142 1019.72 307.328C1020.34 305.185 1020.15 303.057 1019.88 300.916C1019.74 299.727 1019.22 299.316 1018 299.593C1016.99 299.833 1015.9 299.877 1014.85 299.868C1013.55 299.864 1013.02 300.518 1012.7 301.686C1012.24 303.319 1011.99 305.049 1011.25 306.528ZM984.699 314.4C985.887 314.845 987.067 315.355 988.283 315.727C989.091 315.98 989.679 315.883 989.905 314.746C990.198 313.251 990.167 311.684 990.81 310.236C991.238 309.275 990.418 309.185 989.74 309.031C987.407 308.474 985.194 307.594 983.145 306.324C982.264 305.776 981.221 304.632 980.453 305.03C979.538 305.506 980.128 306.965 980.246 307.946C980.705 311.447 981.109 313.672 984.699 314.4ZM984.315 288.665C984.777 288.906 984.942 288.599 985.131 288.319C985.985 287.067 987.169 286.14 988.262 285.144C989.231 284.254 990.912 283.697 991.253 282.654C991.655 281.449 989.965 280.381 989.532 279.081C989.507 278.971 989.481 278.861 989.455 278.751C989.287 278.22 989.006 278.165 988.447 278.273C985.392 278.883 982.726 280.326 980.217 282.111C980.014 282.252 979.693 282.215 979.687 282.631C979.693 283.687 983.205 288.282 984.315 288.665ZM1004.27 318.129C1006.99 317.927 1009.21 317.905 1011.38 317.564C1012.35 317.412 1013.58 317.572 1014.32 316.677C1015.85 314.876 1017.38 313.059 1018.54 310.966C1019.07 309.98 1018.67 309.811 1017.75 309.951C1015.34 310.352 1012.92 310.698 1010.5 311.079C1010.12 311.14 1009.79 311.182 1009.52 311.583C1008.01 313.743 1006.55 315.938 1004.27 318.129ZM1009.87 288.399C1007.55 285.22 1006.13 281.842 1003.74 278.84C1002.27 280.847 1001.18 282.898 1000.35 285.062C999.492 287.266 999.958 287.808 1002.36 288.175C1004.76 288.521 1007.13 288.356 1009.87 288.399ZM1002.74 277.395C1000.1 277.491 997.76 276.631 995.344 276.963C994.094 277.129 992.56 277.072 991.75 277.939C991.079 278.658 992.47 279.631 992.613 280.588C992.762 281.53 993.136 281.603 993.96 281.143C996.51 279.741 998.767 277.426 1002.13 278.27C1002.22 278.303 1002.43 277.865 1002.74 277.395ZM1001.28 279.69C998.73 279.888 996.712 280.854 994.756 282.01C994.219 282.327 993.986 282.725 994.534 283.182C995.559 284.017 996.356 285.103 997.52 285.79C998.189 286.191 998.376 286.094 998.647 285.326C999.307 283.433 1000.09 281.569 1001.28 279.69ZM982.897 316.082C984.025 318.161 985.722 319.299 986.888 320.874C987.151 321.24 987.63 321.704 988.112 321.534C988.589 321.378 988.369 320.76 988.444 320.337C988.526 319.849 988.556 319.325 988.765 318.902C989.347 317.749 988.704 317.457 987.76 317.254C986.266 316.911 984.769 316.533 982.897 316.082Z"
              fill="#000022"/>
    </g>
    <defs>
        <clipPath id="clip0">
            <rect width="40.83" height="47.07" fill="white" transform="translate(100 118.245) rotate(-54.3016)"/>
        </clipPath>
        <clipPath id="clip1">
            <rect width="56.16" height="33.07" fill="white" transform="translate(1123.96 0.206055) rotate(26.2811)"/>
        </clipPath>
        <clipPath id="clip2">
            <rect width="35.0895" height="38.9419" fill="white" transform="translate(0 294.181) rotate(-14.4483)"/>
        </clipPath>
        <clipPath id="clip3">
            <rect width="53.7157" height="50.8655" fill="white" transform="translate(978.951 267.469) rotate(20.5582)"/>
        </clipPath>
    </defs>
</svg>
