<svg width="10" height="11" viewBox="0 0 10 11" fill="none" xmlns="http://www.w3.org/2000/svg">
<g clip-path="url(#clip0)">
<path d="M8.75 4.66669C8.75 7.58335 5 10.0834 5 10.0834C5 10.0834 1.25 7.58335 1.25 4.66669C1.25 3.67212 1.64509 2.7183 2.34835 2.01504C3.05161 1.31178 4.00544 0.916687 5 0.916687C5.99456 0.916687 6.94839 1.31178 7.65165 2.01504C8.35491 2.7183 8.75 3.67212 8.75 4.66669Z" fill="#E62735"/>
<path d="M5 5.91669C5.69036 5.91669 6.25 5.35704 6.25 4.66669C6.25 3.97633 5.69036 3.41669 5 3.41669C4.30964 3.41669 3.75 3.97633 3.75 4.66669C3.75 5.35704 4.30964 5.91669 5 5.91669Z" fill="white"/>
</g>
<defs>
<clipPath id="clip0">
<rect width="10" height="10" fill="white" transform="translate(0 0.5)"/>
</clipPath>
</defs>
</svg>
