<svg width="9" height="10" viewBox="0 0 9 10" fill="none" xmlns="http://www.w3.org/2000/svg">
<path d="M8.43711 6.9755V8.2255C8.43758 8.34154 8.41381 8.4564 8.36732 8.56272C8.32083 8.66905 8.25265 8.76449 8.16714 8.84294C8.08163 8.92139 7.98068 8.98111 7.87075 9.01829C7.76082 9.05547 7.64434 9.06927 7.52877 9.05883C6.24662 8.91951 5.01502 8.48139 3.93294 7.77966C2.9262 7.13994 2.07266 6.2864 1.43294 5.27966C0.728763 4.19266 0.290541 2.95508 0.153773 1.66716C0.14336 1.55194 0.157054 1.43581 0.193981 1.32617C0.230908 1.21653 0.29026 1.11578 0.368258 1.03034C0.446256 0.944893 0.541191 0.876625 0.647019 0.82988C0.752846 0.783136 0.867248 0.758938 0.982939 0.758829H2.23294C2.43515 0.756839 2.63119 0.828446 2.78451 0.960301C2.93783 1.09216 3.03797 1.27527 3.06627 1.4755C3.11903 1.87552 3.21688 2.2683 3.35794 2.64633C3.414 2.79546 3.42613 2.95754 3.3929 3.11336C3.35967 3.26918 3.28247 3.41221 3.17044 3.5255L2.64127 4.05466C3.23442 5.09781 4.09813 5.96151 5.14127 6.55466L5.67044 6.0255C5.78373 5.91347 5.92675 5.83627 6.08257 5.80303C6.23839 5.7698 6.40047 5.78194 6.54961 5.838C6.92764 5.97906 7.32041 6.0769 7.72044 6.12966C7.92284 6.15822 8.10769 6.26016 8.23983 6.41612C8.37197 6.57207 8.44218 6.77115 8.43711 6.9755Z" fill="#E62735"/>
</svg>
